<?xml version="1.0" standalone="no"?>
<!DOCTYPE svg PUBLIC "-//W3C//DTD SVG 1.1//EN" "http://www.w3.org/Graphics/SVG/1.1/DTD/svg11.dtd" >
<svg xmlns="http://www.w3.org/2000/svg" xmlns:xlink="http://www.w3.org/1999/xlink" version="1.1">
<metadata>
Created by FontForge 20170731 at Mon Apr 16 17:40:48 2007
 By Aleksey,,,
Copyright (c) 2003 Symantec Corporation. All rights reserved.
</metadata>
<defs>
<font id="SymantecSans-Bold" horiz-adv-x="569" >
  <font-face 
    font-family="Symantec Sans"
    font-weight="700"
    font-stretch="normal"
    units-per-em="1000"
    panose-1="2 0 5 3 9 0 0 2 0 4"
    ascent="800"
    descent="-200"
    x-height="517"
    cap-height="703"
    bbox="-140 -265 1272 946"
    underline-thickness="50"
    underline-position="-200"
    unicode-range="U+000D-FB02"
  />
<missing-glyph horiz-adv-x="500" 
 />
    <glyph glyph-name=".notdef" horiz-adv-x="500" 
 />
    <glyph glyph-name=".null" horiz-adv-x="0" 
 />
    <glyph glyph-name=".null" horiz-adv-x="0" 
 />
    <glyph glyph-name="nonmarkingreturn" horiz-adv-x="333" 
 />
    <glyph glyph-name="CR" unicode="&#xd;" horiz-adv-x="235" 
 />
    <glyph glyph-name="space" unicode=" " horiz-adv-x="235" 
 />
    <glyph glyph-name="exclam" unicode="!" horiz-adv-x="326" 
d="M104 240l-23 463h165l-22 -463h-120zM163 -8q-37 0 -62 26t-25 62q0 38 25 63.5t62 25.5q36 0 61.5 -26t25.5 -63q0 -36 -25.5 -62t-61.5 -26z" />
    <glyph glyph-name="quotedbl" unicode="&#x22;" horiz-adv-x="404" 
d="M239 455l-12 248h131l-12 -248h-107zM58 455l-12 248h131l-12 -248h-107z" />
    <glyph glyph-name="numbersign" unicode="#" horiz-adv-x="562" 
d="M145 394h-88v114h100l19 176h88l-19 -176h112l19 176h88l-19 -176h84v-114h-97l-2 -26l-6 -54l-3 -26h86v-114h-99l-19 -174h-88l19 174h-111l-5 -44l-8 -86l-5 -44h-88q1 11 3 29t6 56t6 63l3 26h-88v114h101zM344 394h-111l-11 -106h111q1 7 2 18t3.5 34t3.5 38z" />
    <glyph glyph-name="dollar" unicode="$" horiz-adv-x="562" 
d="M258 -10q-79 4 -141.5 30.5t-99.5 64.5l81 101q27 -29 70 -49t90 -23v165q-46 15 -78 30t-64.5 40t-49.5 62.5t-17 86.5q0 89 59 140.5t150 55.5v75h60v-77q96 -9 177 -76l-80 -98q-47 41 -97 50v-158q37 -11 60 -20t55 -26.5t50 -37.5t31.5 -52.5t13.5 -72.5
q0 -87 -53 -143.5t-157 -65.5v-104h-60v102zM258 570q-71 -7 -71 -67q0 -27 16 -42.5t55 -30.5v140zM318 118q66 12 66 72q0 27 -15.5 42t-50.5 28v-142z" />
    <glyph glyph-name="percent" unicode="%" horiz-adv-x="919" 
d="M211 276q-83 0 -131 58.5t-48 149.5q0 93 47 151.5t132 58.5q82 0 130.5 -57.5t48.5 -147.5t-51 -151.5t-128 -61.5zM237 0l355 684h90l-355 -684h-90zM708 -10q-83 0 -131 58.5t-48 149.5q0 93 47 151.5t132 58.5q82 0 130.5 -57.5t48.5 -147.5t-51 -151.5t-128 -61.5z
M209 365q57 0 57 121q0 119 -56 119q-54 0 -54 -121q0 -66 13 -92.5t40 -26.5zM706 79q57 0 57 121q0 119 -56 119q-54 0 -54 -121q0 -66 13 -92.5t40 -26.5z" />
    <glyph glyph-name="ampersand" unicode="&#x26;" horiz-adv-x="699" 
d="M180 386q-35 79 -35 133q0 92 56 144t145 52q84 0 131 -46.5t47 -118.5q0 -116 -168 -192q56 -79 112 -129q28 57 40 127l115 -21q-18 -98 -62 -173q56 -32 110 -48l-39 -125q-86 18 -162 66q-84 -65 -192 -65q-117 0 -179.5 51.5t-62.5 139.5q0 72 37 120.5t107 84.5z
M307 440q48 24 67.5 51t19.5 62q0 54 -49 54q-28 0 -44 -20t-16 -57q0 -45 22 -90zM374 127q-82 73 -145 171q-46 -38 -46 -104q0 -43 27 -67t75 -24q49 0 89 24z" />
    <glyph glyph-name="quotesingle" unicode="'" horiz-adv-x="223" 
d="M58 455l-12 248h131l-12 -248h-107z" />
    <glyph glyph-name="parenleft" unicode="(" horiz-adv-x="314" 
d="M190 -138q-139 192 -139 437q0 256 136 444h126q-105 -184 -105 -444q0 -247 108 -437h-126z" />
    <glyph glyph-name="parenright" unicode=")" horiz-adv-x="314" 
d="M1 -138q105 184 105 440q0 251 -108 441h126q139 -192 139 -441q0 -252 -136 -440h-126z" />
    <glyph glyph-name="asterisk" unicode="*" horiz-adv-x="459" 
d="M165 353l-83 59l72 90l-106 28l29 96l107 -37l-8 114h107l-9 -114l108 37l29 -96l-107 -28l72 -90l-83 -59l-64 100z" />
    <glyph glyph-name="plus" unicode="+" horiz-adv-x="600" 
d="M238 41v191h-177v119h177v191h124v-191h177v-119h-177v-191h-124z" />
    <glyph glyph-name="comma" unicode="," horiz-adv-x="261" 
d="M95 -155l-40 48q29 24 47.5 52t18.5 49q-29 0 -52.5 25t-23.5 61q0 38 24.5 63.5t61.5 25.5q40 0 66 -30t26 -78q0 -131 -128 -216z" />
    <glyph glyph-name="hyphen" unicode="-" horiz-adv-x="363" 
d="M57 209v127h250v-127h-250z" />
    <glyph glyph-name="period" unicode="." horiz-adv-x="261" 
d="M132 -8q-37 0 -62 26t-25 62q0 38 25 63.5t62 25.5q36 0 61.5 -26t25.5 -63q0 -36 -25.5 -62t-61.5 -26z" />
    <glyph glyph-name="slash" unicode="/" horiz-adv-x="390" 
d="M-44 -138l315 911h127l-315 -911h-127z" />
    <glyph glyph-name="zero" unicode="0" horiz-adv-x="562" 
d="M280 -10q-121 0 -189.5 97.5t-68.5 262.5q0 160 68.5 252t191.5 92q121 0 189.5 -89.5t68.5 -251.5q0 -170 -65 -266.5t-195 -96.5zM282 108q53 0 77 52.5t24 183.5q0 127 -25.5 178.5t-76.5 51.5q-53 0 -77.5 -52.5t-24.5 -182.5q0 -127 25.5 -179t77.5 -52z" />
    <glyph glyph-name="one" unicode="1" horiz-adv-x="562" 
d="M111 0v103h115v427l-116 -37l-30 87l189 104h108v-581h106v-103h-372z" />
    <glyph glyph-name="two" unicode="2" horiz-adv-x="562" 
d="M49 0v138q173 142 232 208t59 127q0 88 -86 88q-41 0 -71 -11t-72 -37l-63 107q98 74 222 74q108 0 168 -57.5t60 -156.5q0 -96 -75 -179t-217 -178h301v-123h-458z" />
    <glyph glyph-name="three" unicode="3" horiz-adv-x="562" 
d="M254 -10q-137 0 -229 65l66 110q71 -47 158 -47q115 0 115 86q0 47 -32.5 70t-105.5 23h-33v110h32q121 0 121 81q0 39 -25 59t-68 20q-75 0 -145 -39l-56 107q52 31 97.5 45t108.5 14q109 0 173.5 -48t64.5 -136q0 -111 -124 -148q65 -12 105.5 -54.5t40.5 -108.5
q0 -100 -69.5 -154.5t-194.5 -54.5z" />
    <glyph glyph-name="four" unicode="4" horiz-adv-x="562" 
d="M308 0v151h-288v102l236 431h197v-416h88v-117h-92v-151h-141zM155 268h153v310z" />
    <glyph glyph-name="five" unicode="5" horiz-adv-x="562" 
d="M240 -10q-133 0 -210 61l57 111q71 -44 152 -44q62 0 95.5 31.5t33.5 93.5q0 57 -26.5 84.5t-71.5 27.5q-60 0 -102 -69l-112 40l26 358h392v-120h-277l-11 -143q41 44 118 44q100 0 159.5 -59t59.5 -165q0 -109 -74.5 -180t-208.5 -71z" />
    <glyph glyph-name="six" unicode="6" horiz-adv-x="562" 
d="M299 -10q-128 0 -199.5 87.5t-71.5 250.5q0 98 33 179.5t102.5 134t165.5 52.5q59 0 93 -8t74 -28l-45 -116q-58 26 -115 26q-134 0 -150 -190q60 70 144 70q97 0 152.5 -58t55.5 -155q0 -112 -64.5 -178.5t-174.5 -66.5zM292 106q96 0 96 120q0 55 -22.5 80t-71.5 25
q-70 0 -111 -59v-12q0 -154 109 -154z" />
    <glyph glyph-name="seven" unicode="7" horiz-adv-x="562" 
d="M82 0l269 561h-304v123h475v-86l-273 -598h-167z" />
    <glyph glyph-name="eight" unicode="8" horiz-adv-x="562" 
d="M401 363q75 -29 105.5 -68.5t30.5 -102.5q0 -100 -72.5 -151t-184.5 -51q-115 0 -185 51.5t-70 145.5q0 57 30.5 98t103.5 72q-110 57 -110 149q0 88 66.5 137.5t168.5 49.5t166 -49.5t64 -130.5q0 -94 -113 -150zM290 401q44 19 59.5 44.5t15.5 61.5q0 35 -21.5 56
t-62.5 21t-62 -21.5t-21 -57.5q0 -66 92 -104zM274 311q-53 -26 -74.5 -54.5t-21.5 -65.5q0 -44 28.5 -68.5t76.5 -24.5q47 0 74 24.5t27 66.5q0 40 -20.5 67t-89.5 55z" />
    <glyph glyph-name="nine" unicode="9" horiz-adv-x="562" 
d="M236 -10q-113 0 -191 56l56 107q63 -39 131 -39t103.5 46.5t45.5 146.5q-64 -62 -144 -62q-91 0 -150.5 62t-59.5 160q0 102 68 164.5t176 62.5q126 0 192.5 -85.5t66.5 -232.5q0 -82 -16.5 -150t-50.5 -122t-92 -84t-135 -30zM273 362q63 0 102 56v18q0 60 -26 101
t-78 41q-45 0 -69.5 -28t-24.5 -78q0 -110 96 -110z" />
    <glyph glyph-name="colon" unicode=":" horiz-adv-x="261" 
d="M132 291q-37 0 -62 26t-25 62q0 38 25 63.5t62 25.5q36 0 61.5 -26t25.5 -63q0 -36 -25.5 -62t-61.5 -26zM132 -8q-37 0 -62 26t-25 62q0 38 25 63.5t62 25.5q36 0 61.5 -26t25.5 -63q0 -36 -25.5 -62t-61.5 -26z" />
    <glyph glyph-name="semicolon" unicode=";" horiz-adv-x="261" 
d="M132 291q-37 0 -62 26t-25 62q0 38 25 63.5t62 25.5q36 0 61.5 -26t25.5 -63q0 -36 -25.5 -62t-61.5 -26zM95 -155l-40 48q29 24 47.5 52t18.5 49q-29 0 -52.5 25t-23.5 61q0 38 24.5 63.5t61.5 25.5q40 0 66 -30t26 -78q0 -131 -128 -216z" />
    <glyph glyph-name="less" unicode="&#x3c;" horiz-adv-x="600" 
d="M539 37l-478 189v122l478 189v-136l-338 -115l338 -115v-134z" />
    <glyph glyph-name="equal" unicode="=" horiz-adv-x="600" 
d="M75 341v119h449v-119h-449zM75 123v119h449v-119h-449z" />
    <glyph glyph-name="greater" unicode="&#x3e;" horiz-adv-x="600" 
d="M61 37v136l338 115l-338 115v134l478 -189v-122z" />
    <glyph glyph-name="question" unicode="?" horiz-adv-x="480" 
d="M149 240v35q0 62 16.5 95.5t50.5 60.5q28 22 37.5 30t19 25.5t9.5 39.5q0 61 -72 61q-61 0 -115 -37l-61 105q86 60 194 60q88 0 146 -47t58 -131q0 -56 -25 -93t-72 -74q-33 -26 -45.5 -46.5t-12.5 -54.5v-29h-128zM211 -8q-37 0 -62 26t-25 62q0 38 25 63.5t62 25.5
q36 0 61.5 -26t25.5 -63q0 -36 -25.5 -62t-61.5 -26z" />
    <glyph glyph-name="at" unicode="@" horiz-adv-x="845" 
d="M397 -110q-170 0 -264.5 103t-94.5 262q0 189 125 314t307 125q151 0 244 -92.5t93 -231.5q0 -149 -58 -224.5t-160 -75.5q-84 0 -116 58q-43 -55 -111 -55q-63 0 -96 39.5t-33 114.5q0 140 65 211t163 71q96 0 155 -40l-44 -251q-11 -58 40 -58q42 0 70.5 53.5
t28.5 153.5q0 110 -65.5 175.5t-181.5 65.5q-141 0 -231.5 -100.5t-90.5 -248.5q0 -132 66 -207.5t201 -75.5q88 0 189 46l37 -71q-106 -61 -238 -61zM397 175q29 0 51 20l36 207q-15 5 -35 5q-43 0 -67 -49.5t-24 -126.5q0 -29 8.5 -42.5t30.5 -13.5z" />
    <glyph glyph-name="A" unicode="A" horiz-adv-x="628" 
d="M203 164l-41 -164h-144l198 704h199l195 -704h-155l-41 164h-211zM385 277l-19 76l-38 152l-19 76l-77 -304h153z" />
    <glyph glyph-name="B" unicode="B" horiz-adv-x="618" 
d="M72 0v703h238q107 0 176 -46.5t69 -140.5q0 -109 -113 -148q64 -14 99 -59t35 -111q0 -98 -62 -148t-176 -50h-266zM223 421h78q99 0 99 85q0 82 -109 82h-68v-167zM223 115h83q111 0 111 94q0 103 -115 103h-79v-197z" />
    <glyph glyph-name="C" unicode="C" horiz-adv-x="617" 
d="M365 -10q-83 0 -145 29t-98 79.5t-53 113t-17 137.5q0 101 31.5 181.5t103 132.5t173.5 52q138 0 207 -80l-84 -103q-31 27 -56.5 38.5t-63.5 11.5q-77 0 -113 -59.5t-36 -185.5q0 -213 150 -213q63 0 132 65l85 -102q-88 -97 -216 -97z" />
    <glyph glyph-name="D" unicode="D" horiz-adv-x="657" 
d="M72 0v703h192q170 0 256.5 -90t86.5 -259q0 -170 -85 -262t-249 -92h-201zM224 122h34q105 0 147 51.5t42 180.5q0 117 -38 172t-138 55h-47v-459z" />
    <glyph glyph-name="E" unicode="E" horiz-adv-x="560" 
d="M72 0v703h434v-123h-283v-156h227v-120h-227v-181h301v-123h-452z" />
    <glyph glyph-name="F" unicode="F" horiz-adv-x="529" 
d="M72 0v703h428v-123h-276v-156h221v-120h-221v-304h-152z" />
    <glyph glyph-name="G" unicode="G" horiz-adv-x="662" 
d="M487 66q-62 -76 -153 -76q-96 0 -161.5 50t-94 128.5t-28.5 180.5q0 76 17.5 139.5t53.5 115.5t98 81.5t145 29.5q140 0 209 -77l-83 -103q-56 47 -127 47q-86 0 -118.5 -57t-32.5 -188q0 -221 138 -221q61 0 106 40v114h-100v120h252v-390h-94z" />
    <glyph glyph-name="H" unicode="H" horiz-adv-x="665" 
d="M72 0v703h152v-280h217v280h152v-703h-152v300h-217v-300h-152z" />
    <glyph glyph-name="I" unicode="I" horiz-adv-x="310" 
d="M79 0v703h152v-703h-152z" />
    <glyph glyph-name="J" unicode="J" horiz-adv-x="463" 
d="M191 -10q-117 0 -181 73l78 100q43 -40 94 -40q64 0 64 83v497h152v-493q0 -108 -52.5 -164t-154.5 -56z" />
    <glyph glyph-name="K" unicode="K" horiz-adv-x="631" 
d="M224 412l213 291h168l-222 -283l233 -420h-169l-177 322l-46 -33v-289h-152v703h152v-291z" />
    <glyph glyph-name="L" unicode="L" horiz-adv-x="523" 
d="M72 0v703h152v-580h275v-123h-427z" />
    <glyph glyph-name="M" unicode="M" horiz-adv-x="853" 
d="M72 0v703h224l99 -370q24 -90 36 -173q15 101 33 172l93 371h224v-703h-146v371l4 185q-31 -124 -45 -176l-105 -380h-132l-105 380l-44 176q4 -134 4 -185v-371h-140z" />
    <glyph glyph-name="N" unicode="N" horiz-adv-x="685" 
d="M72 0v703h171l236 -465q-6 99 -6 169v296h140v-703h-148l-259 510q6 -84 6 -169v-341h-140z" />
    <glyph glyph-name="O" unicode="O" horiz-adv-x="680" 
d="M340 -10q-139 0 -214.5 96t-75.5 260q0 159 76 264t214 105q140 0 215 -98.5t75 -257.5q0 -166 -76 -267.5t-214 -101.5zM338 116q132 0 132 239q0 234 -129 234q-132 0 -132 -240q0 -125 32.5 -179t96.5 -54z" />
    <glyph glyph-name="P" unicode="P" horiz-adv-x="606" 
d="M72 0v703h232q120 0 193.5 -52.5t73.5 -167.5q0 -111 -69.5 -162t-180.5 -51h-98v-270h-151zM223 388h79q59 0 87 23t28 74q0 96 -105 96h-89v-193z" />
    <glyph glyph-name="Q" unicode="Q" horiz-adv-x="680" 
d="M552 89l86 -92l-50 -55q-118 78 -119 78q-58 -30 -129 -30q-139 0 -214.5 96t-75.5 260q0 159 76 264t214 105q140 0 215 -98.5t75 -257.5q0 -169 -78 -270zM372 109l-68 71l85 83l64 -68q17 60 17 160q0 234 -129 234q-132 0 -132 -240q0 -130 33.5 -186.5t99.5 -56.5
q16 0 30 3z" />
    <glyph glyph-name="R" unicode="R" horiz-adv-x="640" 
d="M464 306l142 -306h-164l-127 282h-92v-282h-151v703h256q261 0 261 -215q0 -129 -125 -182zM223 398h103q57 0 83 22.5t26 69.5q0 91 -99 91h-113v-183z" />
    <glyph glyph-name="S" unicode="S" horiz-adv-x="591" 
d="M290 -10q-155 0 -260 77l67 110q84 -59 190 -59q52 0 82 20.5t30 57.5q0 10 -2 18t-7 15.5t-10 13t-15.5 11.5t-18 10t-23.5 10t-26.5 9.5l-31.5 10.5t-35 12q-37 13 -63 27.5t-53 38t-41 60t-14 83.5q0 95 66 147.5t174 52.5q130 0 211 -48l-51 -115q-76 36 -155 36
q-104 0 -104 -68q0 -16 6 -28t13 -20t25.5 -16t31 -12t41.5 -13q13 -4 20 -6q35 -11 60 -21t55 -28.5t49 -41.5t32 -58t13 -78q0 -94 -66.5 -151t-189.5 -57z" />
    <glyph glyph-name="T" unicode="T" horiz-adv-x="553" 
d="M201 0v580h-177v123h505v-123h-176v-580h-152z" />
    <glyph glyph-name="U" unicode="U" horiz-adv-x="642" 
d="M320 -10q-255 0 -255 275v438h152v-455q0 -65 22.5 -98.5t81.5 -33.5q58 0 80.5 33.5t22.5 98.5v455h153v-438q0 -275 -257 -275z" />
    <glyph glyph-name="V" unicode="V" horiz-adv-x="612" 
d="M217 0l-202 703h161l131 -528l146 528h144l-210 -703h-170z" />
    <glyph glyph-name="W" unicode="W" horiz-adv-x="890" 
d="M182 0l-161 703h155l91 -510l103 510h155l106 -510l96 510h142l-154 -703h-162l-107 484l-102 -484h-162z" />
    <glyph glyph-name="X" unicode="X" horiz-adv-x="587" 
d="M12 0l203 369l-188 334h168l105 -211l97 211h153l-179 -334l204 -369h-168l-120 234l-122 -234h-153z" />
    <glyph glyph-name="Y" unicode="Y" horiz-adv-x="599" 
d="M222 0v291l-212 412h165l131 -274l131 274h152l-215 -412v-291h-152z" />
    <glyph glyph-name="Z" unicode="Z" horiz-adv-x="559" 
d="M34 0v108l310 469h-296v126h473v-109l-312 -471h311v-123h-486z" />
    <glyph glyph-name="bracketleft" unicode="[" horiz-adv-x="333" 
d="M66 -138v881h247v-104h-104v-673h104v-104h-247z" />
    <glyph glyph-name="backslash" unicode="\" horiz-adv-x="390" 
d="M307 -138l-315 911h127l315 -911h-127z" />
    <glyph glyph-name="bracketright" unicode="]" horiz-adv-x="333" 
d="M20 -138v104h104v673h-104v104h247v-881h-247z" />
    <glyph glyph-name="asciicircum" unicode="^" horiz-adv-x="582" 
d="M426 476l-135 95l-133 -95h-108l203 227h76l203 -227h-106z" />
    <glyph glyph-name="underscore" unicode="_" horiz-adv-x="443" 
d="M-1 -148v98h445v-98h-445z" />
    <glyph glyph-name="grave" unicode="`" horiz-adv-x="300" 
d="M109 566l-109 137h176l33 -137h-100z" />
    <glyph glyph-name="a" unicode="a" horiz-adv-x="529" 
d="M321 331v13q0 35 -15.5 51t-53.5 16q-59 0 -145 -40l-52 100q100 58 210 58q103 0 155.5 -50.5t52.5 -143.5v-335h-94q-26 55 -27 55q-71 -65 -152 -65q-69 0 -115.5 40.5t-46.5 110.5q0 82 53 120q62 46 230 70zM321 128v109q-99 -20 -120 -44q-14 -15 -14 -41
q0 -55 53 -55q44 0 81 31z" />
    <glyph glyph-name="b" unicode="b" horiz-adv-x="576" 
d="M330 -10q-95 0 -146 74l-25 -64h-94v703h152v-238q20 26 55 45t73 19q87 0 140 -71.5t53 -186.5q0 -133 -54 -207t-154 -74zM289 98q93 0 93 165q0 143 -88 143q-42 0 -77 -39v-231q28 -38 72 -38z" />
    <glyph glyph-name="c" unicode="c" horiz-adv-x="488" 
d="M287 -10q-124 0 -186.5 73.5t-62.5 192.5t65 196t184 77q105 0 171 -58l-71 -101q-27 20 -47 27.5t-52 7.5q-93 0 -93 -147q0 -144 95 -144q51 0 103 41l73 -94q-71 -71 -179 -71z" />
    <glyph glyph-name="d" unicode="d" horiz-adv-x="576" 
d="M240 -10q-91 0 -146.5 72t-55.5 186q0 130 55 205.5t145 75.5q70 0 121 -53v227h152v-703h-94l-28 68q-34 -41 -68.5 -59.5t-80.5 -18.5zM282 98q40 0 77 42v234q-28 32 -74 32q-91 0 -91 -157q0 -151 88 -151z" />
    <glyph glyph-name="e" unicode="e" horiz-adv-x="544" 
d="M195 214q5 -53 29.5 -78t73.5 -25q27 0 54.5 8t41 15t40.5 22l60 -96q-31 -23 -53 -35.5t-63 -23.5t-91 -11q-114 0 -181.5 70.5t-67.5 192.5t64 199t176 77q115 0 172 -77t57 -198v-40h-312zM195 303h157q0 117 -75 117q-36 0 -56 -27.5t-26 -89.5z" />
    <glyph glyph-name="f" unicode="f" horiz-adv-x="378" 
d="M98 413h-74v104h74v37q0 171 175 171q50 0 95 -9l-16 -114q-30 5 -54 5q-48 0 -48 -55v-35h110v-104h-110v-413h-152v413z" />
    <glyph glyph-name="g" unicode="g" horiz-adv-x="538" 
d="M371 498l141 40v-113h-74q22 -39 22 -79q0 -82 -53 -131.5t-152 -49.5q-33 0 -62 6q-18 -13 -18 -30q0 -23 31 -26q16 -1 68.5 -5t85.5 -7q154 -17 154 -132q0 -81 -67.5 -124t-202.5 -43q-107 0 -164.5 33t-57.5 95q0 65 84 94q-48 28 -48 85q0 26 18.5 49t54.5 34
q-87 49 -87 152q0 79 60 131t148 52q68 0 119 -31zM252 264q76 0 76 84q0 38 -19.5 59t-55.5 21q-37 0 -57.5 -21t-20.5 -59q0 -41 20.5 -62.5t56.5 -21.5zM248 -99q129 0 129 53q0 25 -37 30q-77 11 -146 11q-19 0 -31 -12.5t-12 -31.5q0 -50 97 -50z" />
    <glyph glyph-name="h" unicode="h" 
d="M65 0v703h152v-242q64 68 145 68q148 0 148 -189v-340h-152v342q0 62 -52 62q-48 0 -89 -44v-360h-152z" />
    <glyph glyph-name="i" unicode="i" horiz-adv-x="294" 
d="M147 556q-38 0 -62.5 23.5t-24.5 55.5q0 31 24.5 55t62.5 24t62.5 -23.5t24.5 -55.5q0 -35 -24 -57t-63 -22zM71 0v517h152v-517h-152z" />
    <glyph glyph-name="j" unicode="j" horiz-adv-x="294" 
d="M147 556q-38 0 -62.5 23.5t-24.5 55.5q0 31 24.5 55t62.5 24t62.5 -23.5t24.5 -55.5q0 -35 -24 -57t-63 -22zM53 -189q-44 0 -79 10l10 107q27 -3 34 -3q29 0 41 15t12 53v524h152v-516q0 -96 -39.5 -143t-130.5 -47z" />
    <glyph glyph-name="k" unicode="k" horiz-adv-x="545" 
d="M217 199v-199h-152v703h152v-380l137 194h160l-151 -191l172 -326h-166l-112 228z" />
    <glyph glyph-name="l" unicode="l" horiz-adv-x="294" 
d="M71 0v703h152v-703h-152z" />
    <glyph glyph-name="m" unicode="m" horiz-adv-x="846" 
d="M483 449q75 80 160 80q79 0 111.5 -54t32.5 -135v-340h-152v342q0 62 -48 62q-38 0 -85 -42v-362h-152v342q0 62 -48 62q-44 0 -85 -44v-360h-152v517h94l30 -79q79 91 169 91t125 -80z" />
    <glyph glyph-name="n" unicode="n" 
d="M65 0v517h94l30 -79q79 91 173 91q148 0 148 -189v-340h-152v342q0 62 -52 62q-48 0 -89 -44v-360h-152z" />
    <glyph glyph-name="o" unicode="o" horiz-adv-x="565" 
d="M283 -10q-113 0 -179 72t-66 191q0 120 67 198t178 78q109 0 176.5 -73t67.5 -190q0 -124 -65 -200t-179 -76zM284 101q87 0 87 162q0 80 -21 117.5t-67 37.5q-88 0 -88 -158q0 -159 89 -159z" />
    <glyph glyph-name="p" unicode="p" horiz-adv-x="576" 
d="M65 -178v695h94l30 -73q65 85 149 85q93 0 146.5 -71t53.5 -187q0 -133 -53 -207t-151 -74q-76 0 -117 52v-220h-152zM289 98q93 0 93 165q0 143 -88 143q-42 0 -77 -39v-231q28 -38 72 -38z" />
    <glyph glyph-name="q" unicode="q" horiz-adv-x="576" 
d="M359 -178v227q-50 -59 -125 -59q-87 0 -141.5 72t-54.5 186q0 132 55 206.5t153 74.5q46 0 83.5 -22.5t61.5 -57.5l26 68h94v-695h-152zM282 98q40 0 77 42v231q-27 35 -75 35q-90 0 -90 -157q0 -151 88 -151z" />
    <glyph glyph-name="r" unicode="r" horiz-adv-x="410" 
d="M65 0v517h89l43 -111q54 118 158 118h24v-146q-14 2 -26 2q-136 0 -136 -155v-225h-152z" />
    <glyph glyph-name="s" unicode="s" horiz-adv-x="493" 
d="M233 -10q-52 0 -109 14t-96 43l54 99q63 -40 157 -40q76 0 76 41q0 6 -1 10t-4 8t-6.5 6.5t-10 5.5t-12.5 5t-16.5 5t-19 5t-22.5 5.5l-26 6.5q-74 19 -113.5 56t-39.5 109q0 80 58 120t148 40q116 0 184 -37l-44 -103q-66 27 -137 27q-73 0 -73 -38q0 -20 21 -29.5
t72 -20.5q88 -19 135.5 -56.5t47.5 -116.5q0 -81 -58.5 -123t-164.5 -42z" />
    <glyph glyph-name="t" unicode="t" horiz-adv-x="402" 
d="M99 413h-76v104h78l26 147h124v-147h110v-104h-110v-249q0 -34 11 -47t45 -13q19 0 53 10l18 -105q-57 -19 -116 -19q-163 0 -163 166v257z" />
    <glyph glyph-name="u" unicode="u" 
d="M213 -10q-154 0 -154 187v340h152v-339q0 -62 56 -62q45 0 85 33v368h152v-517h-94l-30 71q-78 -81 -167 -81z" />
    <glyph glyph-name="v" unicode="v" horiz-adv-x="504" 
d="M177 0l-165 517h157l88 -356l88 356h147l-165 -517h-150z" />
    <glyph glyph-name="w" unicode="w" horiz-adv-x="771" 
d="M162 0l-148 517h154l73 -348l76 348h145l72 -348l79 348h144l-147 -517h-150l-75 360l-77 -360h-146z" />
    <glyph glyph-name="x" unicode="x" horiz-adv-x="525" 
d="M12 0l168 269l-152 248h167l76 -149l76 149h152l-152 -248l166 -269h-167l-88 168l-93 -168h-153z" />
    <glyph glyph-name="y" unicode="y" horiz-adv-x="507" 
d="M201 -24l-189 541h157l97 -378l82 378h147l-155 -524q-54 -182 -225 -182q-40 0 -85 9l16 106q40 -4 51 -4q41 0 64 12.5t40 41.5z" />
    <glyph glyph-name="z" unicode="z" horiz-adv-x="497" 
d="M41 0v107l234 302h-219v109h398v-99l-233 -305h235v-114h-415z" />
    <glyph glyph-name="braceleft" unicode="{" horiz-adv-x="333" 
d="M265 -138q-97 0 -146.5 46t-29.5 147l26 131q7 37 -5 55t-45 18h-48v97h48q65 0 50 73l-26 121q-21 98 29.5 145.5t146.5 47.5h48v-104h-32q-30 0 -41.5 -15.5t-8.5 -50.5l11 -126q6 -66 -12.5 -96.5t-64.5 -43.5q47 -11 65 -40t12 -99l-11 -136q-3 -35 8.5 -50.5
t41.5 -15.5h32v-104h-48z" />
    <glyph glyph-name="bar" unicode="|" horiz-adv-x="338" 
d="M116 -138v881h106v-881h-106z" />
    <glyph glyph-name="braceright" unicode="}" horiz-adv-x="333" 
d="M20 -138v104h32q30 0 41.5 15.5t8.5 50.5l-11 136q-6 70 12 99t65 40q-46 13 -64.5 43.5t-12.5 96.5l11 126q3 35 -8.5 50.5t-41.5 15.5h-32v104h48q96 0 146.5 -47.5t29.5 -145.5l-26 -121q-15 -73 50 -73h48v-97h-48q-33 0 -45 -18t-5 -55l26 -131
q20 -102 -29.5 -147.5t-146.5 -45.5h-48z" />
    <glyph glyph-name="asciitilde" unicode="~" horiz-adv-x="481" 
d="M323 229q-33 0 -86 25t-71 25q-31 0 -38 -49h-87q0 77 30.5 124.5t85.5 47.5q33 0 87.5 -25t73.5 -25q28 0 35 51h87q0 -79 -29 -126.5t-88 -47.5z" />
    <glyph glyph-name="uni00A0" unicode="&#xa0;" horiz-adv-x="235" 
 />
    <glyph glyph-name="exclamdown" unicode="&#xa1;" horiz-adv-x="326" 
d="M163 408q-36 0 -61.5 26t-25.5 63q0 36 25.5 62t61.5 26q37 0 62 -26t25 -62q0 -38 -25 -63.5t-62 -25.5zM80 -126l22 463h120l23 -463h-165z" />
    <glyph glyph-name="cent" unicode="&#xa2;" horiz-adv-x="562" 
d="M291 -9q-111 9 -169.5 82t-58.5 183t60.5 186t167.5 86v80h60v-80q88 -7 148 -67l-77 -95q-40 34 -71 39v-290q36 6 77 42l77 -88q-59 -69 -154 -77v-104h-60v103zM291 403q-68 -20 -68 -145q0 -124 68 -143v288z" />
    <glyph glyph-name="sterling" unicode="&#xa3;" horiz-adv-x="562" 
d="M294 269v-11q0 -81 -70 -135h277v-123h-445v128q92 52 92 127v14h-97v119h63q-23 63 -23 111q0 92 56 143.5t164 51.5q69 0 115.5 -14t91.5 -46l-61 -109q-72 39 -125 39q-83 0 -83 -76q0 -44 16 -100h152v-119h-123z" />
    <glyph glyph-name="currency" unicode="&#xa4;" horiz-adv-x="562" 
d="M80 371h-49v84h58q45 239 266 239q98 0 170 -65l-74 -97q-45 35 -104 35q-46 0 -70.5 -26t-34.5 -86h172l-21 -84h-158v-39v-23h143l-21 -84h-115q10 -57 37 -82.5t77 -25.5q36 0 59.5 12t48.5 35l74 -100q-70 -74 -185 -74q-113 0 -178 63t-86 172h-58v84h49q-1 9 -1 28
q0 23 1 34z" />
    <glyph glyph-name="yen" unicode="&#xa5;" horiz-adv-x="565" 
d="M358 264v-53h147v-84h-147v-127h-152v127h-141v84h141v53h-141v84h111l-162 336h165l110 -274l110 274h152l-163 -336h117v-84h-147z" />
    <glyph glyph-name="brokenbar" unicode="&#xa6;" horiz-adv-x="337" 
d="M116 346v357h106v-357h-106zM116 -181v357h106v-357h-106z" />
    <glyph glyph-name="section" unicode="&#xa7;" horiz-adv-x="554" 
d="M125 410q-41 46 -41 110q0 81 61 127.5t152 46.5q102 0 174 -49l-56 -111q-61 34 -118 34q-73 0 -73 -46q0 -12 3.5 -20t15 -16.5t21 -13.5t35 -16.5t42.5 -20.5q94 -47 130.5 -92t36.5 -122q0 -75 -75 -126q42 -45 42 -111q0 -82 -56.5 -127.5t-158.5 -45.5
q-116 0 -191 49l58 109q54 -32 129 -32q79 0 79 43q0 8 -1.5 13.5t-6.5 11.5t-9.5 10t-16.5 10.5t-21.5 11.5t-29.5 15.5t-36 18.5q-95 51 -131.5 95.5t-36.5 116.5q0 76 79 127zM346 159q27 16 27 51q0 34 -19.5 53.5t-82.5 53.5q-42 22 -62 33q-28 -21 -28 -54
q0 -32 19 -50.5t84 -53.5q42 -22 62 -33z" />
    <glyph glyph-name="dieresis" unicode="&#xa8;" horiz-adv-x="294" 
d="M252 560q-36 0 -57 22t-21 53q0 30 21 52.5t57 22.5t57 -22t21 -53q0 -34 -20.5 -54.5t-57.5 -20.5zM42 560q-36 0 -57 22t-21 53q0 30 21 52.5t57 22.5t57 -22t21 -53q0 -34 -20.5 -54.5t-57.5 -20.5z" />
    <glyph glyph-name="copyright" unicode="&#xa9;" horiz-adv-x="783" 
d="M391 -13q-148 0 -246.5 106t-98.5 259q0 156 101.5 260.5t244.5 104.5q147 0 246 -106t99 -259q0 -157 -101.5 -261t-244.5 -104zM388 36q124 0 209.5 88.5t85.5 224.5q0 138 -86 228.5t-209 90.5t-205.5 -90t-82.5 -229q0 -137 82.5 -225t205.5 -88zM406 121
q-60 0 -103 20t-65 54.5t-31.5 71.5t-9.5 80q0 97 49 167t152 70q88 0 145 -57l-68 -87q-37 28 -67 28q-39 0 -54.5 -28.5t-15.5 -102.5q0 -100 70 -100q33 0 66 33l75 -81q-55 -68 -143 -68z" />
    <glyph glyph-name="ordfeminine" unicode="&#xaa;" horiz-adv-x="460" 
d="M271 535v10q0 27 -12 39.5t-41 12.5q-43 0 -116 -34l-42 83q86 48 168 48q87 0 128 -40t41 -121v-263h-78l-22 44q-50 -52 -121 -52q-56 0 -93 31t-37 87q0 66 42 98q54 39 183 57zM271 373v88q-73 -16 -91 -35q-13 -15 -13 -34q0 -42 43 -42q34 0 61 23z" />
    <glyph glyph-name="guillemotleft" unicode="&#xab;" horiz-adv-x="535" 
d="M363 36l-114 210l112 214h131l-110 -214l113 -210h-132zM150 36l-114 210l112 214h131l-110 -214l113 -210h-132z" />
    <glyph glyph-name="logicalnot" unicode="&#xac;" horiz-adv-x="673" 
d="M146 417q-72 0 -114 29l37 66q30 -20 75 -20q28 0 28 12q0 8 -9.5 12t-38.5 12q-6 1 -9 2q-21 5 -35.5 12.5t-26.5 27.5t-12 49q0 44 31 67t85 23t90 -18l-26 -68q-31 11 -63 11q-31 0 -31 -12q0 -4 2 -6.5t6.5 -4.5t9 -3t13.5 -2.5t15 -3.5q89 -21 89 -96
q0 -38 -30 -63.5t-86 -25.5zM302 422v281h130l35 -167l30 167h131v-281h-88v172l-41 -172h-73l-41 172v-172h-83z" />
    <glyph glyph-name="uni00AD" unicode="&#xad;" horiz-adv-x="363" 
d="M57 209v127h250v-127h-250z" />
    <glyph glyph-name="registered" unicode="&#xae;" horiz-adv-x="467" 
d="M234 335q-78 0 -134.5 56.5t-56.5 133.5q0 79 56 134.5t135 55.5q78 0 133.5 -55.5t55.5 -134.5q0 -78 -55.5 -134t-133.5 -56zM234 365q66 0 110 46t44 114q0 69 -44 115t-110 46q-68 0 -112.5 -46t-44.5 -115q0 -68 44.5 -114t112.5 -46zM290 508l40 -84h-65l-32 72
h-22v-72h-60v206h91q81 0 81 -70q0 -36 -33 -52zM211 540h28q22 0 22 21t-21 21h-29v-42z" />
    <glyph glyph-name="macron" unicode="&#xaf;" horiz-adv-x="300" 
d="M33 587v104h234v-104h-234z" />
    <glyph glyph-name="degree" unicode="&#xb0;" horiz-adv-x="392" 
d="M197 427q-62 0 -104 41.5t-42 101.5t42 101.5t104 41.5t104 -41.5t42 -101.5t-42 -101.5t-104 -41.5zM197 498q29 0 46.5 20.5t17.5 51.5t-17.5 51.5t-46.5 20.5t-46.5 -20.5t-17.5 -51.5t17.5 -51.5t46.5 -20.5z" />
    <glyph glyph-name="plusminus" unicode="&#xb1;" horiz-adv-x="600" 
d="M238 191v141h-177v119h177v141h124v-141h177v-119h-177v-141h-124zM61 25v119h478v-119h-478z" />
    <glyph glyph-name="uni00B2" unicode="&#xb2;" horiz-adv-x="357" 
d="M35 274v105q101 69 134.5 99.5t33.5 66.5q0 22 -13.5 34t-33.5 12q-31 0 -86 -29l-45 78q65 50 145 50q72 0 112.5 -38t40.5 -95q0 -110 -157 -192h160v-91h-291z" />
    <glyph glyph-name="uni00B3" unicode="&#xb3;" horiz-adv-x="357" 
d="M169 267q-93 0 -145 37l45 81q36 -22 84 -22q26 0 42 11t16 29q0 38 -63 38h-25v86h24q26 0 40.5 10t14.5 26q0 34 -43 34q-46 0 -84 -22l-44 73q61 42 145 42q61 0 99.5 -29.5t38.5 -76.5q0 -35 -20.5 -58.5t-53.5 -32.5q39 -7 63.5 -32.5t24.5 -66.5q0 -61 -43.5 -94
t-115.5 -33z" />
    <glyph glyph-name="acute" unicode="&#xb4;" horiz-adv-x="300" 
d="M91 566l33 137h176l-109 -137h-100z" />
    <glyph glyph-name="mu" unicode="&#xb5;" 
d="M59 -178v695h152v-339q0 -62 56 -62q45 0 85 33v368h152v-517h-94l-30 71q-40 -42 -68.5 -60t-69.5 -18q-22 0 -41 9l10 -180h-152z" />
    <glyph glyph-name="paragraph" unicode="&#xb6;" horiz-adv-x="630" 
d="M266 -178l1 465q-108 0 -170 59t-62 152q0 92 60 148.5t158 56.5h349v-95h-66v-786h-98v786h-74v-786h-98z" />
    <glyph glyph-name="periodcentered" unicode="&#xb7;" horiz-adv-x="261" 
d="M132 222q-37 0 -62 26t-25 62q0 38 25 63.5t62 25.5q36 0 61.5 -26t25.5 -63q0 -36 -25.5 -62t-61.5 -26z" />
    <glyph glyph-name="cedilla" unicode="&#xb8;" horiz-adv-x="300" 
d="M152 -199q-50 0 -80 16l17 51q23 -8 42 -8q35 0 35 26q0 28 -63 29l32 85h59l-20 -41q37 -4 58 -24t21 -52q0 -38 -28 -60t-73 -22z" />
    <glyph glyph-name="uni00B9" unicode="&#xb9;" horiz-adv-x="357" 
d="M68 274v75h61v224l-62 -20l-26 66l119 65h83v-335h56v-75h-231z" />
    <glyph glyph-name="ordmasculine" unicode="&#xba;" horiz-adv-x="483" 
d="M241 262q-91 0 -144 57.5t-53 152.5q0 97 54 159.5t143 62.5t143.5 -58.5t54.5 -151.5q0 -100 -53 -161t-145 -61zM242 353q68 0 68 127q0 64 -16.5 93.5t-52.5 29.5q-68 0 -68 -124q0 -126 69 -126z" />
    <glyph glyph-name="guillemotright" unicode="&#xbb;" horiz-adv-x="535" 
d="M256 36l110 214l-113 210h132l114 -210l-112 -214h-131zM43 36l110 214l-113 210h132l114 -210l-112 -214h-131z" />
    <glyph glyph-name="onequarter" unicode="&#xbc;" horiz-adv-x="899" 
d="M68 274v75h61v224l-62 -20l-26 66l119 65h83v-335h56v-75h-231zM238 0l355 684h90l-355 -684h-90zM710 0v79h-179v78l141 253h148v-243h48v-88h-53v-79h-105zM632 167h78v158z" />
    <glyph glyph-name="onehalf" unicode="&#xbd;" horiz-adv-x="899" 
d="M68 274v75h61v224l-62 -20l-26 66l119 65h83v-335h56v-75h-231zM218 0l355 684h90l-355 -684h-90zM557 0v105q101 69 134.5 99.5t33.5 66.5q0 22 -13.5 34t-33.5 12q-31 0 -86 -29l-45 78q65 50 145 50q72 0 112.5 -38t40.5 -95q0 -110 -157 -192h160v-91h-291z" />
    <glyph glyph-name="threequarters" unicode="&#xbe;" horiz-adv-x="899" 
d="M169 267q-93 0 -145 37l45 81q36 -22 84 -22q26 0 42 11t16 29q0 38 -63 38h-25v86h24q26 0 40.5 10t14.5 26q0 34 -43 34q-46 0 -84 -22l-44 73q61 42 145 42q61 0 99.5 -29.5t38.5 -76.5q0 -35 -20.5 -58.5t-53.5 -32.5q39 -7 63.5 -32.5t24.5 -66.5q0 -61 -43.5 -94
t-115.5 -33zM246 0l355 684h90l-355 -684h-90zM710 0v79h-179v78l141 253h148v-243h48v-88h-53v-79h-105zM632 167h78v158z" />
    <glyph glyph-name="questiondown" unicode="&#xbf;" horiz-adv-x="480" 
d="M269 410q-36 0 -61.5 26t-25.5 63q0 36 25.5 62t61.5 26q37 0 62 -26t25 -62q0 -38 -25 -63.5t-62 -25.5zM252 -136q-88 0 -146 47t-58 131q0 56 25 93t72 74q33 26 45.5 46.5t12.5 54.5v29h128v-35q0 -62 -16.5 -95.5t-50.5 -60.5q-28 -22 -37.5 -30t-19 -25.5
t-9.5 -39.5q0 -61 72 -61q61 0 115 37l61 -105q-86 -60 -194 -60z" />
    <glyph glyph-name="Agrave" unicode="&#xc0;" horiz-adv-x="604" 
d="M203 164l-41 -164h-144l198 704h199l195 -704h-155l-41 164h-211zM385 277l-19 76l-38 152l-19 76l-77 -304h153zM255 746l-109 137h176l33 -137h-100z" />
    <glyph glyph-name="Aacute" unicode="&#xc1;" horiz-adv-x="604" 
d="M203 164l-41 -164h-144l198 704h199l195 -704h-155l-41 164h-211zM385 277l-19 76l-38 152l-19 76l-77 -304h153zM248 746l33 137h176l-109 -137h-100z" />
    <glyph glyph-name="Acircumflex" unicode="&#xc2;" horiz-adv-x="604" 
d="M203 164l-41 -164h-144l198 704h199l195 -704h-155l-41 164h-211zM385 277l-19 76l-38 152l-19 76l-77 -304h153zM149 746l107 149h116l107 -149h-107l-60 54l-59 -54h-104z" />
    <glyph glyph-name="Atilde" unicode="&#xc3;" horiz-adv-x="604" 
d="M203 164l-41 -164h-144l198 704h199l195 -704h-155l-41 164h-211zM385 277l-19 76l-38 152l-19 76l-77 -304h153zM366 741q-29 0 -68 18t-51 18q-24 0 -30 -31h-77q0 69 28.5 105.5t73.5 36.5q29 0 65.5 -18t48.5 -18q24 0 30 31h77q0 -68 -25.5 -105t-71.5 -37z" />
    <glyph glyph-name="Adieresis" unicode="&#xc4;" horiz-adv-x="604" 
d="M203 164l-41 -164h-144l198 704h199l195 -704h-155l-41 164h-211zM385 277l-19 76l-38 152l-19 76l-77 -304h153zM404 740q-36 0 -57 22t-21 53q0 30 21 52.5t57 22.5t57 -22t21 -53q0 -34 -20.5 -54.5t-57.5 -20.5zM194 740q-36 0 -57 22t-21 53q0 30 21 52.5t57 22.5
t57 -22t21 -53q0 -34 -20.5 -54.5t-57.5 -20.5z" />
    <glyph glyph-name="Aring" unicode="&#xc5;" horiz-adv-x="604" 
d="M203 164l-41 -164h-144l198 704h15q-32 30 -32 75q0 43 30.5 73t75.5 30t75.5 -30t30.5 -73q0 -45 -32 -75h36l195 -704h-155l-41 164h-211zM305 734q19 0 29.5 12.5t10.5 32.5t-10.5 32.5t-29.5 12.5t-29.5 -12.5t-10.5 -32.5t10.5 -32.5t29.5 -12.5zM385 277l-19 76
l-38 152l-19 76l-77 -304h153z" />
    <glyph glyph-name="AE" unicode="&#xc6;" horiz-adv-x="930" 
d="M239 164l-79 -164h-157l361 703h512v-123h-283v-156h227v-120h-227v-181h301v-123h-452v164h-203zM442 277v311l-149 -311h149z" />
    <glyph glyph-name="Ccedilla" unicode="&#xc7;" horiz-adv-x="623" 
d="M301 -5q-128 21 -188.5 117.5t-60.5 236.5q0 101 31.5 181.5t103 132.5t173.5 52q138 0 207 -80l-84 -103q-31 27 -56.5 38.5t-63.5 11.5q-77 0 -113 -59.5t-36 -185.5q0 -213 150 -213q63 0 132 65l85 -102q-88 -97 -216 -97h-8l-15 -31q37 -4 58 -24t21 -52
q0 -38 -28 -60t-73 -22q-50 0 -80 16l17 51q23 -8 42 -8q35 0 35 26q0 28 -63 29z" />
    <glyph glyph-name="Egrave" unicode="&#xc8;" horiz-adv-x="560" 
d="M72 0v703h434v-123h-283v-156h227v-120h-227v-181h301v-123h-452zM258 746l-109 137h176l33 -137h-100z" />
    <glyph glyph-name="Eacute" unicode="&#xc9;" horiz-adv-x="560" 
d="M72 0v703h434v-123h-283v-156h227v-120h-227v-181h301v-123h-452zM245 746l33 137h176l-109 -137h-100z" />
    <glyph glyph-name="Ecircumflex" unicode="&#xca;" horiz-adv-x="560" 
d="M72 0v703h434v-123h-283v-156h227v-120h-227v-181h301v-123h-452zM123 746l107 149h116l107 -149h-107l-60 54l-59 -54h-104z" />
    <glyph glyph-name="Edieresis" unicode="&#xcb;" horiz-adv-x="560" 
d="M72 0v703h434v-123h-283v-156h227v-120h-227v-181h301v-123h-452zM394 740q-36 0 -57 22t-21 53q0 30 21 52.5t57 22.5t57 -22t21 -53q0 -34 -20.5 -54.5t-57.5 -20.5zM184 740q-36 0 -57 22t-21 53q0 30 21 52.5t57 22.5t57 -22t21 -53q0 -34 -20.5 -54.5t-57.5 -20.5z
" />
    <glyph glyph-name="Igrave" unicode="&#xcc;" horiz-adv-x="310" 
d="M79 0v703h152v-703h-152zM109 746l-109 137h176l33 -137h-100z" />
    <glyph glyph-name="Iacute" unicode="&#xcd;" horiz-adv-x="310" 
d="M79 0v703h152v-703h-152zM101 746l33 137h176l-109 -137h-100z" />
    <glyph glyph-name="Icircumflex" unicode="&#xce;" horiz-adv-x="310" 
d="M79 0v703h152v-703h-152zM-11 746l107 149h116l107 -149h-107l-60 54l-59 -54h-104z" />
    <glyph glyph-name="Idieresis" unicode="&#xcf;" horiz-adv-x="310" 
d="M79 0v703h152v-703h-152zM257 740q-36 0 -57 22t-21 53q0 30 21 52.5t57 22.5t57 -22t21 -53q0 -34 -20.5 -54.5t-57.5 -20.5zM47 740q-36 0 -57 22t-21 53q0 30 21 52.5t57 22.5t57 -22t21 -53q0 -34 -20.5 -54.5t-57.5 -20.5z" />
    <glyph glyph-name="Eth" unicode="&#xd0;" horiz-adv-x="667" 
d="M82 295h-67v120h67v288h192q170 0 256.5 -90t86.5 -259q0 -170 -85 -262t-249 -92h-201v295zM234 415h128v-120h-128v-173h34q105 0 147 51.5t42 180.5q0 117 -38 172t-138 55h-47v-166z" />
    <glyph glyph-name="Ntilde" unicode="&#xd1;" horiz-adv-x="696" 
d="M72 703v-703h140v341q0 85 -6 169l259 -510h148v703h-140v-296q0 -70 6 -169l-236 465h-171zM418 741q-29 0 -68 18t-51 18q-24 0 -30 -31h-77q0 69 28.5 105.5t73.5 36.5q29 0 65.5 -18t48.5 -18q24 0 30 31h77q0 -68 -25.5 -105t-71.5 -37z" />
    <glyph glyph-name="Ograve" unicode="&#xd2;" horiz-adv-x="680" 
d="M340 -10q-139 0 -214.5 96t-75.5 260q0 159 76 264t214 105q140 0 215 -98.5t75 -257.5q0 -166 -76 -267.5t-214 -101.5zM338 116q132 0 132 239q0 234 -129 234q-132 0 -132 -240q0 -125 32.5 -179t96.5 -54zM289 746l-109 137h176l33 -137h-100z" />
    <glyph glyph-name="Oacute" unicode="&#xd3;" horiz-adv-x="680" 
d="M340 -10q-139 0 -214.5 96t-75.5 260q0 159 76 264t214 105q140 0 215 -98.5t75 -257.5q0 -166 -76 -267.5t-214 -101.5zM338 116q132 0 132 239q0 234 -129 234q-132 0 -132 -240q0 -125 32.5 -179t96.5 -54zM291 746l33 137h176l-109 -137h-100z" />
    <glyph glyph-name="Ocircumflex" unicode="&#xd4;" horiz-adv-x="680" 
d="M340 -10q-139 0 -214.5 96t-75.5 260q0 159 76 264t214 105q140 0 215 -98.5t75 -257.5q0 -166 -76 -267.5t-214 -101.5zM338 116q132 0 132 239q0 234 -129 234q-132 0 -132 -240q0 -125 32.5 -179t96.5 -54zM174 746l107 149h116l107 -149h-107l-60 54l-59 -54h-104z
" />
    <glyph glyph-name="Otilde" unicode="&#xd5;" horiz-adv-x="680" 
d="M340 -10q-139 0 -214.5 96t-75.5 260q0 159 76 264t214 105q140 0 215 -98.5t75 -257.5q0 -166 -76 -267.5t-214 -101.5zM338 116q132 0 132 239q0 234 -129 234q-132 0 -132 -240q0 -125 32.5 -179t96.5 -54zM404 741q-29 0 -68 18t-51 18q-24 0 -30 -31h-77
q0 69 28.5 105.5t73.5 36.5q29 0 65.5 -18t48.5 -18q24 0 30 31h77q0 -68 -25.5 -105t-71.5 -37z" />
    <glyph glyph-name="Odieresis" unicode="&#xd6;" horiz-adv-x="680" 
d="M340 -10q-139 0 -214.5 96t-75.5 260q0 159 76 264t214 105q140 0 215 -98.5t75 -257.5q0 -166 -76 -267.5t-214 -101.5zM338 116q132 0 132 239q0 234 -129 234q-132 0 -132 -240q0 -125 32.5 -179t96.5 -54zM442 740q-36 0 -57 22t-21 53q0 30 21 52.5t57 22.5t57 -22
t21 -53q0 -34 -20.5 -54.5t-57.5 -20.5zM232 740q-36 0 -57 22t-21 53q0 30 21 52.5t57 22.5t57 -22t21 -53q0 -34 -20.5 -54.5t-57.5 -20.5z" />
    <glyph glyph-name="multiply" unicode="&#xd7;" horiz-adv-x="600" 
d="M379 291l150 -154l-82 -78l-147 151l-37 -38q-37 -38 -75 -76l-37 -39l-78 81l11.5 11.5t26.5 28t36.5 38t35 36t27.5 28.5l11 11l-37 39l-74 76l-37 39l78 82l149 -154l147 152l82 -80q-149 -153 -150 -154z" />
    <glyph glyph-name="Oslash" unicode="&#xd8;" horiz-adv-x="680" 
d="M564 604q66 -94 66 -245q0 -166 -76 -267.5t-214 -101.5q-96 0 -164 48l-14 -20l-28 -42l-15 -20l-68 44l66 97q-67 93 -67 249q0 159 76 264t214 105q99 0 167 -51l54 79l68 -44zM216 240l212 309q-32 42 -87 42q-134 0 -134 -242q0 -64 9 -109zM464 458l-211 -307
q30 -37 85 -37q134 0 134 241q0 57 -8 103z" />
    <glyph glyph-name="Ugrave" unicode="&#xd9;" horiz-adv-x="642" 
d="M320 -10q-255 0 -255 275v438h152v-455q0 -65 22.5 -98.5t81.5 -33.5q58 0 80.5 33.5t22.5 98.5v455h153v-438q0 -275 -257 -275zM272 746l-109 137h176l33 -137h-100z" />
    <glyph glyph-name="Uacute" unicode="&#xda;" horiz-adv-x="642" 
d="M320 -10q-255 0 -255 275v438h152v-455q0 -65 22.5 -98.5t81.5 -33.5q58 0 80.5 33.5t22.5 98.5v455h153v-438q0 -275 -257 -275zM270 746l33 137h176l-109 -137h-100z" />
    <glyph glyph-name="Ucircumflex" unicode="&#xdb;" horiz-adv-x="642" 
d="M320 -10q-255 0 -255 275v438h152v-455q0 -65 22.5 -98.5t81.5 -33.5q58 0 80.5 33.5t22.5 98.5v455h153v-438q0 -275 -257 -275zM155 746l107 149h116l107 -149h-107l-60 54l-59 -54h-104z" />
    <glyph glyph-name="Udieresis" unicode="&#xdc;" horiz-adv-x="642" 
d="M320 -10q-255 0 -255 275v438h152v-455q0 -65 22.5 -98.5t81.5 -33.5q58 0 80.5 33.5t22.5 98.5v455h153v-438q0 -275 -257 -275zM423 740q-36 0 -57 22t-21 53q0 30 21 52.5t57 22.5t57 -22t21 -53q0 -34 -20.5 -54.5t-57.5 -20.5zM213 740q-36 0 -57 22t-21 53
q0 30 21 52.5t57 22.5t57 -22t21 -53q0 -34 -20.5 -54.5t-57.5 -20.5z" />
    <glyph glyph-name="Yacute" unicode="&#xdd;" horiz-adv-x="587" 
d="M222 0v291l-212 412h165l131 -274l131 274h152l-215 -412v-291h-152zM245 746l33 137h176l-109 -137h-100z" />
    <glyph glyph-name="Thorn" unicode="&#xde;" horiz-adv-x="606" 
d="M72 0v703h151v-109h81q120 0 193.5 -52.5t73.5 -167.5q0 -111 -69.5 -162t-180.5 -51h-98v-161h-151zM223 279h79q59 0 87 23t28 74q0 96 -105 96h-89v-193z" />
    <glyph glyph-name="germandbls" unicode="&#xdf;" horiz-adv-x="591" 
d="M377 -10q-73 0 -115 16l21 108q26 -11 56 -11q68 0 68 54q0 20 -12.5 39.5t-30.5 36t-36 34t-30.5 41.5t-12.5 51q0 42 38 93.5t38 92.5q0 59 -64 59q-81 0 -81 -117v-487h-152v490q0 105 60.5 165t169.5 60q99 0 157.5 -43.5t58.5 -123.5q0 -31 -12.5 -58.5t-27.5 -43.5
t-27.5 -33t-12.5 -30q0 -12 21 -33.5t45.5 -43.5t45.5 -61t21 -84q0 -82 -52 -126.5t-134 -44.5z" />
    <glyph glyph-name="agrave" unicode="&#xe0;" horiz-adv-x="529" 
d="M321 331v13q0 35 -15.5 51t-53.5 16q-59 0 -145 -40l-52 100q100 58 210 58q103 0 155.5 -50.5t52.5 -143.5v-335h-94q-26 55 -27 55q-71 -65 -152 -65q-69 0 -115.5 40.5t-46.5 110.5q0 82 53 120q62 46 230 70zM321 128v109q-99 -20 -120 -44q-14 -15 -14 -41
q0 -55 53 -55q44 0 81 31zM219 566l-109 137h176l33 -137h-100z" />
    <glyph glyph-name="aacute" unicode="&#xe1;" horiz-adv-x="529" 
d="M321 331v13q0 35 -15.5 51t-53.5 16q-59 0 -145 -40l-52 100q100 58 210 58q103 0 155.5 -50.5t52.5 -143.5v-335h-94q-26 55 -27 55q-71 -65 -152 -65q-69 0 -115.5 40.5t-46.5 110.5q0 82 53 120q62 46 230 70zM321 128v109q-99 -20 -120 -44q-14 -15 -14 -41
q0 -55 53 -55q44 0 81 31zM205 566l33 137h176l-109 -137h-100z" />
    <glyph glyph-name="acircumflex" unicode="&#xe2;" horiz-adv-x="529" 
d="M321 331v13q0 35 -15.5 51t-53.5 16q-59 0 -145 -40l-52 100q100 58 210 58q103 0 155.5 -50.5t52.5 -143.5v-335h-94q-26 55 -27 55q-71 -65 -152 -65q-69 0 -115.5 40.5t-46.5 110.5q0 82 53 120q62 46 230 70zM321 128v109q-99 -20 -120 -44q-14 -15 -14 -41
q0 -55 53 -55q44 0 81 31zM96 566l107 149h116l107 -149h-107l-60 54l-59 -54h-104z" />
    <glyph glyph-name="atilde" unicode="&#xe3;" horiz-adv-x="529" 
d="M321 331v13q0 35 -15.5 51t-53.5 16q-59 0 -145 -40l-52 100q100 58 210 58q103 0 155.5 -50.5t52.5 -143.5v-335h-94q-26 55 -27 55q-71 -65 -152 -65q-69 0 -115.5 40.5t-46.5 110.5q0 82 53 120q62 46 230 70zM321 128v109q-99 -20 -120 -44q-14 -15 -14 -41
q0 -55 53 -55q44 0 81 31zM320 561q-29 0 -68 18t-51 18q-24 0 -30 -31h-77q0 69 28.5 105.5t73.5 36.5q29 0 65.5 -18t48.5 -18q24 0 30 31h77q0 -68 -25.5 -105t-71.5 -37z" />
    <glyph glyph-name="adieresis" unicode="&#xe4;" horiz-adv-x="529" 
d="M321 331v13q0 35 -15.5 51t-53.5 16q-59 0 -145 -40l-52 100q100 58 210 58q103 0 155.5 -50.5t52.5 -143.5v-335h-94q-26 55 -27 55q-71 -65 -152 -65q-69 0 -115.5 40.5t-46.5 110.5q0 82 53 120q62 46 230 70zM321 128v109q-99 -20 -120 -44q-14 -15 -14 -41
q0 -55 53 -55q44 0 81 31zM368 560q-36 0 -57 22t-21 53q0 30 21 52.5t57 22.5t57 -22t21 -53q0 -34 -20.5 -54.5t-57.5 -20.5zM158 560q-36 0 -57 22t-21 53q0 30 21 52.5t57 22.5t57 -22t21 -53q0 -34 -20.5 -54.5t-57.5 -20.5z" />
    <glyph glyph-name="aring" unicode="&#xe5;" horiz-adv-x="529" 
d="M321 331v13q0 35 -15.5 51t-53.5 16q-59 0 -145 -40l-52 100q100 58 210 58q103 0 155.5 -50.5t52.5 -143.5v-335h-94q-26 55 -27 55q-71 -65 -152 -65q-69 0 -115.5 40.5t-46.5 110.5q0 82 53 120q62 46 230 70zM321 128v109q-99 -20 -120 -44q-14 -15 -14 -41
q0 -55 53 -55q44 0 81 31zM261 560q-45 0 -75.5 30t-30.5 73t30.5 73t75.5 30t75.5 -30t30.5 -73t-30.5 -73t-75.5 -30zM261 618q19 0 29.5 12.5t10.5 32.5t-10.5 32.5t-29.5 12.5t-29.5 -12.5t-10.5 -32.5t10.5 -32.5t29.5 -12.5z" />
    <glyph glyph-name="ae" unicode="&#xe6;" horiz-adv-x="825" 
d="M321 315v29q0 35 -15.5 51t-53.5 16q-59 0 -145 -40l-52 100q100 58 210 58q98 0 147 -49q60 49 147 49q115 0 172 -77t57 -198v-32h-313q5 -57 29 -84t75 -27q27 0 54.5 8t41 15t40.5 22l60 -96q-31 -23 -53 -35.5t-63 -23.5t-91 -11q-119 0 -186 76q-76 -76 -177 -76
q-72 0 -119.5 38.5t-47.5 107.5q0 84 51 124q61 47 232 55zM477 311h156q0 109 -75 109q-70 0 -81 -109zM320 224q-97 -7 -119 -33q-14 -15 -14 -44q0 -50 53 -50q51 0 98 43q-15 37 -18 84z" />
    <glyph glyph-name="ccedilla" unicode="&#xe7;" horiz-adv-x="482" 
d="M233 -6q-97 16 -146 86.5t-49 175.5q0 119 65 196t184 77q105 0 171 -58l-71 -101q-27 20 -47 27.5t-52 7.5q-93 0 -93 -147q0 -144 95 -144q51 0 103 41l73 -94q-71 -71 -177 -71l-15 -31q37 -4 58 -24t21 -52q0 -38 -28 -60t-73 -22q-50 0 -80 16l17 51q23 -8 42 -8
q35 0 35 26q0 28 -63 29z" />
    <glyph glyph-name="egrave" unicode="&#xe8;" horiz-adv-x="548" 
d="M195 214q5 -53 29.5 -78t73.5 -25q27 0 54.5 8t41 15t40.5 22l60 -96q-31 -23 -53 -35.5t-63 -23.5t-91 -11q-114 0 -181.5 70.5t-67.5 192.5t64 199t176 77q115 0 172 -77t57 -198v-40h-312zM195 303h157q0 117 -75 117q-36 0 -56 -27.5t-26 -89.5zM232 566l-109 137
h176l33 -137h-100z" />
    <glyph glyph-name="eacute" unicode="&#xe9;" horiz-adv-x="548" 
d="M195 214q5 -53 29.5 -78t73.5 -25q27 0 54.5 8t41 15t40.5 22l60 -96q-31 -23 -53 -35.5t-63 -23.5t-91 -11q-114 0 -181.5 70.5t-67.5 192.5t64 199t176 77q115 0 172 -77t57 -198v-40h-312zM195 303h157q0 117 -75 117q-36 0 -56 -27.5t-26 -89.5zM227 566l33 137h176
l-109 -137h-100z" />
    <glyph glyph-name="ecircumflex" unicode="&#xea;" horiz-adv-x="548" 
d="M195 214q5 -53 29.5 -78t73.5 -25q27 0 54.5 8t41 15t40.5 22l60 -96q-31 -23 -53 -35.5t-63 -23.5t-91 -11q-114 0 -181.5 70.5t-67.5 192.5t64 199t176 77q115 0 172 -77t57 -198v-40h-312zM195 303h157q0 117 -75 117q-36 0 -56 -27.5t-26 -89.5zM111 566l107 149h116
l107 -149h-107l-60 54l-59 -54h-104z" />
    <glyph glyph-name="edieresis" unicode="&#xeb;" horiz-adv-x="548" 
d="M195 214q5 -53 29.5 -78t73.5 -25q27 0 54.5 8t41 15t40.5 22l60 -96q-31 -23 -53 -35.5t-63 -23.5t-91 -11q-114 0 -181.5 70.5t-67.5 192.5t64 199t176 77q115 0 172 -77t57 -198v-40h-312zM195 303h157q0 117 -75 117q-36 0 -56 -27.5t-26 -89.5zM382 560
q-36 0 -57 22t-21 53q0 30 21 52.5t57 22.5t57 -22t21 -53q0 -34 -20.5 -54.5t-57.5 -20.5zM172 560q-36 0 -57 22t-21 53q0 30 21 52.5t57 22.5t57 -22t21 -53q0 -34 -20.5 -54.5t-57.5 -20.5z" />
    <glyph glyph-name="igrave" unicode="&#xec;" horiz-adv-x="285" 
d="M71 0v517h143v-517h-143zM101 566l-109 137h176l33 -137h-100z" />
    <glyph glyph-name="iacute" unicode="&#xed;" horiz-adv-x="285" 
d="M71 0v517h143v-517h-143zM83 566l33 137h176l-109 -137h-100z" />
    <glyph glyph-name="icircumflex" unicode="&#xee;" horiz-adv-x="285" 
d="M71 0v517h143v-517h-143zM-24 566l107 149h116l107 -149h-107l-60 54l-59 -54h-104z" />
    <glyph glyph-name="idieresis" unicode="&#xef;" horiz-adv-x="285" 
d="M71 0v517h143v-517h-143zM244 560q-36 0 -57 22t-21 53q0 30 21 52.5t57 22.5t57 -22t21 -53q0 -34 -20.5 -54.5t-57.5 -20.5zM34 560q-36 0 -57 22t-21 53q0 30 21 52.5t57 22.5t57 -22t21 -53q0 -34 -20.5 -54.5t-57.5 -20.5z" />
    <glyph glyph-name="eth" unicode="&#xf0;" horiz-adv-x="565" 
d="M278 550l-23 -10q-23 -9 -47 -18l-23 -10l-32 71l76 31q-46 54 -85 89h162q19 -12 46 -37l95 39l32 -71q-71 -29 -72 -30q120 -151 120 -325q0 -142 -62.5 -215.5t-176.5 -73.5q-117 0 -183.5 68t-66.5 185q0 109 55.5 175t153.5 66q51 0 85 -28q-21 44 -54 94zM284 101
q87 0 87 142q0 135 -88 135t-88 -138q0 -139 89 -139z" />
    <glyph glyph-name="ntilde" unicode="&#xf1;" 
d="M65 0v517h94l30 -79q79 91 173 91q148 0 148 -189v-340h-152v342q0 62 -52 62q-48 0 -89 -44v-360h-152zM355 561q-29 0 -68 18t-51 18q-24 0 -30 -31h-77q0 69 28.5 105.5t73.5 36.5q29 0 65.5 -18t48.5 -18q24 0 30 31h77q0 -68 -25.5 -105t-71.5 -37z" />
    <glyph glyph-name="ograve" unicode="&#xf2;" horiz-adv-x="565" 
d="M283 -10q-113 0 -179 72t-66 191q0 120 67 198t178 78q109 0 176.5 -73t67.5 -190q0 -124 -65 -200t-179 -76zM284 101q87 0 87 162q0 80 -21 117.5t-67 37.5q-88 0 -88 -158q0 -159 89 -159zM241 566l-109 137h176l33 -137h-100z" />
    <glyph glyph-name="oacute" unicode="&#xf3;" horiz-adv-x="565" 
d="M283 -10q-113 0 -179 72t-66 191q0 120 67 198t178 78q109 0 176.5 -73t67.5 -190q0 -124 -65 -200t-179 -76zM284 101q87 0 87 162q0 80 -21 117.5t-67 37.5q-88 0 -88 -158q0 -159 89 -159zM223 566l33 137h176l-109 -137h-100z" />
    <glyph glyph-name="ocircumflex" unicode="&#xf4;" horiz-adv-x="565" 
d="M283 -10q-113 0 -179 72t-66 191q0 120 67 198t178 78q109 0 176.5 -73t67.5 -190q0 -124 -65 -200t-179 -76zM284 101q87 0 87 162q0 80 -21 117.5t-67 37.5q-88 0 -88 -158q0 -159 89 -159zM116 566l107 149h116l107 -149h-107l-60 54l-59 -54h-104z" />
    <glyph glyph-name="otilde" unicode="&#xf5;" horiz-adv-x="565" 
d="M283 -10q-113 0 -179 72t-66 191q0 120 67 198t178 78q109 0 176.5 -73t67.5 -190q0 -124 -65 -200t-179 -76zM284 101q87 0 87 162q0 80 -21 117.5t-67 37.5q-88 0 -88 -158q0 -159 89 -159zM346 561q-29 0 -68 18t-51 18q-24 0 -30 -31h-77q0 69 28.5 105.5t73.5 36.5
q29 0 65.5 -18t48.5 -18q24 0 30 31h77q0 -68 -25.5 -105t-71.5 -37z" />
    <glyph glyph-name="odieresis" unicode="&#xf6;" horiz-adv-x="565" 
d="M283 -10q-113 0 -179 72t-66 191q0 120 67 198t178 78q109 0 176.5 -73t67.5 -190q0 -124 -65 -200t-179 -76zM284 101q87 0 87 162q0 80 -21 117.5t-67 37.5q-88 0 -88 -158q0 -159 89 -159zM384 560q-36 0 -57 22t-21 53q0 30 21 52.5t57 22.5t57 -22t21 -53
q0 -34 -20.5 -54.5t-57.5 -20.5zM174 560q-36 0 -57 22t-21 53q0 30 21 52.5t57 22.5t57 -22t21 -53q0 -34 -20.5 -54.5t-57.5 -20.5z" />
    <glyph glyph-name="divide" unicode="&#xf7;" horiz-adv-x="600" 
d="M300 397q-33 0 -55 22.5t-22 55.5q0 34 21.5 56.5t55.5 22.5q32 0 54.5 -22.5t22.5 -56.5q0 -32 -22.5 -55t-54.5 -23zM61 232v119h478v-119h-478zM300 29q-33 0 -55 22.5t-22 55.5q0 34 21.5 56.5t55.5 22.5q32 0 54.5 -22.5t22.5 -56.5q0 -32 -22.5 -55t-54.5 -23z" />
    <glyph glyph-name="oslash" unicode="&#xf8;" horiz-adv-x="565" 
d="M465 450q62 -73 62 -184q0 -124 -65 -200t-179 -76q-72 0 -128 31l-48 -67l-56 40l51 70q-64 72 -64 189q0 120 67 198t178 78q73 0 129 -34l45 62l56 -40q-22 -30 -48 -67zM196 195l145 201q-21 25 -58 25q-92 0 -92 -161q0 -32 5 -65zM371 320l-35 -50l-72 -98l-36 -50
q21 -24 56 -24q91 0 91 165q0 36 -4 57z" />
    <glyph glyph-name="ugrave" unicode="&#xf9;" 
d="M213 -10q-154 0 -154 187v340h152v-339q0 -62 56 -62q45 0 85 33v368h152v-517h-94l-30 71q-78 -81 -167 -81zM237 566l-109 137h176l33 -137h-100z" />
    <glyph glyph-name="uacute" unicode="&#xfa;" 
d="M213 -10q-154 0 -154 187v340h152v-339q0 -62 56 -62q45 0 85 33v368h152v-517h-94l-30 71q-78 -81 -167 -81zM233 566l33 137h176l-109 -137h-100z" />
    <glyph glyph-name="ucircumflex" unicode="&#xfb;" 
d="M213 -10q-154 0 -154 187v340h152v-339q0 -62 56 -62q45 0 85 33v368h152v-517h-94l-30 71q-78 -81 -167 -81zM118 566l107 149h116l107 -149h-107l-60 54l-59 -54h-104z" />
    <glyph glyph-name="udieresis" unicode="&#xfc;" 
d="M213 -10q-154 0 -154 187v340h152v-339q0 -62 56 -62q45 0 85 33v368h152v-517h-94l-30 71q-78 -81 -167 -81zM386 560q-36 0 -57 22t-21 53q0 30 21 52.5t57 22.5t57 -22t21 -53q0 -34 -20.5 -54.5t-57.5 -20.5zM176 560q-36 0 -57 22t-21 53q0 30 21 52.5t57 22.5
t57 -22t21 -53q0 -34 -20.5 -54.5t-57.5 -20.5z" />
    <glyph glyph-name="yacute" unicode="&#xfd;" horiz-adv-x="507" 
d="M201 -24l-189 541h157l97 -378l82 378h147l-155 -524q-54 -182 -225 -182q-40 0 -85 9l16 106q40 -4 51 -4q41 0 64 12.5t40 41.5zM203 566l33 137h176l-109 -137h-100z" />
    <glyph glyph-name="thorn" unicode="&#xfe;" horiz-adv-x="576" 
d="M65 -178v881h152v-238q20 26 55 45t73 19q87 0 140 -71.5t53 -186.5q0 -133 -53 -207t-151 -74q-76 0 -117 52v-220h-152zM289 98q93 0 93 165q0 143 -88 143q-42 0 -77 -39v-231q28 -38 72 -38z" />
    <glyph glyph-name="ydieresis" unicode="&#xff;" horiz-adv-x="507" 
d="M201 -24l-189 541h157l97 -378l82 378h147l-155 -524q-54 -182 -225 -182q-40 0 -85 9l16 106q40 -4 51 -4q41 0 64 12.5t40 41.5zM361 560q-36 0 -57 22t-21 53q0 30 21 52.5t57 22.5t57 -22t21 -53q0 -34 -20.5 -54.5t-57.5 -20.5zM151 560q-36 0 -57 22t-21 53
q0 30 21 52.5t57 22.5t57 -22t21 -53q0 -34 -20.5 -54.5t-57.5 -20.5z" />
    <glyph glyph-name="Amacron" unicode="&#x100;" horiz-adv-x="628" 
d="M203 164l-41 -164h-144l198 704h199l195 -704h-155l-41 164h-211zM385 277l-19 76l-38 152l-19 76l-77 -304h153zM198 767v104h234v-104h-234z" />
    <glyph glyph-name="amacron" unicode="&#x101;" horiz-adv-x="529" 
d="M321 331v13q0 35 -15.5 51t-53.5 16q-59 0 -145 -40l-52 100q100 58 210 58q103 0 155.5 -50.5t52.5 -143.5v-335h-94q-26 55 -27 55q-71 -65 -152 -65q-69 0 -115.5 40.5t-46.5 110.5q0 82 53 120q62 46 230 70zM321 128v109q-99 -20 -120 -44q-14 -15 -14 -41
q0 -55 53 -55q44 0 81 31zM150 587v104h234v-104h-234z" />
    <glyph glyph-name="Abreve" unicode="&#x102;" horiz-adv-x="628" 
d="M203 164l-41 -164h-144l198 704h199l195 -704h-155l-41 164h-211zM385 277l-19 76l-38 152l-19 76l-77 -304h153zM318 740q-65 0 -102 39t-37 104h88q5 -40 52 -40q49 0 54 40h87q0 -64 -38.5 -103.5t-103.5 -39.5z" />
    <glyph glyph-name="abreve" unicode="&#x103;" horiz-adv-x="529" 
d="M321 331v13q0 35 -15.5 51t-53.5 16q-59 0 -145 -40l-52 100q100 58 210 58q103 0 155.5 -50.5t52.5 -143.5v-335h-94q-26 55 -27 55q-71 -65 -152 -65q-69 0 -115.5 40.5t-46.5 110.5q0 82 53 120q62 46 230 70zM321 128v109q-99 -20 -120 -44q-14 -15 -14 -41
q0 -55 53 -55q44 0 81 31zM268 560q-65 0 -102 39t-37 104h88q5 -40 52 -40q49 0 54 40h87q0 -64 -38.5 -103.5t-103.5 -39.5z" />
    <glyph glyph-name="Aogonek" unicode="&#x104;" horiz-adv-x="628" 
d="M525 -199q-46 0 -75.5 22t-29.5 62q0 38 25.5 68t59.5 47h-50l-41 164h-211l-41 -164h-144l198 704h199l195 -704h-38q-61 -69 -61 -105q0 -30 34 -30q21 0 43 9l19 -54q-36 -19 -82 -19zM385 277l-19 76l-38 152l-19 76l-77 -304h153z" />
    <glyph glyph-name="aogonek" unicode="&#x105;" horiz-adv-x="529" 
d="M399 -199q-46 0 -75.5 22t-29.5 62q0 38 25.5 68t59.5 47q-26 55 -27 55q-71 -65 -152 -65q-69 0 -115.5 40.5t-46.5 110.5q0 82 53 120q62 46 230 70v13q0 35 -15.5 51t-53.5 16q-59 0 -145 -40l-52 100q100 58 210 58q103 0 155.5 -50.5t52.5 -143.5v-335h-27
q-61 -69 -61 -105q0 -30 34 -30q21 0 43 9l19 -54q-36 -19 -82 -19zM321 128v109q-99 -20 -120 -44q-14 -15 -14 -41q0 -55 53 -55q44 0 81 31z" />
    <glyph glyph-name="Cacute" unicode="&#x106;" horiz-adv-x="617" 
d="M365 -10q-83 0 -145 29t-98 79.5t-53 113t-17 137.5q0 101 31.5 181.5t103 132.5t173.5 52q138 0 207 -80l-84 -103q-31 27 -56.5 38.5t-63.5 11.5q-77 0 -113 -59.5t-36 -185.5q0 -213 150 -213q63 0 132 65l85 -102q-88 -97 -216 -97zM296 746l33 137h176l-109 -137
h-100z" />
    <glyph glyph-name="cacute" unicode="&#x107;" horiz-adv-x="488" 
d="M287 -10q-124 0 -186.5 73.5t-62.5 192.5t65 196t184 77q105 0 171 -58l-71 -101q-27 20 -47 27.5t-52 7.5q-93 0 -93 -147q0 -144 95 -144q51 0 103 41l73 -94q-71 -71 -179 -71zM212 566l33 137h176l-109 -137h-100z" />
    <glyph glyph-name="Ccaron" unicode="&#x10c;" horiz-adv-x="617" 
d="M365 -10q-83 0 -145 29t-98 79.5t-53 113t-17 137.5q0 101 31.5 181.5t103 132.5t173.5 52q138 0 207 -80l-84 -103q-31 27 -56.5 38.5t-63.5 11.5q-77 0 -113 -59.5t-36 -185.5q0 -213 150 -213q63 0 132 65l85 -102q-88 -97 -216 -97zM291 746l-107 149h107l60 -54
l59 54h104l-107 -149h-116z" />
    <glyph glyph-name="ccaron" unicode="&#x10d;" horiz-adv-x="488" 
d="M287 -10q-124 0 -186.5 73.5t-62.5 192.5t65 196t184 77q105 0 171 -58l-71 -101q-27 20 -47 27.5t-52 7.5q-93 0 -93 -147q0 -144 95 -144q51 0 103 41l73 -94q-71 -71 -179 -71zM219 566l-107 149h107l60 -54l59 54h104l-107 -149h-116z" />
    <glyph glyph-name="Dcaron" unicode="&#x10e;" horiz-adv-x="657" 
d="M72 0v703h192q170 0 256.5 -90t86.5 -259q0 -170 -85 -262t-249 -92h-201zM224 122h34q105 0 147 51.5t42 180.5q0 117 -38 172t-138 55h-47v-459zM246 746l-107 149h107l60 -54l59 54h104l-107 -149h-116z" />
    <glyph glyph-name="dcaron" unicode="&#x10f;" horiz-adv-x="659" 
d="M240 -10q-91 0 -146.5 72t-55.5 186q0 130 55 205.5t145 75.5q70 0 121 -53v227h152v-703h-94l-28 68q-34 -41 -68.5 -59.5t-80.5 -18.5zM282 98q40 0 77 42v234q-28 32 -74 32q-91 0 -91 -157q0 -151 88 -151zM599 442l-38 38q26 20 44 45t18 43q-24 0 -44 19t-20 47
q0 31 20 50t53 19q34 0 56 -23t22 -62q0 -107 -111 -176z" />
    <glyph glyph-name="Dcroat" unicode="&#x110;" horiz-adv-x="667" 
d="M82 295h-67v120h67v288h192q170 0 256.5 -90t86.5 -259q0 -170 -85 -262t-249 -92h-201v295zM234 415h128v-120h-128v-173h34q105 0 147 51.5t42 180.5q0 117 -38 172t-138 55h-47v-166z" />
    <glyph glyph-name="dcroat" unicode="&#x111;" horiz-adv-x="592" 
d="M240 -10q-91 0 -146.5 69.5t-55.5 176.5q0 122 55 192.5t145 70.5q70 0 121 -53v99h-130v94h130v64h152v-64h66v-94h-66v-545h-94l-28 68q-34 -41 -68.5 -59.5t-80.5 -18.5zM282 98q40 0 77 42v208q-28 28 -74 28q-91 0 -91 -139t88 -139z" />
    <glyph glyph-name="Emacron" unicode="&#x112;" horiz-adv-x="560" 
d="M72 0v703h434v-123h-283v-156h227v-120h-227v-181h301v-123h-452zM176 767v104h234v-104h-234z" />
    <glyph glyph-name="emacron" unicode="&#x113;" horiz-adv-x="544" 
d="M195 214q5 -53 29.5 -78t73.5 -25q27 0 54.5 8t41 15t40.5 22l60 -96q-31 -23 -53 -35.5t-63 -23.5t-91 -11q-114 0 -181.5 70.5t-67.5 192.5t64 199t176 77q115 0 172 -77t57 -198v-40h-312zM195 303h157q0 117 -75 117q-36 0 -56 -27.5t-26 -89.5zM164 587v104h234
v-104h-234z" />
    <glyph glyph-name="Edotaccent" unicode="&#x116;" horiz-adv-x="560" 
d="M72 0v703h434v-123h-283v-156h227v-120h-227v-181h301v-123h-452zM294 736q-38 0 -62.5 23.5t-24.5 55.5q0 31 24.5 55t62.5 24t62.5 -23.5t24.5 -55.5q0 -35 -24 -57t-63 -22z" />
    <glyph glyph-name="edotaccent" unicode="&#x117;" horiz-adv-x="544" 
d="M195 214q5 -53 29.5 -78t73.5 -25q27 0 54.5 8t41 15t40.5 22l60 -96q-31 -23 -53 -35.5t-63 -23.5t-91 -11q-114 0 -181.5 70.5t-67.5 192.5t64 199t176 77q115 0 172 -77t57 -198v-40h-312zM195 303h157q0 117 -75 117q-36 0 -56 -27.5t-26 -89.5zM284 556
q-38 0 -62.5 23.5t-24.5 55.5q0 31 24.5 55t62.5 24t62.5 -23.5t24.5 -55.5q0 -35 -24 -57t-63 -22z" />
    <glyph glyph-name="Eogonek" unicode="&#x118;" horiz-adv-x="560" 
d="M72 0v703h434v-123h-283v-156h227v-120h-227v-181h301v-123h-62q-61 -69 -61 -105q0 -30 34 -30q21 0 43 9l19 -54q-36 -19 -82 -19t-75.5 22t-29.5 62q0 38 25.5 68t59.5 47h-323z" />
    <glyph glyph-name="eogonek" unicode="&#x119;" horiz-adv-x="544" 
d="M328 -199q-46 0 -75.5 22t-29.5 62q0 62 67 105h-3q-114 0 -181.5 70.5t-67.5 192.5t64 199t176 77q115 0 172 -77t57 -198v-40h-312q5 -53 29.5 -78t73.5 -25q27 0 54.5 8t41 15t40.5 22l60 -96q-66 -49 -120 -61q-60 -66 -60 -104q0 -30 34 -30q21 0 43 9l19 -54
q-36 -19 -82 -19zM195 303h157q0 117 -75 117q-36 0 -56 -27.5t-26 -89.5z" />
    <glyph glyph-name="Ecaron" unicode="&#x11a;" horiz-adv-x="560" 
d="M72 0v703h434v-123h-283v-156h227v-120h-227v-181h301v-123h-452zM233 746l-107 149h107l60 -54l59 54h104l-107 -149h-116z" />
    <glyph glyph-name="ecaron" unicode="&#x11b;" horiz-adv-x="544" 
d="M195 214q5 -53 29.5 -78t73.5 -25q27 0 54.5 8t41 15t40.5 22l60 -96q-31 -23 -53 -35.5t-63 -23.5t-91 -11q-114 0 -181.5 70.5t-67.5 192.5t64 199t176 77q115 0 172 -77t57 -198v-40h-312zM195 303h157q0 117 -75 117q-36 0 -56 -27.5t-26 -89.5zM221 566l-107 149
h107l60 -54l59 54h104l-107 -149h-116z" />
    <glyph glyph-name="Gbreve" unicode="&#x11e;" horiz-adv-x="662" 
d="M487 66q-62 -76 -153 -76q-96 0 -161.5 50t-94 128.5t-28.5 180.5q0 76 17.5 139.5t53.5 115.5t98 81.5t145 29.5q140 0 209 -77l-83 -103q-56 47 -127 47q-86 0 -118.5 -57t-32.5 -188q0 -221 138 -221q61 0 106 40v114h-100v120h252v-390h-94zM357 740q-65 0 -102 39
t-37 104h88q5 -40 52 -40q49 0 54 40h87q0 -64 -38.5 -103.5t-103.5 -39.5z" />
    <glyph glyph-name="gbreve" unicode="&#x11f;" horiz-adv-x="538" 
d="M371 498l141 40v-113h-74q22 -39 22 -79q0 -82 -53 -131.5t-152 -49.5q-33 0 -62 6q-18 -13 -18 -30q0 -23 31 -26q16 -1 68.5 -5t85.5 -7q154 -17 154 -132q0 -81 -67.5 -124t-202.5 -43q-107 0 -164.5 33t-57.5 95q0 65 84 94q-48 28 -48 85q0 26 18.5 49t54.5 34
q-87 49 -87 152q0 79 60 131t148 52q68 0 119 -31zM252 264q76 0 76 84q0 38 -19.5 59t-55.5 21q-37 0 -57.5 -21t-20.5 -59q0 -41 20.5 -62.5t56.5 -21.5zM248 -99q129 0 129 53q0 25 -37 30q-77 11 -146 11q-19 0 -31 -12.5t-12 -31.5q0 -50 97 -50zM255 560
q-65 0 -102 39t-37 104h88q5 -40 52 -40q49 0 54 40h87q0 -64 -38.5 -103.5t-103.5 -39.5z" />
    <glyph glyph-name="Gcommaaccent" unicode="&#x122;" horiz-adv-x="662" 
d="M487 66q-62 -76 -153 -76q-96 0 -161.5 50t-94 128.5t-28.5 180.5q0 76 17.5 139.5t53.5 115.5t98 81.5t145 29.5q140 0 209 -77l-83 -103q-56 47 -127 47q-86 0 -118.5 -57t-32.5 -188q0 -221 138 -221q61 0 106 40v114h-100v120h252v-390h-94zM314 -265l-32 36
q25 17 40.5 38t15.5 37q-24 0 -44 17t-20 42q0 28 20.5 44.5t52.5 16.5q34 0 56 -20t22 -55q0 -95 -111 -156z" />
    <glyph glyph-name="gcommaaccent" unicode="&#x123;" horiz-adv-x="538" 
d="M371 498l141 40v-113h-74q22 -39 22 -79q0 -82 -53 -131.5t-152 -49.5q-33 0 -62 6q-18 -13 -18 -30q0 -23 31 -26q16 -1 68.5 -5t85.5 -7q154 -17 154 -132q0 -81 -67.5 -124t-202.5 -43q-107 0 -164.5 33t-57.5 95q0 65 84 94q-48 28 -48 85q0 26 18.5 49t54.5 34
q-87 49 -87 152q0 79 60 131t148 52q68 0 119 -31zM252 264q76 0 76 84q0 38 -19.5 59t-55.5 21q-37 0 -57.5 -21t-20.5 -59q0 -41 20.5 -62.5t56.5 -21.5zM248 -99q129 0 129 53q0 25 -37 30q-77 11 -146 11q-19 0 -31 -12.5t-12 -31.5q0 -50 97 -50zM281 792l32 -36
q-25 -17 -40.5 -38t-15.5 -37q24 0 44 -17t20 -42q0 -28 -20.5 -44.5t-52.5 -16.5q-34 0 -56 20t-22 55q0 95 111 156z" />
    <glyph glyph-name="Imacron" unicode="&#x12a;" horiz-adv-x="310" 
d="M79 0v703h152v-703h-152zM38 767v104h234v-104h-234z" />
    <glyph glyph-name="imacron" unicode="&#x12b;" horiz-adv-x="285" 
d="M71 0v517h143v-517h-143zM26 587v104h234v-104h-234z" />
    <glyph glyph-name="Iogonek" unicode="&#x12e;" horiz-adv-x="310" 
d="M79 0v703h152v-703h-16q-61 -69 -61 -105q0 -30 34 -30q21 0 43 9l19 -54q-36 -19 -82 -19t-75.5 22t-29.5 62q0 38 25.5 68t59.5 47h-69z" />
    <glyph glyph-name="iogonek" unicode="&#x12f;" horiz-adv-x="294" 
d="M147 556q-38 0 -62.5 23.5t-24.5 55.5q0 31 24.5 55t62.5 24t62.5 -23.5t24.5 -55.5q0 -35 -24 -57t-63 -22zM71 0v517h152v-517h-152zM164 -199q-46 0 -75.5 22t-29.5 62q0 38 25.5 68t59.5 47h67q-61 -69 -61 -105q0 -30 34 -30q21 0 43 9l19 -54q-36 -19 -82 -19z" />
    <glyph glyph-name="Idotaccent" unicode="&#x130;" horiz-adv-x="310" 
d="M79 0v703h152v-703h-152zM154 736q-38 0 -62.5 23.5t-24.5 55.5q0 31 24.5 55t62.5 24t62.5 -23.5t24.5 -55.5q0 -35 -24 -57t-63 -22z" />
    <glyph glyph-name="dotlessi" unicode="&#x131;" horiz-adv-x="285" 
d="M71 0v517h143v-517h-143z" />
    <glyph glyph-name="Kcommaaccent" unicode="&#x136;" horiz-adv-x="631" 
d="M224 412l213 291h168l-222 -283l233 -420h-169l-177 322l-46 -33v-289h-152v703h152v-291zM301 -265l-32 36q25 17 40.5 38t15.5 37q-24 0 -44 17t-20 42q0 28 20.5 44.5t52.5 16.5q34 0 56 -20t22 -55q0 -95 -111 -156z" />
    <glyph glyph-name="kcommaaccent" unicode="&#x137;" horiz-adv-x="545" 
d="M217 199v-199h-152v703h152v-380l137 194h160l-151 -191l172 -326h-166l-112 228zM258 -265l-32 36q25 17 40.5 38t15.5 37q-24 0 -44 17t-20 42q0 28 20.5 44.5t52.5 16.5q34 0 56 -20t22 -55q0 -95 -111 -156z" />
    <glyph glyph-name="Lacute" unicode="&#x139;" horiz-adv-x="523" 
d="M72 0v703h152v-580h275v-123h-427zM93 746l33 137h176l-109 -137h-100z" />
    <glyph glyph-name="lacute" unicode="&#x13a;" horiz-adv-x="294" 
d="M71 0v703h152v-703h-152zM70 746l33 137h176l-109 -137h-100z" />
    <glyph glyph-name="Lcommaaccent" unicode="&#x13b;" horiz-adv-x="523" 
d="M72 0v703h152v-580h275v-123h-427zM247 -265l-32 36q25 17 40.5 38t15.5 37q-24 0 -44 17t-20 42q0 28 20.5 44.5t52.5 16.5q34 0 56 -20t22 -55q0 -95 -111 -156z" />
    <glyph glyph-name="lcommaaccent" unicode="&#x13c;" horiz-adv-x="294" 
d="M71 0v703h152v-703h-152zM110 -265l-32 36q25 17 40.5 38t15.5 37q-24 0 -44 17t-20 42q0 28 20.5 44.5t52.5 16.5q34 0 56 -20t22 -55q0 -95 -111 -156z" />
    <glyph glyph-name="Lcaron" unicode="&#x13d;" horiz-adv-x="523" 
d="M72 0v703h152v-580h275v-123h-427zM367 442l-38 38q26 20 44 45t18 43q-24 0 -44 19t-20 47q0 31 20 50t53 19q34 0 56 -23t22 -62q0 -107 -111 -176z" />
    <glyph glyph-name="lcaron" unicode="&#x13e;" horiz-adv-x="369" 
d="M71 0v703h152v-703h-152zM311 442l-38 38q26 20 44 45t18 43q-24 0 -44 19t-20 47q0 31 20 50t53 19q34 0 56 -23t22 -62q0 -107 -111 -176z" />
    <glyph glyph-name="Lslash" unicode="&#x141;" horiz-adv-x="533" 
d="M234 285v-162h275v-123h-427v198l-75 -43v136l75 43v369h152v-282l156 90v-137z" />
    <glyph glyph-name="lslash" unicode="&#x142;" horiz-adv-x="294" 
d="M71 275l-71 -40v114l71 39v315h152v-230l79 44v-113l-79 -44v-360h-152v275z" />
    <glyph glyph-name="Nacute" unicode="&#x143;" horiz-adv-x="696" 
d="M72 703v-703h140v341q0 85 -6 169l259 -510h148v703h-140v-296q0 -70 6 -169l-236 465h-171zM265 746l33 137h176l-109 -137h-100z" />
    <glyph glyph-name="nacute" unicode="&#x144;" 
d="M65 0v517h94l30 -79q79 91 173 91q148 0 148 -189v-340h-152v342q0 62 -52 62q-48 0 -89 -44v-360h-152zM224 566l33 137h176l-109 -137h-100z" />
    <glyph glyph-name="Ncommaaccent" unicode="&#x145;" horiz-adv-x="696" 
d="M72 0v703h171l236 -465q-6 99 -6 169v296h140v-703h-148l-259 510q6 -84 6 -169v-341h-140zM311 -265l-32 36q25 17 40.5 38t15.5 37q-24 0 -44 17t-20 42q0 28 20.5 44.5t52.5 16.5q34 0 56 -20t22 -55q0 -95 -111 -156z" />
    <glyph glyph-name="ncommaaccent" unicode="&#x146;" 
d="M65 0v517h94l30 -79q79 91 173 91q148 0 148 -189v-340h-152v342q0 62 -52 62q-48 0 -89 -44v-360h-152zM256 -265l-32 36q25 17 40.5 38t15.5 37q-24 0 -44 17t-20 42q0 28 20.5 44.5t52.5 16.5q34 0 56 -20t22 -55q0 -95 -111 -156z" />
    <glyph glyph-name="Ncaron" unicode="&#x147;" horiz-adv-x="696" 
d="M72 703v-703h140v341q0 85 -6 169l259 -510h148v703h-140v-296q0 -70 6 -169l-236 465h-171zM284 746l-107 149h107l60 -54l59 54h104l-107 -149h-116z" />
    <glyph glyph-name="ncaron" unicode="&#x148;" 
d="M65 0v517h94l30 -79q79 91 173 91q148 0 148 -189v-340h-152v342q0 62 -52 62q-48 0 -89 -44v-360h-152zM220 566l-107 149h107l60 -54l59 54h104l-107 -149h-116z" />
    <glyph glyph-name="Omacron" unicode="&#x14c;" horiz-adv-x="680" 
d="M340 -10q-139 0 -214.5 96t-75.5 260q0 159 76 264t214 105q140 0 215 -98.5t75 -257.5q0 -166 -76 -267.5t-214 -101.5zM338 116q132 0 132 239q0 234 -129 234q-132 0 -132 -240q0 -125 32.5 -179t96.5 -54zM220 767v104h234v-104h-234z" />
    <glyph glyph-name="omacron" unicode="&#x14d;" horiz-adv-x="565" 
d="M283 -10q-113 0 -179 72t-66 191q0 120 67 198t178 78q109 0 176.5 -73t67.5 -190q0 -124 -65 -200t-179 -76zM284 101q87 0 87 162q0 80 -21 117.5t-67 37.5q-88 0 -88 -158q0 -159 89 -159zM166 587v104h234v-104h-234z" />
    <glyph glyph-name="Ohungarumlaut" unicode="&#x150;" horiz-adv-x="680" 
d="M340 -10q-139 0 -214.5 96t-75.5 260q0 159 76 264t214 105q140 0 215 -98.5t75 -257.5q0 -166 -76 -267.5t-214 -101.5zM338 116q132 0 132 239q0 234 -129 234q-132 0 -132 -240q0 -125 32.5 -179t96.5 -54zM352 746l38 137h146l-74 -137h-110zM175 746l38 137h146
l-74 -137h-110z" />
    <glyph glyph-name="ohungarumlaut" unicode="&#x151;" horiz-adv-x="565" 
d="M283 -10q-113 0 -179 72t-66 191q0 120 67 198t178 78q109 0 176.5 -73t67.5 -190q0 -124 -65 -200t-179 -76zM284 101q87 0 87 162q0 80 -21 117.5t-67 37.5q-88 0 -88 -158q0 -159 89 -159zM296 566l38 137h146l-74 -137h-110zM119 566l38 137h146l-74 -137h-110z" />
    <glyph glyph-name="OE" unicode="&#x152;" horiz-adv-x="956" 
d="M478 650v53h424v-123h-283v-156h227v-120h-227v-181h301v-123h-442v59q-56 -69 -149 -69q-132 0 -205.5 96.5t-73.5 259.5q0 159 73.5 264t205.5 105q94 0 149 -65zM338 116q132 0 132 239q0 234 -129 234q-132 0 -132 -240q0 -125 32.5 -179t96.5 -54z" />
    <glyph glyph-name="oe" unicode="&#x153;" horiz-adv-x="877" 
d="M448 65q-56 -75 -165 -75q-113 0 -179 72t-66 191q0 120 67 198t178 78q108 0 165 -76q55 76 163 76q115 0 172 -77t57 -198v-40h-312q5 -53 29.5 -78t73.5 -25q27 0 54.5 8t41 15t40.5 22l60 -96q-31 -23 -53 -35.5t-63 -23.5t-91 -11q-114 0 -172 75zM528 303h157
q0 117 -75 117q-36 0 -56 -27.5t-26 -89.5zM284 101q87 0 87 162q0 80 -21 117.5t-67 37.5q-88 0 -88 -158q0 -159 89 -159z" />
    <glyph glyph-name="Racute" unicode="&#x154;" horiz-adv-x="640" 
d="M464 306l142 -306h-164l-127 282h-92v-282h-151v703h256q261 0 261 -215q0 -129 -125 -182zM223 398h103q57 0 83 22.5t26 69.5q0 91 -99 91h-113v-183zM241 746l33 137h176l-109 -137h-100z" />
    <glyph glyph-name="racute" unicode="&#x155;" horiz-adv-x="410" 
d="M65 0v517h89l43 -111q54 118 158 118h24v-146q-14 2 -26 2q-136 0 -136 -155v-225h-152zM146 566l33 137h176l-109 -137h-100z" />
    <glyph glyph-name="Rcommaaccent" unicode="&#x156;" horiz-adv-x="640" 
d="M464 306l142 -306h-164l-127 282h-92v-282h-151v703h256q261 0 261 -215q0 -129 -125 -182zM223 398h103q57 0 83 22.5t26 69.5q0 91 -99 91h-113v-183zM292 -265l-32 36q25 17 40.5 38t15.5 37q-24 0 -44 17t-20 42q0 28 20.5 44.5t52.5 16.5q34 0 56 -20t22 -55
q0 -95 -111 -156z" />
    <glyph glyph-name="rcommaaccent" unicode="&#x157;" horiz-adv-x="410" 
d="M65 0v517h89l43 -111q54 118 158 118h24v-146q-14 2 -26 2q-136 0 -136 -155v-225h-152zM105 -265l-32 36q25 17 40.5 38t15.5 37q-24 0 -44 17t-20 42q0 28 20.5 44.5t52.5 16.5q34 0 56 -20t22 -55q0 -95 -111 -156z" />
    <glyph glyph-name="Rcaron" unicode="&#x158;" horiz-adv-x="640" 
d="M464 306l142 -306h-164l-127 282h-92v-282h-151v703h256q261 0 261 -215q0 -129 -125 -182zM223 398h103q57 0 83 22.5t26 69.5q0 91 -99 91h-113v-183zM245 746l-107 149h107l60 -54l59 54h104l-107 -149h-116z" />
    <glyph glyph-name="rcaron" unicode="&#x159;" horiz-adv-x="410" 
d="M65 0v517h89l43 -111q54 118 158 118h24v-146q-14 2 -26 2q-136 0 -136 -155v-225h-152zM151 566l-107 149h107l60 -54l59 54h104l-107 -149h-116z" />
    <glyph glyph-name="Sacute" unicode="&#x15a;" horiz-adv-x="550" 
d="M290 -10q-155 0 -260 77l67 110q84 -59 190 -59q52 0 82 20.5t30 57.5q0 10 -2 18t-7 15.5t-10 13t-15.5 11.5t-18 10t-23.5 10t-26.5 9.5l-31.5 10.5t-35 12q-37 13 -63 27.5t-53 38t-41 60t-14 83.5q0 95 66 147.5t174 52.5q130 0 211 -48l-51 -115q-76 36 -155 36
q-104 0 -104 -68q0 -16 6 -28t13 -20t25.5 -16t31 -12t41.5 -13q13 -4 20 -6q35 -11 60 -21t55 -28.5t49 -41.5t32 -58t13 -78q0 -94 -66.5 -151t-189.5 -57zM240 746l33 137h176l-109 -137h-100z" />
    <glyph glyph-name="sacute" unicode="&#x15b;" horiz-adv-x="493" 
d="M233 -10q-52 0 -109 14t-96 43l54 99q63 -40 157 -40q76 0 76 41q0 6 -1 10t-4 8t-6.5 6.5t-10 5.5t-12.5 5t-16.5 5t-19 5t-22.5 5.5l-26 6.5q-74 19 -113.5 56t-39.5 109q0 80 58 120t148 40q116 0 184 -37l-44 -103q-66 27 -137 27q-73 0 -73 -38q0 -20 21 -29.5
t72 -20.5q88 -19 135.5 -56.5t47.5 -116.5q0 -81 -58.5 -123t-164.5 -42zM177 566l33 137h176l-109 -137h-100z" />
    <glyph glyph-name="Scedilla" unicode="&#x15e;" horiz-adv-x="591" 
d="M278 -199q-50 0 -80 16l17 51q23 -8 42 -8q35 0 35 26q0 28 -63 29l28 76q-136 8 -227 76l67 110q84 -59 190 -59q52 0 82 20.5t30 57.5q0 10 -2 18t-7 15.5t-10 13t-15.5 11.5t-18 10t-23.5 10t-26.5 9.5l-31.5 10.5t-35 12q-37 13 -63 27.5t-53 38t-41 60t-14 83.5
q0 95 66 147.5t174 52.5q130 0 211 -48l-51 -115q-76 36 -155 36q-104 0 -104 -68q0 -16 6 -28t13 -20t25.5 -16t31 -12t41.5 -13q13 -4 20 -6q35 -11 60 -21t55 -28.5t49 -41.5t32 -58t13 -78q0 -89 -60 -145t-171 -62l-15 -32q37 -4 58 -24t21 -52q0 -38 -28 -60t-73 -22z
" />
    <glyph glyph-name="scedilla" unicode="&#x15f;" horiz-adv-x="493" 
d="M235 -199q-50 0 -80 16l17 51q23 -8 42 -8q35 0 35 26q0 28 -63 29l28 76q-121 6 -186 56l54 99q63 -40 157 -40q76 0 76 41q0 6 -1 10t-4 8t-6.5 6.5t-10 5.5t-12.5 5t-16.5 5t-19 5t-22.5 5.5l-26 6.5q-74 19 -113.5 56t-39.5 109q0 80 58 120t148 40q116 0 184 -37
l-44 -103q-66 27 -137 27q-73 0 -73 -38q0 -20 21 -29.5t72 -20.5q88 -19 135.5 -56.5t47.5 -116.5q0 -73 -48 -114.5t-135 -48.5l-16 -33q37 -4 58 -24t21 -52q0 -38 -28 -60t-73 -22z" />
    <glyph glyph-name="Scaron" unicode="&#x160;" horiz-adv-x="591" 
d="M290 -10q-155 0 -260 77l67 110q84 -59 190 -59q52 0 82 20.5t30 57.5q0 10 -2 18t-7 15.5t-10 13t-15.5 11.5t-18 10t-23.5 10t-26.5 9.5l-31.5 10.5t-35 12q-37 13 -63 27.5t-53 38t-41 60t-14 83.5q0 95 66 147.5t174 52.5q130 0 211 -48l-51 -115q-76 36 -155 36
q-104 0 -104 -68q0 -16 6 -28t13 -20t25.5 -16t31 -12t41.5 -13q13 -4 20 -6q35 -11 60 -21t55 -28.5t49 -41.5t32 -58t13 -78q0 -94 -66.5 -151t-189.5 -57zM238 746l-107 149h107l60 -54l59 54h104l-107 -149h-116z" />
    <glyph glyph-name="scaron" unicode="&#x161;" horiz-adv-x="493" 
d="M233 -10q-52 0 -109 14t-96 43l54 99q63 -40 157 -40q76 0 76 41q0 6 -1 10t-4 8t-6.5 6.5t-10 5.5t-12.5 5t-16.5 5t-19 5t-22.5 5.5l-26 6.5q-74 19 -113.5 56t-39.5 109q0 80 58 120t148 40q116 0 184 -37l-44 -103q-66 27 -137 27q-73 0 -73 -38q0 -20 21 -29.5
t72 -20.5q88 -19 135.5 -56.5t47.5 -116.5q0 -81 -58.5 -123t-164.5 -42zM196 566l-107 149h107l60 -54l59 54h104l-107 -149h-116z" />
    <glyph glyph-name="Tcommaaccent" unicode="&#x162;" horiz-adv-x="553" 
d="M201 0v580h-177v123h505v-123h-176v-580h-152zM242 -265l-32 36q25 17 40.5 38t15.5 37q-24 0 -44 17t-20 42q0 28 20.5 44.5t52.5 16.5q34 0 56 -20t22 -55q0 -95 -111 -156z" />
    <glyph glyph-name="tcommaaccent" unicode="&#x163;" horiz-adv-x="402" 
d="M99 413h-76v104h78l26 147h124v-147h110v-104h-110v-249q0 -34 11 -47t45 -13q19 0 53 10l18 -105q-57 -19 -116 -19q-163 0 -163 166v257zM183 -265l-32 36q25 17 40.5 38t15.5 37q-24 0 -44 17t-20 42q0 28 20.5 44.5t52.5 16.5q34 0 56 -20t22 -55q0 -95 -111 -156z
" />
    <glyph glyph-name="Tcaron" unicode="&#x164;" horiz-adv-x="553" 
d="M201 0v580h-177v123h505v-123h-176v-580h-152zM220 746l-107 149h107l60 -54l59 54h104l-107 -149h-116z" />
    <glyph glyph-name="tcaron" unicode="&#x165;" horiz-adv-x="402" 
d="M99 413h-76v104h78l26 147h124v-147h110v-104h-110v-249q0 -34 11 -47t45 -13q19 0 53 10l18 -105q-57 -19 -116 -19q-163 0 -163 166v257zM344 547l-38 38q26 20 44 45t18 43q-24 0 -44 19t-20 47q0 31 20 50t53 19q34 0 56 -23t22 -62q0 -107 -111 -176z" />
    <glyph glyph-name="Umacron" unicode="&#x16a;" horiz-adv-x="642" 
d="M320 -10q-255 0 -255 275v438h152v-455q0 -65 22.5 -98.5t81.5 -33.5q58 0 80.5 33.5t22.5 98.5v455h153v-438q0 -275 -257 -275zM203 767v104h234v-104h-234z" />
    <glyph glyph-name="umacron" unicode="&#x16b;" 
d="M213 -10q-154 0 -154 187v340h152v-339q0 -62 56 -62q45 0 85 33v368h152v-517h-94l-30 71q-78 -81 -167 -81zM167 587v104h234v-104h-234z" />
    <glyph glyph-name="Uring" unicode="&#x16e;" horiz-adv-x="642" 
d="M320 -10q-255 0 -255 275v438h152v-455q0 -65 22.5 -98.5t81.5 -33.5q58 0 80.5 33.5t22.5 98.5v455h153v-438q0 -275 -257 -275zM319 740q-45 0 -75.5 30t-30.5 73t30.5 73t75.5 30t75.5 -30t30.5 -73t-30.5 -73t-75.5 -30zM319 798q19 0 29.5 12.5t10.5 32.5
t-10.5 32.5t-29.5 12.5t-29.5 -12.5t-10.5 -32.5t10.5 -32.5t29.5 -12.5z" />
    <glyph glyph-name="uring" unicode="&#x16f;" 
d="M213 -10q-154 0 -154 187v340h152v-339q0 -62 56 -62q45 0 85 33v368h152v-517h-94l-30 71q-78 -81 -167 -81zM282 560q-45 0 -75.5 30t-30.5 73t30.5 73t75.5 30t75.5 -30t30.5 -73t-30.5 -73t-75.5 -30zM282 618q19 0 29.5 12.5t10.5 32.5t-10.5 32.5t-29.5 12.5
t-29.5 -12.5t-10.5 -32.5t10.5 -32.5t29.5 -12.5z" />
    <glyph glyph-name="Uhungarumlaut" unicode="&#x170;" horiz-adv-x="642" 
d="M320 -10q-255 0 -255 275v438h152v-455q0 -65 22.5 -98.5t81.5 -33.5q58 0 80.5 33.5t22.5 98.5v455h153v-438q0 -275 -257 -275zM349 746l38 137h146l-74 -137h-110zM172 746l38 137h146l-74 -137h-110z" />
    <glyph glyph-name="uhungarumlaut" unicode="&#x171;" 
d="M213 -10q-154 0 -154 187v340h152v-339q0 -62 56 -62q45 0 85 33v368h152v-517h-94l-30 71q-78 -81 -167 -81zM301 566l38 137h146l-74 -137h-110zM124 566l38 137h146l-74 -137h-110z" />
    <glyph glyph-name="Uogonek" unicode="&#x172;" horiz-adv-x="642" 
d="M357 -199q-46 0 -75.5 22t-29.5 62q0 62 67 105q-254 0 -254 275v438h152v-455q0 -65 22.5 -98.5t81.5 -33.5q58 0 80.5 33.5t22.5 98.5v455h153v-438q0 -228 -175 -266q-59 -69 -59 -104q0 -30 34 -30q21 0 43 9l19 -54q-36 -19 -82 -19z" />
    <glyph glyph-name="uogonek" unicode="&#x173;" 
d="M433 -199q-46 0 -75.5 22t-29.5 62q0 38 25.5 68t59.5 47h-3l-30 71q-78 -81 -167 -81q-154 0 -154 187v340h152v-339q0 -62 56 -62q45 0 85 33v368h152v-517h-24q-61 -69 -61 -105q0 -30 34 -30q21 0 43 9l19 -54q-36 -19 -82 -19z" />
    <glyph glyph-name="Ydieresis" unicode="&#x178;" horiz-adv-x="599" 
d="M222 0v291l-212 412h165l131 -274l131 274h152l-215 -412v-291h-152zM409 740q-36 0 -57 22t-21 53q0 30 21 52.5t57 22.5t57 -22t21 -53q0 -34 -20.5 -54.5t-57.5 -20.5zM199 740q-36 0 -57 22t-21 53q0 30 21 52.5t57 22.5t57 -22t21 -53q0 -34 -20.5 -54.5
t-57.5 -20.5z" />
    <glyph glyph-name="Zacute" unicode="&#x179;" horiz-adv-x="559" 
d="M34 0v108l310 469h-296v126h473v-109l-312 -471h311v-123h-486zM208 746l33 137h176l-109 -137h-100z" />
    <glyph glyph-name="zacute" unicode="&#x17a;" horiz-adv-x="497" 
d="M41 0v107l234 302h-219v109h398v-99l-233 -305h235v-114h-415zM182 566l33 137h176l-109 -137h-100z" />
    <glyph glyph-name="Zdotaccent" unicode="&#x17b;" horiz-adv-x="559" 
d="M34 0v108l310 469h-296v126h473v-109l-312 -471h311v-123h-486zM288 736q-38 0 -62.5 23.5t-24.5 55.5q0 31 24.5 55t62.5 24t62.5 -23.5t24.5 -55.5q0 -35 -24 -57t-63 -22z" />
    <glyph glyph-name="zdotaccent" unicode="&#x17c;" horiz-adv-x="497" 
d="M41 0v107l234 302h-219v109h398v-99l-233 -305h235v-114h-415zM261 556q-38 0 -62.5 23.5t-24.5 55.5q0 31 24.5 55t62.5 24t62.5 -23.5t24.5 -55.5q0 -35 -24 -57t-63 -22z" />
    <glyph glyph-name="Zcaron" unicode="&#x17d;" horiz-adv-x="559" 
d="M34 0v108l310 469h-296v126h473v-109l-312 -471h311v-123h-486zM221 746l-107 149h107l60 -54l59 54h104l-107 -149h-116z" />
    <glyph glyph-name="zcaron" unicode="&#x17e;" horiz-adv-x="497" 
d="M41 0v107l234 302h-219v109h398v-99l-233 -305h235v-114h-415zM198 566l-107 149h107l60 -54l59 54h104l-107 -149h-116z" />
    <glyph glyph-name="florin" unicode="&#x192;" horiz-adv-x="562" 
d="M192 330h-72v119h89l9 68q12 91 52.5 134t123.5 43q55 0 97 -16l-27 -100q-19 7 -42 7q-24 0 -37.5 -15.5t-18.5 -51.5l-10 -69h102v-119h-119l-47 -342q-13 -91 -55.5 -134t-125.5 -43q-47 0 -86 15l27 100q16 -6 38 -6q45 0 54 67z" />
    <glyph glyph-name="circumflex" unicode="&#x2c6;" horiz-adv-x="300" 
d="M-16 566l107 149h116l107 -149h-107l-60 54l-59 -54h-104z" />
    <glyph glyph-name="caron" unicode="&#x2c7;" horiz-adv-x="300" 
d="M93 566l-107 149h107l60 -54l59 54h104l-107 -149h-116z" />
    <glyph glyph-name="breve" unicode="&#x2d8;" horiz-adv-x="300" 
d="M148 560q-65 0 -102 39t-37 104h88q5 -40 52 -40q49 0 54 40h87q0 -64 -38.5 -103.5t-103.5 -39.5z" />
    <glyph glyph-name="dotaccent" unicode="&#x2d9;" horiz-adv-x="294" 
d="M147 556q-38 0 -62.5 23.5t-24.5 55.5q0 31 24.5 55t62.5 24t62.5 -23.5t24.5 -55.5q0 -35 -24 -57t-63 -22z" />
    <glyph glyph-name="ring" unicode="&#x2da;" horiz-adv-x="300" 
d="M150 560q-45 0 -75.5 30t-30.5 73t30.5 73t75.5 30t75.5 -30t30.5 -73t-30.5 -73t-75.5 -30zM150 618q19 0 29.5 12.5t10.5 32.5t-10.5 32.5t-29.5 12.5t-29.5 -12.5t-10.5 -32.5t10.5 -32.5t29.5 -12.5z" />
    <glyph glyph-name="ogonek" unicode="&#x2db;" horiz-adv-x="300" 
d="M160 -199q-46 0 -75.5 22t-29.5 62q0 38 25.5 68t59.5 47h67q-61 -69 -61 -105q0 -30 34 -30q21 0 43 9l19 -54q-36 -19 -82 -19z" />
    <glyph glyph-name="tilde" unicode="&#x2dc;" horiz-adv-x="300" 
d="M214 561q-29 0 -68 18t-51 18q-24 0 -30 -31h-77q0 69 28.5 105.5t73.5 36.5q29 0 65.5 -18t48.5 -18q24 0 30 31h77q0 -68 -25.5 -105t-71.5 -37z" />
    <glyph glyph-name="hungarumlaut" unicode="&#x2dd;" horiz-adv-x="300" 
d="M188 566l38 137h146l-74 -137h-110zM11 566l38 137h146l-74 -137h-110z" />
    <glyph glyph-name="tonos" unicode="&#x384;" horiz-adv-x="261" 
d="M35 566l25 180h166l-101 -180h-90z" />
    <glyph glyph-name="dieresistonos" unicode="&#x385;" horiz-adv-x="376" 
d="M332 571q-30 0 -49.5 20.5t-19.5 48.5t19.5 48.5t49.5 20.5q29 0 48.5 -20.5t19.5 -48.5q0 -30 -19 -49.5t-49 -19.5zM47 571q-30 0 -50.5 20.5t-20.5 48.5t21 48.5t50 20.5t49 -20.5t20 -48.5q0 -29 -19.5 -49t-49.5 -20zM138 623l25 180h146l-91 -180h-80z" />
    <glyph glyph-name="Alphatonos" unicode="&#x386;" horiz-adv-x="674" 
d="M249 164l-41 -164h-144l198 704h199l195 -704h-155l-41 164h-211zM431 277l-19 76l-38 152l-19 76l-77 -304h153zM5 524l25 180h166l-101 -180h-90z" />
    <glyph glyph-name="anoteleia" unicode="&#x387;" horiz-adv-x="261" 
d="M132 222q-37 0 -62 26t-25 62q0 38 25 63.5t62 25.5q36 0 61.5 -26t25.5 -63q0 -36 -25.5 -62t-61.5 -26z" />
    <glyph glyph-name="Epsilontonos" unicode="&#x388;" horiz-adv-x="704" 
d="M216 0v703h434v-123h-283v-156h227v-120h-227v-181h301v-123h-452zM5 523l25 180h166l-101 -180h-90z" />
    <glyph glyph-name="Etatonos" unicode="&#x389;" horiz-adv-x="809" 
d="M216 0v703h152v-280h217v280h152v-703h-152v300h-217v-300h-152zM5 523l25 180h166l-101 -180h-90z" />
    <glyph glyph-name="Iotatonos" unicode="&#x38a;" horiz-adv-x="450" 
d="M219 0v703h152v-703h-152zM5 523l25 180h166l-101 -180h-90z" />
    <glyph glyph-name="Omicrontonos" unicode="&#x38c;" horiz-adv-x="790" 
d="M450 -10q-139 0 -214.5 96t-75.5 260q0 159 76 264t214 105q140 0 215 -98.5t75 -257.5q0 -166 -76 -267.5t-214 -101.5zM448 116q132 0 132 239q0 234 -129 234q-132 0 -132 -240q0 -125 32.5 -179t96.5 -54zM5 523l25 180h166l-101 -180h-90z" />
    <glyph glyph-name="Upsilontonos" unicode="&#x38e;" horiz-adv-x="796" 
d="M419 0v291l-212 412h165l131 -274l131 274h152l-215 -412v-291h-152zM5 523l25 180h166l-101 -180h-90z" />
    <glyph glyph-name="Omegatonos" unicode="&#x38f;" horiz-adv-x="820" 
d="M465 715q136 0 219 -84.5t83 -229.5q0 -87 -39.5 -164t-108.5 -119q52 5 101 5h60v-123h-282v160q109 78 109 228q0 99 -38 150t-104 51t-104 -51t-38 -150q0 -151 109 -228v-160h-282v123h60q49 0 101 -5q-69 42 -108.5 119t-39.5 164q0 145 83 229.5t219 84.5zM5 523
l25 180h166l-101 -180h-90z" />
    <glyph glyph-name="iotadieresistonos" unicode="&#x390;" horiz-adv-x="317" 
d="M211 517v-358q0 -55 44 -55q15 0 43 7l18 -104q-54 -17 -123 -17q-70 0 -102 33t-32 106v388h152zM302 571q-30 0 -49.5 20.5t-19.5 48.5t19.5 48.5t49.5 20.5q29 0 48.5 -20.5t19.5 -48.5q0 -30 -19 -49.5t-49 -19.5zM17 571q-30 0 -50.5 20.5t-20.5 48.5t21 48.5
t50 20.5t49 -20.5t20 -48.5q0 -29 -19.5 -49t-49.5 -20zM108 623l25 180h146l-91 -180h-80z" />
    <glyph glyph-name="Alpha" unicode="&#x391;" horiz-adv-x="628" 
d="M203 164l-41 -164h-144l198 704h199l195 -704h-155l-41 164h-211zM385 277l-19 76l-38 152l-19 76l-77 -304h153z" />
    <glyph glyph-name="Beta" unicode="&#x392;" horiz-adv-x="618" 
d="M72 0v703h238q107 0 176 -46.5t69 -140.5q0 -109 -113 -148q64 -14 99 -59t35 -111q0 -98 -62 -148t-176 -50h-266zM223 421h78q99 0 99 85q0 82 -109 82h-68v-167zM223 115h83q111 0 111 94q0 103 -115 103h-79v-197z" />
    <glyph glyph-name="Gamma" unicode="&#x393;" horiz-adv-x="523" 
d="M224 0h-152v703h427v-123h-275v-580z" />
    <glyph glyph-name="uni0394" unicode="&#x394;" horiz-adv-x="628" 
d="M48 107l168 597h199l165 -597v-107h-532v107zM309 581l-116 -458h231z" />
    <glyph glyph-name="Epsilon" unicode="&#x395;" horiz-adv-x="560" 
d="M72 0v703h434v-123h-283v-156h227v-120h-227v-181h301v-123h-452z" />
    <glyph glyph-name="Zeta" unicode="&#x396;" horiz-adv-x="559" 
d="M34 0v108l310 469h-296v126h473v-109l-312 -471h311v-123h-486z" />
    <glyph glyph-name="Eta" unicode="&#x397;" horiz-adv-x="665" 
d="M72 0v703h152v-280h217v280h152v-703h-152v300h-217v-300h-152z" />
    <glyph glyph-name="Theta" unicode="&#x398;" horiz-adv-x="680" 
d="M340 -10q-139 0 -214.5 96t-75.5 260q0 159 76 264t214 105q140 0 215 -98.5t75 -257.5q0 -166 -76 -267.5t-214 -101.5zM338 116q132 0 132 239q0 234 -129 234q-132 0 -132 -240q0 -125 32.5 -179t96.5 -54zM429 283h-177v123h177v-123z" />
    <glyph glyph-name="Iota" unicode="&#x399;" horiz-adv-x="310" 
d="M79 0v703h152v-703h-152z" />
    <glyph glyph-name="Kappa" unicode="&#x39a;" horiz-adv-x="631" 
d="M224 412l213 291h168l-222 -283l233 -420h-169l-177 322l-46 -33v-289h-152v703h152v-291z" />
    <glyph glyph-name="Lambda" unicode="&#x39b;" horiz-adv-x="612" 
d="M395 703l202 -703h-161l-131 528l-146 -528h-144l210 703h170z" />
    <glyph glyph-name="Mu" unicode="&#x39c;" horiz-adv-x="853" 
d="M72 0v703h224l99 -370q24 -90 36 -173q15 101 33 172l93 371h224v-703h-146v371l4 185q-31 -124 -45 -176l-105 -380h-132l-105 380l-44 176q4 -134 4 -185v-371h-140z" />
    <glyph glyph-name="Nu" unicode="&#x39d;" horiz-adv-x="696" 
d="M72 0v703h171l236 -465q-6 99 -6 169v296h140v-703h-148l-259 510q6 -84 6 -169v-341h-140z" />
    <glyph glyph-name="Xi" unicode="&#x39e;" horiz-adv-x="544" 
d="M54 570v133h436v-133h-436zM36 0v133h472v-133h-472zM110 299v130h324v-130h-324z" />
    <glyph glyph-name="Omicron" unicode="&#x39f;" horiz-adv-x="680" 
d="M340 -10q-139 0 -214.5 96t-75.5 260q0 159 76 264t214 105q140 0 215 -98.5t75 -257.5q0 -166 -76 -267.5t-214 -101.5zM338 116q132 0 132 239q0 234 -129 234q-132 0 -132 -240q0 -125 32.5 -179t96.5 -54z" />
    <glyph glyph-name="Pi" unicode="&#x3a0;" horiz-adv-x="665" 
d="M72 0v703h521v-703h-152v580h-217v-580h-152z" />
    <glyph glyph-name="Rho" unicode="&#x3a1;" horiz-adv-x="606" 
d="M72 0v703h232q120 0 193.5 -52.5t73.5 -167.5q0 -111 -69.5 -162t-180.5 -51h-98v-270h-151zM223 388h79q59 0 87 23t28 74q0 96 -105 96h-89v-193z" />
    <glyph glyph-name="Sigma" unicode="&#x3a3;" horiz-adv-x="562" 
d="M38 0v108l213 264l-203 225v106h460v-123h-273l146 -162v-91l-165 -204h312v-123h-490z" />
    <glyph glyph-name="Tau" unicode="&#x3a4;" horiz-adv-x="553" 
d="M201 0v580h-177v123h505v-123h-176v-580h-152z" />
    <glyph glyph-name="Upsilon" unicode="&#x3a5;" horiz-adv-x="599" 
d="M222 0v291l-212 412h165l131 -274l131 274h152l-215 -412v-291h-152z" />
    <glyph glyph-name="Phi" unicode="&#x3a6;" horiz-adv-x="789" 
d="M466 225h24q110 0 110 137q0 130 -108 130h-26v-267zM323 -5v119h-38q-116 0 -183 64.5t-67 181.5q0 120 66.5 183.5t182.5 63.5h39v101h143v-101h39q116 0 182.5 -63.5t66.5 -183.5q0 -117 -67 -181.5t-183 -64.5h-38v-119h-143zM299 225h24v267h-26q-108 0 -108 -130
q0 -137 110 -137z" />
    <glyph glyph-name="Chi" unicode="&#x3a7;" horiz-adv-x="587" 
d="M12 0l203 369l-188 334h168l105 -211l97 211h153l-179 -334l204 -369h-168l-120 234l-122 -234h-153z" />
    <glyph glyph-name="Psi" unicode="&#x3a8;" horiz-adv-x="853" 
d="M641 467v236h152v-272q0 -59 -21.5 -103t-59.5 -69t-83.5 -36.5t-100.5 -11.5h-26v-211h-151v211h-26q-55 0 -100.5 11.5t-83.5 36.5t-59.5 69t-21.5 103v272h152v-236q0 -77 34 -107.5t95 -30.5h10v375h151v-375h10q61 0 95 30.5t34 107.5z" />
    <glyph glyph-name="uni03A9" unicode="&#x3a9;" horiz-adv-x="710" 
d="M355 715q136 0 219 -84.5t83 -229.5q0 -87 -39.5 -164t-108.5 -119q52 5 101 5h60v-123h-282v160q109 78 109 228q0 99 -38 150t-104 51t-104 -51t-38 -150q0 -151 109 -228v-160h-282v123h60q49 0 101 -5q-69 42 -108.5 119t-39.5 164q0 145 83 229.5t219 84.5z" />
    <glyph glyph-name="Iotadieresis" unicode="&#x3aa;" horiz-adv-x="310" 
d="M79 0v703h152v-703h-152zM257 740q-36 0 -57 22t-21 53q0 30 21 52.5t57 22.5t57 -22t21 -53q0 -34 -20.5 -54.5t-57.5 -20.5zM47 740q-36 0 -57 22t-21 53q0 30 21 52.5t57 22.5t57 -22t21 -53q0 -34 -20.5 -54.5t-57.5 -20.5z" />
    <glyph glyph-name="Upsilondieresis" unicode="&#x3ab;" horiz-adv-x="599" 
d="M222 0v291l-212 412h165l131 -274l131 274h152l-215 -412v-291h-152zM410 740q-36 0 -57 22t-21 53q0 30 21 52.5t57 22.5t57 -22t21 -53q0 -34 -20.5 -54.5t-57.5 -20.5zM200 740q-36 0 -57 22t-21 53q0 30 21 52.5t57 22.5t57 -22t21 -53q0 -34 -20.5 -54.5
t-57.5 -20.5z" />
    <glyph glyph-name="alphatonos" unicode="&#x3ac;" horiz-adv-x="610" 
d="M433 517h78v-361q0 -58 39 -58q18 0 38 6l12 -89q-40 -22 -100 -22q-97 0 -131 79q-64 -83 -154 -83q-84 0 -130.5 69.5t-46.5 178.5q0 132 60.5 212t149.5 80q84 0 128 -68zM268 99q49 0 91 60v189q-9 23 -29.5 40.5t-44.5 17.5q-43 0 -67 -45.5t-24 -125.5
q0 -61 18.5 -98.5t55.5 -37.5zM228 566l25 180h166l-101 -180h-90z" />
    <glyph glyph-name="epsilontonos" unicode="&#x3ad;" horiz-adv-x="525" 
d="M442 169l66 -89q-97 -90 -248 -90q-111 0 -168 40.5t-57 114.5q0 54 37 86.5t94 38.5v1q-52 8 -85.5 39t-33.5 82q0 64 58.5 100.5t165.5 36.5q151 0 223 -93l-90 -71q-47 55 -129 55q-77 0 -77 -47q0 -34 33.5 -45.5t111.5 -11.5v-91q-78 0 -116 -14t-38 -53
q0 -23 19 -39t61 -16q92 0 173 66zM214 566l25 180h166l-101 -180h-90z" />
    <glyph glyph-name="etatonos" unicode="&#x3ae;" horiz-adv-x="587" 
d="M83 0v367q0 49 -27 49q-14 0 -28 -6l-18 98q42 21 96 21q48 0 73 -19t40 -60q70 79 161 79q148 0 148 -189v-518h-152v520q0 62 -52 62q-48 0 -89 -44v-360h-152zM241 566l25 180h166l-101 -180h-90z" />
    <glyph glyph-name="iotatonos" unicode="&#x3af;" horiz-adv-x="317" 
d="M211 517v-358q0 -55 44 -55q15 0 43 7l18 -104q-54 -17 -123 -17q-70 0 -102 33t-32 106v388h152zM77 566l25 180h166l-101 -180h-90z" />
    <glyph glyph-name="upsilondieresistonos" unicode="&#x3b0;" horiz-adv-x="579" 
d="M535 276q0 -286 -245 -286q-235 0 -235 221v306h152v-307q0 -109 84 -109q50 0 71 39t21 136q0 56 -18 130.5t-39 110.5h152q22 -43 39.5 -109.5t17.5 -131.5zM429 571q-30 0 -49.5 20.5t-19.5 48.5t19.5 48.5t49.5 20.5q29 0 48.5 -20.5t19.5 -48.5q0 -30 -19 -49.5
t-49 -19.5zM144 571q-30 0 -50.5 20.5t-20.5 48.5t20.5 48.5t50.5 20.5q29 0 49 -20.5t20 -48.5q0 -29 -19.5 -49t-49.5 -20zM235 623l25 180h146l-91 -180h-80z" />
    <glyph glyph-name="alpha" unicode="&#x3b1;" horiz-adv-x="610" 
d="M433 517h78v-361q0 -58 39 -58q18 0 38 6l12 -89q-40 -22 -100 -22q-97 0 -131 79q-64 -83 -154 -83q-84 0 -130.5 69.5t-46.5 178.5q0 132 60.5 212t149.5 80q84 0 128 -68zM268 99q49 0 91 60v189q-9 23 -29.5 40.5t-44.5 17.5q-43 0 -67 -45.5t-24 -125.5
q0 -61 18.5 -98.5t55.5 -37.5z" />
    <glyph glyph-name="beta" unicode="&#x3b2;" horiz-adv-x="595" 
d="M563 195q0 -96 -56 -150.5t-150 -54.5q-90 0 -141 60h-2q2 -30 2 -60v-204h-152v699q0 119 63.5 174.5t171.5 55.5q95 0 153 -47.5t58 -133.5q0 -57 -30 -99t-80 -57v-1q65 -10 114 -56t49 -126zM406 196q0 58 -37 91t-98 35v100q93 6 93 101q0 37 -18 59t-51 22
q-79 0 -79 -114v-338q13 -20 42 -33.5t60 -13.5q42 0 65 24t23 67z" />
    <glyph glyph-name="gamma" unicode="&#x3b3;" horiz-adv-x="550" 
d="M12 517h158q83 -282 106 -359q43 166 110 359h155q-156 -389 -194 -517q-22 -86 -30 -178h-149q7 72 42 179z" />
    <glyph glyph-name="delta" unicode="&#x3b4;" horiz-adv-x="566" 
d="M483 599h-106q-68 0 -125 12l136 -113q73 -61 106.5 -122.5t33.5 -142.5q0 -105 -66.5 -174t-178.5 -69q-111 0 -178 64.5t-67 177.5q0 169 181 246l-133 132v93h397v-104zM371 230q0 99 -79 174q-44 -24 -70.5 -71t-26.5 -107q0 -61 24 -93t64 -32q42 0 65 32.5t23 96.5
z" />
    <glyph glyph-name="epsilon" unicode="&#x3b5;" horiz-adv-x="525" 
d="M442 169l66 -89q-97 -90 -248 -90q-111 0 -168 40.5t-57 114.5q0 54 37 86.5t94 38.5v1q-52 8 -85.5 39t-33.5 82q0 64 58.5 100.5t165.5 36.5q151 0 223 -93l-90 -71q-47 55 -129 55q-77 0 -77 -47q0 -34 33.5 -45.5t111.5 -11.5v-91q-78 0 -116 -14t-38 -53
q0 -23 19 -39t61 -16q92 0 173 66z" />
    <glyph glyph-name="zeta" unicode="&#x3b6;" horiz-adv-x="476" 
d="M197 200q0 -33 19 -54t48 -29.5t62.5 -19.5t62.5 -23.5t48 -42t19 -74.5q0 -62 -37 -124l-120 38q16 32 16 60q0 23 -20.5 37.5t-51.5 20t-66.5 17.5t-66.5 28.5t-51.5 54.5t-20.5 94q0 58 20 115t58.5 111.5t76 96.5t90.5 94v2q-28 -2 -54 -2h-130v103h337v-93
q-48 -51 -82.5 -92.5t-74 -98t-61 -112.5t-21.5 -107z" />
    <glyph glyph-name="eta" unicode="&#x3b7;" horiz-adv-x="587" 
d="M83 0v367q0 49 -27 49q-14 0 -28 -6l-18 98q42 21 96 21q48 0 73 -19t40 -60q70 79 161 79q148 0 148 -189v-518h-152v520q0 62 -52 62q-48 0 -89 -44v-360h-152z" />
    <glyph glyph-name="theta" unicode="&#x3b8;" horiz-adv-x="595" 
d="M542 349v-33.5t-2 -43t-6 -52t-12 -52.5t-19.5 -54.5t-30.5 -47t-42.5 -40.5t-57.5 -25.5t-74 -10.5t-74 10t-57.5 24.5t-42.5 40t-30.5 46.5t-20 53.5t-12.5 52.5t-6 52.5t-2 44v35.5q0 30 0.5 45.5t4.5 59t12.5 71.5t26.5 66.5t43 61.5t66 40t92 17q40 0 74 -10.5
t57.5 -25.5t42.5 -40.5t30.5 -47t19.5 -55t12 -53t6 -52.5t2 -43v-34zM385 406q0 192 -85 192q-89 0 -89 -192h174zM386 302l-177 1q0 -202 87 -202q90 0 90 201z" />
    <glyph glyph-name="iota" unicode="&#x3b9;" horiz-adv-x="317" 
d="M211 517v-358q0 -55 44 -55q15 0 43 7l18 -104q-54 -17 -123 -17q-70 0 -102 33t-32 106v388h152z" />
    <glyph glyph-name="kappa" unicode="&#x3ba;" horiz-adv-x="545" 
d="M217 181v-181h-152v517h152v-212l145 212h160l-159 -209l172 -308h-166l-112 210z" />
    <glyph glyph-name="lambda" unicode="&#x3bb;" horiz-adv-x="542" 
d="M17 0l220 486l-7 22q-28 91 -94 91q-27 0 -51 -9l-30 98q59 22 108 22q79 0 121.5 -35t74.5 -130l183 -545h-153l-94 321l-120 -321h-158z" />
    <glyph glyph-name="uni03BC" unicode="&#x3bc;" horiz-adv-x="593" 
d="M510 517v-367q0 -49 27 -49q14 0 28 6l18 -98q-42 -21 -96 -21q-48 0 -73 19t-40 61q-33 -43 -57.5 -60.5t-61.5 -17.5q-31 0 -53 14q4 -20 9 -80t5 -102h-151v695h152v-339q0 -62 56 -62q45 0 85 33v368h152z" />
    <glyph glyph-name="nu" unicode="&#x3bd;" horiz-adv-x="545" 
d="M494 388q0 -89 -45 -191t-125 -197h-136l-178 517h156l109 -390q75 95 75 253q0 84 -31 137h147q28 -40 28 -129z" />
    <glyph glyph-name="xi" unicode="&#x3be;" horiz-adv-x="476" 
d="M38 183q0 72 47 120.5t156 72.5v1q-63 6 -103.5 37.5t-40.5 82.5q0 81 106 103v3q-48 -3 -102 -3h-41v103h344v-95q-166 -18 -166 -100q0 -75 148 -86v-95q-97 -13 -143 -39t-46 -88q0 -42 26.5 -65.5t64.5 -33.5t76.5 -22t65 -42.5t26.5 -83.5q0 -58 -37 -120l-120 38
q16 32 16 60q0 23 -20.5 37.5t-51.5 20t-66.5 17.5t-66.5 28.5t-51.5 54.5t-20.5 94z" />
    <glyph glyph-name="omicron" unicode="&#x3bf;" horiz-adv-x="565" 
d="M283 -10q-113 0 -179 72t-66 191q0 120 67 198t178 78q109 0 176.5 -73t67.5 -190q0 -124 -65 -200t-179 -76zM284 101q87 0 87 162q0 80 -21 117.5t-67 37.5q-88 0 -88 -158q0 -159 89 -159z" />
    <glyph glyph-name="pi" unicode="&#x3c0;" horiz-adv-x="724" 
d="M15 463l95 54h574v-104h-116v-254q0 -55 39 -55q13 0 45 8l22 -103q-61 -19 -124 -19q-70 0 -102 33t-32 106v284h-128v-413h-152v413h-121v50z" />
    <glyph glyph-name="rho" unicode="&#x3c1;" horiz-adv-x="584" 
d="M546 234q0 -114 -54.5 -179t-146.5 -65q-84 0 -137 62h-2q2 -34 2 -58v-172h-152v455q0 121 63.5 186.5t172.5 65.5q111 0 182.5 -79.5t71.5 -215.5zM390 237q0 82 -28 131.5t-73 49.5q-81 0 -81 -140v-126q16 -21 43.5 -36t52.5 -15q40 0 63 34.5t23 101.5z" />
    <glyph glyph-name="sigma1" unicode="&#x3c2;" horiz-adv-x="491" 
d="M301 405q-49 0 -76.5 -61t-27.5 -136q0 -37 19.5 -61t49 -33.5t63.5 -21t63.5 -23.5t49 -41.5t19.5 -74.5q0 -58 -37 -120l-120 38q16 32 16 60q0 23 -21 37.5t-52 20.5t-68 18.5t-68 29.5t-52 56.5t-21 96.5q0 56 14 112.5t43 108.5t81.5 85t120.5 33q95 0 171 -62
l-71 -101q-55 39 -96 39z" />
    <glyph glyph-name="sigma" unicode="&#x3c3;" horiz-adv-x="614" 
d="M537 229q0 -113 -67 -176t-184 -63q-115 0 -181.5 72.5t-66.5 193.5q0 123 75 191.5t203 69.5h283v-104h-62q-47 0 -93 6v-1q93 -67 93 -189zM379 231q0 104 -38 182h-25q-50 0 -85.5 -39.5t-35.5 -118.5q0 -77 25.5 -115.5t67.5 -38.5t66.5 32t24.5 98z" />
    <glyph glyph-name="tau" unicode="&#x3c4;" horiz-adv-x="518" 
d="M163 413h-148v50l95 54h377v-104h-172v-252q0 -33 11 -45t34 -12q18 0 50 8l14 -105q-60 -17 -126 -17q-71 0 -103 33.5t-32 102.5v287z" />
    <glyph glyph-name="upsilon" unicode="&#x3c5;" horiz-adv-x="578" 
d="M539 276q0 -286 -245 -286q-235 0 -235 221v306h152v-307q0 -109 84 -109q50 0 71 39t21 136q0 56 -18 130.5t-39 110.5h152q22 -43 39.5 -109.5t17.5 -131.5z" />
    <glyph glyph-name="phi" unicode="&#x3c6;" horiz-adv-x="790" 
d="M752 276q0 -140 -72 -209.5t-217 -76.5v-168h-140v168q-147 5 -216 74t-69 203q0 108 48.5 176.5t169.5 83.5l11 -105q-27 -5 -45 -20t-26 -39t-10.5 -45t-2.5 -51q0 -81 30.5 -120t109.5 -42v200q0 224 205 224q113 0 168.5 -70t55.5 -183zM607 274q0 144 -76 144
q-35 0 -51.5 -27t-16.5 -88v-199q81 3 112.5 44.5t31.5 125.5z" />
    <glyph glyph-name="chi" unicode="&#x3c7;" horiz-adv-x="572" 
d="M413 -178l-118 270l-125 -270h-157l207 385l-53 109q-25 51 -40.5 73t-32.5 22q-15 0 -49 -10l-31 105q59 22 108 22q55 0 86.5 -36t62.5 -105l35 -79l91 209h153l-169 -323l192 -372h-160z" />
    <glyph glyph-name="psi" unicode="&#x3c8;" horiz-adv-x="805" 
d="M473 661v-560v-1q75 3 103.5 30.5t28.5 102.5v284h144v-281q0 -130 -63.5 -185.5t-212.5 -60.5v-168h-140v168q-150 5 -213.5 60.5t-63.5 185.5v281h145v-284q0 -74 28.5 -101.5t103.5 -29.5v559h140z" />
    <glyph glyph-name="omega" unicode="&#x3c9;" horiz-adv-x="784" 
d="M462 336v-108q0 -125 65 -125q42 0 58 37.5t16 116.5q0 147 -89 170l16 100q62 -9 106 -35.5t67.5 -65t34 -80t10.5 -89.5q0 -267 -201 -267q-115 0 -152 112h-2h2h-2q-34 -112 -152 -112q-201 0 -201 267q0 48 10.5 89.5t34 80t67.5 65t106 35.5l16 -100
q-89 -23 -89 -170q0 -79 16 -116.5t58 -37.5q65 0 65 125v108h140z" />
    <glyph glyph-name="iotadieresis" unicode="&#x3ca;" horiz-adv-x="317" 
d="M211 517v-358q0 -55 44 -55q15 0 43 7l18 -104q-54 -17 -123 -17q-70 0 -102 33t-32 106v388h152zM260 560q-36 0 -57 22t-21 53q0 30 21 52.5t57 22.5t57 -22t21 -53q0 -34 -20.5 -54.5t-57.5 -20.5zM50 560q-36 0 -57 22t-21 53q0 30 21 52.5t57 22.5t57 -22t21 -53
q0 -34 -20.5 -54.5t-57.5 -20.5z" />
    <glyph glyph-name="upsilondieresis" unicode="&#x3cb;" horiz-adv-x="579" 
d="M535 276q0 -286 -245 -286q-235 0 -235 221v306h152v-307q0 -109 84 -109q50 0 71 39t21 136q0 56 -18 130.5t-39 110.5h152q22 -43 39.5 -109.5t17.5 -131.5zM387 560q-36 0 -57 22t-21 53q0 30 21 52.5t57 22.5t57 -22t21 -53q0 -34 -20.5 -54.5t-57.5 -20.5zM177 560
q-36 0 -57 22t-21 53q0 30 21 52.5t57 22.5t57 -22t21 -53q0 -34 -20.5 -54.5t-57.5 -20.5z" />
    <glyph glyph-name="omicrontonos" unicode="&#x3cc;" horiz-adv-x="565" 
d="M283 -10q-113 0 -179 72t-66 191q0 120 67 198t178 78q109 0 176.5 -73t67.5 -190q0 -124 -65 -200t-179 -76zM284 101q87 0 87 162q0 80 -21 117.5t-67 37.5q-88 0 -88 -158q0 -159 89 -159zM222 566l25 180h166l-101 -180h-90z" />
    <glyph glyph-name="upsilontonos" unicode="&#x3cd;" horiz-adv-x="579" 
d="M535 276q0 -286 -245 -286q-235 0 -235 221v306h152v-307q0 -109 84 -109q50 0 71 39t21 136q0 56 -18 130.5t-39 110.5h152q22 -43 39.5 -109.5t17.5 -131.5zM225 566l25 180h166l-101 -180h-90z" />
    <glyph glyph-name="omegatonos" unicode="&#x3ce;" horiz-adv-x="784" 
d="M462 336v-108q0 -125 65 -125q42 0 58 37.5t16 116.5q0 147 -89 170l16 100q62 -9 106 -35.5t67.5 -65t34 -80t10.5 -89.5q0 -267 -201 -267q-115 0 -152 112h-2h2h-2q-34 -112 -152 -112q-201 0 -201 267q0 48 10.5 89.5t34 80t67.5 65t106 35.5l16 -100
q-89 -23 -89 -170q0 -79 16 -116.5t58 -37.5q65 0 65 125v108h140zM336 566l25 180h166l-101 -180h-90z" />
    <glyph glyph-name="afii10023" unicode="&#x401;" horiz-adv-x="560" 
d="M72 0v703h434v-123h-283v-156h227v-120h-227v-181h301v-123h-452zM394 740q-36 0 -57 22t-21 53q0 30 21 52.5t57 22.5t57 -22t21 -53q0 -34 -20.5 -54.5t-57.5 -20.5zM184 740q-36 0 -57 22t-21 53q0 30 21 52.5t57 22.5t57 -22t21 -53q0 -34 -20.5 -54.5t-57.5 -20.5z
" />
    <glyph glyph-name="afii10051" unicode="&#x402;" horiz-adv-x="799" 
d="M585 33v211q0 54 -22.5 79.5t-77.5 25.5q-70 0 -132 -27v-322h-152v580h-177v123h505v-123h-176v-147q111 40 177 40q102 0 154.5 -55.5t52.5 -138.5v-239q0 -218 -197 -218q-42 0 -81.5 15.5t-62.5 36.5l69 106q29 -25 67 -25q53 0 53 78z" />
    <glyph glyph-name="afii10052" unicode="&#x403;" horiz-adv-x="523" 
d="M224 0h-152v703h427v-123h-275v-580zM208 746l33 137h176l-109 -137h-100z" />
    <glyph glyph-name="afii10053" unicode="&#x404;" horiz-adv-x="617" 
d="M365 -10q-83 0 -145 29t-98 79.5t-53 113t-17 137.5q0 101 31.5 181.5t103 132.5t173.5 52q138 0 207 -80l-84 -103q-31 27 -56.5 38.5t-63.5 11.5q-66 0 -100.5 -38.5t-44.5 -120.5h214v-123h-217q6 -92 42 -134t107 -42q63 0 132 65l85 -102q-88 -97 -216 -97z" />
    <glyph glyph-name="afii10054" unicode="&#x405;" horiz-adv-x="591" 
d="M290 -10q-155 0 -260 77l67 110q84 -59 190 -59q52 0 82 20.5t30 57.5q0 10 -2 18t-7 15.5t-10 13t-15.5 11.5t-18 10t-23.5 10t-26.5 9.5l-31.5 10.5t-35 12q-37 13 -63 27.5t-53 38t-41 60t-14 83.5q0 95 66 147.5t174 52.5q130 0 211 -48l-51 -115q-76 36 -155 36
q-104 0 -104 -68q0 -16 6 -28t13 -20t25.5 -16t31 -12t41.5 -13q13 -4 20 -6q35 -11 60 -21t55 -28.5t49 -41.5t32 -58t13 -78q0 -94 -66.5 -151t-189.5 -57z" />
    <glyph glyph-name="afii10055" unicode="&#x406;" horiz-adv-x="310" 
d="M79 0v703h152v-703h-152z" />
    <glyph glyph-name="afii10056" unicode="&#x407;" horiz-adv-x="310" 
d="M79 0v703h152v-703h-152zM257 740q-36 0 -57 22t-21 53q0 30 21 52.5t57 22.5t57 -22t21 -53q0 -34 -20.5 -54.5t-57.5 -20.5zM47 740q-36 0 -57 22t-21 53q0 30 21 52.5t57 22.5t57 -22t21 -53q0 -34 -20.5 -54.5t-57.5 -20.5z" />
    <glyph glyph-name="afii10057" unicode="&#x408;" horiz-adv-x="463" 
d="M191 -10q-117 0 -181 73l78 100q43 -40 94 -40q64 0 64 83v497h152v-493q0 -108 -52.5 -164t-154.5 -56z" />
    <glyph glyph-name="afii10058" unicode="&#x409;" horiz-adv-x="982" 
d="M619 703v-280h78q112 0 181 -48t69 -158q0 -115 -73.5 -166t-193.5 -51h-213v580h-156l-18 -153q-26 -219 -42 -282q-30 -117 -100 -144q-26 -11 -61 -11q-50 0 -94 11l17 126q18 -4 32 -4q41 0 61 77.5t45 287.5l25 215h443zM619 305v-183h69q53 0 79 22t26 71
q0 50 -27.5 70t-87.5 20h-59z" />
    <glyph glyph-name="afii10059" unicode="&#x40a;" horiz-adv-x="956" 
d="M72 0v703h152v-280h217v280h152v-280h78q112 0 181 -48t69 -158q0 -115 -73.5 -166t-193.5 -51h-213v300h-217v-300h-152zM652 305h-59v-183h69q53 0 79 22t26 71q0 50 -27.5 70t-87.5 20z" />
    <glyph glyph-name="afii10060" unicode="&#x40b;" horiz-adv-x="799" 
d="M737 0h-152v244q0 54 -22.5 79.5t-77.5 25.5q-60 0 -132 -24v-325h-152v580h-177v123h505v-123h-176v-147q94 40 177 40q102 0 154.5 -55.5t52.5 -138.5v-279z" />
    <glyph glyph-name="afii10061" unicode="&#x40c;" horiz-adv-x="631" 
d="M224 412l213 291h168l-222 -283l233 -420h-169l-177 322l-46 -33v-289h-152v703h152v-291zM266 746l33 137h176l-109 -137h-100z" />
    <glyph glyph-name="afii10062" unicode="&#x40e;" horiz-adv-x="589" 
d="M29 703h165l98 -236q18 -43 28 -87q10 38 28 85l89 238h152l-211 -490q-26 -61 -47.5 -98t-50 -68t-64 -44t-83.5 -13q-26 0 -61 9t-52 19l36 106q38 -19 67 -19q16 0 26.5 3t25.5 15.5t31.5 41t36.5 74.5zM316 740q-99 0 -147.5 46.5t-48.5 116.5h118q4 -43 21 -61.5
t58 -18.5t59.5 19t22.5 61h117q0 -69 -50.5 -116t-149.5 -47z" />
    <glyph glyph-name="afii10145" unicode="&#x40f;" horiz-adv-x="665" 
d="M72 0v703h152v-580h217v580h152v-703h-188l-6 -178h-132l-6 178h-189z" />
    <glyph glyph-name="afii10017" unicode="&#x410;" horiz-adv-x="628" 
d="M203 164l-41 -164h-144l198 704h199l195 -704h-155l-41 164h-211zM385 277l-19 76l-38 152l-19 76l-77 -304h153z" />
    <glyph glyph-name="afii10018" unicode="&#x411;" horiz-adv-x="606" 
d="M72 0v703h431v-123h-280v-157h98q112 0 181 -48t69 -158q0 -115 -73.5 -166t-193.5 -51h-232zM302 305h-79v-183h89q53 0 79 22t26 71q0 50 -27.5 70t-87.5 20z" />
    <glyph glyph-name="afii10019" unicode="&#x412;" horiz-adv-x="618" 
d="M72 0v703h238q107 0 176 -46.5t69 -140.5q0 -109 -113 -148q64 -14 99 -59t35 -111q0 -98 -62 -148t-176 -50h-266zM223 421h78q99 0 99 85q0 82 -109 82h-68v-167zM223 115h83q111 0 111 94q0 103 -115 103h-79v-197z" />
    <glyph glyph-name="afii10020" unicode="&#x413;" horiz-adv-x="523" 
d="M224 0h-152v703h427v-123h-275v-580z" />
    <glyph glyph-name="afii10021" unicode="&#x414;" horiz-adv-x="796" 
d="M519 123v457h-156q-26 -315 -96 -457h252zM226 703h445v-580h95v-301h-132l-16 178h-457l-16 -178h-132v301h86q90 140 127 580z" />
    <glyph glyph-name="afii10022" unicode="&#x415;" horiz-adv-x="560" 
d="M72 0v703h434v-123h-283v-156h227v-120h-227v-181h301v-123h-452z" />
    <glyph glyph-name="afii10024" unicode="&#x416;" horiz-adv-x="956" 
d="M407 412v291h142v-291l213 291h168l-222 -283l233 -420h-169l-177 322l-46 -33v-289h-142v289l-46 33l-177 -322h-169l233 420l-222 283h168z" />
    <glyph glyph-name="afii10025" unicode="&#x417;" horiz-adv-x="593" 
d="M294 -10q-153 0 -258 90l80 109q91 -70 175 -70q106 0 106 92q0 49 -35.5 73t-119.5 24h-39v110h39q75 0 106 23.5t31 69.5q0 75 -89 75q-64 0 -149 -58l-74 106q100 80 230 80q101 0 166.5 -50t65.5 -131q0 -126 -125 -167q64 -13 105.5 -54t41.5 -104q0 -100 -70 -159
t-187 -59z" />
    <glyph glyph-name="afii10026" unicode="&#x418;" horiz-adv-x="696" 
d="M618 703v-703h-140v341q0 85 6 169l-259 -510h-148v703h140v-296q0 -70 -6 -169l236 465h171z" />
    <glyph glyph-name="afii10027" unicode="&#x419;" horiz-adv-x="696" 
d="M614 703v-703h-140v341q0 85 6 169l-259 -510h-148v703h140v-296q0 -70 -6 -169l236 465h171zM346 740q-99 0 -147.5 46.5t-48.5 116.5h118q4 -43 21 -61.5t58 -18.5t59.5 19t22.5 61h117q0 -69 -50.5 -116t-149.5 -47z" />
    <glyph glyph-name="afii10028" unicode="&#x41a;" horiz-adv-x="631" 
d="M224 412l213 291h168l-222 -283l233 -420h-169l-177 322l-46 -33v-289h-152v703h152v-291z" />
    <glyph glyph-name="afii10029" unicode="&#x41b;" horiz-adv-x="691" 
d="M467 0v580h-156l-18 -153q-26 -219 -42 -282q-30 -117 -100 -144q-26 -11 -61 -11q-50 0 -94 11l17 126q18 -4 32 -4q41 0 61 77.5t45 287.5l25 215h443v-703h-152z" />
    <glyph glyph-name="afii10030" unicode="&#x41c;" horiz-adv-x="853" 
d="M72 0v703h224l99 -370q24 -90 36 -173q15 101 33 172l93 371h224v-703h-146v371l4 185q-31 -124 -45 -176l-105 -380h-132l-105 380l-44 176q4 -134 4 -185v-371h-140z" />
    <glyph glyph-name="afii10031" unicode="&#x41d;" horiz-adv-x="665" 
d="M72 0v703h152v-280h217v280h152v-703h-152v300h-217v-300h-152z" />
    <glyph glyph-name="afii10032" unicode="&#x41e;" horiz-adv-x="680" 
d="M340 -10q-139 0 -214.5 96t-75.5 260q0 159 76 264t214 105q140 0 215 -98.5t75 -257.5q0 -166 -76 -267.5t-214 -101.5zM338 116q132 0 132 239q0 234 -129 234q-132 0 -132 -240q0 -125 32.5 -179t96.5 -54z" />
    <glyph glyph-name="afii10033" unicode="&#x41f;" horiz-adv-x="665" 
d="M72 0v703h521v-703h-152v580h-217v-580h-152z" />
    <glyph glyph-name="afii10034" unicode="&#x420;" horiz-adv-x="606" 
d="M72 0v703h232q120 0 193.5 -52.5t73.5 -167.5q0 -111 -69.5 -162t-180.5 -51h-98v-270h-151zM223 388h79q59 0 87 23t28 74q0 96 -105 96h-89v-193z" />
    <glyph glyph-name="afii10035" unicode="&#x421;" horiz-adv-x="617" 
d="M365 -10q-83 0 -145 29t-98 79.5t-53 113t-17 137.5q0 101 31.5 181.5t103 132.5t173.5 52q138 0 207 -80l-84 -103q-31 27 -56.5 38.5t-63.5 11.5q-77 0 -113 -59.5t-36 -185.5q0 -213 150 -213q63 0 132 65l85 -102q-88 -97 -216 -97z" />
    <glyph glyph-name="afii10036" unicode="&#x422;" horiz-adv-x="553" 
d="M201 0v580h-177v123h505v-123h-176v-580h-152z" />
    <glyph glyph-name="afii10037" unicode="&#x423;" horiz-adv-x="589" 
d="M29 703h165l98 -236q18 -43 28 -87q10 38 28 85l89 238h152l-211 -490q-26 -61 -47.5 -98t-50 -68t-64 -44t-83.5 -13q-26 0 -61 9t-52 19l36 106q38 -19 67 -19q16 0 26.5 3t25.5 15.5t31.5 41t36.5 74.5z" />
    <glyph glyph-name="afii10038" unicode="&#x424;" horiz-adv-x="797" 
d="M466 225h24q110 0 110 137q0 130 -108 130h-26v-267zM323 -5v119h-38q-116 0 -183 64.5t-67 181.5q0 120 66.5 183.5t182.5 63.5h39v101h143v-101h39q116 0 182.5 -63.5t66.5 -183.5q0 -117 -67 -181.5t-183 -64.5h-38v-119h-143zM299 225h24v267h-26q-108 0 -108 -130
q0 -137 110 -137z" />
    <glyph glyph-name="afii10039" unicode="&#x425;" horiz-adv-x="587" 
d="M12 0l203 369l-188 334h168l105 -211l97 211h153l-179 -334l204 -369h-168l-120 234l-122 -234h-153z" />
    <glyph glyph-name="afii10040" unicode="&#x426;" horiz-adv-x="719" 
d="M72 0v703h152v-580h217v580h152v-580h95l1 -301h-132l-17 178h-468z" />
    <glyph glyph-name="afii10041" unicode="&#x427;" horiz-adv-x="670" 
d="M62 424v279h152v-244q0 -54 22.5 -79.5t77.5 -25.5q70 0 132 27v322h152v-703h-152v270q-111 -40 -177 -40q-102 0 -154.5 55.5t-52.5 138.5z" />
    <glyph glyph-name="afii10042" unicode="&#x428;" horiz-adv-x="974" 
d="M902 0h-830v703h152v-580h187v580h152v-580h187v580h152v-703z" />
    <glyph glyph-name="afii10043" unicode="&#x429;" horiz-adv-x="1027" 
d="M849 0h-777v703h152v-580h187v580h152v-580h187v580h152v-580h95v-301h-132z" />
    <glyph glyph-name="afii10044" unicode="&#x42a;" horiz-adv-x="735" 
d="M201 580h-177v123h328v-280h98q112 0 181 -48t69 -158q0 -115 -73.5 -166t-193.5 -51h-232v580zM431 305h-79v-183h89q53 0 79 22t26 71q0 50 -27.5 70t-87.5 20z" />
    <glyph glyph-name="afii10045" unicode="&#x42b;" horiz-adv-x="862" 
d="M72 0v703h151v-280h88q112 0 181 -48t69 -158q0 -115 -73.5 -166t-193.5 -51h-222zM292 305h-69v-183h79q53 0 79 22t26 71q0 50 -27.5 70t-87.5 20zM638 0v703h152v-703h-152z" />
    <glyph glyph-name="afii10046" unicode="&#x42c;" horiz-adv-x="606" 
d="M72 0v703h151v-280h98q112 0 181 -48t69 -158q0 -115 -73.5 -166t-193.5 -51h-232zM302 305h-79v-183h89q53 0 79 22t26 71q0 50 -27.5 70t-87.5 20z" />
    <glyph glyph-name="afii10047" unicode="&#x42d;" horiz-adv-x="617" 
d="M261 -10q-138 0 -226 97l85 102q69 -65 132 -65q140 0 149 176h-217v123h214q-3 79 -39 119t-101 40q-63 0 -125 -50l-84 103q80 80 219 80q77 0 135.5 -29.5t93 -81t51 -116t16.5 -139.5t-15.5 -137t-49.5 -113.5t-94.5 -80t-143.5 -28.5z" />
    <glyph glyph-name="afii10048" unicode="&#x42e;" horiz-adv-x="942" 
d="M612 -10q-124 0 -196 83t-83 227h-109v-300h-152v703h152v-280h113q17 130 88 211t187 81q135 0 207.5 -98.5t72.5 -257.5q0 -166 -73.5 -267.5t-206.5 -101.5zM610 116q122 0 122 239q0 234 -119 234q-122 0 -122 -240q0 -125 30 -179t89 -54z" />
    <glyph glyph-name="afii10049" unicode="&#x42f;" horiz-adv-x="640" 
d="M34 0l142 306q-125 53 -125 182q0 215 261 215h256v-703h-151v282h-92l-127 -282h-164zM314 398h103v183h-113q-99 0 -99 -91q0 -47 26 -69.5t83 -22.5z" />
    <glyph glyph-name="afii10065" unicode="&#x430;" horiz-adv-x="529" 
d="M321 331v13q0 35 -15.5 51t-53.5 16q-59 0 -145 -40l-52 100q100 58 210 58q103 0 155.5 -50.5t52.5 -143.5v-335h-94q-26 55 -27 55q-71 -65 -152 -65q-69 0 -115.5 40.5t-46.5 110.5q0 82 53 120q62 46 230 70zM321 128v109q-99 -20 -120 -44q-14 -15 -14 -41
q0 -55 53 -55q44 0 81 31z" />
    <glyph glyph-name="afii10066" unicode="&#x431;" horiz-adv-x="575" 
d="M182 421q56 81 161 81q93 0 144 -64t51 -181q0 -126 -65.5 -196.5t-180.5 -70.5q-243 0 -243 342q0 82 13.5 143.5t34.5 99.5t55.5 63.5t68.5 37t80 19.5l200 29l15 -130q-102 -10 -167 -19q-95 -14 -130 -44.5t-37 -109.5zM206 255q1 -76 21 -115t66 -39q49 0 69 39.5
t20 115.5q0 70 -21 102.5t-66 32.5q-89 0 -89 -136z" />
    <glyph glyph-name="afii10067" unicode="&#x432;" horiz-adv-x="547" 
d="M65 517h215q218 0 218 -134q0 -91 -83 -110v-3q103 -17 103 -117q0 -153 -213 -153h-240v517zM217 224v-135h49q53 0 74.5 15.5t21.5 55.5q0 37 -22.5 50.5t-79.5 13.5h-43zM263 428h-46v-115h41q52 0 71 13t19 49q0 31 -18 42t-67 11z" />
    <glyph glyph-name="afii10068" unicode="&#x433;" horiz-adv-x="407" 
d="M65 517h312v-104h-160v-413h-152v517z" />
    <glyph glyph-name="afii10069" unicode="&#x434;" horiz-adv-x="695" 
d="M428 104v309h-109q-24 -214 -60 -309h169zM675 104v-269h-132l-16 165h-374l-16 -165h-132v269h87q30 61 50 149.5t39 263.5h399v-413h95z" />
    <glyph glyph-name="afii10070" unicode="&#x435;" horiz-adv-x="544" 
d="M195 214q5 -53 29.5 -78t73.5 -25q27 0 54.5 8t41 15t40.5 22l60 -96q-31 -23 -53 -35.5t-63 -23.5t-91 -11q-114 0 -181.5 70.5t-67.5 192.5t64 199t176 77q115 0 172 -77t57 -198v-40h-312zM195 303h157q0 117 -75 117q-36 0 -56 -27.5t-26 -89.5z" />
    <glyph glyph-name="afii10072" unicode="&#x436;" horiz-adv-x="802" 
d="M330 0v184l-44 30l-108 -214h-166l172 301l-159 216h154l151 -219v219h142v-219l151 219h154l-159 -216l172 -301h-166l-109 214l-43 -30v-184h-142z" />
    <glyph glyph-name="afii10073" unicode="&#x437;" horiz-adv-x="519" 
d="M22 65l62 94q80 -56 163 -56q89 0 89 56q0 34 -31 48.5t-103 14.5v91q74 0 99.5 14t25.5 46q0 21 -19.5 33.5t-56.5 12.5q-79 0 -130 -53l-85 73q77 90 217 90q107 0 166 -37t59 -102q0 -46 -33 -80t-86 -42v-1q56 -6 93.5 -36.5t37.5 -79.5q0 -71 -57 -116t-181 -45
q-139 0 -230 75z" />
    <glyph glyph-name="afii10074" unicode="&#x438;" horiz-adv-x="626" 
d="M65 517h134v-230q0 -102 -3 -125l194 355h171v-517h-134v219q0 93 3 138l-195 -357h-170v517z" />
    <glyph glyph-name="afii10075" unicode="&#x439;" horiz-adv-x="626" 
d="M65 517h134v-230q0 -102 -3 -125l194 355h171v-517h-134v219q0 93 3 138l-195 -357h-170v517zM313 560q-99 0 -147.5 46.5t-48.5 116.5h118q4 -43 21 -61.5t58 -18.5t59.5 19t22.5 61h117q0 -69 -50.5 -116t-149.5 -47z" />
    <glyph glyph-name="afii10076" unicode="&#x43a;" horiz-adv-x="545" 
d="M217 181v-181h-152v517h152v-212l145 212h160l-159 -209l172 -308h-166l-112 210z" />
    <glyph glyph-name="afii10077" unicode="&#x43b;" horiz-adv-x="614" 
d="M549 0h-152v413h-100q-31 -251 -73 -337t-147 -86q-46 0 -81 8l15 108q15 -3 28 -3q24 0 40.5 18t31.5 68.5t27.5 124.5t29.5 203h381v-517z" />
    <glyph glyph-name="afii10078" unicode="&#x43c;" horiz-adv-x="791" 
d="M592 0v309q0 58 4 90l-143 -399h-114l-143 399q4 -48 4 -89v-310h-135v517h210l85 -242q25 -73 38 -130q14 62 39 130l87 242h202v-517h-134z" />
    <glyph glyph-name="afii10079" unicode="&#x43d;" horiz-adv-x="585" 
d="M65 517h152v-202h151v202h152v-517h-152v211h-151v-211h-152v517z" />
    <glyph glyph-name="afii10080" unicode="&#x43e;" horiz-adv-x="565" 
d="M283 -10q-113 0 -179 72t-66 191q0 120 67 198t178 78q109 0 176.5 -73t67.5 -190q0 -124 -65 -200t-179 -76zM284 101q87 0 87 162q0 80 -21 117.5t-67 37.5q-88 0 -88 -158q0 -159 89 -159z" />
    <glyph glyph-name="afii10081" unicode="&#x43f;" horiz-adv-x="585" 
d="M65 517h455v-517h-152v413h-151v-413h-152v517z" />
    <glyph glyph-name="afii10082" unicode="&#x440;" horiz-adv-x="576" 
d="M65 -178v695h94l30 -73q65 85 149 85q93 0 146.5 -71t53.5 -187q0 -133 -53 -207t-151 -74q-76 0 -117 52v-220h-152zM289 98q93 0 93 165q0 143 -88 143q-42 0 -77 -39v-231q28 -38 72 -38z" />
    <glyph glyph-name="afii10083" unicode="&#x441;" horiz-adv-x="488" 
d="M287 -10q-124 0 -186.5 73.5t-62.5 192.5t65 196t184 77q105 0 171 -58l-71 -101q-27 20 -47 27.5t-52 7.5q-93 0 -93 -147q0 -144 95 -144q51 0 103 41l73 -94q-71 -71 -179 -71z" />
    <glyph glyph-name="afii10084" unicode="&#x442;" horiz-adv-x="474" 
d="M20 413v104h434v-104h-141v-413h-152v413h-141z" />
    <glyph glyph-name="afii10085" unicode="&#x443;" horiz-adv-x="507" 
d="M201 -24l-189 541h157l97 -378l82 378h147l-155 -524q-54 -182 -225 -182q-40 0 -85 9l16 106q40 -4 51 -4q41 0 64 12.5t40 41.5z" />
    <glyph glyph-name="afii10086" unicode="&#x444;" horiz-adv-x="830" 
d="M597 -10q-61 0 -106 38v-206h-152v227q-46 -59 -117 -59q-82 0 -133 72t-51 186q0 132 51.5 206.5t143.5 74.5q58 0 106 -44v218h152v-238q19 26 51.5 45t68.5 19q82 0 131.5 -71.5t49.5 -186.5q0 -133 -50.5 -207t-144.5 -74zM271 98q35 0 68 42v231q-23 35 -66 35
q-79 0 -79 -157q0 -151 77 -151zM554 98q82 0 82 165q0 143 -77 143q-36 0 -68 -39v-231q24 -38 63 -38z" />
    <glyph glyph-name="afii10087" unicode="&#x445;" horiz-adv-x="525" 
d="M12 0l168 269l-152 248h167l76 -149l76 149h152l-152 -248l166 -269h-167l-88 168l-93 -168h-153z" />
    <glyph glyph-name="afii10088" unicode="&#x446;" horiz-adv-x="635" 
d="M520 104h95v-269h-132l-16 165h-402v517h152v-413h151v413h152v-413z" />
    <glyph glyph-name="afii10089" unicode="&#x447;" horiz-adv-x="572" 
d="M52 517h152v-209q0 -63 54 -63q40 0 97 25v247h152v-517h-152v190q-79 -49 -156 -49q-69 0 -108 40t-39 118v218z" />
    <glyph glyph-name="afii10090" unicode="&#x448;" horiz-adv-x="858" 
d="M353 517h152v-413h136v413h152v-517h-728v517h152v-413h136v413z" />
    <glyph glyph-name="afii10091" unicode="&#x449;" horiz-adv-x="908" 
d="M756 -165l-16 165h-675v517h152v-413h136v413h152v-413h136v413h152v-413h95v-269h-132z" />
    <glyph glyph-name="afii10092" unicode="&#x44a;" horiz-adv-x="652" 
d="M20 517h293v-202h89q105 0 158.5 -37t53.5 -121q0 -157 -213 -157h-240v413h-141v104zM313 226v-137h53q50 0 71 15.5t21 55.5q0 35 -22 50.5t-69 15.5h-54z" />
    <glyph glyph-name="afii10093" unicode="&#x44b;" horiz-adv-x="776" 
d="M217 226v-137h33q50 0 71 15.5t21 55.5q0 35 -22 50.5t-69 15.5h-34zM65 517h152v-202h69q105 0 158.5 -37t53.5 -121q0 -157 -213 -157h-220v517zM559 0v517h152v-517h-152z" />
    <glyph glyph-name="afii10094" unicode="&#x44c;" horiz-adv-x="556" 
d="M217 226v-137h53q50 0 71 15.5t21 55.5q0 35 -22 50.5t-69 15.5h-54zM217 315h89q105 0 158.5 -37t53.5 -121q0 -157 -213 -157h-240v517h152v-202z" />
    <glyph glyph-name="afii10095" unicode="&#x44d;" horiz-adv-x="488" 
d="M207 -10q-117 0 -185 68l68 87q52 -41 108 -41q49 0 70 29t24 85h-156v89h154q-4 50 -26.5 79t-63.5 29q-51 0 -101 -35l-69 91q68 58 185 58q121 0 178 -75.5t57 -197.5q0 -120 -58 -193t-185 -73z" />
    <glyph glyph-name="afii10096" unicode="&#x44e;" horiz-adv-x="826" 
d="M554 -10q-99 0 -160.5 59.5t-72.5 161.5h-104v-211h-152v517h152v-202h107q16 97 77 155.5t153 58.5q105 0 169.5 -73t64.5 -190q0 -124 -62.5 -200t-171.5 -76zM555 101q42 0 59.5 41t17.5 121t-18.5 117.5t-59.5 37.5q-78 0 -78 -158q0 -159 79 -159z" />
    <glyph glyph-name="afii10097" unicode="&#x44f;" horiz-adv-x="538" 
d="M178 0h-164l106 224q-33 16 -56.5 51.5t-23.5 86.5q0 81 54.5 118t162.5 37h216v-517h-152v204h-63zM319 293v135h-44q-46 0 -65.5 -17t-19.5 -50q0 -68 85 -68h44z" />
    <glyph glyph-name="afii10071" unicode="&#x451;" horiz-adv-x="548" 
d="M195 214q5 -53 29.5 -78t73.5 -25q27 0 54.5 8t41 15t40.5 22l60 -96q-31 -23 -53 -35.5t-63 -23.5t-91 -11q-114 0 -181.5 70.5t-67.5 192.5t64 199t176 77q115 0 172 -77t57 -198v-40h-312zM195 303h157q0 117 -75 117q-36 0 -56 -27.5t-26 -89.5zM382 560
q-36 0 -57 22t-21 53q0 30 21 52.5t57 22.5t57 -22t21 -53q0 -34 -20.5 -54.5t-57.5 -20.5zM172 560q-36 0 -57 22t-21 53q0 30 21 52.5t57 22.5t57 -22t21 -53q0 -34 -20.5 -54.5t-57.5 -20.5z" />
    <glyph glyph-name="afii10099" unicode="&#x452;" 
d="M340 -189q-44 0 -79 10l10 107q27 -3 34 -3q29 0 41 15t12 53v309q0 62 -52 62q-48 0 -89 -44v-320h-152v545h-64v94h64v64h152v-64h144v-94h-144v-124q64 68 145 68q148 0 148 -189v-300q0 -96 -39.5 -142.5t-130.5 -46.5z" />
    <glyph glyph-name="afii10100" unicode="&#x453;" horiz-adv-x="407" 
d="M65 517h312v-104h-160v-413h-152v517zM148 566l33 137h176l-109 -137h-100z" />
    <glyph glyph-name="afii10101" unicode="&#x454;" horiz-adv-x="488" 
d="M284 -10q-127 0 -186.5 73t-59.5 193q0 119 63.5 196t185.5 77q106 0 174 -58l-74 -93q-50 37 -95 37q-41 0 -65.5 -28t-28.5 -80h154v-89h-156q5 -114 98 -114q48 0 101 42l71 -84q-72 -72 -182 -72z" />
    <glyph glyph-name="afii10102" unicode="&#x455;" horiz-adv-x="493" 
d="M233 -10q-52 0 -109 14t-96 43l54 99q63 -40 157 -40q76 0 76 41q0 6 -1 10t-4 8t-6.5 6.5t-10 5.5t-12.5 5t-16.5 5t-19 5t-22.5 5.5l-26 6.5q-74 19 -113.5 56t-39.5 109q0 80 58 120t148 40q116 0 184 -37l-44 -103q-66 27 -137 27q-73 0 -73 -38q0 -20 21 -29.5
t72 -20.5q88 -19 135.5 -56.5t47.5 -116.5q0 -81 -58.5 -123t-164.5 -42z" />
    <glyph glyph-name="afii10103" unicode="&#x456;" horiz-adv-x="294" 
d="M147 556q-38 0 -62.5 23.5t-24.5 55.5q0 31 24.5 55t62.5 24t62.5 -23.5t24.5 -55.5q0 -35 -24 -57t-63 -22zM71 0v517h152v-517h-152z" />
    <glyph glyph-name="afii10104" unicode="&#x457;" horiz-adv-x="285" 
d="M71 0v517h143v-517h-143zM244 560q-36 0 -57 22t-21 53q0 30 21 52.5t57 22.5t57 -22t21 -53q0 -34 -20.5 -54.5t-57.5 -20.5zM34 560q-36 0 -57 22t-21 53q0 30 21 52.5t57 22.5t57 -22t21 -53q0 -34 -20.5 -54.5t-57.5 -20.5z" />
    <glyph glyph-name="afii10105" unicode="&#x458;" horiz-adv-x="294" 
d="M147 556q-38 0 -62.5 23.5t-24.5 55.5q0 31 24.5 55t62.5 24t62.5 -23.5t24.5 -55.5q0 -35 -24 -57t-63 -22zM53 -189q-44 0 -79 10l10 107q27 -3 34 -3q29 0 41 15t12 53v524h152v-516q0 -96 -39.5 -143t-130.5 -47z" />
    <glyph glyph-name="afii10106" unicode="&#x459;" horiz-adv-x="868" 
d="M549 226v-137h33q50 0 71 15.5t21 55.5q0 35 -22 50.5t-69 15.5h-34zM168 517h381v-202h69q105 0 158.5 -37t53.5 -121q0 -157 -213 -157h-220v413h-100q-31 -251 -73 -337t-147 -86q-46 0 -81 8l15 108q15 -3 28 -3q24 0 40.5 18t31.5 68.5t27.5 124.5t29.5 203z" />
    <glyph glyph-name="afii10107" unicode="&#x45a;" horiz-adv-x="839" 
d="M520 315h69q105 0 158.5 -37t53.5 -121q0 -157 -213 -157h-220v211h-151v-211h-152v517h152v-202h151v202h152v-202zM520 226v-137h33q50 0 71 15.5t21 55.5q0 35 -22 50.5t-69 15.5h-34z" />
    <glyph glyph-name="afii10108" unicode="&#x45b;" 
d="M510 0h-152v302q0 62 -52 62q-48 0 -89 -44v-320h-152v545h-64v94h64v64h152v-64h144v-94h-144v-124q64 68 145 68q148 0 148 -189v-300z" />
    <glyph glyph-name="afii10109" unicode="&#x45c;" horiz-adv-x="547" 
d="M217 181v-181h-152v517h152v-212l145 212h160l-159 -209l172 -308h-166l-112 210zM217 566l33 137h176l-109 -137h-100z" />
    <glyph glyph-name="afii10110" unicode="&#x45e;" horiz-adv-x="507" 
d="M201 -24l-189 541h157l97 -378l82 378h147l-155 -524q-54 -182 -225 -182q-40 0 -85 9l16 106q40 -4 51 -4q41 0 64 12.5t40 41.5zM256 560q-99 0 -147.5 46.5t-48.5 116.5h118q4 -43 21 -61.5t58 -18.5t59.5 19t22.5 61h117q0 -69 -50.5 -116t-149.5 -47z" />
    <glyph glyph-name="afii10193" unicode="&#x45f;" horiz-adv-x="585" 
d="M220 0h-155v517h152v-413h151v413h152v-517h-156l-6 -165h-132z" />
    <glyph glyph-name="afii10050" unicode="&#x490;" horiz-adv-x="523" 
d="M502 580h-278v-580h-152v703h282l16 165h132v-288z" />
    <glyph glyph-name="afii10098" unicode="&#x491;" horiz-adv-x="424" 
d="M246 517l16 165h132v-269h-177v-413h-152v517h181z" />
    <glyph glyph-name="endash" unicode="&#x2013;" horiz-adv-x="573" 
d="M57 213v119h459v-119h-459z" />
    <glyph glyph-name="emdash" unicode="&#x2014;" horiz-adv-x="983" 
d="M57 213v119h869v-119h-869z" />
    <glyph glyph-name="afii00208" unicode="&#x2015;" horiz-adv-x="983" 
d="M57 213v119h869v-119h-869z" />
    <glyph glyph-name="quoteleft" unicode="&#x2018;" horiz-adv-x="251" 
d="M128 395q-38 0 -63 28.5t-25 75.5q0 133 126 217l43 -47q-29 -24 -49.5 -55t-20.5 -53q28 0 50 -23t22 -58q0 -36 -24 -60.5t-59 -24.5z" />
    <glyph glyph-name="quoteright" unicode="&#x2019;" horiz-adv-x="251" 
d="M85 392l-43 47q29 24 49.5 55t20.5 53q-28 0 -50 23t-22 58q0 36 24 60.5t59 24.5q38 0 63 -28.5t25 -75.5q0 -133 -126 -217z" />
    <glyph glyph-name="quotesinglbase" unicode="&#x201a;" horiz-adv-x="251" 
d="M85 -158l-43 47q29 24 49.5 55t20.5 53q-28 0 -50 23t-22 58q0 36 24 60.5t59 24.5q38 0 63 -28.5t25 -75.5q0 -133 -126 -217z" />
    <glyph glyph-name="quotedblleft" unicode="&#x201c;" horiz-adv-x="473" 
d="M350 395q-38 0 -63 28.5t-25 75.5q0 133 126 217l43 -47q-29 -24 -49.5 -55t-20.5 -53q28 0 50 -23t22 -58q0 -36 -24 -60.5t-59 -24.5zM128 395q-38 0 -63 28.5t-25 75.5q0 133 126 217l43 -47q-29 -24 -49.5 -55t-20.5 -53q28 0 50 -23t22 -58q0 -36 -24 -60.5
t-59 -24.5z" />
    <glyph glyph-name="quotedblright" unicode="&#x201d;" horiz-adv-x="473" 
d="M307 392l-43 47q29 24 49.5 55t20.5 53q-28 0 -50 23t-22 58q0 36 24 60.5t59 24.5q38 0 63 -28.5t25 -75.5q0 -133 -126 -217zM85 392l-43 47q29 24 49.5 55t20.5 53q-28 0 -50 23t-22 58q0 36 24 60.5t59 24.5q38 0 63 -28.5t25 -75.5q0 -133 -126 -217z" />
    <glyph glyph-name="quotedblbase" unicode="&#x201e;" horiz-adv-x="473" 
d="M307 -158l-43 47q29 24 49.5 55t20.5 53q-28 0 -50 23t-22 58q0 36 24 60.5t59 24.5q38 0 63 -28.5t25 -75.5q0 -133 -126 -217zM85 -158l-43 47q29 24 49.5 55t20.5 53q-28 0 -50 23t-22 58q0 36 24 60.5t59 24.5q38 0 63 -28.5t25 -75.5q0 -133 -126 -217z" />
    <glyph glyph-name="dagger" unicode="&#x2020;" horiz-adv-x="351" 
d="M119 279v233h-88v102h88v89h114v-89h87v-102h-87v-233h-114z" />
    <glyph glyph-name="daggerdbl" unicode="&#x2021;" horiz-adv-x="351" 
d="M119 279v81h-88v102h88v58h-88v102h88v81h114v-81h88v-102h-88v-58h88v-102h-88v-81h-114z" />
    <glyph glyph-name="bullet" unicode="&#x2022;" horiz-adv-x="455" 
d="M228 148q-74 0 -124 51.5t-50 126.5t49.5 126t124.5 51t124 -51t49 -126t-49 -126.5t-124 -51.5z" />
    <glyph glyph-name="ellipsis" unicode="&#x2026;" horiz-adv-x="872" 
d="M740 -8q-37 0 -62 26t-25 62q0 38 25 63.5t62 25.5q36 0 61.5 -26t25.5 -63q0 -36 -25.5 -62t-61.5 -26zM436 -8q-37 0 -62 26t-25 62q0 38 25 63.5t62 25.5q36 0 61.5 -26t25.5 -63q0 -36 -25.5 -62t-61.5 -26zM132 -8q-37 0 -62 26t-25 62q0 38 25 63.5t62 25.5
q36 0 61.5 -26t25.5 -63q0 -36 -25.5 -62t-61.5 -26z" />
    <glyph glyph-name="perthousand" unicode="&#x2030;" horiz-adv-x="1301" 
d="M208 276q-83 0 -131 58.5t-48 149.5q0 93 47 151.5t132 58.5q82 0 130.5 -57.5t48.5 -147.5t-51 -151.5t-128 -61.5zM228 0l355 684h90l-355 -684h-90zM1093 -10q-83 0 -131 58.5t-48 149.5q0 93 47 151.5t132 58.5q82 0 130.5 -57.5t48.5 -147.5t-51 -151.5t-128 -61.5z
M693 -10q-83 0 -131 58.5t-48 149.5q0 93 47 151.5t132 58.5q82 0 130.5 -57.5t48.5 -147.5t-51 -151.5t-128 -61.5zM206 365q57 0 57 121q0 119 -56 119q-54 0 -54 -121q0 -66 13 -92.5t40 -26.5zM1091 79q57 0 57 121q0 119 -56 119q-54 0 -54 -121q0 -66 13 -92.5
t40 -26.5zM691 79q57 0 57 121q0 119 -56 119q-54 0 -54 -121q0 -66 13 -92.5t40 -26.5z" />
    <glyph glyph-name="guilsinglleft" unicode="&#x2039;" horiz-adv-x="322" 
d="M150 36l-114 210l112 214h131l-110 -214l113 -210h-132z" />
    <glyph glyph-name="guilsinglright" unicode="&#x203a;" horiz-adv-x="322" 
d="M43 36l110 214l-113 210h132l114 -210l-112 -214h-131z" />
    <glyph glyph-name="fraction" unicode="&#x2044;" horiz-adv-x="165" 
d="M-140 0l355 684h90l-355 -684h-90z" />
    <glyph glyph-name="Euro" unicode="&#x20ac;" horiz-adv-x="562" 
d="M80 371h-49v84h58q45 239 266 239q98 0 170 -65l-74 -97q-45 35 -104 35q-46 0 -70.5 -26t-34.5 -86h172l-21 -84h-158v-39v-23h143l-21 -84h-115q10 -57 37 -82.5t77 -25.5q36 0 59.5 12t48.5 35l74 -100q-70 -74 -185 -74q-113 0 -178 63t-86 172h-58v84h49q-1 9 -1 28
q0 23 1 34z" />
    <glyph glyph-name="afii61352" unicode="&#x2116;" horiz-adv-x="1100" 
d="M72 0v703h164l212 -442v442h135v-703h-148l-228 486v-486h-135zM850 262q-91 0 -144 57.5t-53 152.5q0 97 54 159.5t143 62.5t143.5 -58.5t54.5 -151.5q0 -100 -53 -161t-145 -61zM851 353q68 0 68 127q0 64 -16.5 93.5t-52.5 29.5q-68 0 -68 -124q0 -126 69 -126z
M674 98v107h353v-107h-353z" />
    <glyph glyph-name="trademark" unicode="&#x2122;" horiz-adv-x="675" 
d="M304 422v281h130l35 -167l30 167h131v-281h-88v172l-41 -172h-73l-41 172v-172h-83zM102 422v209h-71v72h231v-72h-71v-209h-89z" />
    <glyph glyph-name="Omega" unicode="&#x2126;" horiz-adv-x="710" 
d="M355 715q136 0 219 -84.5t83 -229.5q0 -87 -39.5 -164t-108.5 -119q52 5 101 5h60v-123h-282v160q109 78 109 228q0 99 -38 150t-104 51t-104 -51t-38 -150q0 -151 109 -228v-160h-282v123h60q49 0 101 -5q-69 42 -108.5 119t-39.5 164q0 145 83 229.5t219 84.5z" />
    <glyph glyph-name="partialdiff" unicode="&#x2202;" horiz-adv-x="566" 
d="M277 -10q-109 0 -175 63.5t-66 168.5q0 98 57.5 162t146.5 64q79 0 128 -46v14q0 80 -30.5 129t-92.5 49q-58 0 -116 -40l-63 94q74 67 186 67q131 0 203.5 -91t72.5 -277q0 -173 -63 -265t-188 -92zM272 101q51 0 72.5 48.5t21.5 152.5q-38 33 -92 33q-41 0 -63.5 -30.5
t-22.5 -85.5q0 -118 84 -118z" />
    <glyph glyph-name="Delta" unicode="&#x2206;" horiz-adv-x="628" 
d="M48 0v107l168 597h199l165 -597v-107h-532zM309 581l-116 -458h231z" />
    <glyph glyph-name="product" unicode="&#x220f;" horiz-adv-x="714" 
d="M72 -178v881h570v-881h-152v758h-266v-758h-152z" />
    <glyph glyph-name="summation" unicode="&#x2211;" horiz-adv-x="629" 
d="M44 -182v106l241 345l-229 327v107h518v-123h-348l217 -312l-234 -327h376v-123h-541z" />
    <glyph glyph-name="minus" unicode="&#x2212;" horiz-adv-x="600" 
d="M61 232v119h478v-119h-478z" />
    <glyph glyph-name="radical" unicode="&#x221a;" horiz-adv-x="632" 
d="M240 -178l-130 282h-87v123h185l97 -236l165 712h142l-210 -881h-162z" />
    <glyph glyph-name="infinity" unicode="&#x221e;" horiz-adv-x="844" 
d="M228 161q-83 0 -133.5 50.5t-50.5 136.5q0 85 51 134t133 49q110 0 194 -111q80 111 199 111q82 0 131 -48.5t49 -133.5q0 -86 -51 -137t-133 -51q-109 0 -195 109q-87 -109 -194 -109zM613 270q32 0 51 20t19 56t-20 57t-54 21q-57 0 -121 -80q57 -74 125 -74zM234 270
q63 0 123 74q-24 31 -60 55.5t-65 24.5q-32 0 -51 -21.5t-19 -56.5t19 -55.5t53 -20.5z" />
    <glyph glyph-name="integral" unicode="&#x222b;" horiz-adv-x="408" 
d="M105 -189q-44 0 -94 12l16 114q32 -8 53 -8q48 0 48 62v556q0 178 175 178q41 0 94 -11l-16 -114q-26 7 -53 7q-48 0 -48 -62v-556q0 -178 -175 -178z" />
    <glyph glyph-name="approxequal" unicode="&#x2248;" horiz-adv-x="600" 
d="M127 307l-88 59q52 121 161 121q46 0 103.5 -23t84.5 -23q50 0 85 54l88 -59q-52 -120 -161 -120q-46 0 -103.5 22.5t-84.5 22.5q-50 0 -85 -54zM127 85l-88 59q52 121 161 121q46 0 103.5 -23t84.5 -23q50 0 85 54l88 -59q-52 -120 -161 -120q-46 0 -103.5 22.5
t-84.5 22.5q-50 0 -85 -54z" />
    <glyph glyph-name="notequal" unicode="&#x2260;" horiz-adv-x="600" 
d="M267 341v0v0v0h-1v0h-1v0h-1v0h-1h-1h-1h-1h-1h-1h-1h-1h-1h-1h-1h-1h-1h-1h-1h-1h-1h-1h-1h-1h-1h-1h-1h-1h-1h-1h-1h-1h-1h-1h-1h-1h-1h-1h-1h-1h-1h-1h-1h-1h-2h-1h-1h-1h-1h-2h-1h-1h-1h-1h-2h-1h-1h-1h-2h-1h-1h-2h-1h-1h-2h-1h-1h-2h-1h-2h-1h-1h-2h-1h-2h-1h-1h-2
h-1h-2h-1h-2h-1h-2h-1h-2h-1h-2h-1h-2h-1h-2h-2h-1h-2h-1h-2h-1h-2h-2h-1h-2h-2h-1h-2h-2h-1h-2h-2h-1h-2h-2h-1h-2h-2h-1h-2h-2h-2h-1h-2h-2h-2h-1h-2h-2h-2h-2h-1h-2h-2h-2h-2h-2h-1h-10v119h253l60 118l91 -48l-36 -70h81v-119h-142l-50 -99h192v-119h-253l-60 -118
l-91 48l36 70h-81v119h142z" />
    <glyph glyph-name="lessequal" unicode="&#x2264;" horiz-adv-x="600" 
d="M539 187l-478 154v132l478 154v-132l-321 -89l321 -89v-130zM61 25v119h478v-119h-478z" />
    <glyph glyph-name="greaterequal" unicode="&#x2265;" horiz-adv-x="600" 
d="M61 187v132l321 89l-321 89v130l478 -154v-132zM61 25v119h478v-119h-478z" />
    <glyph glyph-name="lozenge" unicode="&#x25ca;" horiz-adv-x="608" 
d="M237 -182l-213 443l214 442h130l216 -442l-216 -443h-131zM303 -32l130 293l-130 289l-130 -289z" />
    <glyph glyph-name="commaaccent" unicode="&#xf6c3;" horiz-adv-x="250" 
d="M80 452l-38 38q26 20 44 45t18 43q-24 0 -44 19t-20 47q0 31 20 50t53 19q34 0 56 -23t22 -62q0 -107 -111 -176z" />
    <glyph glyph-name="apple" unicode="&#xf8ff;" horiz-adv-x="567" 
d="M109 76l-81 84l68 70q-30 49 -30 108q0 57 30 108l-68 69l81 87l74 -77q44 23 99 23q53 0 99 -22l74 76l85 -84l-71 -73q29 -47 29 -107q0 -57 -30 -108l72 -74l-85 -80l-73 75q-46 -23 -100 -23t-100 23zM282 234q42 0 69.5 29.5t27.5 74.5t-27.5 77.5t-69.5 32.5
t-69.5 -32.5t-27.5 -77.5t27.5 -74.5t69.5 -29.5z" />
    <glyph glyph-name="uniFB01" unicode="&#xfb01;" horiz-adv-x="652" 
d="M505 556q-38 0 -62.5 23.5t-24.5 55.5q0 31 24.5 55t62.5 24t62.5 -23.5t24.5 -55.5q0 -35 -24 -57t-63 -22zM98 413h-74v104h74v37q0 171 175 171q50 0 95 -9l-16 -114q-30 5 -54 5q-48 0 -48 -55v-35h104v-104h-104v-413h-152v413zM429 0v517h152v-517h-152z" />
    <glyph glyph-name="uniFB02" unicode="&#xfb02;" horiz-adv-x="652" 
d="M98 413h-74v104h74v37q0 171 175 171q50 0 95 -9l-16 -114q-30 5 -54 5q-48 0 -48 -55v-35h104v-104h-104v-413h-152v413zM429 0v703h152v-703h-152z" />
    <glyph glyph-name="breve.cyrillic" horiz-adv-x="374" 
d="M185 560q-99 0 -147.5 46.5t-48.5 116.5h118q4 -43 21 -61.5t58 -18.5t59.5 19t22.5 61h117q0 -69 -50.5 -116t-149.5 -47z" />
    <glyph glyph-name="commadilla" horiz-adv-x="250" 
d="M88 -265l-32 36q25 17 40.5 38t15.5 37q-24 0 -44 17t-20 42q0 28 20.5 44.5t52.5 16.5q34 0 56 -20t22 -55q0 -95 -111 -156z" />
    <glyph glyph-name="commadilla.rotate" horiz-adv-x="251" 
d="M160 792l32 -36q-25 -17 -40.5 -38t-15.5 -37q24 0 44 -17t20 -42q0 -28 -20.5 -44.5t-52.5 -16.5q-34 0 -56 20t-22 55q0 95 111 156z" />
    </font>
</defs>
</svg>
