<?xml version="1.0" standalone="no"?>
<!DOCTYPE svg PUBLIC "-//W3C//DTD SVG 1.1//EN" "http://www.w3.org/Graphics/SVG/1.1/DTD/svg11.dtd" >
<svg xmlns="http://www.w3.org/2000/svg" xmlns:xlink="http://www.w3.org/1999/xlink" version="1.1">
<metadata>
Created by FontForge 20170731 at Mon Apr 16 17:40:49 2007
 By Aleksey,,,
Copyright (c) 2003 Symantec Corporation. All rights reserved.
</metadata>
<defs>
<font id="SymantecSans" horiz-adv-x="555" >
  <font-face 
    font-family="Symantec Sans"
    font-weight="400"
    font-stretch="normal"
    units-per-em="1000"
    panose-1="2 0 5 3 8 0 0 2 0 4"
    ascent="800"
    descent="-200"
    x-height="503"
    cap-height="703"
    bbox="-148 -218 1252 934"
    underline-thickness="20"
    underline-position="-173"
    unicode-range="U+000D-FB02"
  />
<missing-glyph horiz-adv-x="500" 
 />
    <glyph glyph-name=".notdef" horiz-adv-x="500" 
 />
    <glyph glyph-name=".null" horiz-adv-x="0" 
 />
    <glyph glyph-name=".null" horiz-adv-x="0" 
 />
    <glyph glyph-name="nonmarkingreturn" horiz-adv-x="333" 
 />
    <glyph glyph-name="CR" unicode="&#xd;" horiz-adv-x="235" 
 />
    <glyph glyph-name="space" unicode=" " horiz-adv-x="235" 
 />
    <glyph glyph-name="exclam" unicode="!" horiz-adv-x="288" 
d="M112 213l-18 490h100l-18 -490h-64zM144 -6q-26 0 -43 16.5t-17 41.5q0 26 17.5 43.5t42.5 17.5t42.5 -18t17.5 -43t-17.5 -41.5t-42.5 -16.5z" />
    <glyph glyph-name="quotedbl" unicode="&#x22;" horiz-adv-x="370" 
d="M225 455l-9 248h81l-9 -248h-63zM82 455l-9 248h82l-9 -248h-64z" />
    <glyph glyph-name="numbersign" unicode="#" horiz-adv-x="562" 
d="M161 420h-95v68h103l22 196h63l-22 -196h132l23 196h63q-22 -196 -23 -196h93v-68h-100l-17 -147h93v-69h-101l-24 -204h-64l24 204h-132l-23 -204h-63l23 204h-95v69h103zM356 420h-132l-17 -147h132z" />
    <glyph glyph-name="dollar" unicode="$" horiz-adv-x="562" 
d="M256 -7q-134 8 -215 85l45 58q73 -64 170 -71v253q-40 12 -69 25.5t-57 35.5t-43 56t-15 79q0 78 50.5 125.5t133.5 53.5v76h60v-77q91 -8 162 -68l-45 -56q-53 43 -117 50v-233q41 -12 71 -25.5t59.5 -36t45.5 -57t16 -79.5q0 -82 -50 -133.5t-142 -59.5v-106h-60v105z
M256 620q-103 -11 -103 -105q0 -44 25 -70t78 -43v218zM316 66q51 8 79.5 37.5t28.5 79.5q0 48 -27.5 74.5t-80.5 43.5v-235z" />
    <glyph glyph-name="percent" unicode="%" horiz-adv-x="919" 
d="M213 268q-71 0 -117 56t-46 154q0 99 46.5 157.5t117.5 58.5t117 -53.5t46 -151.5q0 -99 -47 -160t-117 -61zM230 0l390 684h69l-390 -684h-69zM706 -8q-72 0 -118 56t-46 154t46.5 157t117.5 59t117 -54t46 -151q0 -99 -46.5 -160t-116.5 -61zM214 328q39 0 62 39.5
t23 119.5q0 147 -85 147q-84 0 -84 -156q0 -150 84 -150zM706 52q39 0 62 39.5t23 118.5q0 147 -85 147q-84 0 -84 -155q0 -150 84 -150z" />
    <glyph glyph-name="ampersand" unicode="&#x26;" horiz-adv-x="645" 
d="M196 377q-44 88 -44 168q0 72 43.5 120t117.5 48q69 0 108.5 -40t39.5 -107q0 -62 -40.5 -108.5t-125.5 -95.5q67 -112 140 -185q41 69 59 169l72 -12q-21 -123 -75 -206q60 -46 129 -67l-26 -70q-78 21 -151 77q-78 -76 -186 -76q-97 0 -151.5 49t-54.5 128
q0 66 35.5 114t109.5 94zM264 416q63 38 91.5 73.5t28.5 78.5q0 38 -19 58t-51 20q-39 0 -60 -26t-21 -69q0 -72 31 -135zM388 115q-85 80 -161 206q-47 -32 -68.5 -67t-21.5 -82q0 -53 31.5 -82t90.5 -29q73 0 129 54z" />
    <glyph glyph-name="quotesingle" unicode="'" horiz-adv-x="228" 
d="M82 455l-9 248h82l-9 -248h-64z" />
    <glyph glyph-name="parenleft" unicode="(" horiz-adv-x="314" 
d="M212 -138q-62 100 -95 203t-33 236q0 136 32.5 239.5t94.5 202.5h74q-57 -103 -84 -207.5t-27 -234.5t27.5 -233t84.5 -206h-74z" />
    <glyph glyph-name="parenright" unicode=")" horiz-adv-x="314" 
d="M29 -138q57 103 84 207t27 234t-27.5 233.5t-84.5 206.5h74q62 -100 95 -203.5t33 -236.5q0 -136 -32.5 -238.5t-94.5 -202.5h-74z" />
    <glyph glyph-name="asterisk" unicode="*" horiz-adv-x="431" 
d="M140 383l-52 35l80 104l-122 37l18 60l122 -42l-5 126h68l-7 -126l124 42l19 -60l-124 -37l81 -104l-49 -35l-77 105z" />
    <glyph glyph-name="plus" unicode="+" horiz-adv-x="600" 
d="M262 45v212h-199v72h199v211h74v-211h201v-72h-201v-212h-74z" />
    <glyph glyph-name="comma" unicode="," horiz-adv-x="260" 
d="M94 -129l-23 31q51 42 51 93q-20 0 -36 16.5t-16 40.5q0 26 16.5 43.5t40.5 17.5q28 0 47 -20.5t19 -57.5q0 -106 -99 -164z" />
    <glyph glyph-name="hyphen" unicode="-" horiz-adv-x="337" 
d="M62 244v74h213v-74h-213z" />
    <glyph glyph-name="period" unicode="." horiz-adv-x="261" 
d="M130 -6q-25 0 -42 16.5t-17 41.5q0 26 17 43.5t42 17.5t42.5 -17.5t17.5 -43.5q0 -25 -17 -41.5t-43 -16.5z" />
    <glyph glyph-name="slash" unicode="/" horiz-adv-x="377" 
d="M-42 -138l345 911h76l-345 -911h-76z" />
    <glyph glyph-name="zero" unicode="0" horiz-adv-x="562" 
d="M278 -8q-112 0 -173 98.5t-61 250.5q0 155 62 254t175 99t175 -94t62 -244q0 -169 -60.5 -266.5t-179.5 -97.5zM280 62q146 0 146 288q0 271 -145 271t-145 -282q0 -277 144 -277z" />
    <glyph glyph-name="one" unicode="1" horiz-adv-x="562" 
d="M110 0v67h134v513l-136 -45l-18 50l181 99h60v-617h128v-67h-349z" />
    <glyph glyph-name="two" unicode="2" horiz-adv-x="562" 
d="M70 0v86q175 146 244.5 235t69.5 175q0 54 -29 88t-84 34q-42 0 -77 -14.5t-79 -44.5l-37 59q92 76 198 76q91 0 145.5 -54.5t54.5 -142.5q0 -106 -80.5 -206t-242.5 -220h341v-71h-424z" />
    <glyph glyph-name="three" unicode="3" horiz-adv-x="562" 
d="M274 -8q-140 0 -227 83l46 60q76 -68 178 -68q65 0 101.5 31.5t36.5 90.5q0 133 -188 133h-21v67h21q83 0 125.5 31.5t42.5 89.5q0 52 -32.5 80.5t-87.5 28.5q-78 0 -159 -51l-35 58q91 68 196 68q91 0 150 -48t59 -128q0 -59 -33.5 -100t-92.5 -60q64 -13 105 -58
t41 -111q0 -93 -62 -145t-164 -52z" />
    <glyph glyph-name="four" unicode="4" horiz-adv-x="562" 
d="M342 0v157h-305v60l266 467h124v-457h103v-70h-103v-157h-85zM125 227h217v389z" />
    <glyph glyph-name="five" unicode="5" horiz-adv-x="562" 
d="M255 -8q-119 0 -194 68l43 60q62 -53 153 -53q72 0 114.5 44t42.5 126q0 74 -34.5 115t-95.5 41q-78 0 -128 -69l-74 26l21 334h354v-70h-286l-15 -211q57 57 142 57q96 0 152 -63t56 -157q0 -108 -67 -178t-184 -70z" />
    <glyph glyph-name="six" unicode="6" horiz-adv-x="562" 
d="M297 -8q-109 0 -174 82.5t-65 226.5q0 181 75.5 287t202.5 106q80 0 146 -36l-31 -66q-57 27 -115 27q-169 0 -188 -274q25 41 68 67.5t96 26.5q91 0 147 -62t56 -151q0 -99 -60.5 -166.5t-157.5 -67.5zM295 61q65 0 98 47.5t33 116.5q0 64 -33 103.5t-98 39.5
q-49 0 -87 -28.5t-58 -72.5v-17q0 -81 36 -135t109 -54z" />
    <glyph glyph-name="seven" unicode="7" horiz-adv-x="562" 
d="M123 0l267 613h-321v71h419v-48l-271 -636h-94z" />
    <glyph glyph-name="eight" unicode="8" horiz-adv-x="562" 
d="M358 361q75 -32 116 -74.5t41 -113.5q0 -88 -67 -134.5t-171 -46.5t-167 47t-63 129q0 71 40 114.5t113 73.5q-129 64 -129 169q0 77 61.5 123t151.5 46q91 0 149 -43.5t58 -123.5q0 -61 -34.5 -99.5t-98.5 -66.5zM288 389q56 25 86 57t30 80q0 47 -32.5 74t-90.5 27
t-90.5 -28t-32.5 -75t33.5 -78t96.5 -57zM271 326q-65 -27 -99.5 -62.5t-34.5 -91.5q0 -54 39.5 -84.5t103.5 -30.5q68 0 106 30.5t38 82.5q0 56 -38.5 90.5t-114.5 65.5z" />
    <glyph glyph-name="nine" unicode="9" horiz-adv-x="562" 
d="M231 -8q-97 0 -168 52l35 62q64 -40 134 -40q91 0 132 73.5t51 209.5q-61 -93 -164 -93q-92 0 -147.5 61.5t-55.5 149.5q0 98 59.5 162.5t161.5 64.5q111 0 173 -81.5t62 -223.5q0 -190 -67.5 -293.5t-205.5 -103.5zM268 328q49 0 86.5 28t56.5 72v10q0 79 -34.5 132.5
t-107.5 53.5q-69 0 -101 -44.5t-32 -112.5q0 -63 32.5 -101t99.5 -38z" />
    <glyph glyph-name="colon" unicode=":" horiz-adv-x="261" 
d="M130 324q-25 0 -42 16.5t-17 41.5q0 26 17 43.5t42 17.5t42.5 -17.5t17.5 -43.5q0 -25 -17 -41.5t-43 -16.5zM130 -6q-25 0 -42 16.5t-17 41.5q0 26 17 43.5t42 17.5t42.5 -17.5t17.5 -43.5q0 -25 -17 -41.5t-43 -16.5z" />
    <glyph glyph-name="semicolon" unicode=";" horiz-adv-x="260" 
d="M129 324q-25 0 -42 16.5t-17 41.5q0 26 17 43.5t42 17.5t42.5 -17.5t17.5 -43.5q0 -25 -17 -41.5t-43 -16.5zM94 -129l-23 31q51 42 51 93q-20 0 -36 16.5t-16 40.5q0 26 16.5 43.5t40.5 17.5q28 0 47 -20.5t19 -57.5q0 -106 -99 -164z" />
    <glyph glyph-name="less" unicode="&#x3c;" horiz-adv-x="600" 
d="M536 51l-473 197v71l474 189v-81l-382 -143l382 -153z" />
    <glyph glyph-name="equal" unicode="=" horiz-adv-x="600" 
d="M89 347v71h421v-71h-421zM89 163v73h421v-73h-421z" />
    <glyph glyph-name="greater" unicode="&#x3e;" horiz-adv-x="600" 
d="M63 51v81l382 143l-382 154v79l474 -197v-71z" />
    <glyph glyph-name="question" unicode="?" horiz-adv-x="429" 
d="M147 213v29q0 67 19 106.5t56 76.5q25 23 36 36t22 37.5t11 54.5q0 40 -22 64t-66 24q-62 0 -117 -44l-38 57q66 59 160 59q76 0 123.5 -42t47.5 -112q0 -40 -15.5 -75t-32 -53t-46.5 -46q-33 -30 -48.5 -60.5t-15.5 -81.5v-30h-74zM182 -6q-26 0 -43 16.5t-17 41.5
q0 26 17.5 43.5t42.5 17.5t42.5 -17.5t17.5 -43.5q0 -25 -17 -41.5t-43 -16.5z" />
    <glyph glyph-name="at" unicode="@" horiz-adv-x="838" 
d="M397 -110q-164 0 -255.5 103t-91.5 262q0 189 122 314t298 125q150 0 239 -90t89 -224q0 -150 -55.5 -229t-148.5 -79q-86 0 -103 65q-23 -27 -55 -44.5t-65 -17.5q-63 0 -95.5 41t-32.5 106q0 135 61 208.5t155 73.5q85 0 144 -44l-45 -260q-12 -66 40 -66q58 0 94.5 64
t36.5 181q0 114 -70 182t-193 68q-150 0 -245.5 -106.5t-95.5 -265.5q0 -142 68 -222.5t212 -80.5q95 0 203 48l27 -51q-106 -61 -238 -61zM386 139q44 0 91 45l43 242q-27 12 -66 12q-60 0 -94 -57t-34 -160q0 -82 60 -82z" />
    <glyph glyph-name="A" unicode="A" horiz-adv-x="592" 
d="M171 206l-59 -206h-85l213 703h114l211 -703h-92l-58 206h-244zM395 275l-101 356l-103 -356h204z" />
    <glyph glyph-name="B" unicode="B" horiz-adv-x="596" 
d="M91 0v703h198q103 0 166 -44t63 -133q0 -123 -122 -155q70 -14 109.5 -59.5t39.5 -117.5q0 -95 -60.5 -144.5t-165.5 -49.5h-228zM177 402h98q82 0 118 28.5t36 93.5q0 58 -39.5 84t-122.5 26h-90v-232zM177 69h119q157 0 157 128q0 76 -45.5 107.5t-133.5 31.5h-97v-267
z" />
    <glyph glyph-name="C" unicode="C" horiz-adv-x="597" 
d="M342 -8q-131 0 -205.5 97t-74.5 263q0 165 74 263t206 98q127 0 204 -91l-53 -56q-66 71 -151 71q-93 0 -139.5 -76t-46.5 -214q0 -278 187 -278q51 0 88 21t74 61l54 -54q-84 -105 -217 -105z" />
    <glyph glyph-name="D" unicode="D" horiz-adv-x="648" 
d="M91 0v703h160q337 0 337 -348q0 -355 -333 -355h-164zM179 72h65q137 0 194 68t57 215q0 136 -52 206t-182 70h-82v-559z" />
    <glyph glyph-name="E" unicode="E" horiz-adv-x="551" 
d="M91 0v703h403v-72h-315v-226h245v-71h-245v-262h333v-72h-421z" />
    <glyph glyph-name="F" unicode="F" horiz-adv-x="509" 
d="M91 0v703h392v-72h-304v-226h240v-71h-240v-334h-88z" />
    <glyph glyph-name="G" unicode="G" horiz-adv-x="638" 
d="M496 61q-69 -69 -162 -69q-126 0 -199 97t-73 263t74 263.5t209 97.5q125 0 206 -81l-51 -57q-68 62 -156 62q-188 0 -188 -290q0 -136 46.5 -208t138.5 -72q80 0 139 61v167h-143v71h231v-366h-52z" />
    <glyph glyph-name="H" unicode="H" horiz-adv-x="669" 
d="M91 0v703h88v-307h311v307h88v-703h-88v324h-311v-324h-88z" />
    <glyph glyph-name="I" unicode="I" horiz-adv-x="282" 
d="M97 0v703h88v-703h-88z" />
    <glyph glyph-name="J" unicode="J" horiz-adv-x="442" 
d="M177 -8q-91 0 -153 67l49 57q52 -48 103 -48q83 0 83 111v524h88v-518q0 -193 -170 -193z" />
    <glyph glyph-name="K" unicode="K" horiz-adv-x="593" 
d="M179 349l271 354h100l-220 -279l59 -106l118 -212l59 -106h-100l-197 359l-17 -15q-18 -16 -41.5 -37t-31.5 -28v0v0v0v-1v0v0v-1v0v-1v0v-1v0v-1v-1v-1v-1v-1v-1v-1v-1v-1v-1v-1v-1v-1v-1v-1v-1v-1v-1v-1v-1v-1v-1v-1v-1v-1v-1v-1v-1v-1v-1v-1v-1v-1v-1v-1v-1v-1v-1v-1
v-1v-1v-1v-1v-1v-1v-1v-1v-1v-1v-1v-1v-1v-1v-1v-2v-1v-1v-1v-1v-1v-1v-2v-1v-1v-1v-1v-1v-2v-1v-1v-1v-2v-1v-1v-1v-2v-1v-1v-1v-2v-1v-1v-2v-1v-1v-2v-1v-1v-2v-1v-1v-2v-1v-1v-2v-1v-2v-1v-1v-2v-1v-2v-1v-1v-2v-1v-2v-1v-2v-1v-2v-1v-2v-1v-2v-1v-2v-1v-2v-1v-2v-1v-2
v-1v-2v-1v-2v-1v-2v-2v-1v-2v-1v-2v-1v-2v-2v-1v-2v-2v-1v-2v-1v-2v-2v-1v-2v-2v-1v-2v-2v-1v-2v-2v-1v-2v-2v-1v-2v-2v-2v-1v-2v-2v-2v-1v-2v-2v-2v-1v-2v-2v-2v-1v-2v-2v-2v-2v-1v-2v-2v-2v-2v-2v-1v-2v-2v-2v-2v-2v-1v-2v-2v-9h-88v703h88v-354z" />
    <glyph glyph-name="L" unicode="L" horiz-adv-x="514" 
d="M91 0v703h88v-631h306v-72h-394z" />
    <glyph glyph-name="M" unicode="M" horiz-adv-x="808" 
d="M91 0v703h136l138 -466q29 -99 40 -164q13 77 38 164l137 466h137v-703h-87v481q0 70 4 150l-186 -631h-91l-187 631q4 -41 4 -151v-480h-83z" />
    <glyph glyph-name="N" unicode="N" horiz-adv-x="670" 
d="M91 0v703h104l236 -435q41 -77 67 -140q-4 58 -4 180v395h83v-703h-89l-256 472q-31 59 -62 131q4 -92 4 -180v-423h-83z" />
    <glyph glyph-name="O" unicode="O" horiz-adv-x="667" 
d="M332 -8q-127 0 -199.5 95.5t-72.5 264.5q0 165 73 263t200 98q128 0 201 -96t73 -260q0 -168 -74.5 -266.5t-200.5 -98.5zM332 65q89 0 135.5 75t46.5 215q0 137 -45.5 211t-134.5 74q-90 0 -136 -76t-46 -215q0 -138 45.5 -211t134.5 -73z" />
    <glyph glyph-name="P" unicode="P" horiz-adv-x="571" 
d="M91 0v703h193q246 0 246 -198q0 -105 -66 -153t-174 -48h-111v-304h-88zM179 374h99q82 0 122 29t40 103q0 70 -40 97.5t-117 27.5h-104v-257z" />
    <glyph glyph-name="Q" unicode="Q" horiz-adv-x="666" 
d="M527 84l86 -85l-32 -35l-103 73q-64 -45 -146 -45q-127 0 -199.5 95.5t-72.5 264.5q0 165 73 263t200 98q128 0 201 -96t73 -260q0 -174 -80 -273zM421 87l-79 79l52 51l76 -76q44 76 44 214q0 137 -45.5 211t-134.5 74q-90 0 -136 -76t-46 -215q0 -138 46 -212t135 -74
q51 0 88 24z" />
    <glyph glyph-name="R" unicode="R" horiz-adv-x="596" 
d="M399 324l37 -81l74 -162l38 -81h-96l-142 313v0v0h-1v0h-1v0h-1h-1h-1h-1h-1h-1h-1h-1h-1h-1h-1h-1h-1h-1h-1h-1h-1h-1h-1h-1h-1h-1h-1h-1h-1h-1h-1h-1h-1h-2h-1h-1h-1h-1h-2h-1h-1h-2h-1h-1h-1h-2h-1h-2h-1h-1h-2h-1h-2h-1h-1h-2h-1h-2h-1h-2h-1h-2h-1h-2h-2h-1h-2h-1
h-2h-1h-2h-2h-1h-2h-2h-1h-2h-2h-1h-2h-2h-2h-1h-2h-2h-2h-1h-2h-2h-2h-1h-2h-10v-313h-88v703h203q245 0 245 -194q0 -143 -140 -185zM179 382h109q81 0 121 28.5t40 99.5q0 68 -40 94.5t-116 26.5h-114v-249z" />
    <glyph glyph-name="S" unicode="S" horiz-adv-x="558" 
d="M277 -8q-143 0 -241 81l43 62q89 -68 198 -68q69 0 107 31.5t38 87.5q0 30 -10.5 52.5t-34.5 39t-47.5 27t-65.5 24.5q-44 15 -73.5 30t-59 38.5t-44.5 58.5t-15 81q0 83 58.5 129.5t150.5 46.5q110 0 188 -45l-36 -68q-68 38 -153 38q-126 0 -126 -100q0 -53 33 -79
t119 -56q46 -16 74.5 -29.5t61.5 -38t49.5 -61.5t16.5 -86q0 -92 -61.5 -144t-169.5 -52z" />
    <glyph glyph-name="T" unicode="T" horiz-adv-x="525" 
d="M219 0v631h-195v72h476v-72h-193v-631h-88z" />
    <glyph glyph-name="U" unicode="U" horiz-adv-x="647" 
d="M322 -8q-128 0 -181.5 72.5t-53.5 207.5v431h88v-450q0 -95 31.5 -141.5t116.5 -46.5q84 0 116.5 47t32.5 141v450h88v-431q0 -136 -53.5 -208t-184.5 -72z" />
    <glyph glyph-name="V" unicode="V" horiz-adv-x="587" 
d="M242 0l-214 703h94l174 -605l175 605h88l-215 -703h-102z" />
    <glyph glyph-name="W" unicode="W" horiz-adv-x="844" 
d="M185 0l-154 703h92l114 -587l134 587h104l134 -587l117 587h87l-152 -703h-98l-142 598l-137 -598h-99z" />
    <glyph glyph-name="X" unicode="X" horiz-adv-x="560" 
d="M27 0l204 369l-189 334h99l144 -268l134 268h92l-182 -339l204 -364h-98l-159 295l-157 -295h-92z" />
    <glyph glyph-name="Y" unicode="Y" horiz-adv-x="541" 
d="M225 0v297l-209 406h97l160 -328l162 328h90l-212 -406v-297h-88z" />
    <glyph glyph-name="Z" unicode="Z" horiz-adv-x="527" 
d="M36 0v58l352 571h-322v74h425v-63l-352 -568h347v-72h-450z" />
    <glyph glyph-name="bracketleft" unicode="[" horiz-adv-x="333" 
d="M100 -138v881h197v-61h-114v-759h114v-61h-197z" />
    <glyph glyph-name="backslash" unicode="\" horiz-adv-x="378" 
d="M344 -138l-346 911h77l345 -911h-76z" />
    <glyph glyph-name="bracketright" unicode="]" horiz-adv-x="333" 
d="M36 -138v61h114v759h-114v61h197v-881h-197z" />
    <glyph glyph-name="asciicircum" unicode="^" horiz-adv-x="528" 
d="M407 493l-143 117l-155 -117h-63l189 210h58l189 -210h-75z" />
    <glyph glyph-name="underscore" unicode="_" horiz-adv-x="433" 
d="M-1 -140v61h435v-61h-435z" />
    <glyph glyph-name="grave" unicode="`" horiz-adv-x="300" 
d="M119 572l-97 131h111l52 -131h-66z" />
    <glyph glyph-name="a" unicode="a" horiz-adv-x="513" 
d="M347 316v23q0 53 -20.5 77.5t-73.5 24.5q-57 0 -143 -44l-32 59q90 57 182 57q175 0 175 -180v-333h-51l-23 60q-68 -68 -155 -68q-67 0 -110.5 38.5t-43.5 100.5q0 81 67 122q63 39 228 63zM347 110v149q-157 -30 -190 -71q-16 -18 -16 -51q0 -77 78 -77q61 0 128 50z
" />
    <glyph glyph-name="b" unicode="b" horiz-adv-x="552" 
d="M296 -8q-85 0 -141 69l-19 -61h-52v703h88v-256q60 66 138 66q93 0 143 -76t50 -176q0 -120 -57 -194.5t-150 -74.5zM279 60q63 0 96.5 52.5t33.5 148.5q0 46 -9.5 83.5t-37.5 66t-72 28.5q-64 0 -118 -57v-269q48 -53 107 -53z" />
    <glyph glyph-name="c" unicode="c" horiz-adv-x="464" 
d="M261 -8q-73 0 -122.5 39t-69.5 94.5t-20 122.5q0 69 19.5 126.5t69.5 98t123 40.5q94 0 157 -53l-38 -59q-55 41 -118 41q-121 0 -121 -194q0 -185 124 -185q64 0 120 48l42 -52q-65 -67 -166 -67z" />
    <glyph glyph-name="d" unicode="d" horiz-adv-x="552" 
d="M246 -8q-96 0 -146.5 73t-50.5 179q0 120 57 194.5t147 74.5q76 0 127 -53v243h88v-703h-52l-22 69q-59 -77 -148 -77zM264 60q62 0 116 59v270q-47 50 -108 50q-62 0 -95.5 -51t-33.5 -146q0 -182 121 -182z" />
    <glyph glyph-name="e" unicode="e" horiz-adv-x="501" 
d="M142 227q6 -165 127 -165q39 0 68.5 12t68.5 37l37 -53q-41 -34 -80.5 -50t-100.5 -16q-98 0 -155.5 70t-57.5 189q0 117 56 189.5t150 72.5q97 0 148 -69t51 -196v-21h-312zM142 286h222q-5 161 -109 161q-103 0 -113 -161z" />
    <glyph glyph-name="f" unicode="f" horiz-adv-x="337" 
d="M110 441h-71v62h71v55q0 75 35 116.5t107 41.5q37 0 71 -6l-8 -70q-33 5 -54 5q-34 0 -48.5 -21t-14.5 -66v-55h108v-62h-108v-441h-88v441z" />
    <glyph glyph-name="g" unicode="g" horiz-adv-x="514" 
d="M351 487l139 35v-79h-89q33 -45 33 -102q0 -78 -49.5 -125t-137.5 -47q-36 0 -71 10q-30 -16 -30 -43q0 -32 53 -36q130 -10 150 -12q133 -16 133 -121q0 -74 -61.5 -114.5t-180.5 -40.5q-103 0 -154.5 34t-51.5 89q0 73 87 109q-21 9 -35 28t-14 43q0 55 60 84
q-74 47 -74 142q0 74 53.5 123t134.5 49q61 0 105 -26zM246 232q50 0 79 29t29 81t-29.5 80t-77.5 28q-50 0 -79 -28t-29 -80t28.5 -81t78.5 -29zM242 -123q81 0 119 23t38 60q0 45 -57 52q-79 12 -149 12q-29 0 -54.5 -23.5t-25.5 -53.5q0 -70 129 -70z" />
    <glyph glyph-name="h" unicode="h" 
d="M85 0v703h88v-271q74 81 166 81q75 0 106 -48t31 -121v-344h-88v344q0 43 -16.5 68.5t-61.5 25.5q-68 0 -137 -72v-366h-88z" />
    <glyph glyph-name="i" unicode="i" horiz-adv-x="265" 
d="M133 587q-24 0 -40.5 16t-16.5 39t16.5 39t40.5 16t40 -16t16 -39t-16 -39t-40 -16zM89 0v503h88v-503h-88z" />
    <glyph glyph-name="j" unicode="j" horiz-adv-x="265" 
d="M133 587q-24 0 -40.5 16t-16.5 39t16.5 39t40.5 16t40 -16t16 -39t-16 -39t-40 -16zM47 -183q-38 0 -66 10l11 64q24 -6 43 -6q30 0 42 15.5t12 51.5v551h88v-545q0 -69 -29.5 -105t-100.5 -36z" />
    <glyph glyph-name="k" unicode="k" horiz-adv-x="498" 
d="M173 201v-201h-88v703h88v-433l186 233h96q-150 -183 -151 -183l173 -320h-95l-136 259q-73 -57 -73 -58z" />
    <glyph glyph-name="l" unicode="l" horiz-adv-x="266" 
d="M89 0v703h88v-703h-88z" />
    <glyph glyph-name="m" unicode="m" horiz-adv-x="822" 
d="M445 426q78 87 170 87q128 0 128 -169v-344h-88v344q0 44 -13.5 69t-55.5 25q-61 0 -128 -69v-369h-88v344q0 44 -13.5 69t-55.5 25q-58 0 -128 -70v-368h-88v503h52l22 -81q84 91 171 91q47 0 73 -22.5t42 -64.5z" />
    <glyph glyph-name="n" unicode="n" 
d="M85 0v503h52l22 -83q82 93 180 93q75 0 106 -48t31 -121v-344h-88v344q0 43 -16.5 68.5t-61.5 25.5q-68 0 -137 -72v-366h-88z" />
    <glyph glyph-name="o" unicode="o" horiz-adv-x="529" 
d="M265 -8q-99 0 -157.5 69t-58.5 187q0 119 59.5 192t156.5 73t156 -69.5t59 -184.5q0 -124 -57.5 -195.5t-157.5 -71.5zM265 59q67 0 94.5 52t27.5 150q0 185 -123 185q-122 0 -122 -196q0 -191 123 -191z" />
    <glyph glyph-name="p" unicode="p" horiz-adv-x="552" 
d="M84 -178v681h52l23 -68q67 78 149 78q95 0 145 -76t50 -176q0 -120 -57 -194.5t-149 -74.5q-73 0 -125 52v-222h-88zM279 60q63 0 96.5 52.5t33.5 148.5q0 46 -9.5 83.5t-37.5 66t-72 28.5q-64 0 -118 -57v-269q48 -53 107 -53z" />
    <glyph glyph-name="q" unicode="q" horiz-adv-x="552" 
d="M380 -178v233q-57 -63 -135 -63q-96 0 -146 73t-50 179q0 120 57.5 194.5t149.5 74.5q84 0 141 -71l19 61h52v-681h-88zM264 60q62 0 116 59v270q-47 50 -107 50q-64 0 -97 -50.5t-33 -146.5q0 -182 121 -182z" />
    <glyph glyph-name="r" unicode="r" horiz-adv-x="376" 
d="M85 0v503h48l28 -107q57 113 166 113h14v-85q-4 2 -14 2q-67 0 -110.5 -39.5t-43.5 -121.5v-265h-88z" />
    <glyph glyph-name="s" unicode="s" horiz-adv-x="455" 
d="M220 -8q-108 0 -176 57l35 57q65 -46 143 -46q47 0 73 18.5t26 53.5q0 18 -6.5 31t-24 24.5t-33.5 18.5t-50 19q-69 25 -105.5 58.5t-36.5 95.5t44 98t123 36q85 0 153 -36l-28 -62q-62 31 -122 31q-90 0 -90 -66q0 -30 22.5 -47t78.5 -36q78 -26 118 -60t40 -100
q0 -67 -48 -106t-136 -39z" />
    <glyph glyph-name="t" unicode="t" horiz-adv-x="353" 
d="M106 441h-75v62h77l22 144h64v-144h112v-62h-112v-310q0 -38 11.5 -55t44.5 -17q20 0 57 10l13 -61q-36 -16 -81 -16q-133 0 -133 134v315z" />
    <glyph glyph-name="u" unicode="u" 
d="M219 -8q-76 0 -108 47.5t-32 119.5v344h88v-343q0 -94 80 -94q65 0 135 65v372h88v-503h-52l-23 77q-83 -85 -176 -85z" />
    <glyph glyph-name="v" unicode="v" horiz-adv-x="468" 
d="M186 0l-161 503h92l120 -419l118 419h88l-160 -503h-97z" />
    <glyph glyph-name="w" unicode="w" horiz-adv-x="706" 
d="M165 0l-138 503h90l95 -391l98 391h91l96 -391l96 391h86l-137 -503h-88l-101 400l-99 -400h-89z" />
    <glyph glyph-name="x" unicode="x" horiz-adv-x="471" 
d="M24 0l159 262l-148 241h99l104 -184l103 184h92l-148 -243l162 -260h-99l-117 205l-116 -205h-91z" />
    <glyph glyph-name="y" unicode="y" horiz-adv-x="471" 
d="M204 -29l-179 532h90q126 -424 126 -425l118 425h87l-169 -541q-23 -73 -64.5 -109t-111.5 -36q-31 0 -61 9l11 64q32 -5 42 -5q83 0 111 86z" />
    <glyph glyph-name="z" unicode="z" horiz-adv-x="451" 
d="M43 0v67l258 370h-243v66h349v-55l-263 -378h264v-70h-365z" />
    <glyph glyph-name="braceleft" unicode="{" horiz-adv-x="333" 
d="M253 -138q-84 0 -119.5 45.5t-18.5 129.5l31 152q18 89 -62 89h-52v59h52q80 0 61 89l-30 142q-17 83 19 129t119 46h44v-61h-34q-43 0 -57 -23.5t-6 -77.5l22 -141q10 -57 -3.5 -88t-55.5 -45q41 -13 54.5 -43.5t5.5 -88.5l-23 -151q-8 -55 5.5 -78t57.5 -23h34v-61h-44
z" />
    <glyph glyph-name="bar" unicode="|" horiz-adv-x="309" 
d="M120 -138v881h68v-881h-68z" />
    <glyph glyph-name="braceright" unicode="}" horiz-adv-x="333" 
d="M36 -138v61h34q44 0 57.5 23t5.5 78l-23 151q-8 58 5.5 88.5t54.5 43.5q-41 14 -54 45t-5 88l22 141q8 54 -6 77.5t-57 23.5h-34v61h44q83 0 119 -46t19 -129l-30 -142q-19 -89 61 -89h52v-59h-52q-80 0 -62 -89l31 -152q17 -84 -18.5 -129.5t-119.5 -45.5h-44z" />
    <glyph glyph-name="asciitilde" unicode="~" horiz-adv-x="474" 
d="M325 227q-36 0 -91 28.5t-74 28.5q-41 0 -54 -59h-60q4 64 32.5 100.5t76.5 36.5q32 0 85.5 -28.5t77.5 -28.5q21 0 32.5 14t17.5 42h60q-12 -134 -103 -134z" />
    <glyph glyph-name="uni00A0" unicode="&#xa0;" horiz-adv-x="235" 
 />
    <glyph glyph-name="exclamdown" unicode="&#xa1;" horiz-adv-x="288" 
d="M144 464q-25 0 -42.5 17.5t-17.5 43.5q0 25 17 41.5t43 16.5t43 -16.5t17 -41.5q0 -26 -17.5 -43.5t-42.5 -17.5zM94 -126l18 490h64l18 -490h-100z" />
    <glyph glyph-name="cent" unicode="&#xa2;" horiz-adv-x="562" 
d="M271 -6q-93 12 -140 85t-47 169q0 100 47 175.5t140 87.5v86h55v-85q79 -5 135 -61l-43 -55q-44 39 -92 44v-377q45 5 101 52l43 -50q-59 -64 -144 -72v-105h-55v106zM271 438q-94 -22 -94 -190q0 -157 94 -182v372z" />
    <glyph glyph-name="sterling" unicode="&#xa3;" horiz-adv-x="560" 
d="M248 298q7 -31 7 -59q0 -61 -19 -98t-58 -70h317v-71h-411v80q44 32 65 66t21 89q0 27 -9 63h-90v70h65q-29 75 -29 133q0 87 55.5 140t146.5 53q111 0 188 -66l-38 -58q-39 26 -70 37t-74 11q-55 0 -85.5 -33t-30.5 -86q0 -51 28 -131h168v-70h-147z" />
    <glyph glyph-name="currency" unicode="&#xa4;" horiz-adv-x="562" 
d="M95 382h-68v62h75q19 118 82 184t162 66q51 0 88 -15t73 -51l-47 -58q-32 28 -57 38.5t-59 10.5q-125 0 -150 -175h209l-16 -62h-198q-1 -14 -1 -44q0 -32 1 -47h175l-15 -61h-154q26 -163 147 -163q41 0 67 14t60 46l49 -53q-36 -42 -77 -62t-101 -20q-94 0 -155.5 62
t-81.5 176h-76v61h69q-2 34 -2 52q0 26 1 39z" />
    <glyph glyph-name="yen" unicode="&#xa5;" horiz-adv-x="563" 
d="M324 273v-70h166v-62h-166v-141h-88v141h-162v62h162v70h-162v61h138l-181 349h96l156 -323l158 323h90l-182 -349h141v-61h-166z" />
    <glyph glyph-name="brokenbar" unicode="&#xa6;" horiz-adv-x="305" 
d="M118 352v351h68v-351h-68zM118 -172v351h68v-351h-68z" />
    <glyph glyph-name="section" unicode="&#xa7;" horiz-adv-x="516" 
d="M133 433q-43 46 -43 111q0 69 52 109.5t130 40.5q94 0 167 -51l-38 -65q-65 42 -130 42q-45 0 -72 -19.5t-27 -56.5q0 -10 1 -18.5t5.5 -16.5t7.5 -13.5t11.5 -13t13.5 -11.5t18 -11.5t20 -11t25 -13t27 -14.5q86 -45 127 -88t41 -117q0 -85 -83 -132q46 -46 46 -112
q0 -72 -51.5 -113.5t-139.5 -41.5q-110 0 -180 55l38 63q58 -44 142 -44q53 0 81 21.5t28 57.5q0 11 -2.5 21t-5.5 17t-11.5 15.5t-14.5 13.5t-20 13.5t-22 13t-27.5 15t-30.5 16.5q-42 23 -68 40t-51.5 42t-37.5 56t-12 70q0 83 86 130zM332 125q55 32 55 84q0 50 -27 77
t-96 63q-67 36 -80 44q-55 -32 -55 -86q0 -49 27 -76t97 -63q9 -5 37 -19.5t42 -23.5z" />
    <glyph glyph-name="dieresis" unicode="&#xa8;" horiz-adv-x="298" 
d="M236 588q-22 0 -37 15.5t-15 36.5t15 36.5t37 15.5t37 -15.5t15 -36.5q0 -22 -15 -37t-37 -15zM63 588q-22 0 -37.5 15.5t-15.5 36.5t15.5 36.5t37.5 15.5t37 -15.5t15 -36.5q0 -22 -15 -37t-37 -15z" />
    <glyph glyph-name="copyright" unicode="&#xa9;" horiz-adv-x="796" 
d="M397 -13q-148 0 -245 106t-97 259q0 157 100.5 261t242.5 104q147 0 245 -105.5t98 -259.5q0 -157 -100.5 -261t-243.5 -104zM394 31q126 0 212 90t86 228q0 141 -86.5 232.5t-211.5 91.5q-124 0 -207 -91.5t-83 -232.5q0 -139 83 -228.5t207 -89.5zM404 118
q-92 0 -140 63.5t-48 166.5t47.5 168t138.5 65q83 0 138 -62l-49 -50q-42 42 -88 42q-102 0 -102 -169q0 -154 103 -154q50 0 92 51l52 -48q-57 -73 -144 -73z" />
    <glyph glyph-name="ordfeminine" unicode="&#xaa;" horiz-adv-x="437" 
d="M285 537v16q0 40 -16 58.5t-56 18.5q-44 0 -114 -36l-28 54q75 46 149 46q144 0 144 -147v-266h-47l-19 47q-55 -53 -123 -53q-54 0 -89 30.5t-35 81.5q0 65 52 97q51 33 182 53zM285 372v114q-116 -22 -143 -54q-13 -18 -13 -39q0 -59 60 -59q46 0 96 38z" />
    <glyph glyph-name="guillemotleft" unicode="&#xab;" horiz-adv-x="474" 
d="M345 39l-131 204l123 214h81l-122 -213l131 -205h-82zM173 39l-131 204l124 214h81l-122 -213l131 -205h-83z" />
    <glyph glyph-name="logicalnot" unicode="&#xac;" horiz-adv-x="650" 
d="M158 418q-64 0 -106 34l27 40q37 -26 75 -26q44 0 44 32q0 18 -13.5 27t-47.5 20q-35 12 -54 30t-19 54q0 38 26 58.5t67 20.5q47 0 84 -23l-25 -41q-28 16 -58 16q-40 0 -40 -29q0 -19 31 -31q2 -1 22 -8q38 -12 61 -31.5t23 -59.5q0 -38 -25 -60.5t-72 -22.5zM315 422
v281h87l55 -205l54 205h87v-281h-57v215l-60 -215h-52l-59 215v-215h-55z" />
    <glyph glyph-name="uni00AD" unicode="&#xad;" horiz-adv-x="337" 
d="M62 244v74h213v-74h-213z" />
    <glyph glyph-name="registered" unicode="&#xae;" horiz-adv-x="456" 
d="M228 349q-76 0 -129.5 53.5t-53.5 128.5q0 76 53.5 129t129.5 53q75 0 128.5 -53t53.5 -129q0 -74 -53.5 -128t-128.5 -54zM228 377q64 0 106.5 44.5t42.5 109.5q0 66 -42.5 110.5t-106.5 44.5q-65 0 -107.5 -44.5t-42.5 -110.5q0 -65 42.5 -109.5t107.5 -44.5zM270 521
l41 -87h-48l-36 80h-26v-80h-44v201h74q74 0 74 -62q0 -36 -35 -52zM201 547h28q32 0 32 27q0 26 -29 26h-31v-53z" />
    <glyph glyph-name="macron" unicode="&#xaf;" horiz-adv-x="300" 
d="M37 605v70h226v-70h-226z" />
    <glyph glyph-name="degree" unicode="&#xb0;" horiz-adv-x="345" 
d="M173 449q-54 0 -91.5 39t-37.5 93q0 55 37.5 93.5t91.5 38.5t91.5 -38.5t37.5 -93.5q0 -54 -37.5 -93t-91.5 -39zM173 501q31 0 50 23t19 57t-19 57t-50 23t-50 -23t-19 -57t19 -57t50 -23z" />
    <glyph glyph-name="plusminus" unicode="&#xb1;" horiz-adv-x="600" 
d="M262 171v170h-199v72h199v169h74v-169h201v-72h-201v-170h-74zM63 37v72h474v-72h-474z" />
    <glyph glyph-name="uni00B2" unicode="&#xb2;" horiz-adv-x="355" 
d="M40 274v64q110 92 148 134.5t38 89.5q0 28 -15.5 47t-44.5 19q-39 0 -94 -36l-31 48q62 50 131 50q60 0 95 -35.5t35 -89.5q0 -62 -47 -115.5t-135 -117.5h191v-58h-271z" />
    <glyph glyph-name="uni00B3" unicode="&#xb3;" horiz-adv-x="357" 
d="M171 269q-87 0 -138 49l35 47q44 -37 99 -37q35 0 55 16.5t20 47.5q0 67 -98 67h-16v54h16q88 0 88 60q0 28 -17 43t-46 15q-45 0 -92 -30l-29 46q57 43 126 43q55 0 92 -30t37 -77q0 -35 -20.5 -59.5t-54.5 -33.5q39 -7 63.5 -34t24.5 -67q0 -57 -40 -88.5t-105 -31.5z
" />
    <glyph glyph-name="acute" unicode="&#xb4;" horiz-adv-x="300" 
d="M115 572l52 131h111l-97 -131h-66z" />
    <glyph glyph-name="mu" unicode="&#xb5;" 
d="M79 -178v681h88v-343q0 -94 80 -94q65 0 135 65v372h88v-503h-52l-23 77q-83 -85 -171 -85q-33 0 -59 17l2 -187h-88z" />
    <glyph glyph-name="paragraph" unicode="&#xb6;" horiz-adv-x="562" 
d="M260 -178l1 523q-100 0 -160 46t-60 133q0 85 56.5 132t148.5 47h282v-65h-61v-816h-68v816h-70v-816h-69z" />
    <glyph glyph-name="periodcentered" unicode="&#xb7;" horiz-adv-x="261" 
d="M130 246q-25 0 -42 17t-17 41q0 26 17 43.5t42 17.5t42.5 -17.5t17.5 -43.5q0 -24 -17.5 -41t-42.5 -17z" />
    <glyph glyph-name="cedilla" unicode="&#xb8;" horiz-adv-x="300" 
d="M145 -185q-40 0 -68 16l14 39q27 -10 45 -10q38 0 38 28q0 32 -66 32l33 80h46l-20 -43q29 -4 48.5 -21.5t19.5 -47.5q0 -36 -24.5 -54.5t-65.5 -18.5z" />
    <glyph glyph-name="uni00B9" unicode="&#xb9;" horiz-adv-x="357" 
d="M74 274v50h76v283l-77 -25l-16 41l113 61h49v-360h71v-50h-216z" />
    <glyph glyph-name="ordmasculine" unicode="&#xba;" horiz-adv-x="451" 
d="M224 275q-80 0 -127.5 55.5t-47.5 149.5q0 96 48 155t127 59q80 0 128.5 -56t48.5 -149q0 -99 -47 -156.5t-130 -57.5zM225 334q29 0 48.5 13t28.5 37t12.5 48.5t3.5 57.5q0 144 -94 144q-93 0 -93 -151q0 -149 94 -149z" />
    <glyph glyph-name="guillemotright" unicode="&#xbb;" horiz-adv-x="474" 
d="M227 39l122 213l-131 205h83l131 -204l-124 -214h-81zM57 39l121 213l-131 205h83l130 -204l-123 -214h-80z" />
    <glyph glyph-name="onequarter" unicode="&#xbc;" horiz-adv-x="899" 
d="M74 274v50h76v283l-77 -25l-16 41l113 61h49v-360h71v-50h-216zM233 0l393 684h67l-393 -684h-67zM724 0v90h-182v49l155 271h97v-263h58v-57h-59v-90h-69zM610 147h114v206z" />
    <glyph glyph-name="onehalf" unicode="&#xbd;" horiz-adv-x="899" 
d="M74 274v50h76v283l-77 -25l-16 41l113 61h49v-360h71v-50h-216zM212 0l393 684h67l-393 -684h-67zM561 0v64q110 92 148 134.5t38 89.5q0 28 -16 47t-44 19q-39 0 -94 -36l-31 48q60 50 131 50q60 0 95 -35.5t35 -89.5q0 -62 -47 -115.5t-135 -117.5h191v-58h-271z" />
    <glyph glyph-name="threequarters" unicode="&#xbe;" horiz-adv-x="899" 
d="M171 269q-87 0 -138 49l35 47q44 -37 99 -37q35 0 55 16.5t20 47.5q0 67 -98 67h-16v54h16q88 0 88 60q0 28 -17 43t-46 15q-45 0 -92 -30l-29 46q57 43 126 43q55 0 92 -30t37 -77q0 -35 -20.5 -59.5t-54.5 -33.5q39 -7 63.5 -34t24.5 -67q0 -57 -40 -88.5t-105 -31.5z
M232 0l392 684h67l-393 -684h-66zM724 0v90h-182v49l155 271h97v-263h58v-57h-59v-90h-69zM610 147h114v206z" />
    <glyph glyph-name="questiondown" unicode="&#xbf;" horiz-adv-x="430" 
d="M247 464q-25 0 -42 17.5t-17 43.5q0 25 17 42t42 17t42.5 -17t17.5 -42q0 -26 -17.5 -43.5t-42.5 -17.5zM222 -136q-77 0 -124.5 42t-47.5 113q0 40 16 74.5t31.5 52t46.5 46.5q33 32 49 62t16 81v30h73v-30q0 -68 -18.5 -106.5t-56.5 -75.5q-25 -24 -36 -36.5
t-21.5 -37.5t-10.5 -55q0 -39 21.5 -63t66.5 -24q64 0 116 43l39 -57q-66 -59 -160 -59z" />
    <glyph glyph-name="Agrave" unicode="&#xc0;" horiz-adv-x="587" 
d="M171 206l-59 -206h-85l213 703h114l211 -703h-92l-58 206h-244zM395 275l-101 356l-103 -356h204zM263 752l-97 131h111l52 -131h-66z" />
    <glyph glyph-name="Aacute" unicode="&#xc1;" horiz-adv-x="587" 
d="M171 206l-59 -206h-85l213 703h114l211 -703h-92l-58 206h-244zM395 275l-101 356l-103 -356h204zM254 752l52 131h111l-97 -131h-66z" />
    <glyph glyph-name="Acircumflex" unicode="&#xc2;" horiz-adv-x="587" 
d="M171 206l-59 -206h-85l213 703h114l211 -703h-92l-58 206h-244zM395 275l-101 356l-103 -356h204zM159 752l92 133h87l90 -133h-69l-66 74l-65 -74h-69z" />
    <glyph glyph-name="Atilde" unicode="&#xc3;" horiz-adv-x="587" 
d="M171 206l-59 -206h-85l213 703h114l211 -703h-92l-58 206h-244zM395 275l-101 356l-103 -356h204zM347 761q-30 0 -63.5 21t-43.5 21q-26 0 -36 -43h-55q2 47 25.5 80.5t60.5 33.5q30 0 64 -20.5t44 -20.5q28 0 36 40h53q-2 -47 -25 -79.5t-60 -32.5z" />
    <glyph glyph-name="Adieresis" unicode="&#xc4;" horiz-adv-x="587" 
d="M171 206l-59 -206h-85l213 703h114l211 -703h-92l-58 206h-244zM395 275l-101 356l-103 -356h204zM379 768q-22 0 -37 15.5t-15 36.5t15 36.5t37 15.5t37 -15.5t15 -36.5q0 -22 -15 -37t-37 -15zM206 768q-22 0 -37.5 15.5t-15.5 36.5t15.5 36.5t37.5 15.5t37 -15.5
t15 -36.5q0 -22 -15 -37t-37 -15z" />
    <glyph glyph-name="Aring" unicode="&#xc5;" horiz-adv-x="587" 
d="M171 206l-59 -206h-85l212 701q-47 29 -47 83q0 40 29 68.5t70 28.5t70 -28.5t29 -68.5q0 -53 -45 -81h9l211 -703h-92l-58 206h-244zM291 731q21 0 34.5 15.5t13.5 37.5t-13.5 37.5t-34.5 15.5t-34.5 -15.5t-13.5 -37.5t13.5 -37.5t34.5 -15.5zM395 275l-101 356
l-103 -356h204z" />
    <glyph glyph-name="AE" unicode="&#xc6;" horiz-adv-x="891" 
d="M202 190l-101 -190h-93l387 703h439v-72h-315v-226h244v-71h-244v-262h333v-72h-421v190h-229zM431 259v360l-192 -360h192z" />
    <glyph glyph-name="Ccedilla" unicode="&#xc7;" horiz-adv-x="598" 
d="M298 -5q-111 16 -173.5 111t-62.5 246q0 165 74 263t206 98q127 0 204 -91l-53 -56q-66 71 -151 71q-93 0 -139.5 -76t-46.5 -214q0 -278 187 -278q51 0 88 21t74 61l54 -54q-84 -105 -217 -105l-16 -35q29 -4 48.5 -21.5t19.5 -47.5q0 -36 -24.5 -54.5t-65.5 -18.5
q-40 0 -68 16l14 39q27 -10 45 -10q38 0 38 28q0 32 -66 32z" />
    <glyph glyph-name="Egrave" unicode="&#xc8;" horiz-adv-x="551" 
d="M91 0v703h403v-72h-315v-226h245v-71h-245v-262h333v-72h-421zM272 752l-97 131h111l52 -131h-66z" />
    <glyph glyph-name="Eacute" unicode="&#xc9;" horiz-adv-x="551" 
d="M91 0v703h403v-72h-315v-226h245v-71h-245v-262h333v-72h-421zM261 752l52 131h111l-97 -131h-66z" />
    <glyph glyph-name="Ecircumflex" unicode="&#xca;" horiz-adv-x="551" 
d="M91 0v703h403v-72h-315v-226h245v-71h-245v-262h333v-72h-421zM159 752l92 133h87l90 -133h-69l-66 74l-65 -74h-69z" />
    <glyph glyph-name="Edieresis" unicode="&#xcb;" horiz-adv-x="551" 
d="M91 0v703h403v-72h-315v-226h245v-71h-245v-262h333v-72h-421zM380 768q-22 0 -37 15.5t-15 36.5t15 36.5t37 15.5t37 -15.5t15 -36.5q0 -22 -15 -37t-37 -15zM207 768q-22 0 -37.5 15.5t-15.5 36.5t15.5 36.5t37.5 15.5t37 -15.5t15 -36.5q0 -22 -15 -37t-37 -15z" />
    <glyph glyph-name="Igrave" unicode="&#xcc;" horiz-adv-x="282" 
d="M97 0v703h88v-703h-88zM109 752l-97 131h111l52 -131h-66z" />
    <glyph glyph-name="Iacute" unicode="&#xcd;" horiz-adv-x="282" 
d="M97 0v703h88v-703h-88zM107 752l52 131h111l-97 -131h-66z" />
    <glyph glyph-name="Icircumflex" unicode="&#xce;" horiz-adv-x="284" 
d="M98 0v703h88v-703h-88zM7 752l92 133h87l90 -133h-69l-66 74l-65 -74h-69z" />
    <glyph glyph-name="Idieresis" unicode="&#xcf;" horiz-adv-x="283" 
d="M98 0v703h88v-703h-88zM228 768q-22 0 -37 15.5t-15 36.5t15 36.5t37 15.5t37 -15.5t15 -36.5q0 -22 -15 -37t-37 -15zM55 768q-22 0 -37.5 15.5t-15.5 36.5t15.5 36.5t37.5 15.5t37 -15.5t15 -36.5q0 -22 -15 -37t-37 -15z" />
    <glyph glyph-name="Eth" unicode="&#xd0;" horiz-adv-x="658" 
d="M101 325h-77v72h77v306h160q337 0 337 -348q0 -355 -333 -355h-164v325zM189 397h183v-72h-183v-253h65q137 0 194 68t57 215q0 136 -52 206t-182 70h-82v-234z" />
    <glyph glyph-name="Ntilde" unicode="&#xd1;" horiz-adv-x="670" 
d="M91 0v703h104l236 -435q41 -77 67 -140q-4 58 -4 180v395h83v-703h-89l-256 472q-31 59 -62 131q4 -92 4 -180v-423h-83zM401 761q-30 0 -63.5 21t-43.5 21q-26 0 -36 -43h-55q2 47 25.5 80.5t60.5 33.5q30 0 64 -20.5t44 -20.5q28 0 36 40h53q-2 -47 -25 -79.5
t-60 -32.5z" />
    <glyph glyph-name="Ograve" unicode="&#xd2;" horiz-adv-x="667" 
d="M332 -8q-127 0 -199.5 95.5t-72.5 264.5q0 165 73 263t200 98q128 0 201 -96t73 -260q0 -168 -74.5 -266.5t-200.5 -98.5zM332 65q89 0 135.5 75t46.5 215q0 137 -45.5 211t-134.5 74q-90 0 -136 -76t-46 -215q0 -138 45.5 -211t134.5 -73zM300 752l-97 131h111l52 -131
h-66z" />
    <glyph glyph-name="Oacute" unicode="&#xd3;" horiz-adv-x="667" 
d="M332 -8q-127 0 -199.5 95.5t-72.5 264.5q0 165 73 263t200 98q128 0 201 -96t73 -260q0 -168 -74.5 -266.5t-200.5 -98.5zM332 65q89 0 135.5 75t46.5 215q0 137 -45.5 211t-134.5 74q-90 0 -136 -76t-46 -215q0 -138 45.5 -211t134.5 -73zM300 752l52 131h111l-97 -131
h-66z" />
    <glyph glyph-name="Ocircumflex" unicode="&#xd4;" horiz-adv-x="667" 
d="M332 -8q-127 0 -199.5 95.5t-72.5 264.5q0 165 73 263t200 98q128 0 201 -96t73 -260q0 -168 -74.5 -266.5t-200.5 -98.5zM332 65q89 0 135.5 75t46.5 215q0 137 -45.5 211t-134.5 74q-90 0 -136 -76t-46 -215q0 -138 45.5 -211t134.5 -73zM198 752l92 133h87l90 -133
h-69l-66 74l-65 -74h-69z" />
    <glyph glyph-name="Otilde" unicode="&#xd5;" horiz-adv-x="667" 
d="M332 -8q-127 0 -199.5 95.5t-72.5 264.5q0 165 73 263t200 98q128 0 201 -96t73 -260q0 -168 -74.5 -266.5t-200.5 -98.5zM332 65q89 0 135.5 75t46.5 215q0 137 -45.5 211t-134.5 74q-90 0 -136 -76t-46 -215q0 -138 45.5 -211t134.5 -73zM389 761q-30 0 -63.5 21
t-43.5 21q-26 0 -36 -43h-55q2 47 25.5 80.5t60.5 33.5q30 0 64 -20.5t44 -20.5q28 0 36 40h53q-2 -47 -25 -79.5t-60 -32.5z" />
    <glyph glyph-name="Odieresis" unicode="&#xd6;" horiz-adv-x="667" 
d="M332 -8q-127 0 -199.5 95.5t-72.5 264.5q0 165 73 263t200 98q128 0 201 -96t73 -260q0 -168 -74.5 -266.5t-200.5 -98.5zM332 65q89 0 135.5 75t46.5 215q0 137 -45.5 211t-134.5 74q-90 0 -136 -76t-46 -215q0 -138 45.5 -211t134.5 -73zM419 768q-22 0 -37 15.5
t-15 36.5t15 36.5t37 15.5t37 -15.5t15 -36.5q0 -22 -15 -37t-37 -15zM246 768q-22 0 -37.5 15.5t-15.5 36.5t15.5 36.5t37.5 15.5t37 -15.5t15 -36.5q0 -22 -15 -37t-37 -15z" />
    <glyph glyph-name="multiply" unicode="&#xd7;" horiz-adv-x="600" 
d="M347 293l164 -177l-52 -49l-160 173l-40 -43q-40 -43 -80 -87l-40 -43l-50 49l162 176l-162 177l50 49q160 -173 160 -174l160 174l52 -49q-163 -176 -164 -176z" />
    <glyph glyph-name="Oslash" unicode="&#xd8;" horiz-adv-x="666" 
d="M543 605q64 -93 64 -248q0 -168 -74.5 -266.5t-200.5 -98.5q-105 0 -176 69l-16 -23l-34 -48l-16 -24l-50 36l77 109q-57 92 -57 241q0 165 73 263t200 98q99 0 167 -59l59 83l51 -36q-67 -95 -67 -96zM173 191l280 397q-45 53 -119 53q-90 0 -136 -76.5t-46 -215.5
q0 -93 21 -158zM488 528l-284 -400q47 -64 128 -64q89 0 135.5 75.5t46.5 215.5q0 103 -26 173z" />
    <glyph glyph-name="Ugrave" unicode="&#xd9;" horiz-adv-x="647" 
d="M322 -8q-128 0 -181.5 72.5t-53.5 207.5v431h88v-450q0 -95 31.5 -141.5t116.5 -46.5q84 0 116.5 47t32.5 141v450h88v-431q0 -136 -53.5 -208t-184.5 -72zM296 752l-97 131h111l52 -131h-66z" />
    <glyph glyph-name="Uacute" unicode="&#xda;" horiz-adv-x="647" 
d="M322 -8q-128 0 -181.5 72.5t-53.5 207.5v431h88v-450q0 -95 31.5 -141.5t116.5 -46.5q84 0 116.5 47t32.5 141v450h88v-431q0 -136 -53.5 -208t-184.5 -72zM284 752l52 131h111l-97 -131h-66z" />
    <glyph glyph-name="Ucircumflex" unicode="&#xdb;" horiz-adv-x="647" 
d="M322 -8q-128 0 -181.5 72.5t-53.5 207.5v431h88v-450q0 -95 31.5 -141.5t116.5 -46.5q84 0 116.5 47t32.5 141v450h88v-431q0 -136 -53.5 -208t-184.5 -72zM188 752l92 133h87l90 -133h-69l-66 74l-65 -74h-69z" />
    <glyph glyph-name="Udieresis" unicode="&#xdc;" horiz-adv-x="647" 
d="M322 -8q-128 0 -181.5 72.5t-53.5 207.5v431h88v-450q0 -95 31.5 -141.5t116.5 -46.5q84 0 116.5 47t32.5 141v450h88v-431q0 -136 -53.5 -208t-184.5 -72zM409 768q-22 0 -37 15.5t-15 36.5t15 36.5t37 15.5t37 -15.5t15 -36.5q0 -22 -15 -37t-37 -15zM236 768
q-22 0 -37.5 15.5t-15.5 36.5t15.5 36.5t37.5 15.5t37 -15.5t15 -36.5q0 -22 -15 -37t-37 -15z" />
    <glyph glyph-name="Yacute" unicode="&#xdd;" horiz-adv-x="539" 
d="M225 0v297l-209 406h97l160 -328l162 328h90l-212 -406v-297h-88zM239 752l52 131h111l-97 -131h-66z" />
    <glyph glyph-name="Thorn" unicode="&#xde;" horiz-adv-x="571" 
d="M91 0v703h88v-131h105q246 0 246 -198q0 -105 -66 -152.5t-174 -47.5h-111v-174h-88zM179 243h99q82 0 122 29t40 103q0 71 -40 98.5t-117 27.5h-104v-258z" />
    <glyph glyph-name="germandbls" unicode="&#xdf;" 
d="M349 -8q-70 0 -120 28l21 61q48 -21 92 -21q89 0 89 79q0 30 -25.5 57.5t-56 46.5t-56 49.5t-25.5 66.5q0 30 15 56t32.5 43t32.5 45.5t15 62.5q0 35 -24.5 57.5t-65.5 22.5q-100 0 -100 -119v-527h-88v527q0 83 49.5 134.5t137.5 51.5q78 0 127 -41.5t49 -105.5
q0 -48 -25 -86.5t-49.5 -65.5t-24.5 -46q0 -17 17.5 -34.5t42.5 -35t50 -38.5t42.5 -52t17.5 -67q0 -70 -46.5 -109.5t-123.5 -39.5z" />
    <glyph glyph-name="agrave" unicode="&#xe0;" horiz-adv-x="513" 
d="M347 316v23q0 53 -20.5 77.5t-73.5 24.5q-57 0 -143 -44l-32 59q90 57 182 57q175 0 175 -180v-333h-51l-23 60q-68 -68 -155 -68q-67 0 -110.5 38.5t-43.5 100.5q0 81 67 122q63 39 228 63zM347 110v149q-157 -30 -190 -71q-16 -18 -16 -51q0 -77 78 -77q61 0 128 50z
M229 572l-97 131h111l52 -131h-66z" />
    <glyph glyph-name="aacute" unicode="&#xe1;" horiz-adv-x="513" 
d="M347 316v23q0 53 -20.5 77.5t-73.5 24.5q-57 0 -143 -44l-32 59q90 57 182 57q175 0 175 -180v-333h-51l-23 60q-68 -68 -155 -68q-67 0 -110.5 38.5t-43.5 100.5q0 81 67 122q63 39 228 63zM347 110v149q-157 -30 -190 -71q-16 -18 -16 -51q0 -77 78 -77q61 0 128 50z
M227 572l52 131h111l-97 -131h-66z" />
    <glyph glyph-name="acircumflex" unicode="&#xe2;" horiz-adv-x="513" 
d="M347 316v23q0 53 -20.5 77.5t-73.5 24.5q-57 0 -143 -44l-32 59q90 57 182 57q175 0 175 -180v-333h-51l-23 60q-68 -68 -155 -68q-67 0 -110.5 38.5t-43.5 100.5q0 81 67 122q63 39 228 63zM347 110v149q-157 -30 -190 -71q-16 -18 -16 -51q0 -77 78 -77q61 0 128 50z
M125 572l92 133h87l90 -133h-69l-66 74l-65 -74h-69z" />
    <glyph glyph-name="atilde" unicode="&#xe3;" horiz-adv-x="513" 
d="M347 316v23q0 53 -20.5 77.5t-73.5 24.5q-57 0 -143 -44l-32 59q90 57 182 57q175 0 175 -180v-333h-51l-23 60q-68 -68 -155 -68q-67 0 -110.5 38.5t-43.5 100.5q0 81 67 122q63 39 228 63zM347 110v149q-157 -30 -190 -71q-16 -18 -16 -51q0 -77 78 -77q61 0 128 50z
M312 581q-30 0 -63.5 21t-43.5 21q-26 0 -36 -43h-55q2 47 25.5 80.5t60.5 33.5q30 0 64 -20.5t44 -20.5q28 0 36 40h53q-2 -47 -25 -79.5t-60 -32.5z" />
    <glyph glyph-name="adieresis" unicode="&#xe4;" horiz-adv-x="513" 
d="M347 316v23q0 53 -20.5 77.5t-73.5 24.5q-57 0 -143 -44l-32 59q90 57 182 57q175 0 175 -180v-333h-51l-23 60q-68 -68 -155 -68q-67 0 -110.5 38.5t-43.5 100.5q0 81 67 122q63 39 228 63zM347 110v149q-157 -30 -190 -71q-16 -18 -16 -51q0 -77 78 -77q61 0 128 50z
M346 588q-22 0 -37 15.5t-15 36.5t15 36.5t37 15.5t37 -15.5t15 -36.5q0 -22 -15 -37t-37 -15zM173 588q-22 0 -37.5 15.5t-15.5 36.5t15.5 36.5t37.5 15.5t37 -15.5t15 -36.5q0 -22 -15 -37t-37 -15z" />
    <glyph glyph-name="aring" unicode="&#xe5;" horiz-adv-x="513" 
d="M347 316v23q0 53 -20.5 77.5t-73.5 24.5q-57 0 -143 -44l-32 59q90 57 182 57q175 0 175 -180v-333h-51l-23 60q-68 -68 -155 -68q-67 0 -110.5 38.5t-43.5 100.5q0 81 67 122q63 39 228 63zM347 110v149q-157 -30 -190 -71q-16 -18 -16 -51q0 -77 78 -77q61 0 128 50z
M256 560q-41 0 -70 28.5t-29 68.5t29 68.5t70 28.5t70 -28.5t29 -68.5t-29 -68.5t-70 -28.5zM256 604q21 0 34.5 15.5t13.5 37.5t-13.5 37.5t-34.5 15.5t-34.5 -15.5t-13.5 -37.5t13.5 -37.5t34.5 -15.5z" />
    <glyph glyph-name="ae" unicode="&#xe6;" horiz-adv-x="796" 
d="M347 299v40q0 53 -20.5 77.5t-73.5 24.5q-57 0 -143 -44l-32 59q90 57 182 57q107 0 144 -68q55 68 145 68q97 0 148.5 -69t51.5 -196v-10h-313q2 -88 32.5 -132t95.5 -44q39 0 68.5 12t68.5 37l36 -53q-40 -34 -79.5 -50t-100.5 -16q-109 0 -169 88q-32 -39 -79.5 -63.5
t-102.5 -24.5q-67 0 -110.5 38t-43.5 100q0 81 67 123q59 38 228 46zM438 297h221q-5 75 -31.5 112.5t-77.5 37.5q-99 0 -112 -150zM344 239q-155 -11 -187 -51q-16 -18 -16 -52q0 -76 78 -76q72 0 146 65q-20 54 -21 114z" />
    <glyph glyph-name="ccedilla" unicode="&#xe7;" horiz-adv-x="463" 
d="M227 -6q-90 13 -134 85.5t-44 168.5q0 69 19.5 126.5t69.5 98t123 40.5q94 0 157 -53l-38 -59q-55 41 -118 41q-121 0 -121 -194q0 -185 124 -185q64 0 120 48l42 -52q-61 -63 -156 -67l-16 -35q29 -4 48.5 -21.5t19.5 -47.5q0 -36 -24.5 -54.5t-65.5 -18.5q-40 0 -68 16
l14 39q27 -10 45 -10q38 0 38 28q0 32 -66 32z" />
    <glyph glyph-name="egrave" unicode="&#xe8;" horiz-adv-x="502" 
d="M142 227q6 -165 127 -165q39 0 68.5 12t68.5 37l37 -53q-41 -34 -80.5 -50t-100.5 -16q-98 0 -155.5 70t-57.5 189q0 117 56 189.5t150 72.5q97 0 148 -69t51 -196v-21h-312zM142 286h222q-5 161 -109 161q-103 0 -113 -161zM223 572l-97 131h111l52 -131h-66z" />
    <glyph glyph-name="eacute" unicode="&#xe9;" horiz-adv-x="502" 
d="M142 227q6 -165 127 -165q39 0 68.5 12t68.5 37l37 -53q-41 -34 -80.5 -50t-100.5 -16q-98 0 -155.5 70t-57.5 189q0 117 56 189.5t150 72.5q97 0 148 -69t51 -196v-21h-312zM142 286h222q-5 161 -109 161q-103 0 -113 -161zM226 572l52 131h111l-97 -131h-66z" />
    <glyph glyph-name="ecircumflex" unicode="&#xea;" horiz-adv-x="502" 
d="M142 227q6 -165 127 -165q39 0 68.5 12t68.5 37l37 -53q-41 -34 -80.5 -50t-100.5 -16q-98 0 -155.5 70t-57.5 189q0 117 56 189.5t150 72.5q97 0 148 -69t51 -196v-21h-312zM142 286h222q-5 161 -109 161q-103 0 -113 -161zM120 572l92 133h87l90 -133h-69l-66 74
l-65 -74h-69z" />
    <glyph glyph-name="edieresis" unicode="&#xeb;" horiz-adv-x="502" 
d="M142 227q6 -165 127 -165q39 0 68.5 12t68.5 37l37 -53q-41 -34 -80.5 -50t-100.5 -16q-98 0 -155.5 70t-57.5 189q0 117 56 189.5t150 72.5q97 0 148 -69t51 -196v-21h-312zM142 286h222q-5 161 -109 161q-103 0 -113 -161zM340 588q-22 0 -37 15.5t-15 36.5t15 36.5
t37 15.5t37 -15.5t15 -36.5q0 -22 -15 -37t-37 -15zM167 588q-22 0 -37.5 15.5t-15.5 36.5t15.5 36.5t37.5 15.5t37 -15.5t15 -36.5q0 -22 -15 -37t-37 -15z" />
    <glyph glyph-name="igrave" unicode="&#xec;" horiz-adv-x="264" 
d="M89 0v503h86v-503h-86zM98 572l-97 131h111l52 -131h-66z" />
    <glyph glyph-name="iacute" unicode="&#xed;" horiz-adv-x="263" 
d="M89 0v500h86v-500h-86zM100 572l52 131h111l-97 -131h-66z" />
    <glyph glyph-name="icircumflex" unicode="&#xee;" horiz-adv-x="264" 
d="M89 0v503h86v-503h-86zM-3 572l92 133h87l90 -133h-69l-66 74l-65 -74h-69z" />
    <glyph glyph-name="idieresis" unicode="&#xef;" horiz-adv-x="263" 
d="M89 0v500h86v-500h-86zM218 588q-22 0 -37 15.5t-15 36.5t15 36.5t37 15.5t37 -15.5t15 -36.5q0 -22 -15 -37t-37 -15zM45 588q-22 0 -37.5 15.5t-15.5 36.5t15.5 36.5t37.5 15.5t37 -15.5t15 -36.5q0 -22 -15 -37t-37 -15z" />
    <glyph glyph-name="eth" unicode="&#xf0;" horiz-adv-x="529" 
d="M268 575l-113 -47l-23 53l95 39q-32 36 -89 83h98q34 -20 67 -52l116 48l23 -52q-95 -39 -95 -40q133 -152 133 -339q0 -139 -56 -207.5t-158 -68.5q-99 0 -158 67t-59 179q0 111 55 180.5t144 69.5q58 0 98 -34q-27 59 -78 121zM265 59q68 0 95 49t27 141
q0 173 -123 173q-61 0 -91.5 -48t-30.5 -136q0 -85 30.5 -132t92.5 -47z" />
    <glyph glyph-name="ntilde" unicode="&#xf1;" 
d="M85 0v503h52l22 -83q82 93 180 93q75 0 106 -48t31 -121v-344h-88v344q0 43 -16.5 68.5t-61.5 25.5q-68 0 -137 -72v-366h-88zM335 581q-30 0 -63.5 21t-43.5 21q-26 0 -36 -43h-55q2 47 25.5 80.5t60.5 33.5q30 0 64 -20.5t44 -20.5q28 0 36 40h53q-2 -47 -25 -79.5
t-60 -32.5z" />
    <glyph glyph-name="ograve" unicode="&#xf2;" horiz-adv-x="529" 
d="M265 -8q-99 0 -157.5 69t-58.5 187q0 119 59.5 192t156.5 73t156 -69.5t59 -184.5q0 -124 -57.5 -195.5t-157.5 -71.5zM265 59q67 0 94.5 52t27.5 150q0 185 -123 185q-122 0 -122 -196q0 -191 123 -191zM233 572l-97 131h111l52 -131h-66z" />
    <glyph glyph-name="oacute" unicode="&#xf3;" horiz-adv-x="529" 
d="M265 -8q-99 0 -157.5 69t-58.5 187q0 119 59.5 192t156.5 73t156 -69.5t59 -184.5q0 -124 -57.5 -195.5t-157.5 -71.5zM265 59q67 0 94.5 52t27.5 150q0 185 -123 185q-122 0 -122 -196q0 -191 123 -191zM229 572l52 131h111l-97 -131h-66z" />
    <glyph glyph-name="ocircumflex" unicode="&#xf4;" horiz-adv-x="529" 
d="M265 -8q-99 0 -157.5 69t-58.5 187q0 119 59.5 192t156.5 73t156 -69.5t59 -184.5q0 -124 -57.5 -195.5t-157.5 -71.5zM265 59q67 0 94.5 52t27.5 150q0 185 -123 185q-122 0 -122 -196q0 -191 123 -191zM129 572l92 133h87l90 -133h-69l-66 74l-65 -74h-69z" />
    <glyph glyph-name="otilde" unicode="&#xf5;" horiz-adv-x="529" 
d="M265 -8q-99 0 -157.5 69t-58.5 187q0 119 59.5 192t156.5 73t156 -69.5t59 -184.5q0 -124 -57.5 -195.5t-157.5 -71.5zM265 59q67 0 94.5 52t27.5 150q0 185 -123 185q-122 0 -122 -196q0 -191 123 -191zM322 581q-30 0 -63.5 21t-43.5 21q-26 0 -36 -43h-55
q2 47 25.5 80.5t60.5 33.5q30 0 64 -20.5t44 -20.5q28 0 36 40h53q-2 -47 -25 -79.5t-60 -32.5z" />
    <glyph glyph-name="odieresis" unicode="&#xf6;" horiz-adv-x="529" 
d="M265 -8q-99 0 -157.5 69t-58.5 187q0 119 59.5 192t156.5 73t156 -69.5t59 -184.5q0 -124 -57.5 -195.5t-157.5 -71.5zM265 59q67 0 94.5 52t27.5 150q0 185 -123 185q-122 0 -122 -196q0 -191 123 -191zM350 588q-22 0 -37 15.5t-15 36.5t15 36.5t37 15.5t37 -15.5
t15 -36.5q0 -22 -15 -37t-37 -15zM177 588q-22 0 -37.5 15.5t-15.5 36.5t15.5 36.5t37.5 15.5t37 -15.5t15 -36.5q0 -22 -15 -37t-37 -15z" />
    <glyph glyph-name="divide" unicode="&#xf7;" horiz-adv-x="600" 
d="M300 398q-24 0 -40 16t-16 39q0 24 16 40.5t40 16.5t40 -16.5t16 -40.5q0 -23 -16 -39t-40 -16zM63 257v72h474v-72h-474zM300 75q-24 0 -40 15.5t-16 38.5q0 25 16 41.5t40 16.5t40 -16.5t16 -41.5q0 -23 -16 -38.5t-40 -15.5z" />
    <glyph glyph-name="oslash" unicode="&#xf8;" horiz-adv-x="526" 
d="M428 433q50 -69 50 -174q0 -124 -57.5 -195.5t-157.5 -71.5q-71 0 -123 37l-52 -74l-44 32q4 5 9.5 13.5t18 26t20.5 29.5l8 11q-53 69 -53 181q0 119 59.5 192t156.5 73q73 0 125 -40l44 61l45 -32zM154 142q5 8 14.5 21t34.5 48.5t47 66.5t45 63t37 51l13 19
q-29 36 -83 36q-61 0 -92 -51t-31 -146q0 -63 15 -108zM373 356l-189 -266q29 -32 79 -32q39 0 65 17.5t37.5 49.5t15.5 63t4 73q0 56 -12 95z" />
    <glyph glyph-name="ugrave" unicode="&#xf9;" 
d="M219 -8q-76 0 -108 47.5t-32 119.5v344h88v-343q0 -94 80 -94q65 0 135 65v372h88v-503h-52l-23 77q-83 -85 -176 -85zM248 572l-97 131h111l52 -131h-66z" />
    <glyph glyph-name="uacute" unicode="&#xfa;" 
d="M219 -8q-76 0 -108 47.5t-32 119.5v344h88v-343q0 -94 80 -94q65 0 135 65v372h88v-503h-52l-23 77q-83 -85 -176 -85zM241 572l52 131h111l-97 -131h-66z" />
    <glyph glyph-name="ucircumflex" unicode="&#xfb;" 
d="M219 -8q-76 0 -108 47.5t-32 119.5v344h88v-343q0 -94 80 -94q65 0 135 65v372h88v-503h-52l-23 77q-83 -85 -176 -85zM142 572l92 133h87l90 -133h-69l-66 74l-65 -74h-69z" />
    <glyph glyph-name="udieresis" unicode="&#xfc;" 
d="M219 -8q-76 0 -108 47.5t-32 119.5v344h88v-343q0 -94 80 -94q65 0 135 65v372h88v-503h-52l-23 77q-83 -85 -176 -85zM363 588q-22 0 -37 15.5t-15 36.5t15 36.5t37 15.5t37 -15.5t15 -36.5q0 -22 -15 -37t-37 -15zM190 588q-22 0 -37.5 15.5t-15.5 36.5t15.5 36.5
t37.5 15.5t37 -15.5t15 -36.5q0 -22 -15 -37t-37 -15z" />
    <glyph glyph-name="yacute" unicode="&#xfd;" horiz-adv-x="471" 
d="M204 -29l-179 532h90q126 -424 126 -425l118 425h87l-169 -541q-23 -73 -64.5 -109t-111.5 -36q-31 0 -61 9l11 64q32 -5 42 -5q83 0 111 86zM204 572l52 131h111l-97 -131h-66z" />
    <glyph glyph-name="thorn" unicode="&#xfe;" horiz-adv-x="552" 
d="M84 -178v881h88v-256q62 66 138 66q93 0 143 -76t50 -176q0 -120 -57 -194.5t-149 -74.5q-73 0 -125 52v-222h-88zM279 60q63 0 96.5 52.5t33.5 148.5q0 46 -9.5 83.5t-37.5 66t-72 28.5q-64 0 -118 -57v-269q48 -53 107 -53z" />
    <glyph glyph-name="ydieresis" unicode="&#xff;" horiz-adv-x="471" 
d="M204 -29l-179 532h90q126 -424 126 -425l118 425h87l-169 -541q-23 -73 -64.5 -109t-111.5 -36q-31 0 -61 9l11 64q32 -5 42 -5q83 0 111 86zM322 588q-22 0 -37 15.5t-15 36.5t15 36.5t37 15.5t37 -15.5t15 -36.5q0 -22 -15 -37t-37 -15zM149 588q-22 0 -37.5 15.5
t-15.5 36.5t15.5 36.5t37.5 15.5t37 -15.5t15 -36.5q0 -22 -15 -37t-37 -15z" />
    <glyph glyph-name="Amacron" unicode="&#x100;" horiz-adv-x="592" 
d="M171 206l-59 -206h-85l213 703h114l211 -703h-92l-58 206h-244zM395 275l-101 356l-103 -356h204zM181 785v70h226v-70h-226z" />
    <glyph glyph-name="amacron" unicode="&#x101;" horiz-adv-x="513" 
d="M347 316v23q0 53 -20.5 77.5t-73.5 24.5q-57 0 -143 -44l-32 59q90 57 182 57q175 0 175 -180v-333h-51l-23 60q-68 -68 -155 -68q-67 0 -110.5 38.5t-43.5 100.5q0 81 67 122q63 39 228 63zM347 110v149q-157 -30 -190 -71q-16 -18 -16 -51q0 -77 78 -77q61 0 128 50z
M145 605v70h226v-70h-226z" />
    <glyph glyph-name="Abreve" unicode="&#x102;" horiz-adv-x="592" 
d="M171 206l-59 -206h-85l213 703h114l211 -703h-92l-58 206h-244zM395 275l-101 356l-103 -356h204zM294 748q-56 0 -92 36.5t-39 92.5h60q3 -26 21.5 -43t50.5 -17t50 17t20 43h60q-3 -56 -39 -92.5t-92 -36.5z" />
    <glyph glyph-name="abreve" unicode="&#x103;" horiz-adv-x="513" 
d="M347 316v23q0 53 -20.5 77.5t-73.5 24.5q-57 0 -143 -44l-32 59q90 57 182 57q175 0 175 -180v-333h-51l-23 60q-68 -68 -155 -68q-67 0 -110.5 38.5t-43.5 100.5q0 81 67 122q63 39 228 63zM347 110v149q-157 -30 -190 -71q-16 -18 -16 -51q0 -77 78 -77q61 0 128 50z
M256 568q-56 0 -92 36.5t-39 92.5h60q3 -26 21.5 -43t50.5 -17t50 17t20 43h60q-3 -56 -39 -92.5t-92 -36.5z" />
    <glyph glyph-name="Aogonek" unicode="&#x104;" horiz-adv-x="592" 
d="M522 -185q-42 0 -66.5 18t-24.5 54q0 34 26 64.5t59 48.5h-43l-58 206h-244l-59 -206h-85l213 703h114l211 -703h-2q-69 -69 -69 -110q0 -30 36 -30q19 0 45 11l15 -39q-32 -17 -68 -17zM395 275l-101 356l-103 -356h204z" />
    <glyph glyph-name="aogonek" unicode="&#x105;" horiz-adv-x="513" 
d="M390 -185q-42 0 -66.5 18t-24.5 54q0 34 26 64.5t59 48.5l-23 60q-68 -68 -155 -68q-67 0 -110.5 38.5t-43.5 100.5q0 81 67 122q63 39 228 63v23q0 53 -20.5 77.5t-73.5 24.5q-57 0 -143 -44l-32 59q90 57 182 57q175 0 175 -180v-333h-4q-69 -69 -69 -110q0 -30 36 -30
q19 0 45 11l15 -39q-32 -17 -68 -17zM347 110v149q-157 -30 -190 -71q-16 -18 -16 -51q0 -77 78 -77q61 0 128 50z" />
    <glyph glyph-name="Cacute" unicode="&#x106;" horiz-adv-x="597" 
d="M342 -8q-131 0 -205.5 97t-74.5 263q0 165 74 263t206 98q127 0 204 -91l-53 -56q-66 71 -151 71q-93 0 -139.5 -76t-46.5 -214q0 -278 187 -278q51 0 88 21t74 61l54 -54q-84 -105 -217 -105zM288 752l52 131h111l-97 -131h-66z" />
    <glyph glyph-name="cacute" unicode="&#x107;" horiz-adv-x="464" 
d="M261 -8q-73 0 -122.5 39t-69.5 94.5t-20 122.5q0 69 19.5 126.5t69.5 98t123 40.5q94 0 157 -53l-38 -59q-55 41 -118 41q-121 0 -121 -194q0 -185 124 -185q64 0 120 48l42 -52q-65 -67 -166 -67zM214 572l52 131h111l-97 -131h-66z" />
    <glyph glyph-name="Ccaron" unicode="&#x10c;" horiz-adv-x="597" 
d="M342 -8q-131 0 -205.5 97t-74.5 263q0 165 74 263t206 98q127 0 204 -91l-53 -56q-66 71 -151 71q-93 0 -139.5 -76t-46.5 -214q0 -278 187 -278q51 0 88 21t74 61l54 -54q-84 -105 -217 -105zM299 752l-90 133h69l66 -74l65 74h69l-92 -133h-87z" />
    <glyph glyph-name="ccaron" unicode="&#x10d;" horiz-adv-x="464" 
d="M261 -8q-73 0 -122.5 39t-69.5 94.5t-20 122.5q0 69 19.5 126.5t69.5 98t123 40.5q94 0 157 -53l-38 -59q-55 41 -118 41q-121 0 -121 -194q0 -185 124 -185q64 0 120 48l42 -52q-65 -67 -166 -67zM217 572l-90 133h69l66 -74l65 74h69l-92 -133h-87z" />
    <glyph glyph-name="Dcaron" unicode="&#x10e;" horiz-adv-x="648" 
d="M91 0v703h160q337 0 337 -348q0 -355 -333 -355h-164zM179 72h65q137 0 194 68t57 215q0 136 -52 206t-182 70h-82v-559zM231 752l-90 133h69l66 -74l65 74h69l-92 -133h-87z" />
    <glyph glyph-name="dcaron" unicode="&#x10f;" horiz-adv-x="552" 
d="M246 -8q-96 0 -146.5 73t-50.5 179q0 120 57 194.5t147 74.5q76 0 127 -53v243h88v-703h-52l-22 69q-59 -77 -148 -77zM264 60q62 0 116 59v270q-47 50 -108 50q-62 0 -95.5 -51t-33.5 -146q0 -182 121 -182zM539 504l-22 29q27 21 37.5 35t10.5 31q-19 0 -34 14.5
t-15 35.5q0 23 14.5 38.5t37.5 15.5q25 0 41 -18.5t16 -49.5q0 -78 -86 -131z" />
    <glyph glyph-name="Dcroat" unicode="&#x110;" horiz-adv-x="710" 
d="M101 325h-77v72h77v306h160q337 0 337 -348q0 -355 -333 -355h-164v325zM189 397h183v-72h-183v-253h65q137 0 194 68t57 215q0 136 -52 206t-182 70h-82v-234z" />
    <glyph glyph-name="dcroat" unicode="&#x111;" horiz-adv-x="552" 
d="M272 634h108v69h88v-69h71v-62h-71v-572h-52l-22 69q-59 -77 -148 -77q-96 0 -146.5 73t-50.5 179q0 120 57 194.5t147 74.5q76 0 127 -53v112h-108v62zM264 60q62 0 116 59v270q-47 50 -108 50q-62 0 -95.5 -51t-33.5 -146q0 -182 121 -182z" />
    <glyph glyph-name="Emacron" unicode="&#x112;" horiz-adv-x="551" 
d="M91 0v703h403v-72h-315v-226h245v-71h-245v-262h333v-72h-421zM179 785v70h226v-70h-226z" />
    <glyph glyph-name="emacron" unicode="&#x113;" horiz-adv-x="501" 
d="M142 227q6 -165 127 -165q39 0 68.5 12t68.5 37l37 -53q-41 -34 -80.5 -50t-100.5 -16q-98 0 -155.5 70t-57.5 189q0 117 56 189.5t150 72.5q97 0 148 -69t51 -196v-21h-312zM142 286h222q-5 161 -109 161q-103 0 -113 -161zM143 605v70h226v-70h-226z" />
    <glyph glyph-name="Edotaccent" unicode="&#x116;" horiz-adv-x="551" 
d="M91 0v703h403v-72h-315v-226h245v-71h-245v-262h333v-72h-421zM294 767q-24 0 -40.5 16t-16.5 39t16.5 39t40.5 16t40 -16t16 -39t-16 -39t-40 -16z" />
    <glyph glyph-name="edotaccent" unicode="&#x117;" horiz-adv-x="501" 
d="M142 227q6 -165 127 -165q39 0 68.5 12t68.5 37l37 -53q-41 -34 -80.5 -50t-100.5 -16q-98 0 -155.5 70t-57.5 189q0 117 56 189.5t150 72.5q97 0 148 -69t51 -196v-21h-312zM142 286h222q-5 161 -109 161q-103 0 -113 -161zM254 587q-24 0 -40.5 16t-16.5 39t16.5 39
t40.5 16t40 -16t16 -39t-16 -39t-40 -16z" />
    <glyph glyph-name="Eogonek" unicode="&#x118;" horiz-adv-x="551" 
d="M91 0v703h403v-72h-315v-226h245v-71h-245v-262h333v-72h-51q-69 -69 -69 -110q0 -30 36 -30q19 0 45 11l15 -39q-32 -17 -68 -17q-42 0 -66.5 18t-24.5 54q0 34 26 64.5t59 48.5h-323z" />
    <glyph glyph-name="eogonek" unicode="&#x119;" horiz-adv-x="501" 
d="M292 -185q-42 0 -66.5 18t-24.5 54q0 59 71 105h-10q-98 0 -155.5 70t-57.5 189q0 117 56 189.5t150 72.5q97 0 148 -69t51 -196v-21h-312q6 -165 127 -165q39 0 68.5 12t68.5 37l37 -53q-57 -47 -111 -59q-68 -66 -68 -109q0 -30 36 -30q19 0 45 11l15 -39
q-32 -17 -68 -17zM142 286h222q-5 161 -109 161q-103 0 -113 -161z" />
    <glyph glyph-name="Ecaron" unicode="&#x11a;" horiz-adv-x="551" 
d="M91 0v703h403v-72h-315v-226h245v-71h-245v-262h333v-72h-421zM251 752l-90 133h69l66 -74l65 74h69l-92 -133h-87z" />
    <glyph glyph-name="ecaron" unicode="&#x11b;" horiz-adv-x="501" 
d="M142 227q6 -165 127 -165q39 0 68.5 12t68.5 37l37 -53q-41 -34 -80.5 -50t-100.5 -16q-98 0 -155.5 70t-57.5 189q0 117 56 189.5t150 72.5q97 0 148 -69t51 -196v-21h-312zM142 286h222q-5 161 -109 161q-103 0 -113 -161zM212 572l-90 133h69l66 -74l65 74h69
l-92 -133h-87z" />
    <glyph glyph-name="Gbreve" unicode="&#x11e;" horiz-adv-x="638" 
d="M496 61q-69 -69 -162 -69q-126 0 -199 97t-73 263t74 263.5t209 97.5q125 0 206 -81l-51 -57q-68 62 -156 62q-188 0 -188 -290q0 -136 46.5 -208t138.5 -72q80 0 139 61v167h-143v71h231v-366h-52zM343 748q-56 0 -92 36.5t-39 92.5h60q3 -26 21.5 -43t50.5 -17t50 17
t20 43h60q-3 -56 -39 -92.5t-92 -36.5z" />
    <glyph glyph-name="gbreve" unicode="&#x11f;" horiz-adv-x="514" 
d="M351 487l139 35v-79h-89q33 -45 33 -102q0 -78 -49.5 -125t-137.5 -47q-36 0 -71 10q-30 -16 -30 -43q0 -32 53 -36q130 -10 150 -12q133 -16 133 -121q0 -74 -61.5 -114.5t-180.5 -40.5q-103 0 -154.5 34t-51.5 89q0 73 87 109q-21 9 -35 28t-14 43q0 55 60 84
q-74 47 -74 142q0 74 53.5 123t134.5 49q61 0 105 -26zM246 232q50 0 79 29t29 81t-29.5 80t-77.5 28q-50 0 -79 -28t-29 -80t28.5 -81t78.5 -29zM242 -123q81 0 119 23t38 60q0 45 -57 52q-79 12 -149 12q-29 0 -54.5 -23.5t-25.5 -53.5q0 -70 129 -70zM248 568
q-56 0 -92 36.5t-39 92.5h60q3 -26 21.5 -43t50.5 -17t50 17t20 43h60q-3 -56 -39 -92.5t-92 -36.5z" />
    <glyph glyph-name="Gcommaaccent" unicode="&#x122;" horiz-adv-x="638" 
d="M496 61q-69 -69 -162 -69q-126 0 -199 97t-73 263t74 263.5t209 97.5q125 0 206 -81l-51 -57q-68 62 -156 62q-188 0 -188 -290q0 -136 46.5 -208t138.5 -72q80 0 139 61v167h-143v71h231v-366h-52zM409 -91q0 -81 -90 -127l-19 29q45 31 45 64q-20 0 -34.5 12.5
t-14.5 34.5t15.5 34.5t38.5 12.5q26 0 42.5 -16t16.5 -44z" />
    <glyph glyph-name="gcommaaccent" unicode="&#x123;" horiz-adv-x="514" 
d="M351 487l139 35v-79h-89q33 -45 33 -102q0 -78 -49.5 -125t-137.5 -47q-36 0 -71 10q-30 -16 -30 -43q0 -32 53 -36q130 -10 150 -12q133 -16 133 -121q0 -74 -61.5 -114.5t-180.5 -40.5q-103 0 -154.5 34t-51.5 89q0 73 87 109q-21 9 -35 28t-14 43q0 55 60 84
q-74 47 -74 142q0 74 53.5 123t134.5 49q61 0 105 -26zM246 232q50 0 79 29t29 81t-29.5 80t-77.5 28q-50 0 -79 -28t-29 -80t28.5 -81t78.5 -29zM242 -123q81 0 119 23t38 60q0 45 -57 52q-79 12 -149 12q-29 0 -54.5 -23.5t-25.5 -53.5q0 -70 129 -70zM185 629
q0 81 90 127l19 -29q-45 -31 -45 -64q21 0 35 -13t14 -34t-15 -34t-37 -13q-26 0 -43.5 16t-17.5 44z" />
    <glyph glyph-name="Imacron" unicode="&#x12a;" horiz-adv-x="282" 
d="M97 0v703h88v-703h-88zM27 785v70h226v-70h-226z" />
    <glyph glyph-name="imacron" unicode="&#x12b;" horiz-adv-x="264" 
d="M89 0v503h86v-503h-86zM18 605v70h226v-70h-226z" />
    <glyph glyph-name="Iogonek" unicode="&#x12e;" horiz-adv-x="282" 
d="M97 0v703h88v-703h-88zM144 -185q-42 0 -66.5 18t-24.5 54q0 34 26 64.5t59 48.5h47q-69 -69 -69 -110q0 -30 36 -30q19 0 45 11l15 -39q-32 -17 -68 -17z" />
    <glyph glyph-name="iogonek" unicode="&#x12f;" horiz-adv-x="265" 
d="M133 587q-24 0 -40.5 16t-16.5 39t16.5 39t40.5 16t40 -16t16 -39t-16 -39t-40 -16zM89 0v503h88v-503h-88zM136 -185q-42 0 -66.5 18t-24.5 54q0 34 26 64.5t59 48.5h47q-69 -69 -69 -110q0 -30 36 -30q19 0 45 11l15 -39q-32 -17 -68 -17z" />
    <glyph glyph-name="Idotaccent" unicode="&#x130;" horiz-adv-x="282" 
d="M97 0v703h88v-703h-88zM140 767q-24 0 -40.5 16t-16.5 39t16.5 39t40.5 16t40 -16t16 -39t-16 -39t-40 -16z" />
    <glyph glyph-name="dotlessi" unicode="&#x131;" horiz-adv-x="264" 
d="M89 0v503h86v-503h-86z" />
    <glyph glyph-name="Kcommaaccent" unicode="&#x136;" horiz-adv-x="593" 
d="M179 349l271 354h100l-220 -279l59 -106l118 -212l59 -106h-100l-197 359l-17 -15q-18 -16 -41.5 -37t-31.5 -28v0v0v0v-1v0v0v-1v0v-1v0v-1v0v-1v-1v-1v-1v-1v-1v-1v-1v-1v-1v-1v-1v-1v-1v-1v-1v-1v-1v-1v-1v-1v-1v-1v-1v-1v-1v-1v-1v-1v-1v-1v-1v-1v-1v-1v-1v-1v-1v-1
v-1v-1v-1v-1v-1v-1v-1v-1v-1v-1v-1v-1v-1v-1v-1v-2v-1v-1v-1v-1v-1v-1v-2v-1v-1v-1v-1v-1v-2v-1v-1v-1v-2v-1v-1v-1v-2v-1v-1v-1v-2v-1v-1v-2v-1v-1v-2v-1v-1v-2v-1v-1v-2v-1v-1v-2v-1v-2v-1v-1v-2v-1v-2v-1v-1v-2v-1v-2v-1v-2v-1v-2v-1v-2v-1v-2v-1v-2v-1v-2v-1v-2v-1v-2
v-1v-2v-1v-2v-1v-2v-2v-1v-2v-1v-2v-1v-2v-2v-1v-2v-2v-1v-2v-1v-2v-2v-1v-2v-2v-1v-2v-2v-1v-2v-2v-1v-2v-2v-1v-2v-2v-2v-1v-2v-2v-2v-1v-2v-2v-2v-1v-2v-2v-2v-1v-2v-2v-2v-2v-1v-2v-2v-2v-2v-2v-1v-2v-2v-2v-2v-2v-1v-2v-2v-9h-88v703h88v-354zM369 -91q0 -81 -90 -127
l-19 29q45 31 45 64q-20 0 -34.5 12.5t-14.5 34.5t15.5 34.5t38.5 12.5q26 0 42.5 -16t16.5 -44z" />
    <glyph glyph-name="kcommaaccent" unicode="&#x137;" horiz-adv-x="498" 
d="M173 201v-201h-88v703h88v-433l186 233h96q-150 -183 -151 -183l173 -320h-95l-136 259q-73 -57 -73 -58zM328 -91q0 -81 -90 -127l-19 29q45 31 45 64q-20 0 -34.5 12.5t-14.5 34.5t15.5 34.5t38.5 12.5q26 0 42.5 -16t16.5 -44z" />
    <glyph glyph-name="Lacute" unicode="&#x139;" horiz-adv-x="514" 
d="M91 0v703h88v-631h306v-72h-394zM98 752l52 131h111l-97 -131h-66z" />
    <glyph glyph-name="lacute" unicode="&#x13a;" horiz-adv-x="266" 
d="M89 0v703h88v-703h-88zM89 752l52 131h111l-97 -131h-66z" />
    <glyph glyph-name="Lcommaaccent" unicode="&#x13b;" horiz-adv-x="514" 
d="M91 0v703h88v-631h306v-72h-394zM342 -91q0 -81 -90 -127l-19 29q45 31 45 64q-20 0 -34.5 12.5t-14.5 34.5t15.5 34.5t38.5 12.5q26 0 42.5 -16t16.5 -44z" />
    <glyph glyph-name="lcommaaccent" unicode="&#x13c;" horiz-adv-x="266" 
d="M89 0v703h88v-703h-88zM186 -91q0 -81 -90 -127l-19 29q45 31 45 64q-20 0 -34.5 12.5t-14.5 34.5t15.5 34.5t38.5 12.5q26 0 42.5 -16t16.5 -44z" />
    <glyph glyph-name="Lcaron" unicode="&#x13d;" horiz-adv-x="514" 
d="M91 0v703h88v-631h306v-72h-394zM386 504l-22 29q27 21 37.5 35t10.5 31q-19 0 -34 14.5t-15 35.5q0 23 14.5 38.5t37.5 15.5q25 0 41 -18.5t16 -49.5q0 -78 -86 -131z" />
    <glyph glyph-name="lcaron" unicode="&#x13e;" horiz-adv-x="266" 
d="M89 0v703h88v-703h-88zM248 504l-22 29q27 21 37.5 35t10.5 31q-19 0 -34 14.5t-15 35.5q0 23 14.5 38.5t37.5 15.5q25 0 41 -18.5t16 -49.5q0 -78 -86 -131z" />
    <glyph glyph-name="Lslash" unicode="&#x141;" horiz-adv-x="524" 
d="M189 280v-208h306v-72h-394v229l-20 -11l-40 -22l-20 -12v82q5 3 13.5 7.5t26 14.5t29.5 16l11 7v392h88v-341l188 107v-82z" />
    <glyph glyph-name="lslash" unicode="&#x142;" horiz-adv-x="265" 
d="M89 320l-83 -44v75l83 44v308h88v-261l90 48v-75l-90 -48v-367h-88v320z" />
    <glyph glyph-name="Nacute" unicode="&#x143;" horiz-adv-x="670" 
d="M91 0v703h104l236 -435q41 -77 67 -140q-4 58 -4 180v395h83v-703h-89l-256 472q-31 59 -62 131q4 -92 4 -180v-423h-83zM279 752l52 131h111l-97 -131h-66z" />
    <glyph glyph-name="nacute" unicode="&#x144;" 
d="M85 0v503h52l22 -83q82 93 180 93q75 0 106 -48t31 -121v-344h-88v344q0 43 -16.5 68.5t-61.5 25.5q-68 0 -137 -72v-366h-88zM227 572l52 131h111l-97 -131h-66z" />
    <glyph glyph-name="Ncommaaccent" unicode="&#x145;" horiz-adv-x="670" 
d="M91 0v703h104l236 -435q41 -77 67 -140q-4 58 -4 180v395h83v-703h-89l-256 472q-31 59 -62 131q4 -92 4 -180v-423h-83zM395 -91q0 -81 -90 -127l-19 29q45 31 45 64q-20 0 -34.5 12.5t-14.5 34.5t15.5 34.5t38.5 12.5q26 0 42.5 -16t16.5 -44z" />
    <glyph glyph-name="ncommaaccent" unicode="&#x146;" 
d="M85 0v503h52l22 -83q82 93 180 93q75 0 106 -48t31 -121v-344h-88v344q0 43 -16.5 68.5t-61.5 25.5q-68 0 -137 -72v-366h-88zM335 -91q0 -81 -90 -127l-19 29q45 31 45 64q-20 0 -34.5 12.5t-14.5 34.5t15.5 34.5t38.5 12.5q26 0 42.5 -16t16.5 -44z" />
    <glyph glyph-name="Ncaron" unicode="&#x147;" horiz-adv-x="670" 
d="M91 0v703h104l236 -435q41 -77 67 -140q-4 58 -4 180v395h83v-703h-89l-256 472q-31 59 -62 131q4 -92 4 -180v-423h-83zM286 752l-90 133h69l66 -74l65 74h69l-92 -133h-87z" />
    <glyph glyph-name="ncaron" unicode="&#x148;" 
d="M85 0v503h52l22 -83q82 93 180 93q75 0 106 -48t31 -121v-344h-88v344q0 43 -16.5 68.5t-61.5 25.5q-68 0 -137 -72v-366h-88zM233 572l-90 133h69l66 -74l65 74h69l-92 -133h-87z" />
    <glyph glyph-name="Omacron" unicode="&#x14c;" horiz-adv-x="667" 
d="M332 -8q-127 0 -199.5 95.5t-72.5 264.5q0 165 73 263t200 98q128 0 201 -96t73 -260q0 -168 -74.5 -266.5t-200.5 -98.5zM332 65q89 0 135.5 75t46.5 215q0 137 -45.5 211t-134.5 74q-90 0 -136 -76t-46 -215q0 -138 45.5 -211t134.5 -73zM217 785v70h226v-70h-226z" />
    <glyph glyph-name="omacron" unicode="&#x14d;" horiz-adv-x="529" 
d="M265 -8q-99 0 -157.5 69t-58.5 187q0 119 59.5 192t156.5 73t156 -69.5t59 -184.5q0 -124 -57.5 -195.5t-157.5 -71.5zM265 59q67 0 94.5 52t27.5 150q0 185 -123 185q-122 0 -122 -196q0 -191 123 -191zM149 605v70h226v-70h-226z" />
    <glyph glyph-name="Ohungarumlaut" unicode="&#x150;" horiz-adv-x="667" 
d="M332 -8q-127 0 -199.5 95.5t-72.5 264.5q0 165 73 263t200 98q128 0 201 -96t73 -260q0 -168 -74.5 -266.5t-200.5 -98.5zM332 65q89 0 135.5 75t46.5 215q0 137 -45.5 211t-134.5 74q-90 0 -136 -76t-46 -215q0 -138 45.5 -211t134.5 -73zM348 752l51 131h95l-81 -131
h-65zM209 752l50 131h95l-80 -131h-65z" />
    <glyph glyph-name="ohungarumlaut" unicode="&#x151;" horiz-adv-x="529" 
d="M265 -8q-99 0 -157.5 69t-58.5 187q0 119 59.5 192t156.5 73t156 -69.5t59 -184.5q0 -124 -57.5 -195.5t-157.5 -71.5zM265 59q67 0 94.5 52t27.5 150q0 185 -123 185q-122 0 -122 -196q0 -191 123 -191zM281 572l51 131h95l-81 -131h-65zM142 572l50 131h95l-80 -131
h-65z" />
    <glyph glyph-name="OE" unicode="&#x152;" horiz-adv-x="971" 
d="M513 618v85h401v-72h-315v-226h245v-71h-245v-262h333v-72h-419v92q-63 -100 -185 -100q-124 0 -196 96t-72 264q0 164 72.5 262.5t196.5 98.5q122 0 184 -95zM332 65q89 0 135.5 75t46.5 215q0 137 -45.5 211t-134.5 74q-90 0 -136 -76t-46 -215q0 -138 45.5 -211
t134.5 -73z" />
    <glyph glyph-name="oe" unicode="&#x153;" horiz-adv-x="840" 
d="M434 89q-53 -97 -169 -97q-99 0 -157.5 69t-58.5 187q0 119 59.5 192t156.5 73q115 0 169 -98q51 98 159 98q97 0 148.5 -69t51.5 -196v-21h-312q3 -83 33.5 -124t93.5 -41q39 0 68.5 12t68.5 37l36 -53q-40 -34 -79.5 -50t-100.5 -16q-115 0 -167 97zM481 286h222
q-6 161 -109 161t-113 -161zM265 59q39 0 64.5 17t37 49.5t15.5 63t4 72.5q0 185 -122 185q-123 0 -123 -196q0 -191 124 -191z" />
    <glyph glyph-name="Racute" unicode="&#x154;" horiz-adv-x="596" 
d="M399 324l37 -81l74 -162l38 -81h-96l-142 313v0v0h-1v0h-1v0h-1h-1h-1h-1h-1h-1h-1h-1h-1h-1h-1h-1h-1h-1h-1h-1h-1h-1h-1h-1h-1h-1h-1h-1h-1h-1h-1h-1h-1h-2h-1h-1h-1h-1h-2h-1h-1h-2h-1h-1h-1h-2h-1h-2h-1h-1h-2h-1h-2h-1h-1h-2h-1h-2h-1h-2h-1h-2h-1h-2h-2h-1h-2h-1
h-2h-1h-2h-2h-1h-2h-2h-1h-2h-2h-1h-2h-2h-2h-1h-2h-2h-2h-1h-2h-2h-2h-1h-2h-10v-313h-88v703h203q245 0 245 -194q0 -143 -140 -185zM179 382h109q81 0 121 28.5t40 99.5q0 68 -40 94.5t-116 26.5h-114v-249zM230 752l52 131h111l-97 -131h-66z" />
    <glyph glyph-name="racute" unicode="&#x155;" horiz-adv-x="376" 
d="M85 0v503h48l28 -107q57 113 166 113h14v-85q-4 2 -14 2q-67 0 -110.5 -39.5t-43.5 -121.5v-265h-88zM148 572l52 131h111l-97 -131h-66z" />
    <glyph glyph-name="Rcommaaccent" unicode="&#x156;" horiz-adv-x="596" 
d="M399 324l37 -81l74 -162l38 -81h-96l-142 313v0v0h-1v0h-1v0h-1h-1h-1h-1h-1h-1h-1h-1h-1h-1h-1h-1h-1h-1h-1h-1h-1h-1h-1h-1h-1h-1h-1h-1h-1h-1h-1h-1h-1h-2h-1h-1h-1h-1h-2h-1h-1h-2h-1h-1h-1h-2h-1h-2h-1h-1h-2h-1h-2h-1h-1h-2h-1h-2h-1h-2h-1h-2h-1h-2h-2h-1h-2h-1
h-2h-1h-2h-2h-1h-2h-2h-1h-2h-2h-1h-2h-2h-2h-1h-2h-2h-2h-1h-2h-2h-2h-1h-2h-10v-313h-88v703h203q245 0 245 -194q0 -143 -140 -185zM179 382h109q81 0 121 28.5t40 99.5q0 68 -40 94.5t-116 26.5h-114v-249zM368 -91q0 -81 -90 -127l-19 29q45 31 45 64q-20 0 -34.5 12.5
t-14.5 34.5t15.5 34.5t38.5 12.5q26 0 42.5 -16t16.5 -44z" />
    <glyph glyph-name="rcommaaccent" unicode="&#x157;" horiz-adv-x="376" 
d="M85 0v503h48l28 -107q57 113 166 113h14v-85q-4 2 -14 2q-67 0 -110.5 -39.5t-43.5 -121.5v-265h-88zM185 -91q0 -81 -90 -127l-19 29q45 31 45 64q-20 0 -34.5 12.5t-14.5 34.5t15.5 34.5t38.5 12.5q26 0 42.5 -16t16.5 -44z" />
    <glyph glyph-name="Rcaron" unicode="&#x158;" horiz-adv-x="596" 
d="M399 324l37 -81l74 -162l38 -81h-96l-142 313v0v0h-1v0h-1v0h-1h-1h-1h-1h-1h-1h-1h-1h-1h-1h-1h-1h-1h-1h-1h-1h-1h-1h-1h-1h-1h-1h-1h-1h-1h-1h-1h-1h-1h-2h-1h-1h-1h-1h-2h-1h-1h-2h-1h-1h-1h-2h-1h-2h-1h-1h-2h-1h-2h-1h-1h-2h-1h-2h-1h-2h-1h-2h-1h-2h-2h-1h-2h-1
h-2h-1h-2h-2h-1h-2h-2h-1h-2h-2h-1h-2h-2h-2h-1h-2h-2h-2h-1h-2h-2h-2h-1h-2h-10v-313h-88v703h203q245 0 245 -194q0 -143 -140 -185zM179 382h109q81 0 121 28.5t40 99.5q0 68 -40 94.5t-116 26.5h-114v-249zM242 752l-90 133h69l66 -74l65 74h69l-92 -133h-87z" />
    <glyph glyph-name="rcaron" unicode="&#x159;" horiz-adv-x="376" 
d="M85 0v503h48l28 -107q57 113 166 113h14v-85q-4 2 -14 2q-67 0 -110.5 -39.5t-43.5 -121.5v-265h-88zM146 572l-90 133h69l66 -74l65 74h69l-92 -133h-87z" />
    <glyph glyph-name="Sacute" unicode="&#x15a;" horiz-adv-x="558" 
d="M277 -8q-143 0 -241 81l43 62q89 -68 198 -68q69 0 107 31.5t38 87.5q0 30 -10.5 52.5t-34.5 39t-47.5 27t-65.5 24.5q-44 15 -73.5 30t-59 38.5t-44.5 58.5t-15 81q0 83 58.5 129.5t150.5 46.5q110 0 188 -45l-36 -68q-68 38 -153 38q-126 0 -126 -100q0 -53 33 -79
t119 -56q46 -16 74.5 -29.5t61.5 -38t49.5 -61.5t16.5 -86q0 -92 -61.5 -144t-169.5 -52zM223 752l52 131h111l-97 -131h-66z" />
    <glyph glyph-name="sacute" unicode="&#x15b;" horiz-adv-x="455" 
d="M220 -8q-108 0 -176 57l35 57q65 -46 143 -46q47 0 73 18.5t26 53.5q0 18 -6.5 31t-24 24.5t-33.5 18.5t-50 19q-69 25 -105.5 58.5t-36.5 95.5t44 98t123 36q85 0 153 -36l-28 -62q-62 31 -122 31q-90 0 -90 -66q0 -30 22.5 -47t78.5 -36q78 -26 118 -60t40 -100
q0 -67 -48 -106t-136 -39zM180 572l52 131h111l-97 -131h-66z" />
    <glyph glyph-name="Scedilla" unicode="&#x15e;" horiz-adv-x="558" 
d="M262 -185q-40 0 -68 16l14 39q27 -10 45 -10q38 0 38 28q0 32 -66 32l30 73q-131 6 -219 80l43 62q89 -68 198 -68q69 0 107 31.5t38 87.5q0 30 -10.5 52.5t-34.5 39t-47.5 27t-65.5 24.5q-44 15 -73.5 30t-59 38.5t-44.5 58.5t-15 81q0 83 58.5 129.5t150.5 46.5
q110 0 188 -45l-36 -68q-68 38 -153 38q-126 0 -126 -100q0 -53 33 -79t119 -56q46 -16 74.5 -29.5t61.5 -38t49.5 -61.5t16.5 -86q0 -87 -55 -138.5t-153 -56.5l-16 -36q29 -4 48.5 -21.5t19.5 -47.5q0 -36 -24.5 -54.5t-65.5 -18.5z" />
    <glyph glyph-name="scedilla" unicode="&#x15f;" horiz-adv-x="455" 
d="M213 -185q-40 0 -68 16l14 39q27 -10 45 -10q38 0 38 28q0 32 -66 32l30 72q-100 4 -162 57l35 57q65 -46 143 -46q47 0 73 18.5t26 53.5q0 18 -6.5 31t-24 24.5t-33.5 18.5t-50 19q-69 25 -105.5 58.5t-36.5 95.5t44 98t123 36q85 0 153 -36l-28 -62q-62 31 -122 31
q-90 0 -90 -66q0 -30 22.5 -47t78.5 -36q78 -26 118 -60t40 -100q0 -61 -39.5 -98.5t-112.5 -44.5l-17 -37q29 -4 48.5 -21.5t19.5 -47.5q0 -36 -24.5 -54.5t-65.5 -18.5z" />
    <glyph glyph-name="Scaron" unicode="&#x160;" horiz-adv-x="558" 
d="M277 -8q-143 0 -241 81l43 62q89 -68 198 -68q69 0 107 31.5t38 87.5q0 30 -10.5 52.5t-34.5 39t-47.5 27t-65.5 24.5q-44 15 -73.5 30t-59 38.5t-44.5 58.5t-15 81q0 83 58.5 129.5t150.5 46.5q110 0 188 -45l-36 -68q-68 38 -153 38q-126 0 -126 -100q0 -53 33 -79
t119 -56q46 -16 74.5 -29.5t61.5 -38t49.5 -61.5t16.5 -86q0 -92 -61.5 -144t-169.5 -52zM227 752l-90 133h69l66 -74l65 74h69l-92 -133h-87z" />
    <glyph glyph-name="scaron" unicode="&#x161;" horiz-adv-x="455" 
d="M220 -8q-108 0 -176 57l35 57q65 -46 143 -46q47 0 73 18.5t26 53.5q0 18 -6.5 31t-24 24.5t-33.5 18.5t-50 19q-69 25 -105.5 58.5t-36.5 95.5t44 98t123 36q85 0 153 -36l-28 -62q-62 31 -122 31q-90 0 -90 -66q0 -30 22.5 -47t78.5 -36q78 -26 118 -60t40 -100
q0 -67 -48 -106t-136 -39zM173 572l-90 133h69l66 -74l65 74h69l-92 -133h-87z" />
    <glyph glyph-name="Tcommaaccent" unicode="&#x162;" horiz-adv-x="525" 
d="M219 0v631h-195v72h476v-72h-193v-631h-88zM317 -91q0 -81 -90 -127l-19 29q45 31 45 64q-20 0 -34.5 12.5t-14.5 34.5t15.5 34.5t38.5 12.5q26 0 42.5 -16t16.5 -44z" />
    <glyph glyph-name="tcommaaccent" unicode="&#x163;" horiz-adv-x="353" 
d="M106 441h-75v62h77l22 144h64v-144h112v-62h-112v-310q0 -38 11.5 -55t44.5 -17q20 0 57 10l13 -61q-36 -16 -81 -16q-133 0 -133 134v315zM245 -91q0 -81 -90 -127l-19 29q45 31 45 64q-20 0 -34.5 12.5t-14.5 34.5t15.5 34.5t38.5 12.5q26 0 42.5 -16t16.5 -44z" />
    <glyph glyph-name="Tcaron" unicode="&#x164;" horiz-adv-x="525" 
d="M219 0v631h-195v72h476v-72h-193v-631h-88zM219 752l-90 133h69l66 -74l65 74h69l-92 -133h-87z" />
    <glyph glyph-name="tcaron" unicode="&#x165;" horiz-adv-x="353" 
d="M106 441h-75v62h77l22 144h64v-144h112v-62h-112v-310q0 -38 11.5 -55t44.5 -17q20 0 57 10l13 -61q-36 -16 -81 -16q-133 0 -133 134v315zM286 542l-22 29q27 21 37.5 35t10.5 31q-19 0 -34 14.5t-15 35.5q0 23 14.5 38.5t37.5 15.5q25 0 41 -18.5t16 -49.5
q0 -78 -86 -131z" />
    <glyph glyph-name="Umacron" unicode="&#x16a;" horiz-adv-x="647" 
d="M322 -8q-128 0 -181.5 72.5t-53.5 207.5v431h88v-450q0 -95 31.5 -141.5t116.5 -46.5q84 0 116.5 47t32.5 141v450h88v-431q0 -136 -53.5 -208t-184.5 -72zM207 785v70h226v-70h-226z" />
    <glyph glyph-name="umacron" unicode="&#x16b;" 
d="M219 -8q-76 0 -108 47.5t-32 119.5v344h88v-343q0 -94 80 -94q65 0 135 65v372h88v-503h-52l-23 77q-83 -85 -176 -85zM161 605v70h226v-70h-226z" />
    <glyph glyph-name="Uring" unicode="&#x16e;" horiz-adv-x="647" 
d="M322 -8q-128 0 -181.5 72.5t-53.5 207.5v431h88v-450q0 -95 31.5 -141.5t116.5 -46.5q84 0 116.5 47t32.5 141v450h88v-431q0 -136 -53.5 -208t-184.5 -72zM323 740q-41 0 -70 28.5t-29 68.5t29 68.5t70 28.5t70 -28.5t29 -68.5t-29 -68.5t-70 -28.5zM323 784
q21 0 34.5 15.5t13.5 37.5t-13.5 37.5t-34.5 15.5t-34.5 -15.5t-13.5 -37.5t13.5 -37.5t34.5 -15.5z" />
    <glyph glyph-name="uring" unicode="&#x16f;" 
d="M219 -8q-76 0 -108 47.5t-32 119.5v344h88v-343q0 -94 80 -94q65 0 135 65v372h88v-503h-52l-23 77q-83 -85 -176 -85zM274 560q-41 0 -70 28.5t-29 68.5t29 68.5t70 28.5t70 -28.5t29 -68.5t-29 -68.5t-70 -28.5zM274 604q21 0 34.5 15.5t13.5 37.5t-13.5 37.5
t-34.5 15.5t-34.5 -15.5t-13.5 -37.5t13.5 -37.5t34.5 -15.5z" />
    <glyph glyph-name="Uhungarumlaut" unicode="&#x170;" horiz-adv-x="647" 
d="M322 -8q-128 0 -181.5 72.5t-53.5 207.5v431h88v-450q0 -95 31.5 -141.5t116.5 -46.5q84 0 116.5 47t32.5 141v450h88v-431q0 -136 -53.5 -208t-184.5 -72zM345 752l51 131h95l-81 -131h-65zM206 752l50 131h95l-80 -131h-65z" />
    <glyph glyph-name="uhungarumlaut" unicode="&#x171;" 
d="M219 -8q-76 0 -108 47.5t-32 119.5v344h88v-343q0 -94 80 -94q65 0 135 65v372h88v-503h-52l-23 77q-83 -85 -176 -85zM297 572l51 131h95l-81 -131h-65zM158 572l50 131h95l-80 -131h-65z" />
    <glyph glyph-name="Uogonek" unicode="&#x172;" horiz-adv-x="647" 
d="M356 -185q-42 0 -66.5 18t-24.5 54q0 59 71 105h-14q-128 0 -181.5 72.5t-53.5 207.5v431h88v-450q0 -95 31.5 -141.5t116.5 -46.5q84 0 116.5 47t32.5 141v450h88v-431q0 -115 -37.5 -184t-126.5 -88q-68 -68 -68 -110q0 -30 36 -30q19 0 45 11l15 -39q-32 -17 -68 -17z
" />
    <glyph glyph-name="uogonek" unicode="&#x173;" 
d="M425 -185q-42 0 -66.5 18t-24.5 54q0 34 25.5 64.5t58.5 48.5l-23 77q-83 -85 -176 -85q-76 0 -108 47.5t-32 119.5v344h88v-343q0 -94 80 -94q65 0 135 65v372h88v-503h-4q-69 -69 -69 -110q0 -30 36 -30q19 0 45 11l15 -39q-32 -17 -68 -17z" />
    <glyph glyph-name="Ydieresis" unicode="&#x178;" horiz-adv-x="539" 
d="M225 0v297l-209 406h97l160 -328l162 328h90l-212 -406v-297h-88zM355 768q-22 0 -37 15.5t-15 36.5t15 36.5t37 15.5t37 -15.5t15 -36.5q0 -22 -15 -37t-37 -15zM182 768q-22 0 -37.5 15.5t-15.5 36.5t15.5 36.5t37.5 15.5t37 -15.5t15 -36.5q0 -22 -15 -37t-37 -15z
" />
    <glyph glyph-name="Zacute" unicode="&#x179;" horiz-adv-x="527" 
d="M36 0v58l352 571h-322v74h425v-63l-352 -568h347v-72h-450zM222 752l52 131h111l-97 -131h-66z" />
    <glyph glyph-name="zacute" unicode="&#x17a;" horiz-adv-x="451" 
d="M43 0v67l258 370h-243v66h349v-55l-263 -378h264v-70h-365zM170 572l52 131h111l-97 -131h-66z" />
    <glyph glyph-name="Zdotaccent" unicode="&#x17b;" horiz-adv-x="527" 
d="M36 0v58l352 571h-322v74h425v-63l-352 -568h347v-72h-450zM280 767q-24 0 -40.5 16t-16.5 39t16.5 39t40.5 16t40 -16t16 -39t-16 -39t-40 -16z" />
    <glyph glyph-name="zdotaccent" unicode="&#x17c;" horiz-adv-x="451" 
d="M43 0v67l258 370h-243v66h349v-55l-263 -378h264v-70h-365zM231 587q-24 0 -40.5 16t-16.5 39t16.5 39t40.5 16t40 -16t16 -39t-16 -39t-40 -16z" />
    <glyph glyph-name="Zcaron" unicode="&#x17d;" horiz-adv-x="527" 
d="M36 0v58l352 571h-322v74h425v-63l-352 -568h347v-72h-450zM228 752l-90 133h69l66 -74l65 74h69l-92 -133h-87z" />
    <glyph glyph-name="zcaron" unicode="&#x17e;" horiz-adv-x="451" 
d="M43 0v67l258 370h-243v66h349v-55l-263 -378h264v-70h-365zM190 572l-90 133h69l66 -74l65 74h69l-92 -133h-87z" />
    <glyph glyph-name="florin" unicode="&#x192;" horiz-adv-x="562" 
d="M232 355h-81v70h91l16 107q22 162 158 162q42 0 79 -15l-20 -65q-27 9 -56 9q-33 0 -50 -24t-25 -76q-14 -98 -15 -98h118v-70h-127l-58 -397q-10 -69 -46 -105t-106 -36q-29 0 -56 9l14 64q15 -4 35 -4q33 0 49.5 18.5t23.5 64.5z" />
    <glyph glyph-name="circumflex" unicode="&#x2c6;" horiz-adv-x="300" 
d="M15 572l92 133h87l90 -133h-69l-66 74l-65 -74h-69z" />
    <glyph glyph-name="caron" unicode="&#x2c7;" horiz-adv-x="300" 
d="M106 572l-90 133h69l66 -74l65 74h69l-92 -133h-87z" />
    <glyph glyph-name="breve" unicode="&#x2d8;" horiz-adv-x="300" 
d="M150 568q-56 0 -92 36.5t-39 92.5h60q3 -26 21.5 -43t50.5 -17t50 17t20 43h60q-3 -56 -39 -92.5t-92 -36.5z" />
    <glyph glyph-name="dotaccent" unicode="&#x2d9;" horiz-adv-x="299" 
d="M149 587q-24 0 -40.5 16t-16.5 39t16.5 39t40.5 16t40 -16t16 -39t-16 -39t-40 -16z" />
    <glyph glyph-name="ring" unicode="&#x2da;" horiz-adv-x="300" 
d="M150 560q-41 0 -70 28.5t-29 68.5t29 68.5t70 28.5t70 -28.5t29 -68.5t-29 -68.5t-70 -28.5zM150 604q21 0 34.5 15.5t13.5 37.5t-13.5 37.5t-34.5 15.5t-34.5 -15.5t-13.5 -37.5t13.5 -37.5t34.5 -15.5z" />
    <glyph glyph-name="ogonek" unicode="&#x2db;" horiz-adv-x="300" 
d="M152 -185q-42 0 -66.5 18t-24.5 54q0 34 26 64.5t59 48.5h47q-69 -69 -69 -110q0 -30 36 -30q19 0 45 11l15 -39q-32 -17 -68 -17z" />
    <glyph glyph-name="tilde" unicode="&#x2dc;" horiz-adv-x="300" 
d="M208 581q-30 0 -63.5 21t-43.5 21q-26 0 -36 -43h-55q2 47 25.5 80.5t60.5 33.5q30 0 64 -20.5t44 -20.5q28 0 36 40h53q-2 -47 -25 -79.5t-60 -32.5z" />
    <glyph glyph-name="hungarumlaut" unicode="&#x2dd;" horiz-adv-x="300" 
d="M184 572l51 131h95l-81 -131h-65zM45 572l50 131h95l-80 -131h-65z" />
    <glyph glyph-name="tonos" unicode="&#x384;" horiz-adv-x="413" 
d="M145 573l38 150h110l-85 -150h-63z" />
    <glyph glyph-name="dieresistonos" unicode="&#x385;" horiz-adv-x="354" 
d="M135 621l38 160h110l-85 -160h-63zM301 588q-22 0 -37 15.5t-15 36.5t15 36.5t37 15.5t37 -15.5t15 -36.5q0 -22 -15 -37t-37 -15zM57 588q-22 0 -37.5 15.5t-15.5 36.5t15.5 36.5t37.5 15.5t37 -15.5t15 -36.5q0 -22 -15 -37t-37 -15z" />
    <glyph glyph-name="Alphatonos" unicode="&#x386;" horiz-adv-x="592" 
d="M171 206l-59 -206h-85l213 703h114l211 -703h-92l-58 206h-244zM395 275l-101 356l-103 -356h204zM9 553l38 150h110l-85 -150h-63z" />
    <glyph glyph-name="anoteleia" unicode="&#x387;" horiz-adv-x="261" 
d="M130 246q-25 0 -42 17t-17 41q0 26 17 43.5t42 17.5t42.5 -17.5t17.5 -43.5q0 -24 -17.5 -41t-42.5 -17z" />
    <glyph glyph-name="Epsilontonos" unicode="&#x388;" horiz-adv-x="617" 
d="M157 0v703h403v-72h-315v-226h245v-71h-245v-262h333v-72h-421zM-17 553l38 150h110l-85 -150h-63z" />
    <glyph glyph-name="Etatonos" unicode="&#x389;" horiz-adv-x="735" 
d="M157 0v703h88v-307h311v307h88v-703h-88v324h-311v-324h-88zM-17 553l38 150h110l-85 -150h-63z" />
    <glyph glyph-name="Iotatonos" unicode="&#x38a;" horiz-adv-x="348" 
d="M163 0v703h88v-703h-88zM-17 553l38 150h110l-85 -150h-63z" />
    <glyph glyph-name="Omicrontonos" unicode="&#x38c;" horiz-adv-x="703" 
d="M368 -8q-127 0 -199.5 95.5t-72.5 264.5q0 165 73 263t200 98q128 0 201 -96t73 -260q0 -168 -74.5 -266.5t-200.5 -98.5zM368 65q89 0 135.5 75t46.5 215q0 137 -45.5 211t-134.5 74q-90 0 -136 -76t-46 -215q0 -138 45.5 -211t134.5 -73zM-17 553l38 150h110l-85 -150
h-63z" />
    <glyph glyph-name="Upsilontonos" unicode="&#x38e;" horiz-adv-x="655" 
d="M339 0v297l-209 406h97l160 -328l162 328h90l-212 -406v-297h-88zM-17 553l38 150h110l-85 -150h-63z" />
    <glyph glyph-name="Omegatonos" unicode="&#x38f;" horiz-adv-x="739" 
d="M388 713q132 0 210 -90t78 -231q0 -102 -47.5 -187t-124.5 -136q30 3 84 3h101v-72h-261v96q155 106 155 286q0 122 -51 190t-145 68t-145 -68t-51 -189q0 -181 154 -285v-98h-259v72h99q33 0 84 -3q-76 51 -123 136t-47 187q0 141 78 231t211 90zM-17 553l38 150h110
l-85 -150h-63z" />
    <glyph glyph-name="iotadieresistonos" unicode="&#x390;" horiz-adv-x="309" 
d="M167 503v-373q0 -37 10 -54t36 -17q17 0 47 10l12 -61q-37 -16 -77 -16q-61 0 -88.5 31.5t-27.5 96.5v383h88zM89 621l38 160h110l-85 -160h-63zM255 588q-22 0 -37 15.5t-15 36.5t15 36.5t37 15.5t37 -15.5t15 -36.5q0 -22 -15 -37t-37 -15zM11 588q-22 0 -37.5 15.5
t-15.5 36.5t15.5 36.5t37.5 15.5t37 -15.5t15 -36.5q0 -22 -15 -37t-37 -15z" />
    <glyph glyph-name="Alpha" unicode="&#x391;" horiz-adv-x="592" 
d="M171 206l-59 -206h-85l213 703h114l211 -703h-92l-58 206h-244zM395 275l-101 356l-103 -356h204z" />
    <glyph glyph-name="Beta" unicode="&#x392;" horiz-adv-x="596" 
d="M91 0v703h198q103 0 166 -44t63 -133q0 -123 -122 -155q70 -14 109.5 -59.5t39.5 -117.5q0 -95 -60.5 -144.5t-165.5 -49.5h-228zM177 402h98q82 0 118 28.5t36 93.5q0 58 -39.5 84t-122.5 26h-90v-232zM177 69h119q157 0 157 128q0 76 -45.5 107.5t-133.5 31.5h-97v-267
z" />
    <glyph glyph-name="Gamma" unicode="&#x393;" horiz-adv-x="500" 
d="M179 0h-88v703h394v-72h-306v-631z" />
    <glyph glyph-name="uni0394" unicode="&#x394;" horiz-adv-x="592" 
d="M44 58l196 645h114l194 -645v-58h-504v58zM294 631l-162 -562h321z" />
    <glyph glyph-name="Epsilon" unicode="&#x395;" horiz-adv-x="551" 
d="M91 0v703h403v-72h-315v-226h245v-71h-245v-262h333v-72h-421z" />
    <glyph glyph-name="Zeta" unicode="&#x396;" horiz-adv-x="527" 
d="M36 0v58l352 571h-322v74h425v-63l-352 -568h347v-72h-450z" />
    <glyph glyph-name="Eta" unicode="&#x397;" horiz-adv-x="669" 
d="M91 0v703h88v-307h311v307h88v-703h-88v324h-311v-324h-88z" />
    <glyph glyph-name="Theta" unicode="&#x398;" horiz-adv-x="667" 
d="M332 -8q-127 0 -199.5 95.5t-72.5 264.5q0 165 73 263t200 98q128 0 201 -96t73 -260q0 -168 -74.5 -266.5t-200.5 -98.5zM332 65q89 0 135.5 75t46.5 215q0 137 -45.5 211t-134.5 74q-90 0 -136 -76t-46 -215q0 -138 45.5 -211t134.5 -73zM460 397v-77h-251v77h251z" />
    <glyph glyph-name="Iota" unicode="&#x399;" horiz-adv-x="282" 
d="M97 0v703h88v-703h-88z" />
    <glyph glyph-name="Kappa" unicode="&#x39a;" horiz-adv-x="593" 
d="M179 349l271 354h100l-220 -279l59 -106l118 -212l59 -106h-100l-197 359l-17 -15q-18 -16 -41.5 -37t-31.5 -28v0v0v0v-1v0v0v-1v0v-1v0v-1v0v-1v-1v-1v-1v-1v-1v-1v-1v-1v-1v-1v-1v-1v-1v-1v-1v-1v-1v-1v-1v-1v-1v-1v-1v-1v-1v-1v-1v-1v-1v-1v-1v-1v-1v-1v-1v-1v-1v-1
v-1v-1v-1v-1v-1v-1v-1v-1v-1v-1v-1v-1v-1v-1v-1v-2v-1v-1v-1v-1v-1v-1v-2v-1v-1v-1v-1v-1v-2v-1v-1v-1v-2v-1v-1v-1v-2v-1v-1v-1v-2v-1v-1v-2v-1v-1v-2v-1v-1v-2v-1v-1v-2v-1v-1v-2v-1v-2v-1v-1v-2v-1v-2v-1v-1v-2v-1v-2v-1v-2v-1v-2v-1v-2v-1v-2v-1v-2v-1v-2v-1v-2v-1v-2
v-1v-2v-1v-2v-1v-2v-2v-1v-2v-1v-2v-1v-2v-2v-1v-2v-2v-1v-2v-1v-2v-2v-1v-2v-2v-1v-2v-2v-1v-2v-2v-1v-2v-2v-1v-2v-2v-2v-1v-2v-2v-2v-1v-2v-2v-2v-1v-2v-2v-2v-1v-2v-2v-2v-2v-1v-2v-2v-2v-2v-2v-1v-2v-2v-2v-2v-2v-1v-2v-2v-9h-88v703h88v-354z" />
    <glyph glyph-name="Lambda" unicode="&#x39b;" horiz-adv-x="587" 
d="M345 703l214 -703h-94l-174 605l-175 -605h-88l215 703h102z" />
    <glyph glyph-name="Mu" unicode="&#x39c;" horiz-adv-x="808" 
d="M91 0v703h136l138 -466q29 -99 40 -164q13 77 38 164l137 466h137v-703h-87v481q0 70 4 150l-186 -631h-91l-187 631q4 -41 4 -151v-480h-83z" />
    <glyph glyph-name="Nu" unicode="&#x39d;" horiz-adv-x="670" 
d="M91 0v703h104l236 -435q41 -77 67 -140q-4 58 -4 180v395h83v-703h-89l-256 472q-31 59 -62 131q4 -92 4 -180v-423h-83z" />
    <glyph glyph-name="Xi" unicode="&#x39e;" horiz-adv-x="500" 
d="M106 334v76h288v-76h-288zM46 624v79h408v-79h-408zM38 0v79h424v-79h-424z" />
    <glyph glyph-name="Omicron" unicode="&#x39f;" horiz-adv-x="667" 
d="M332 -8q-127 0 -199.5 95.5t-72.5 264.5q0 165 73 263t200 98q128 0 201 -96t73 -260q0 -168 -74.5 -266.5t-200.5 -98.5zM332 65q89 0 135.5 75t46.5 215q0 137 -45.5 211t-134.5 74q-90 0 -136 -76t-46 -215q0 -138 45.5 -211t134.5 -73z" />
    <glyph glyph-name="Pi" unicode="&#x3a0;" horiz-adv-x="669" 
d="M91 0v703h487v-703h-88v631h-311v-631h-88z" />
    <glyph glyph-name="Rho" unicode="&#x3a1;" horiz-adv-x="571" 
d="M91 0v703h193q246 0 246 -198q0 -105 -66 -153t-174 -48h-111v-304h-88zM179 374h99q82 0 122 29t40 103q0 70 -40 97.5t-117 27.5h-104v-257z" />
    <glyph glyph-name="Sigma" unicode="&#x3a3;" horiz-adv-x="532" 
d="M36 0v63l209 306l-192 271v63h420v-74h-319l172 -244v-29l-193 -282h360v-74h-457z" />
    <glyph glyph-name="Tau" unicode="&#x3a4;" horiz-adv-x="525" 
d="M219 0v631h-195v72h476v-72h-193v-631h-88z" />
    <glyph glyph-name="Upsilon" unicode="&#x3a5;" horiz-adv-x="541" 
d="M225 0v297l-209 406h97l160 -328l162 328h90l-212 -406v-297h-88z" />
    <glyph glyph-name="Phi" unicode="&#x3a6;" horiz-adv-x="721" 
d="M404 180h24q82 0 122 42.5t40 141.5q0 95 -40.5 135.5t-117.5 40.5h-28v-360zM317 -6v121h-35q-109 0 -175 60t-66 187q0 243 243 243h33v104h87v-104h33q243 0 243 -243q0 -127 -66 -187t-175 -60h-35v-121h-87zM293 180h24v360h-28q-77 0 -117.5 -40.5t-40.5 -135.5
q0 -99 40 -141.5t122 -42.5z" />
    <glyph glyph-name="Chi" unicode="&#x3a7;" horiz-adv-x="560" 
d="M27 0l204 369l-189 334h99l144 -268l134 268h92l-182 -339l204 -364h-98l-159 295l-157 -295h-92z" />
    <glyph glyph-name="Psi" unicode="&#x3a8;" horiz-adv-x="775" 
d="M611 462v241h88v-249q0 -105 -67 -153t-176 -48h-24v-253h-88v253h-25q-108 0 -175.5 48t-67.5 153v249h88v-241q0 -79 42.5 -109.5t124.5 -30.5h13v381h88v-381h13q82 0 124 30.5t42 109.5z" />
    <glyph glyph-name="uni03A9" unicode="&#x3a9;" horiz-adv-x="703" 
d="M352 713q132 0 210 -90t78 -231q0 -102 -47.5 -187t-124.5 -136q30 3 84 3h101v-72h-261v96q155 106 155 286q0 122 -51 190t-145 68t-145 -68t-51 -189q0 -181 154 -285v-98h-259v72h99q33 0 84 -3q-76 51 -123 136t-47 187q0 141 78 231t211 90z" />
    <glyph glyph-name="Iotadieresis" unicode="&#x3aa;" horiz-adv-x="283" 
d="M98 0v703h88v-703h-88zM228 768q-22 0 -37 15.5t-15 36.5t15 36.5t37 15.5t37 -15.5t15 -36.5q0 -22 -15 -37t-37 -15zM55 768q-22 0 -37.5 15.5t-15.5 36.5t15.5 36.5t37.5 15.5t37 -15.5t15 -36.5q0 -22 -15 -37t-37 -15z" />
    <glyph glyph-name="Upsilondieresis" unicode="&#x3ab;" horiz-adv-x="539" 
d="M225 0v297l-209 406h97l160 -328l162 328h90l-212 -406v-297h-88zM355 768q-22 0 -37 15.5t-15 36.5t15 36.5t37 15.5t37 -15.5t15 -36.5q0 -22 -15 -37t-37 -15zM182 768q-22 0 -37.5 15.5t-15.5 36.5t15.5 36.5t37.5 15.5t37 -15.5t15 -36.5q0 -22 -15 -37t-37 -15z
" />
    <glyph glyph-name="alphatonos" unicode="&#x3ac;" horiz-adv-x="545" 
d="M414 509h43v-385q0 -61 41 -61q16 0 36 6l12 -59q-35 -14 -82 -14q-68 0 -87 79q-64 -83 -153 -83q-83 0 -129 67t-46 172q0 127 60 204.5t147 77.5q77 0 121 -69zM245 60q65 0 124 75v238q-13 29 -40.5 51t-60.5 22q-59 0 -92 -57t-33 -158q0 -78 25.5 -124.5
t76.5 -46.5zM220 573l38 150h110l-85 -150h-63z" />
    <glyph glyph-name="epsilontonos" unicode="&#x3ad;" horiz-adv-x="498" 
d="M416 139l45 -48q-35 -43 -90.5 -71t-124.5 -28q-97 0 -147 39t-50 106q0 53 38 88t94 40v1q-52 5 -84 35.5t-32 77.5q0 59 50 96.5t137 37.5q131 0 191 -92l-58 -41q-43 67 -133 67q-47 0 -72.5 -19t-25.5 -52q0 -47 44 -63t121 -16v-65q-179 0 -179 -90q0 -40 29 -60.5
t80 -20.5q96 0 167 78zM204 573l38 150h110l-85 -150h-63z" />
    <glyph glyph-name="etatonos" unicode="&#x3ae;" horiz-adv-x="559" 
d="M89 0v373q0 36 -7.5 53t-27.5 17q-10 0 -26 -6l-12 60q28 14 61 14q75 0 94 -84q76 86 171 86q39 0 67.5 -14.5t43 -39.5t21 -53t6.5 -62v-522h-88v522q0 94 -78 94q-70 0 -137 -72v-366h-88zM231 573l38 150h110l-85 -150h-63z" />
    <glyph glyph-name="iotatonos" unicode="&#x3af;" horiz-adv-x="282" 
d="M167 503v-373q0 -37 10 -54t36 -17q17 0 47 10l12 -61q-37 -16 -77 -16q-61 0 -88.5 31.5t-27.5 96.5v383h88zM89 573l38 150h110l-85 -150h-63z" />
    <glyph glyph-name="upsilondieresistonos" unicode="&#x3b0;" horiz-adv-x="559" 
d="M494 264q0 -272 -218 -272q-100 0 -150.5 51t-50.5 143v317h88v-316q0 -61 29 -92.5t84 -31.5q66 0 97 44.5t31 156.5q0 60 -17 129.5t-39 109.5h92q54 -112 54 -239zM231 621l38 160h110l-85 -160h-63zM397 588q-22 0 -37 15.5t-15 36.5t15 36.5t37 15.5t37 -15.5
t15 -36.5q0 -22 -15 -37t-37 -15zM153 588q-22 0 -37.5 15.5t-15.5 36.5t15.5 36.5t37.5 15.5t37 -15.5t15 -36.5q0 -22 -15 -37t-37 -15z" />
    <glyph glyph-name="alpha" unicode="&#x3b1;" horiz-adv-x="568" 
d="M414 509h43v-385q0 -61 41 -61q16 0 36 6l12 -59q-35 -14 -82 -14q-68 0 -87 79q-64 -83 -153 -83q-83 0 -129 67t-46 172q0 127 60 204.5t147 77.5q77 0 121 -69zM245 60q65 0 124 75v238q-13 29 -40.5 51t-60.5 22q-59 0 -92 -57t-33 -158q0 -78 25.5 -124.5
t76.5 -46.5z" />
    <glyph glyph-name="beta" unicode="&#x3b2;" horiz-adv-x="577" 
d="M521 189q0 -90 -52.5 -143.5t-142.5 -53.5q-94 0 -153 61h-2q2 -30 2 -60v-171h-88v668q0 114 56.5 168.5t149.5 54.5q84 0 135.5 -46.5t51.5 -127.5q0 -62 -31.5 -104.5t-85.5 -57.5v-1q65 -9 112.5 -56.5t47.5 -130.5zM431 193q0 73 -43 110.5t-122 38.5v62
q124 8 124 128q0 52 -25.5 82t-75.5 30q-116 0 -116 -158v-370q23 -22 58.5 -39t71.5 -17q64 0 96 34.5t32 98.5z" />
    <glyph glyph-name="gamma" unicode="&#x3b3;" horiz-adv-x="492" 
d="M25 503h92l139 -404q12 47 42.5 148t54.5 179l24 77h90l-171 -503q-25 -98 -36 -178h-90q15 79 42 178z" />
    <glyph glyph-name="delta" unicode="&#x3b4;" horiz-adv-x="529" 
d="M387 230q0 127 -99 223q-146 -52 -146 -215q0 -81 31 -130t92 -49q63 0 92.5 47.5t29.5 123.5zM435 641h-160q-9 0 -69 4l141 -139q70 -69 101.5 -127.5t31.5 -146.5q0 -108 -58 -174t-157 -66q-98 0 -157 67.5t-59 178.5q0 102 57 166t141 92l-142 149v58h330v-62z" />
    <glyph glyph-name="epsilon" unicode="&#x3b5;" horiz-adv-x="503" 
d="M416 139l45 -48q-35 -43 -90.5 -71t-124.5 -28q-97 0 -147 39t-50 106q0 53 38 88t94 40v1q-52 5 -84 35.5t-32 77.5q0 59 50 96.5t137 37.5q131 0 191 -92l-58 -41q-43 67 -133 67q-47 0 -72.5 -19t-25.5 -52q0 -47 44 -63t121 -16v-65q-179 0 -179 -90q0 -40 29 -60.5
t80 -20.5q96 0 167 78z" />
    <glyph glyph-name="zeta" unicode="&#x3b6;" horiz-adv-x="435" 
d="M137 185q0 -17 4 -31.5t8.5 -24t17 -18.5t19 -13.5t26 -11.5t26.5 -8.5t31 -8.5q28 -8 42.5 -12.5t37 -15t34 -22.5t20.5 -32t9 -46q0 -48 -30 -99l-60 20q15 36 15 62q0 31 -25 45t-89 28q-40 9 -64.5 18t-54.5 27.5t-45 51t-15 79.5q0 58 22.5 121.5t64 125.5t82.5 113
t95 108v2q-30 -2 -68 -2h-134v62h284v-60q-253 -282 -253 -458z" />
    <glyph glyph-name="eta" unicode="&#x3b7;" horiz-adv-x="563" 
d="M93 0v373q0 36 -7.5 53t-27.5 17q-10 0 -26 -6l-12 60q28 14 61 14q75 0 94 -84q76 86 171 86q39 0 67.5 -14.5t43 -39.5t21 -53t6.5 -62v-522h-88v522q0 94 -78 94q-70 0 -137 -72v-366h-88z" />
    <glyph glyph-name="theta" unicode="&#x3b8;" horiz-adv-x="564" 
d="M501 348q0 -25 -0.5 -45t-5 -59.5t-12.5 -69.5t-24 -66t-38.5 -59.5t-58 -40t-80.5 -16.5q-219 0 -219 356q0 25 0.5 45t5 60.5t12.5 71.5t24 68.5t38.5 61.5t58 41t80.5 17t80.5 -16.5t58 -41t38.5 -62t24 -68t12.5 -71t5 -60.5t0.5 -46zM409 383q0 39 -4.5 76.5t-16 84
t-39 74.5t-67.5 28q-41 0 -68.5 -28t-38.5 -74.5t-15 -83t-4 -77.5h253zM410 320h-255q0 -43 4 -81t16 -82.5t39 -71t67 -26.5t67.5 27t40 71.5t17 82.5t4.5 80z" />
    <glyph glyph-name="iota" unicode="&#x3b9;" horiz-adv-x="287" 
d="M167 503v-373q0 -37 10 -54t36 -17q17 0 47 10l12 -61q-37 -16 -77 -16q-61 0 -88.5 31.5t-27.5 96.5v383h88z" />
    <glyph glyph-name="kappa" unicode="&#x3ba;" horiz-adv-x="497" 
d="M172 187v-187h-88v503h88v-247l189 247h96q-154 -193 -155 -193l174 -310h-95l-136 245q-73 -57 -73 -58z" />
    <glyph glyph-name="lambda" unicode="&#x3bb;" horiz-adv-x="506" 
d="M22 0l204 471l-12 37q-29 77 -48.5 105t-54.5 28q-14 0 -24 -5l-17 62q32 12 63 12q53 0 86.5 -37.5t67.5 -131.5l196 -541h-92l-129 379l-151 -379h-89z" />
    <glyph glyph-name="uni03BC" unicode="&#x3bc;" horiz-adv-x="573" 
d="M475 503v-372q0 -36 7.5 -53.5t27.5 -17.5q11 0 30 7l13 -60q-30 -15 -66 -15q-43 0 -63 21.5t-29 60.5q-69 -82 -145 -82q-60 0 -87 33q9 -99 9 -203h-88v681h88v-343q0 -94 83 -94q67 0 132 65v372h88z" />
    <glyph glyph-name="nu" unicode="&#x3bd;" horiz-adv-x="512" 
d="M462 394q0 -87 -50 -193.5t-129 -200.5h-83l-190 503h92l152 -428q120 149 120 315q0 61 -24 113h84q28 -40 28 -109z" />
    <glyph glyph-name="xi" unicode="&#x3be;" horiz-adv-x="434" 
d="M44 177q0 163 213 197v1q-64 5 -106 42t-42 96q0 100 133 128v4q-60 -4 -124 -4h-36v62h290v-59q-176 -23 -176 -127q0 -97 155 -112v-62q-50 -7 -84.5 -16.5t-66 -27t-47.5 -46t-16 -68.5q0 -17 4 -31.5t8.5 -24t17 -18.5t19 -13.5t26 -11.5t26.5 -8.5t31 -8.5
q28 -8 42.5 -12.5t37 -15t34 -22.5t20.5 -32t9 -46q0 -48 -30 -99l-60 20q15 36 15 62q0 31 -25 45t-89 28q-39 9 -64.5 18.5t-55 29t-44.5 52.5t-15 80z" />
    <glyph glyph-name="omicron" unicode="&#x3bf;" horiz-adv-x="529" 
d="M265 -8q-99 0 -157.5 69t-58.5 187q0 119 59.5 192t156.5 73t156 -69.5t59 -184.5q0 -124 -57.5 -195.5t-157.5 -71.5zM265 59q67 0 94.5 52t27.5 150q0 185 -123 185q-122 0 -122 -196q0 -191 123 -191z" />
    <glyph glyph-name="pi" unicode="&#x3c0;" horiz-adv-x="638" 
d="M15 472l63 31h525v-63h-114v-327q0 -51 38 -51q14 0 35 7l16 -60q-30 -14 -70 -14q-56 0 -81.5 27t-25.5 84v334h-184v-440h-80v440h-122v32z" />
    <glyph glyph-name="rho" unicode="&#x3c1;" horiz-adv-x="562" 
d="M513 232q0 -111 -52.5 -175.5t-136.5 -64.5q-99 0 -157 73h-2q2 -38 2 -63v-180h-88v441q0 115 54.5 182.5t153.5 67.5q98 0 162 -75.5t64 -205.5zM419 235q0 98 -37 154.5t-100 56.5q-115 0 -115 -186v-126q25 -33 61.5 -53t74.5 -20q53 0 84.5 43.5t31.5 130.5z" />
    <glyph glyph-name="sigma1" unicode="&#x3c2;" horiz-adv-x="461" 
d="M276 442q-60 0 -98 -75.5t-38 -172.5q0 -50 27 -77.5t65 -38.5t76.5 -21.5t65.5 -39t27 -78.5q0 -46 -30 -97l-67 24q16 38 16 64q0 29 -28 44t-67.5 24t-79.5 24t-68 56.5t-28 109.5q0 76 23 147.5t76 124.5t125 53q86 0 153 -56l-43 -57q-53 42 -107 42z" />
    <glyph glyph-name="sigma" unicode="&#x3c3;" horiz-adv-x="560" 
d="M483 228q0 -108 -57 -172t-159 -64t-160 67.5t-58 183.5q0 129 69 194.5t185 65.5h244v-64h-66q-5 0 -65 3v-2q67 -108 67 -212zM392 228q0 114 -51 210h-37q-72 0 -117 -48.5t-45 -144.5q0 -88 32 -137t91 -49t93 45t34 124z" />
    <glyph glyph-name="tau" unicode="&#x3c4;" horiz-adv-x="432" 
d="M158 440h-143v32l63 31h326v-63h-161v-313q0 -39 12 -54.5t37 -15.5q20 0 58 12l16 -59q-54 -20 -102 -20q-56 0 -81 28t-25 92v330z" />
    <glyph glyph-name="upsilon" unicode="&#x3c5;" horiz-adv-x="559" 
d="M494 264q0 -272 -218 -272q-100 0 -150.5 51t-50.5 143v317h88v-316q0 -61 29 -92.5t84 -31.5q66 0 97 44.5t31 156.5q0 60 -17 129.5t-39 109.5h92q54 -112 54 -239z" />
    <glyph glyph-name="phi" unicode="&#x3c6;" horiz-adv-x="686" 
d="M637 262q0 -257 -254 -271v-169h-86v169q-248 10 -248 263q0 101 51.5 172t153.5 87l10 -63q-123 -25 -123 -196q0 -98 38 -145t118 -51v268q0 90 41 138.5t118 48.5q85 0 133 -67.5t48 -183.5zM545 263q0 88 -23 136.5t-65 48.5q-74 0 -74 -123v-267q84 3 123 53t39 152
z" />
    <glyph glyph-name="chi" unicode="&#x3c7;" horiz-adv-x="501" 
d="M391 -178l-141 297l-143 -297h-92l197 374l-70 142q-29 58 -46.5 80.5t-40.5 22.5q-14 0 -24 -5l-17 62q32 12 58 12q45 0 70.5 -26.5t62.5 -103.5l55 -115l119 238h91l-171 -315l185 -366h-93z" />
    <glyph glyph-name="psi" unicode="&#x3c8;" horiz-adv-x="756" 
d="M421 629v-568q89 1 129.5 33.5t40.5 118.5v290h87v-289q0 -117 -62 -169.5t-195 -54.5v-168h-86v168q-133 2 -195 54.5t-62 169.5v289h87v-290q0 -85 40.5 -117.5t129.5 -34.5v568h86z" />
    <glyph glyph-name="omega" unicode="&#x3c9;" horiz-adv-x="748" 
d="M415 328v-116q0 -72 25 -111.5t69 -39.5q54 0 76 46t22 134q0 81 -30.5 138.5t-93.5 71.5l11 62q101 -16 153 -93.5t52 -178.5q0 -119 -47 -184t-133 -65q-114 0 -144 124h-2q-30 -124 -144 -124q-86 0 -133 65t-47 184q0 101 52 178.5t153 93.5l11 -62
q-63 -14 -93.5 -71.5t-30.5 -138.5q0 -88 22 -134t76 -46q45 0 70 39.5t25 111.5v116h81z" />
    <glyph glyph-name="iotadieresis" unicode="&#x3ca;" horiz-adv-x="309" 
d="M167 503v-373q0 -37 10 -54t36 -17q17 0 47 10l12 -61q-37 -16 -77 -16q-61 0 -88.5 31.5t-27.5 96.5v383h88zM209 588q-22 0 -37 15.5t-15 36.5t15 36.5t37 15.5t37 -15.5t15 -36.5q0 -22 -15 -37t-37 -15zM36 588q-22 0 -37.5 15.5t-15.5 36.5t15.5 36.5t37.5 15.5
t37 -15.5t15 -36.5q0 -22 -15 -37t-37 -15z" />
    <glyph glyph-name="upsilondieresis" unicode="&#x3cb;" horiz-adv-x="548" 
d="M497 264q0 -272 -218 -272q-100 0 -150.5 51t-50.5 143v317h88v-316q0 -61 29 -92.5t84 -31.5q66 0 97 44.5t31 156.5q0 60 -17 129.5t-39 109.5h92q54 -112 54 -239zM364 588q-22 0 -37 15.5t-15 36.5t15 36.5t37 15.5t37 -15.5t15 -36.5q0 -22 -15 -37t-37 -15z
M191 588q-22 0 -37.5 15.5t-15.5 36.5t15.5 36.5t37.5 15.5t37 -15.5t15 -36.5q0 -22 -15 -37t-37 -15z" />
    <glyph glyph-name="omicrontonos" unicode="&#x3cc;" horiz-adv-x="529" 
d="M265 -8q-99 0 -157.5 69t-58.5 187q0 119 59.5 192t156.5 73t156 -69.5t59 -184.5q0 -124 -57.5 -195.5t-157.5 -71.5zM265 59q67 0 94.5 52t27.5 150q0 185 -123 185q-122 0 -122 -196q0 -191 123 -191zM224 573l38 150h110l-85 -150h-63z" />
    <glyph glyph-name="upsilontonos" unicode="&#x3cd;" horiz-adv-x="548" 
d="M497 264q0 -272 -218 -272q-100 0 -150.5 51t-50.5 143v317h88v-316q0 -61 29 -92.5t84 -31.5q66 0 97 44.5t31 156.5q0 60 -17 129.5t-39 109.5h92q54 -112 54 -239zM224 573l38 150h110l-85 -150h-63z" />
    <glyph glyph-name="omegatonos" unicode="&#x3ce;" horiz-adv-x="748" 
d="M415 328v-116q0 -72 25 -111.5t69 -39.5q54 0 76 46t22 134q0 81 -30.5 138.5t-93.5 71.5l11 62q101 -16 153 -93.5t52 -178.5q0 -119 -47 -184t-133 -65q-114 0 -144 124h-2q-30 -124 -144 -124q-86 0 -133 65t-47 184q0 101 52 178.5t153 93.5l11 -62
q-63 -14 -93.5 -71.5t-30.5 -138.5q0 -88 22 -134t76 -46q45 0 70 39.5t25 111.5v116h81zM325 573l38 150h110l-85 -150h-63z" />
    <glyph glyph-name="afii10023" unicode="&#x401;" horiz-adv-x="551" 
d="M91 0v703h403v-72h-315v-226h245v-71h-245v-262h333v-72h-421zM380 768q-22 0 -37 15.5t-15 36.5t15 36.5t37 15.5t37 -15.5t15 -36.5q0 -22 -15 -37t-37 -15zM207 768q-22 0 -37.5 15.5t-15.5 36.5t15.5 36.5t37.5 15.5t37 -15.5t15 -36.5q0 -22 -15 -37t-37 -15z" />
    <glyph glyph-name="afii10051" unicode="&#x402;" horiz-adv-x="782" 
d="M605 14v248q0 55 -29 82t-100 27q-78 0 -169 -31v-340h-88v631h-195v72h476v-72h-193v-221q111 40 178 40q104 0 156 -48.5t52 -129.5v-251q0 -193 -167 -193q-85 0 -146 63l47 58q49 -45 98 -45q80 0 80 110z" />
    <glyph glyph-name="afii10052" unicode="&#x403;" horiz-adv-x="505" 
d="M179 0h-88v703h394v-72h-306v-631zM230 752l52 131h111l-97 -131h-66z" />
    <glyph glyph-name="afii10053" unicode="&#x404;" horiz-adv-x="596" 
d="M342 -8q-131 0 -205.5 97t-74.5 263q0 165 74 263t206 98q127 0 204 -91l-53 -56q-66 71 -151 71q-171 0 -184 -245h264v-72h-265q8 -251 186 -251q51 0 88 21t74 61l54 -54q-84 -105 -217 -105z" />
    <glyph glyph-name="afii10054" unicode="&#x405;" horiz-adv-x="558" 
d="M277 -8q-143 0 -241 81l43 62q89 -68 198 -68q69 0 107 31.5t38 87.5q0 30 -10.5 52.5t-34.5 39t-47.5 27t-65.5 24.5q-44 15 -73.5 30t-59 38.5t-44.5 58.5t-15 81q0 83 58.5 129.5t150.5 46.5q110 0 188 -45l-36 -68q-68 38 -153 38q-126 0 -126 -100q0 -53 33 -79
t119 -56q46 -16 74.5 -29.5t61.5 -38t49.5 -61.5t16.5 -86q0 -92 -61.5 -144t-169.5 -52z" />
    <glyph glyph-name="afii10055" unicode="&#x406;" horiz-adv-x="283" 
d="M97 0v703h88v-703h-88z" />
    <glyph glyph-name="afii10056" unicode="&#x407;" horiz-adv-x="283" 
d="M97 0v703h88v-703h-88zM227 768q-22 0 -37 15.5t-15 36.5t15 36.5t37 15.5t37 -15.5t15 -36.5q0 -22 -15 -37t-37 -15zM54 768q-22 0 -37.5 15.5t-15.5 36.5t15.5 36.5t37.5 15.5t37 -15.5t15 -36.5q0 -22 -15 -37t-37 -15z" />
    <glyph glyph-name="afii10057" unicode="&#x408;" horiz-adv-x="442" 
d="M177 -8q-91 0 -153 67l49 57q52 -48 103 -48q83 0 83 111v524h88v-518q0 -193 -170 -193z" />
    <glyph glyph-name="afii10058" unicode="&#x409;" horiz-adv-x="930" 
d="M275 631l-24 -190q-34 -270 -72.5 -359.5t-132.5 -89.5q-28 0 -46 5l9 73q12 -2 27 -2q31 0 52.5 31.5t41 114.5t38.5 234l32 255h357v-307h91q108 0 174 -46.5t66 -151.5q0 -198 -246 -198h-173v631h-194zM557 325v-253h84q77 0 117 27t40 98q0 73 -40 100.5t-122 27.5
h-79z" />
    <glyph glyph-name="afii10059" unicode="&#x40a;" horiz-adv-x="934" 
d="M91 0v703h88v-307h295v307h88v-307h91q108 0 174 -46.5t66 -151.5q0 -198 -246 -198h-173v324h-295v-324h-88zM641 325h-79v-253h84q77 0 117 27t40 98q0 73 -40 100.5t-122 27.5z" />
    <glyph glyph-name="afii10060" unicode="&#x40b;" horiz-adv-x="782" 
d="M693 0h-88v262q0 55 -29 82t-100 27q-78 0 -169 -31v-340h-88v631h-195v72h476v-72h-193v-221q111 40 178 40q104 0 156 -48.5t52 -129.5v-272z" />
    <glyph glyph-name="afii10061" unicode="&#x40c;" horiz-adv-x="593" 
d="M262 752l52 131h111l-97 -131h-66zM179 349l271 354h100l-220 -279l59 -106l118 -212l59 -106h-100l-197 359l-17 -15q-18 -16 -41.5 -37t-31.5 -28v0v0v0v-1v0v0v-1v0v-1v0v-1v0v-1v-1v-1v-1v-1v-1v-1v-1v-1v-1v-1v-1v-1v-1v-1v-1v-1v-1v-1v-1v-1v-1v-1v-1v-1v-1v-1v-1
v-1v-1v-1v-1v-1v-1v-1v-1v-1v-1v-1v-1v-1v-1v-1v-1v-1v-1v-1v-1v-1v-1v-1v-1v-1v-1v-2v-1v-1v-1v-1v-1v-1v-2v-1v-1v-1v-1v-1v-2v-1v-1v-1v-2v-1v-1v-1v-2v-1v-1v-1v-2v-1v-1v-2v-1v-1v-2v-1v-1v-2v-1v-1v-2v-1v-1v-2v-1v-2v-1v-1v-2v-1v-2v-1v-1v-2v-1v-2v-1v-2v-1v-2v-1
v-2v-1v-2v-1v-2v-1v-2v-1v-2v-1v-2v-1v-2v-1v-2v-1v-2v-2v-1v-2v-1v-2v-1v-2v-2v-1v-2v-2v-1v-2v-1v-2v-2v-1v-2v-2v-1v-2v-2v-1v-2v-2v-1v-2v-2v-1v-2v-2v-2v-1v-2v-2v-2v-1v-2v-2v-2v-1v-2v-2v-2v-1v-2v-2v-2v-2v-1v-2v-2v-2v-2v-2v-1v-2v-2v-2v-2v-2v-1v-2v-2v-9h-88v703
h88v-354z" />
    <glyph glyph-name="afii10062" unicode="&#x40e;" horiz-adv-x="564" 
d="M46 703h96l108 -268q39 -97 52 -151q11 43 48 151l91 268h93l-195 -518q-42 -111 -87 -153t-113 -42q-49 0 -90 27l28 64q30 -20 62 -20q38 0 65 31t60 110zM288 748q-157 0 -167 141h70q13 -84 97 -84t97 84h70q-10 -141 -167 -141z" />
    <glyph glyph-name="afii10145" unicode="&#x40f;" horiz-adv-x="669" 
d="M91 0v703h88v-631h311v631h88v-703h-197l-9 -178h-75l-10 178h-196z" />
    <glyph glyph-name="afii10017" unicode="&#x410;" horiz-adv-x="592" 
d="M171 206l-59 -206h-85l213 703h114l211 -703h-92l-58 206h-244zM395 275l-101 356l-103 -356h204z" />
    <glyph glyph-name="afii10018" unicode="&#x411;" horiz-adv-x="572" 
d="M91 0v703h386v-72h-298v-235h111q108 0 174 -46.5t66 -151.5q0 -198 -246 -198h-193zM278 325h-99v-253h104q77 0 117 27t40 98q0 73 -40 100.5t-122 27.5z" />
    <glyph glyph-name="afii10019" unicode="&#x412;" horiz-adv-x="596" 
d="M91 0v703h198q103 0 166 -44t63 -133q0 -123 -122 -155q70 -14 109.5 -59.5t39.5 -117.5q0 -95 -60.5 -144.5t-165.5 -49.5h-228zM177 402h98q82 0 118 28.5t36 93.5q0 58 -39.5 84t-122.5 26h-90v-232zM177 69h119q157 0 157 128q0 76 -45.5 107.5t-133.5 31.5h-97v-267
z" />
    <glyph glyph-name="afii10020" unicode="&#x413;" horiz-adv-x="505" 
d="M179 0h-88v703h394v-72h-306v-631z" />
    <glyph glyph-name="afii10021" unicode="&#x414;" horiz-adv-x="675" 
d="M478 72v559h-165q-11 -211 -43.5 -338.5t-87.5 -220.5h296zM236 703h330v-631h71v-250h-72l-19 178h-441l-19 -178h-72v250h65q31 50 53 97t45.5 120.5t38 177t20.5 236.5z" />
    <glyph glyph-name="afii10022" unicode="&#x415;" horiz-adv-x="551" 
d="M91 0v703h403v-72h-315v-226h245v-71h-245v-262h333v-72h-421z" />
    <glyph glyph-name="afii10024" unicode="&#x416;" horiz-adv-x="892" 
d="M140 703l264 -357v357h84v-357l264 357h97l-210 -276l226 -427h-97l-188 363l-92 -81v-282h-84v282l-92 81l-188 -363h-97l226 427l-210 276h97z" />
    <glyph glyph-name="afii10025" unicode="&#x417;" horiz-adv-x="550" 
d="M268 -8q-141 0 -238 94l51 62q95 -83 189 -83q65 0 101.5 35t36.5 97q0 134 -192 134h-35v69h35q86 0 129.5 34.5t43.5 96.5q0 53 -32 81t-89 28q-79 0 -154 -59l-46 59q88 73 203 73q95 0 151.5 -46.5t56.5 -127.5q0 -65 -36.5 -109t-97.5 -63q68 -13 111 -56.5
t43 -112.5q0 -93 -62 -149.5t-169 -56.5z" />
    <glyph glyph-name="afii10026" unicode="&#x418;" horiz-adv-x="670" 
d="M577 703v-703h-84v439q0 91 4 156l-313 -595h-93v703h84v-411q0 -88 -4 -160l300 571h106z" />
    <glyph glyph-name="afii10027" unicode="&#x419;" horiz-adv-x="670" 
d="M577 703v-703h-84v439q0 91 4 156l-313 -595h-93v703h84v-411q0 -88 -4 -160l300 571h106zM340 748q-157 0 -167 141h70q13 -84 97 -84t97 84h70q-10 -141 -167 -141z" />
    <glyph glyph-name="afii10028" unicode="&#x41a;" horiz-adv-x="593" 
d="M179 349l271 354h100l-220 -279l59 -106l118 -212l59 -106h-100l-197 359l-17 -15q-18 -16 -41.5 -37t-31.5 -28v0v0v0v-1v0v0v-1v0v-1v0v-1v0v-1v-1v-1v-1v-1v-1v-1v-1v-1v-1v-1v-1v-1v-1v-1v-1v-1v-1v-1v-1v-1v-1v-1v-1v-1v-1v-1v-1v-1v-1v-1v-1v-1v-1v-1v-1v-1v-1v-1
v-1v-1v-1v-1v-1v-1v-1v-1v-1v-1v-1v-1v-1v-1v-1v-2v-1v-1v-1v-1v-1v-1v-2v-1v-1v-1v-1v-1v-2v-1v-1v-1v-2v-1v-1v-1v-2v-1v-1v-1v-2v-1v-1v-2v-1v-1v-2v-1v-1v-2v-1v-1v-2v-1v-1v-2v-1v-2v-1v-1v-2v-1v-2v-1v-1v-2v-1v-2v-1v-2v-1v-2v-1v-2v-1v-2v-1v-2v-1v-2v-1v-2v-1v-2
v-1v-2v-1v-2v-1v-2v-2v-1v-2v-1v-2v-1v-2v-2v-1v-2v-2v-1v-2v-1v-2v-2v-1v-2v-2v-1v-2v-2v-1v-2v-2v-1v-2v-2v-1v-2v-2v-2v-1v-2v-2v-2v-1v-2v-2v-2v-1v-2v-2v-2v-1v-2v-2v-2v-2v-1v-2v-2v-2v-2v-2v-1v-2v-2v-2v-2v-2v-1v-2v-2v-9h-88v703h88v-354z" />
    <glyph glyph-name="afii10029" unicode="&#x41b;" horiz-adv-x="665" 
d="M485 0v631h-210l-24 -190q-34 -270 -72.5 -359.5t-132.5 -89.5q-28 0 -46 5l9 73q12 -2 27 -2q31 0 52.5 31.5t41 114.5t38.5 234l32 255h373v-703h-88z" />
    <glyph glyph-name="afii10030" unicode="&#x41c;" horiz-adv-x="808" 
d="M91 0v703h136l138 -466q29 -99 40 -164q13 77 38 164l137 466h137v-703h-87v481q0 70 4 150l-186 -631h-91l-187 631q4 -41 4 -151v-480h-83z" />
    <glyph glyph-name="afii10031" unicode="&#x41d;" horiz-adv-x="669" 
d="M91 0v703h88v-307h311v307h88v-703h-88v324h-311v-324h-88z" />
    <glyph glyph-name="afii10032" unicode="&#x41e;" horiz-adv-x="666" 
d="M332 -8q-127 0 -199.5 95.5t-72.5 264.5q0 165 73 263t200 98q128 0 201 -96t73 -260q0 -168 -74.5 -266.5t-200.5 -98.5zM332 65q89 0 135.5 75t46.5 215q0 137 -45.5 211t-134.5 74q-90 0 -136 -76t-46 -215q0 -138 45.5 -211t134.5 -73z" />
    <glyph glyph-name="afii10033" unicode="&#x41f;" horiz-adv-x="669" 
d="M91 0v703h487v-703h-88v631h-311v-631h-88z" />
    <glyph glyph-name="afii10034" unicode="&#x420;" horiz-adv-x="572" 
d="M91 0v703h193q246 0 246 -198q0 -105 -66 -153t-174 -48h-111v-304h-88zM179 374h99q82 0 122 29t40 103q0 70 -40 97.5t-117 27.5h-104v-257z" />
    <glyph glyph-name="afii10035" unicode="&#x421;" horiz-adv-x="596" 
d="M342 -8q-131 0 -205.5 97t-74.5 263q0 165 74 263t206 98q127 0 204 -91l-53 -56q-66 71 -151 71q-93 0 -139.5 -76t-46.5 -214q0 -278 187 -278q51 0 88 21t74 61l54 -54q-84 -105 -217 -105z" />
    <glyph glyph-name="afii10036" unicode="&#x422;" horiz-adv-x="525" 
d="M219 0v631h-195v72h476v-72h-193v-631h-88z" />
    <glyph glyph-name="afii10037" unicode="&#x423;" horiz-adv-x="530" 
d="M26 703h96l108 -268q39 -97 52 -151q11 43 48 151l91 268h93l-195 -518q-42 -111 -87 -153t-113 -42q-49 0 -90 27l28 64q30 -20 62 -20q38 0 65 31t60 110z" />
    <glyph glyph-name="afii10038" unicode="&#x424;" horiz-adv-x="721" 
d="M404 180h24q82 0 122 42.5t40 141.5q0 95 -40.5 135.5t-117.5 40.5h-28v-360zM317 -6v121h-35q-109 0 -175 60t-66 187q0 243 243 243h33v104h87v-104h33q243 0 243 -243q0 -127 -66 -187t-175 -60h-35v-121h-87zM293 180h24v360h-28q-77 0 -117.5 -40.5t-40.5 -135.5
q0 -99 40 -141.5t122 -42.5z" />
    <glyph glyph-name="afii10039" unicode="&#x425;" horiz-adv-x="561" 
d="M27 0l204 369l-189 334h99l144 -268l134 268h92l-182 -339l204 -364h-98l-159 295l-157 -295h-92z" />
    <glyph glyph-name="afii10040" unicode="&#x426;" horiz-adv-x="680" 
d="M91 0v703h88v-631h311v631h88v-631h71v-250h-72l-19 178h-467z" />
    <glyph glyph-name="afii10041" unicode="&#x427;" horiz-adv-x="646" 
d="M81 421v282h88v-262q0 -58 28.5 -85.5t92.5 -27.5q68 0 177 37v338h88v-703h-88v300q-2 -1 -21 -8t-26.5 -9.5t-26.5 -9t-31.5 -9.5t-30 -7t-33.5 -5.5t-32 -1.5q-92 0 -138.5 44t-46.5 127z" />
    <glyph glyph-name="afii10042" unicode="&#x428;" horiz-adv-x="960" 
d="M868 0h-777v703h88v-631h257v631h88v-631h256v631h88v-703z" />
    <glyph glyph-name="afii10043" unicode="&#x429;" horiz-adv-x="976" 
d="M848 0h-757v703h88v-631h257v631h88v-631h256v631h88v-631h71v-250h-72z" />
    <glyph glyph-name="afii10044" unicode="&#x42a;" horiz-adv-x="688" 
d="M207 631h-190v72h278v-307h111q108 0 174 -46.5t66 -151.5q0 -198 -246 -198h-193v631zM394 325h-99v-253h104q77 0 117 27t40 98q0 73 -40 100.5t-122 27.5z" />
    <glyph glyph-name="afii10045" unicode="&#x42b;" horiz-adv-x="788" 
d="M91 0v703h88v-307h101q108 0 174 -46.5t66 -151.5q0 -198 -246 -198h-183zM268 325h-89v-253h94q77 0 117 27t40 98q0 73 -40 100.5t-122 27.5zM609 0v703h88v-703h-88z" />
    <glyph glyph-name="afii10046" unicode="&#x42c;" horiz-adv-x="572" 
d="M91 0v703h88v-307h111q108 0 174 -46.5t66 -151.5q0 -198 -246 -198h-193zM278 325h-99v-253h104q77 0 117 27t40 98q0 73 -40 100.5t-122 27.5z" />
    <glyph glyph-name="afii10047" unicode="&#x42d;" horiz-adv-x="596" 
d="M278 -8q-135 0 -219 105l54 54q73 -82 161 -82q178 0 186 248h-265v72h265q-5 118 -51 183t-133 65q-85 0 -151 -71l-54 56q80 91 207 91q132 0 204.5 -97.5t72.5 -263.5q0 -167 -73 -263.5t-204 -96.5z" />
    <glyph glyph-name="afii10048" unicode="&#x42e;" horiz-adv-x="880" 
d="M563 -8q-113 0 -180.5 88t-73.5 244h-130v-324h-88v703h88v-307h131q9 146 76.5 231.5t177.5 85.5q120 0 188 -95.5t68 -260.5q0 -168 -69.5 -266.5t-187.5 -98.5zM564 65q80 0 121.5 75t41.5 215q0 137 -40.5 211t-121.5 74t-122.5 -76t-41.5 -215q0 -138 41.5 -211
t121.5 -73z" />
    <glyph glyph-name="afii10049" unicode="&#x42f;" horiz-adv-x="601" 
d="M48 0l154 325q-140 39 -140 184q0 194 253 194h195v-703h-88v313h-135l-143 -313h-96zM305 382h117v249h-106q-38 0 -65.5 -5t-51 -17.5t-35.5 -37t-12 -61.5q0 -71 39 -99.5t114 -28.5z" />
    <glyph glyph-name="afii10065" unicode="&#x430;" horiz-adv-x="514" 
d="M347 316v23q0 53 -20.5 77.5t-73.5 24.5q-57 0 -143 -44l-32 59q90 57 182 57q175 0 175 -180v-333h-51l-23 60q-68 -68 -155 -68q-67 0 -110.5 38.5t-43.5 100.5q0 81 67 122q63 39 228 63zM347 110v149q-157 -30 -190 -71q-16 -18 -16 -51q0 -77 78 -77q61 0 128 50z
" />
    <glyph glyph-name="afii10066" unicode="&#x431;" horiz-adv-x="530" 
d="M143 257q0 -198 122 -198q68 0 95.5 50t27.5 146q0 89 -28.5 130.5t-91.5 41.5q-55 0 -90 -41.5t-35 -128.5zM119 372q20 56 63 89t104 33q94 0 144.5 -62.5t50.5 -178.5q0 -124 -57.5 -192.5t-158.5 -68.5q-215 0 -215 320q0 195 49.5 273.5t179.5 103.5l174 29l11 -75
q-62 -8 -166 -28q-59 -11 -93.5 -27.5t-53 -47.5t-24.5 -67t-8 -101z" />
    <glyph glyph-name="afii10067" unicode="&#x432;" horiz-adv-x="524" 
d="M85 503h174q194 0 194 -126q0 -46 -29.5 -74t-78.5 -37v-3q126 -14 126 -118q0 -71 -54.5 -108t-146.5 -37h-185v503zM173 234v-174h83q66 0 94.5 21.5t28.5 67.5t-29.5 65.5t-99.5 19.5h-77zM253 443h-80v-150h73q65 0 90.5 18t25.5 60q0 36 -24.5 54t-84.5 18z" />
    <glyph glyph-name="afii10068" unicode="&#x433;" horiz-adv-x="386" 
d="M85 503h266v-62h-178v-441h-88v503z" />
    <glyph glyph-name="afii10069" unicode="&#x434;" horiz-adv-x="568" 
d="M374 62v379h-126q-22 -162 -43 -245t-48 -134h217zM533 62v-227h-70l-19 165h-350l-19 -165h-70v227h53q36 54 62 147.5t51 293.5h291v-441h71z" />
    <glyph glyph-name="afii10070" unicode="&#x435;" horiz-adv-x="502" 
d="M142 227q6 -165 127 -165q39 0 68.5 12t68.5 37l37 -53q-41 -34 -80.5 -50t-100.5 -16q-98 0 -155.5 70t-57.5 189q0 117 56 189.5t150 72.5q97 0 148 -69t51 -196v-21h-312zM142 286h222q-5 161 -109 161q-103 0 -113 -161z" />
    <glyph glyph-name="afii10072" unicode="&#x436;" horiz-adv-x="740" 
d="M410 191v-191h-80v191l-77 58l-140 -249h-91l175 309l-156 194h93l196 -253v253h80v-253l196 253h93q-155 -194 -156 -194l175 -309h-91l-140 249q-77 -57 -77 -58z" />
    <glyph glyph-name="afii10073" unicode="&#x437;" horiz-adv-x="504" 
d="M37 87l49 49q65 -75 159 -75q52 0 83 20.5t31 60.5q0 92 -157 92v60q148 0 148 79q0 34 -25 54t-73 20q-91 0 -135 -67l-57 41q60 92 193 92q87 0 137 -36.5t50 -95.5q0 -50 -36.5 -80t-84.5 -35v-1q57 -5 94.5 -38.5t37.5 -85.5q0 -67 -53 -108t-151 -41q-137 0 -210 95
z" />
    <glyph glyph-name="afii10074" unicode="&#x438;" horiz-adv-x="580" 
d="M85 503h80v-289q0 -18 -2.5 -61.5t-2.5 -48.5l244 399h91v-503h-79v297q0 39 5 104l-247 -401h-89v503z" />
    <glyph glyph-name="afii10075" unicode="&#x439;" horiz-adv-x="580" 
d="M85 503h80v-289q0 -18 -2.5 -61.5t-2.5 -48.5l244 399h91v-503h-79v297q0 39 5 104l-247 -401h-89v503zM293 568q-157 0 -167 141h70q13 -84 97 -84t97 84h70q-10 -141 -167 -141z" />
    <glyph glyph-name="afii10076" unicode="&#x43a;" horiz-adv-x="497" 
d="M172 187v-187h-88v503h88v-247l189 247h96q-154 -193 -155 -193l174 -310h-95l-136 245q-73 -57 -73 -58z" />
    <glyph glyph-name="afii10077" unicode="&#x43b;" horiz-adv-x="550" 
d="M465 0h-88v441h-136q-42 -288 -73.5 -368.5t-121.5 -80.5q-28 0 -46 5l9 64q12 -2 24 -2q44 0 69.5 88t62.5 356h300v-503z" />
    <glyph glyph-name="afii10078" unicode="&#x43c;" horiz-adv-x="699" 
d="M538 435l-153 -435h-70l-153 434q3 -49 3 -111v-323h-80v503h122l102 -289q25 -69 43 -140q18 71 43 140l102 289h117v-503h-80v323q0 54 4 112z" />
    <glyph glyph-name="afii10079" unicode="&#x43d;" horiz-adv-x="563" 
d="M85 503h88v-210h217v210h88v-503h-88v231h-217v-231h-88v503z" />
    <glyph glyph-name="afii10080" unicode="&#x43e;" horiz-adv-x="529" 
d="M265 -8q-99 0 -157.5 69t-58.5 187q0 119 59.5 192t156.5 73t156 -69.5t59 -184.5q0 -124 -57.5 -195.5t-157.5 -71.5zM265 59q67 0 94.5 52t27.5 150q0 185 -123 185q-122 0 -122 -196q0 -191 123 -191z" />
    <glyph glyph-name="afii10081" unicode="&#x43f;" horiz-adv-x="563" 
d="M85 503h393v-503h-88v441h-217v-441h-88v503z" />
    <glyph glyph-name="afii10082" unicode="&#x440;" horiz-adv-x="552" 
d="M84 -178v681h52l23 -68q67 78 149 78q95 0 145 -76t50 -176q0 -120 -57 -194.5t-149 -74.5q-73 0 -125 52v-222h-88zM279 60q63 0 96.5 52.5t33.5 148.5q0 46 -9.5 83.5t-37.5 66t-72 28.5q-64 0 -118 -57v-269q48 -53 107 -53z" />
    <glyph glyph-name="afii10083" unicode="&#x441;" horiz-adv-x="464" 
d="M261 -8q-73 0 -122.5 39t-69.5 94.5t-20 122.5q0 69 19.5 126.5t69.5 98t123 40.5q94 0 157 -53l-38 -59q-55 41 -118 41q-121 0 -121 -194q0 -185 124 -185q64 0 120 48l42 -52q-65 -67 -166 -67z" />
    <glyph glyph-name="afii10084" unicode="&#x442;" horiz-adv-x="444" 
d="M22 441v62h399v-62h-155v-441h-88v441h-156z" />
    <glyph glyph-name="afii10085" unicode="&#x443;" horiz-adv-x="471" 
d="M204 -29l-179 532h90q126 -424 126 -425l118 425h87l-169 -541q-23 -73 -64.5 -109t-111.5 -36q-31 0 -61 9l11 64q32 -5 42 -5q83 0 111 86z" />
    <glyph glyph-name="afii10086" unicode="&#x444;" horiz-adv-x="778" 
d="M544 -8q-69 0 -114 50v-220h-82v233q-51 -63 -124 -63q-87 0 -131 72.5t-44 179.5q0 121 50.5 195t134.5 74q66 0 114 -53v243h82v-256q54 66 125 66q59 0 99.5 -39t57.5 -94t17 -119q0 -121 -50.5 -195t-134.5 -74zM245 60q55 0 103 59v270q-41 50 -94 50
q-56 0 -85.5 -50.5t-29.5 -146.5q0 -182 106 -182zM523 60q56 0 86 52.5t30 148.5q0 73 -24.5 125.5t-80.5 52.5t-104 -57v-269q42 -53 93 -53z" />
    <glyph glyph-name="afii10087" unicode="&#x445;" horiz-adv-x="471" 
d="M24 0l159 262l-148 241h99l104 -184l103 184h92l-148 -243l162 -260h-99l-117 205l-116 -205h-91z" />
    <glyph glyph-name="afii10088" unicode="&#x446;" horiz-adv-x="581" 
d="M478 62h71v-227h-70l-18 165h-376v503h88v-441h217v441h88v-441z" />
    <glyph glyph-name="afii10089" unicode="&#x447;" horiz-adv-x="544" 
d="M66 503h88v-189q0 -72 82 -72q65 0 135 38v223h88v-503h-88v222q-83 -50 -159 -50q-75 0 -110.5 38.5t-35.5 102.5v190z" />
    <glyph glyph-name="afii10090" unicode="&#x448;" horiz-adv-x="813" 
d="M363 503h88v-441h189v441h88v-503h-643v503h88v-441h190v441z" />
    <glyph glyph-name="afii10091" unicode="&#x449;" horiz-adv-x="834" 
d="M729 -165l-19 165h-625v503h88v-441h190v441h88v-441h189v441h88v-441h71v-227h-70z" />
    <glyph glyph-name="afii10092" unicode="&#x44a;" horiz-adv-x="615" 
d="M33 503h243v-210h97q102 0 151.5 -34.5t49.5 -110.5q0 -70 -51 -109t-150 -39h-185v441h-155v62zM276 234v-174h84q66 0 94 21.5t28 67.5t-28 65.5t-93 19.5h-85z" />
    <glyph glyph-name="afii10093" unicode="&#x44b;" horiz-adv-x="694" 
d="M85 503h88v-210h77q102 0 151.5 -34.5t49.5 -110.5q0 -70 -51 -109t-150 -39h-165v503zM173 234v-174h64q66 0 94 21.5t28 67.5t-28 65.5t-93 19.5h-65zM521 0v503h88v-503h-88z" />
    <glyph glyph-name="afii10094" unicode="&#x44c;" horiz-adv-x="512" 
d="M173 293h97q102 0 151.5 -34.5t49.5 -110.5q0 -70 -51 -109t-150 -39h-185v503h88v-210zM173 234v-174h84q66 0 94 21.5t28 67.5t-28 65.5t-93 19.5h-85z" />
    <glyph glyph-name="afii10095" unicode="&#x44d;" horiz-adv-x="464" 
d="M204 -8q-102 0 -167 67l42 52q56 -48 120 -48q123 0 123 165h-188v60h187q-2 66 -29.5 110t-89.5 44q-63 0 -118 -41l-38 59q63 53 161 53q57 0 98.5 -22t64.5 -61t34 -84t11 -98q0 -49 -11.5 -93t-35.5 -81.5t-66 -59.5t-98 -22z" />
    <glyph glyph-name="afii10096" unicode="&#x44e;" horiz-adv-x="736" 
d="M486 -8q-89 0 -143 63.5t-58 172.5h-112v-228h-88v503h88v-213h113q10 102 63.5 162.5t136.5 60.5q91 0 146 -69.5t55 -184.5q0 -124 -53.5 -195.5t-147.5 -71.5zM486 59q60 0 84 52t24 150q0 185 -109 185q-107 0 -107 -196q0 -191 108 -191z" />
    <glyph glyph-name="afii10097" unicode="&#x44f;" horiz-adv-x="500" 
d="M135 0h-96l110 220q-101 30 -101 136q0 147 195 147h172v-503h-88v210h-98zM327 271v172h-75q-60 0 -86.5 -22t-26.5 -66q0 -45 27 -64.5t86 -19.5h75z" />
    <glyph glyph-name="afii10071" unicode="&#x451;" horiz-adv-x="502" 
d="M142 227q6 -165 127 -165q39 0 68.5 12t68.5 37l37 -53q-41 -34 -80.5 -50t-100.5 -16q-98 0 -155.5 70t-57.5 189q0 117 56 189.5t150 72.5q97 0 148 -69t51 -196v-21h-312zM142 286h222q-5 161 -109 161q-103 0 -113 -161zM333 588q-22 0 -37 15.5t-15 36.5t15 36.5
t37 15.5t37 -15.5t15 -36.5q0 -22 -15 -37t-37 -15zM160 588q-22 0 -37.5 15.5t-15.5 36.5t15.5 36.5t37.5 15.5t37 -15.5t15 -36.5q0 -22 -15 -37t-37 -15z" />
    <glyph glyph-name="afii10099" unicode="&#x452;" 
d="M346 -175q-38 0 -66 10l11 64q24 -6 43 -6q30 0 42 15.5t12 51.5v366q0 43 -16.5 68.5t-61.5 25.5q-68 0 -137 -72v-348h-88v561h-73v63h73v79h88v-79h118v-63h-118v-147q74 81 166 81q75 0 106 -48t31 -121v-360q0 -69 -29.5 -105t-100.5 -36z" />
    <glyph glyph-name="afii10100" unicode="&#x453;" horiz-adv-x="402" 
d="M85 503h266v-62h-178v-441h-88v503zM165 572l52 131h111l-97 -131h-66z" />
    <glyph glyph-name="afii10101" unicode="&#x454;" horiz-adv-x="464" 
d="M261 -8q-109 0 -160.5 73t-51.5 183q0 52 11.5 97.5t35.5 84t66.5 61t98.5 22.5q94 0 157 -53l-38 -59q-55 41 -118 41q-62 0 -89.5 -44t-29.5 -110h187v-60h-188q2 -165 123 -165q64 0 120 48l42 -52q-65 -67 -166 -67z" />
    <glyph glyph-name="afii10102" unicode="&#x455;" horiz-adv-x="455" 
d="M220 -8q-108 0 -176 57l35 57q65 -46 143 -46q47 0 73 18.5t26 53.5q0 18 -6.5 31t-24 24.5t-33.5 18.5t-50 19q-69 25 -105.5 58.5t-36.5 95.5t44 98t123 36q85 0 153 -36l-28 -62q-62 31 -122 31q-90 0 -90 -66q0 -30 22.5 -47t78.5 -36q78 -26 118 -60t40 -100
q0 -67 -48 -106t-136 -39z" />
    <glyph glyph-name="afii10103" unicode="&#x456;" horiz-adv-x="265" 
d="M133 587q-24 0 -40.5 16t-16.5 39t16.5 39t40.5 16t40 -16t16 -39t-16 -39t-40 -16zM89 0v503h88v-503h-88z" />
    <glyph glyph-name="afii10104" unicode="&#x457;" horiz-adv-x="263" 
d="M89 0v503h86v-503h-86zM218 588q-22 0 -37 15.5t-15 36.5t15 36.5t37 15.5t37 -15.5t15 -36.5q0 -22 -15 -37t-37 -15zM45 588q-22 0 -37.5 15.5t-15.5 36.5t15.5 36.5t37.5 15.5t37 -15.5t15 -36.5q0 -22 -15 -37t-37 -15z" />
    <glyph glyph-name="afii10105" unicode="&#x458;" horiz-adv-x="265" 
d="M133 587q-24 0 -40.5 16t-16.5 39t16.5 39t40.5 16t40 -16t16 -39t-16 -39t-40 -16zM47 -183q-38 0 -66 10l11 64q24 -6 43 -6q30 0 42 15.5t12 51.5v551h88v-545q0 -69 -29.5 -105t-100.5 -36z" />
    <glyph glyph-name="afii10106" unicode="&#x459;" horiz-adv-x="777" 
d="M458 234v-174h64q66 0 94 21.5t28 67.5t-28.5 65.5t-93.5 19.5h-64zM165 503h293v-210h77q101 0 151 -34.5t50 -110.5q0 -70 -51 -109t-150 -39h-165v441h-129q-42 -288 -73.5 -368.5t-121.5 -80.5q-28 0 -46 5l9 64q12 -2 24 -2q44 0 69.5 88t62.5 356z" />
    <glyph glyph-name="afii10107" unicode="&#x45a;" horiz-adv-x="813" 
d="M478 293h93q101 0 150.5 -34.5t49.5 -110.5q0 -70 -51 -109t-150 -39h-180v231h-217v-231h-88v503h88v-210h217v210h88v-210zM478 234v-174h80q66 0 93.5 21.5t27.5 67.5t-28 65.5t-93 19.5h-80z" />
    <glyph glyph-name="afii10108" unicode="&#x45b;" 
d="M476 0h-88v326q0 43 -16.5 68.5t-61.5 25.5q-68 0 -137 -72v-348h-88v561h-73v63h73v79h88v-79h118v-63h-118v-147q74 81 166 81q75 0 106 -48t31 -121v-326z" />
    <glyph glyph-name="afii10109" unicode="&#x45c;" horiz-adv-x="497" 
d="M212 572l52 131h111l-97 -131h-66zM172 187v-187h-88v503h88v-247l189 247h96q-154 -193 -155 -193l174 -310h-95l-136 245q-73 -57 -73 -58z" />
    <glyph glyph-name="afii10110" unicode="&#x45e;" horiz-adv-x="471" 
d="M204 -29l-179 532h90q126 -424 126 -425l118 425h87l-169 -541q-23 -73 -64.5 -109t-111.5 -36q-31 0 -61 9l11 64q32 -5 42 -5q83 0 111 86zM239 568q-157 0 -167 141h70q13 -84 97 -84t97 84h70q-10 -141 -167 -141z" />
    <glyph glyph-name="afii10193" unicode="&#x45f;" horiz-adv-x="563" 
d="M237 0h-152v503h88v-441h217v441h88v-503h-153l-7 -165h-74z" />
    <glyph glyph-name="afii10050" unicode="&#x490;" horiz-adv-x="500" 
d="M485 631h-306v-631h-88v703h303l19 158h72v-230z" />
    <glyph glyph-name="afii10098" unicode="&#x491;" horiz-adv-x="411" 
d="M173 441v-441h-88v503h196l18 165h70v-227h-196z" />
    <glyph glyph-name="endash" unicode="&#x2013;" horiz-adv-x="570" 
d="M62 247v69h446v-69h-446z" />
    <glyph glyph-name="emdash" unicode="&#x2014;" horiz-adv-x="972" 
d="M62 247v69h848v-69h-848z" />
    <glyph glyph-name="afii00208" unicode="&#x2015;" horiz-adv-x="972" 
d="M62 247v69h848v-69h-848z" />
    <glyph glyph-name="quoteleft" unicode="&#x2018;" horiz-adv-x="250" 
d="M130 475q-27 0 -45.5 19.5t-18.5 54.5q0 103 94 165l25 -30q-50 -48 -50 -96q20 0 35 -15.5t15 -38.5q0 -25 -16 -42t-39 -17z" />
    <glyph glyph-name="quoteright" unicode="&#x2019;" horiz-adv-x="251" 
d="M91 474l-26 30q50 47 50 96q-19 0 -34 15.5t-15 38.5q0 25 16 42t39 17q27 0 45.5 -19.5t18.5 -54.5q0 -102 -94 -165z" />
    <glyph glyph-name="quotesinglbase" unicode="&#x201a;" horiz-adv-x="251" 
d="M91 -127l-26 30q50 47 50 96q-19 0 -34 15.5t-15 38.5q0 25 16 42t39 17q27 0 45.5 -20t18.5 -55q0 -103 -94 -164z" />
    <glyph glyph-name="quotedblleft" unicode="&#x201c;" horiz-adv-x="421" 
d="M300 475q-27 0 -45.5 19.5t-18.5 54.5q0 102 94 165l26 -30q-50 -47 -50 -96q19 0 34 -15.5t15 -38.5q0 -25 -16 -42t-39 -17zM130 475q-27 0 -45.5 19.5t-18.5 54.5q0 103 94 165l25 -30q-50 -48 -50 -96q20 0 35 -15.5t15 -38.5q0 -25 -16 -42t-39 -17z" />
    <glyph glyph-name="quotedblright" unicode="&#x201d;" horiz-adv-x="421" 
d="M261 474l-25 30q50 48 50 96q-20 0 -35 15.5t-15 38.5q0 25 16 42t39 17q27 0 45.5 -19.5t18.5 -54.5q0 -103 -94 -165zM91 474l-26 30q50 47 50 96q-19 0 -34 15.5t-15 38.5q0 25 16 42t39 17q27 0 45.5 -19.5t18.5 -54.5q0 -102 -94 -165z" />
    <glyph glyph-name="quotedblbase" unicode="&#x201e;" horiz-adv-x="421" 
d="M261 -127l-25 30q50 48 50 96q-20 0 -35 15.5t-15 38.5q0 25 16 42t39 17q27 0 45.5 -20t18.5 -55q0 -104 -94 -164zM91 -127l-26 30q50 47 50 96q-19 0 -34 15.5t-15 38.5q0 25 16 42t39 17q27 0 45.5 -20t18.5 -55q0 -103 -94 -164z" />
    <glyph glyph-name="dagger" unicode="&#x2020;" horiz-adv-x="334" 
d="M132 295v242h-95v64h95v102h71v-102h94v-64h-94v-242h-71z" />
    <glyph glyph-name="daggerdbl" unicode="&#x2021;" horiz-adv-x="334" 
d="M132 295v100h-95v65h95v78h-95v65h95v100h71v-100h94v-65h-94v-78h94v-65h-94v-100h-71z" />
    <glyph glyph-name="bullet" unicode="&#x2022;" horiz-adv-x="454" 
d="M227 180q-62 0 -103 42.5t-41 103.5t41 102t103 41t103 -41t41 -102t-41 -103.5t-103 -42.5z" />
    <glyph glyph-name="ellipsis" unicode="&#x2026;" horiz-adv-x="892" 
d="M761 -6q-26 0 -43 16.5t-17 41.5q0 26 17.5 43.5t42.5 17.5t42.5 -18t17.5 -43t-17.5 -41.5t-42.5 -16.5zM446 -6q-26 0 -43 16.5t-17 41.5q0 26 17.5 43.5t42.5 17.5t42 -17.5t17 -43.5q0 -25 -17 -41.5t-42 -16.5zM130 -6q-25 0 -42 16.5t-17 41.5q0 26 17 43.5
t42 17.5t42.5 -17.5t17.5 -43.5q0 -25 -17 -41.5t-43 -16.5z" />
    <glyph glyph-name="perthousand" unicode="&#x2030;" horiz-adv-x="1301" 
d="M213 268q-72 0 -118 56t-46 154q0 99 46.5 157.5t118.5 58.5q71 0 117 -54t46 -151q0 -99 -47 -160t-117 -61zM228 0l390 684h69l-390 -684h-69zM1088 -8q-71 0 -117.5 56t-46.5 154t47 157t118 59t117 -54t46 -151q0 -99 -47 -160t-117 -61zM703 -8q-72 0 -118 56
t-46 154t46.5 157t117.5 59t117 -54t46 -151q0 -99 -46.5 -160t-116.5 -61zM213 328q39 0 62 39.5t23 119.5q0 147 -85 147q-84 0 -84 -156q0 -150 84 -150zM1089 52q39 0 62 39.5t23 118.5q0 147 -85 147t-85 -155q0 -150 85 -150zM703 52q39 0 62 39.5t23 118.5
q0 147 -85 147q-84 0 -84 -155q0 -150 84 -150z" />
    <glyph glyph-name="guilsinglleft" unicode="&#x2039;" horiz-adv-x="303" 
d="M173 39l-131 204l124 214h81l-122 -213l131 -205h-83z" />
    <glyph glyph-name="guilsinglright" unicode="&#x203a;" horiz-adv-x="302" 
d="M57 39l121 213l-131 205h83l130 -204l-123 -214h-80z" />
    <glyph glyph-name="fraction" unicode="&#x2044;" horiz-adv-x="163" 
d="M-148 0l390 684h69l-390 -684h-69z" />
    <glyph glyph-name="Euro" unicode="&#x20ac;" horiz-adv-x="562" 
d="M95 382h-68v62h75q19 118 82 184t162 66q51 0 88 -15t73 -51l-47 -58q-32 28 -57 38.5t-59 10.5q-125 0 -150 -175h209l-16 -62h-198q-1 -14 -1 -44q0 -32 1 -47h175l-15 -61h-154q26 -163 147 -163q41 0 67 14t60 46l49 -53q-36 -42 -77 -62t-101 -20q-94 0 -155.5 62
t-81.5 176h-76v61h69q-2 34 -2 52q0 26 1 39z" />
    <glyph glyph-name="afii61352" unicode="&#x2116;" horiz-adv-x="1022" 
d="M91 0v703h102l268 -552v552h80v-703h-88l-282 580v-580h-80zM795 275q-81 0 -128.5 55.5t-47.5 149.5q0 96 48.5 155t127.5 59q80 0 128.5 -56t48.5 -149q0 -99 -47.5 -156.5t-129.5 -57.5zM796 334q29 0 48.5 13t28.5 37t12.5 48.5t3.5 57.5q0 144 -94 144t-94 -151
q0 -149 95 -149zM640 142v69h312v-69h-312z" />
    <glyph glyph-name="trademark" unicode="&#x2122;" horiz-adv-x="639" 
d="M304 422v281h87l56 -205l53 205h87v-281h-57v215l-60 -215h-52l-59 215v-215h-55zM118 422v235h-73v46h203v-46h-72v-235h-58z" />
    <glyph glyph-name="Omega" unicode="&#x2126;" horiz-adv-x="703" 
d="M352 713q132 0 210 -90t78 -231q0 -102 -47.5 -187t-124.5 -136q30 3 84 3h101v-72h-261v96q155 106 155 286q0 122 -51 190t-145 68t-145 -68t-51 -189q0 -181 154 -285v-98h-259v72h99q33 0 84 -3q-76 51 -123 136t-47 187q0 141 78 231t211 90z" />
    <glyph glyph-name="partialdiff" unicode="&#x2202;" horiz-adv-x="557" 
d="M263 -13q-93 0 -149.5 62t-56.5 160q0 97 52 158t141 61q93 0 154 -72v31q0 66 -14 116.5t-51.5 86t-96.5 35.5q-63 0 -117 -41l-41 55q71 59 158 59q68 0 117.5 -26t79 -74t43.5 -110t14 -139q0 -75 -11 -136t-36.5 -114t-72.5 -82.5t-113 -29.5zM266 55q38 0 66 19.5
t42.5 53.5t21.5 72t7 83q-63 74 -141 74q-58 0 -87 -40t-29 -108q0 -69 30.5 -111.5t89.5 -42.5z" />
    <glyph glyph-name="Delta" unicode="&#x2206;" horiz-adv-x="587" 
d="M25 0l213 703h114l211 -703h-538zM133 70h321l-159 561z" />
    <glyph glyph-name="product" unicode="&#x220f;" horiz-adv-x="700" 
d="M91 -178v881h518v-881h-88v809h-342v-809h-88z" />
    <glyph glyph-name="summation" unicode="&#x2211;" horiz-adv-x="627" 
d="M44 -179v64l283 382l-273 373v63h497v-72h-391l267 -365l-279 -373h417v-72h-521z" />
    <glyph glyph-name="minus" unicode="&#x2212;" horiz-adv-x="600" 
d="M63 257v72h474v-72h-474z" />
    <glyph glyph-name="radical" unicode="&#x221a;" horiz-adv-x="610" 
d="M253 -178l-145 311h-85v72h146l125 -285l180 783h87l-210 -881h-98z" />
    <glyph glyph-name="infinity" unicode="&#x221e;" horiz-adv-x="834" 
d="M206 192q-73 0 -115.5 43t-42.5 115q0 71 45.5 115t115.5 44q39 0 77 -17.5t63.5 -38t66.5 -58.5q65 62 109 88t105 26q71 0 113.5 -42.5t42.5 -113.5t-45 -116t-115 -45q-55 0 -101 28t-109 86q-45 -42 -69.5 -62t-62 -36t-78.5 -16zM626 257q38 0 61.5 26t23.5 67
q0 42 -24 68.5t-64 26.5q-64 0 -163 -95q97 -93 166 -93zM211 257q26 0 58 16.5t52.5 33t50.5 43.5q-97 95 -165 95q-38 0 -62 -26t-24 -67q0 -42 24.5 -68.5t65.5 -26.5z" />
    <glyph glyph-name="integral" unicode="&#x222b;" horiz-adv-x="366" 
d="M85 -183q-41 0 -71 7l8 69q39 -6 54 -6q34 0 48.5 21.5t14.5 68.5v580q0 76 35 117.5t107 41.5q41 0 71 -7l-8 -69q-30 5 -54 5q-34 0 -48.5 -21t-14.5 -68v-580q0 -76 -35 -117.5t-107 -41.5z" />
    <glyph glyph-name="approxequal" unicode="&#x2248;" horiz-adv-x="600" 
d="M115 314l-57 33q45 99 140 99q37 0 108.5 -29t96.5 -29q29 0 45.5 13.5t36.5 47.5l57 -33q-46 -102 -140 -102q-38 0 -109 28.5t-96 28.5q-29 0 -44.5 -11.5t-37.5 -45.5zM115 139l-57 32q45 100 140 100q37 0 108.5 -29t96.5 -29q29 0 45.5 13t36.5 47l57 -33
q-47 -102 -140 -102q-38 0 -109 29t-96 29q-29 0 -44.5 -12t-37.5 -45z" />
    <glyph glyph-name="notequal" unicode="&#x2260;" horiz-adv-x="600" 
d="M294 347h-205v71h245l76 137l55 -30l-60 -107h105v-71h-144l-62 -111h206v-73h-247l-73 -132l-56 28l58 104h-103v73h143q29 50 62 111z" />
    <glyph glyph-name="lessequal" unicode="&#x2264;" horiz-adv-x="600" 
d="M537 177l-474 174v72l474 166v-80l-369 -121l369 -133v-78zM63 37v72h474v-72h-474z" />
    <glyph glyph-name="greaterequal" unicode="&#x2265;" horiz-adv-x="600" 
d="M63 177v80l369 121l-369 133v78l474 -174v-72zM63 37v72h474v-72h-474z" />
    <glyph glyph-name="lozenge" unicode="&#x25ca;" horiz-adv-x="541" 
d="M234 -179l-206 441l207 441h70l209 -441l-209 -441h-71zM269 -81l154 343l-153 342l-151 -342z" />
    <glyph glyph-name="commaaccent" unicode="&#xf6c3;" horiz-adv-x="269" 
d="M99 504l-22 29q27 21 37.5 35t10.5 31q-19 0 -34 14.5t-15 35.5q0 23 14.5 38.5t37.5 15.5q25 0 41 -18.5t16 -49.5q0 -78 -86 -131z" />
    <glyph glyph-name="apple" unicode="&#xf8ff;" horiz-adv-x="593" 
d="M125 99l-51 52l67 73q-37 51 -37 114t37 114l-67 73l51 51l69 -75q48 29 102 29q53 0 101 -28l69 74l54 -51l-68 -74q37 -50 37 -113t-37 -114l68 -74l-54 -51l-69 75q-48 -28 -101 -28q-54 0 -101 29zM296 212q52 0 86.5 36.5t34.5 89.5t-34.5 90t-86.5 37
q-51 0 -86 -37t-35 -90t35 -89.5t86 -36.5z" />
    <glyph glyph-name="uniFB01" unicode="&#xfb01;" horiz-adv-x="582" 
d="M450 587q-24 0 -40.5 16t-16.5 39t16.5 39t40.5 16t40 -16t16 -39t-16 -39t-40 -16zM110 441h-71v62h71v55q0 75 35 116.5t107 41.5q37 0 71 -6l-8 -70q-33 5 -54 5q-34 0 -48.5 -21t-14.5 -66v-55h107v-62h-107v-441h-88v441zM406 0v503h88v-503h-88z" />
    <glyph glyph-name="uniFB02" unicode="&#xfb02;" horiz-adv-x="583" 
d="M110 441h-71v62h71v55q0 75 35 116.5t107 41.5q37 0 71 -6l-8 -70q-33 5 -54 5q-34 0 -48.5 -21t-14.5 -66v-55h107v-62h-107v-441h-88v441zM406 0v703h88v-703h-88z" />
    <glyph glyph-name="breve.cyrillic" horiz-adv-x="357" 
d="M186 568q-157 0 -167 141h70q13 -84 97 -84t97 84h70q-10 -141 -167 -141z" />
    <glyph glyph-name="commadilla" horiz-adv-x="256" 
d="M183 -91q0 -81 -90 -127l-19 29q45 31 45 64q-20 0 -34.5 12.5t-14.5 34.5t15.5 34.5t38.5 12.5q26 0 42.5 -16t16.5 -44z" />
    <glyph glyph-name="commadilla.rotate" horiz-adv-x="256" 
d="M74 629q0 81 90 127l19 -29q-45 -31 -45 -64q21 0 35 -13t14 -34t-15 -34t-37 -13q-26 0 -43.5 16t-17.5 44z" />
    </font>
</defs>
</svg>
