<?xml version="1.0" encoding="utf-8"?>
<!-- Generator: Adobe Illustrator 23.0.2, SVG Export Plug-In . SVG Version: 6.00 Build 0)  -->
<svg version="1.1" id="Capa_1" xmlns="http://www.w3.org/2000/svg" xmlns:xlink="http://www.w3.org/1999/xlink" x="0px" y="0px"
	 viewBox="0 0 1021 284" style="enable-background:new 0 0 1021 284;" xml:space="preserve">
<style type="text/css">
	.st0{fill:#FFFFFF;}
	.st1{fill:#F5BA27;}
</style>
<g>
	<path class="st0" d="M302.28,225.46c-23.31,0-38.17-8.96-44.94-14.3l-0.7-0.55l0.48-0.76l9.72-15.36l0.56-0.88l0.85,0.62
		c5.66,4.19,17.55,11.23,33.69,11.23c13.87,0,21.83-6.08,21.83-16.68c0-11.66-9.37-14.99-26.34-21.02l-2-0.72
		c-17.02-5.98-32.79-14.72-32.79-38.05c0-20.97,15.98-34.52,40.72-34.52c14.66,0,26.05,2.7,35.83,8.51l0.78,0.46l-0.39,0.81
		l-7.77,16.24l-0.44,0.92l-0.89-0.46c-8.34-4.32-17.34-6.51-26.75-6.51c-8.83,0-19.34,2.44-19.34,14.01
		c0,11.33,8.27,14.09,24.76,19.58c17.93,5.91,37.06,14.38,37.06,40.39C346.18,211.62,329.77,225.46,302.28,225.46"/>
	<path class="st0" d="M363.73,257.04c-4.26,0-8.31-0.5-13.11-1.62l-0.88-0.2l0.14-0.91l2.3-15.18l0.13-0.94l0.94,0.12l1.5,0.19
		c2.3,0.28,4.11,0.53,6.69,0.53c8.63,0,14.15-3.3,17.84-10.69l-32.36-96.15l-0.45-1.3h1.37h21.9h0.73l0.21,0.72l18.79,67.95
		l16.77-67.92l0.18-0.75h0.78h20.66h1.32l-0.39,1.27l-28.79,95.11C393.9,247.59,382.37,257.04,363.73,257.04"/>
	<path class="st0" d="M561.01,223.86h-0.98h-21.2h-0.97v-0.98v-61.22c0-7.76-1.59-12.94-9.26-12.94c-5.3,0-11.49,3.2-17.93,9.27
		v64.89v0.98h-0.98H488.5h-0.97v-0.98v-61.22c0-7.76-1.59-12.94-9.28-12.94c-5.63,0-12.15,3.49-17.93,9.6v64.56v0.98h-0.97h-21.2
		h-0.97v-0.98v-91.02v-0.98h0.97h12.89h0.71l0.22,0.68l4.08,12.66c9.59-10.3,19.29-15.31,29.61-15.31
		c13.12,0,18.48,7.24,21.52,14.05c6.47-6.65,16.44-14.05,28.83-14.05c20.66,0,25,17.91,25,32.94v61.04V223.86z"/>
	<path class="st0" d="M601,225.46c-17,0-28.87-11.05-28.87-26.86c0-10.17,3.51-17.3,11.02-22.42c7.67-5.28,20.42-9.11,40.03-11.98
		v-2.36c0-10.2-3.67-14-13.52-14c-8.43,0-16.92,3.55-24.83,7.4l-0.85,0.42l-0.44-0.85l-7.42-14.09l-0.43-0.82l0.78-0.49
		c11.66-7.26,22.49-10.49,35.14-10.49c22.72,0,34.72,11.87,34.72,34.36v59.6v0.98h-0.98h-12.9h-0.64l-0.26-0.6l-3.86-9.03
		C621.92,219.56,612.87,225.46,601,225.46 M623.18,179.82c-15.16,2.97-22.62,5.77-25.63,9.58c-1.88,2.2-2.45,4.01-2.45,7.78
		c0,6.93,3.69,10.6,10.68,10.6c5.78,0,12.24-2.47,17.4-6.62V179.82z"/>
	<path class="st0" d="M741.7,223.86h-0.98h-21.19h-0.98v-0.98v-61.22c0-9.06-3.15-12.94-10.49-12.94c-6.18,0-13.42,3.75-18.99,9.76
		v64.39v0.98h-0.98h-21.2h-0.98v-0.98v-91.02v-0.98h0.98h12.9h0.71l0.21,0.68l4.07,12.82c9.54-10.41,19.58-15.47,30.68-15.47
		c17.41,0,26.23,11.08,26.23,32.94v61.04V223.86z"/>
	<path class="st0" d="M790.02,225.46c-18.13,0-26.95-9.07-26.95-27.75v-50.04h-12.46h-0.97v-0.99v-14.8v-0.99h0.97h12.95l4.11-25.24
		l0.13-0.83h0.83h16.62h0.97v0.99v25.08h18.45h0.98v0.99v14.8v0.99h-0.98h-18.45v48.8c0,7.97,1.35,10.8,8.92,10.8
		c2.29,0,5.9-0.67,9.44-1.75l1.05-0.32l0.19,1.1l2.65,14.81l0.14,0.79l-0.74,0.31C805.47,223.17,798.93,225.46,790.02,225.46"/>
	<path class="st0" d="M853.95,225.46c-25.77,0-41.78-18.22-41.78-47.56c0-29.77,15.78-48.99,40.2-48.99
		c24.75,0,38.95,17.93,38.95,49.17v5.54v0.99h-0.97H836.1c1.26,15.03,7.28,21.76,19.45,21.76c9.95,0,16.53-3.72,23.5-8.22l0.82-0.53
		l0.53,0.84l8.48,13.38l0.48,0.76l-0.7,0.55C880.02,219.87,871.46,225.46,853.95,225.46 M836.29,169.24h31.32
		c-0.54-15.35-5.52-22.83-15.24-22.83C842.84,146.41,837.57,153.88,836.29,169.24"/>
	<path class="st0" d="M942.62,225.46c-30.67,0-41.61-24.57-41.61-47.56c0-22.59,10.89-48.99,41.61-48.99
		c12.67,0,21.52,3.05,29.61,10.24l0.66,0.58l-0.5,0.73l-9.71,14.1l-0.58,0.83l-0.81-0.6c-5.08-3.85-10.17-6.42-18.49-6.42
		c-11.9,0-17.92,9.88-17.92,29.36c0,19.15,6.04,28.47,18.45,28.47c8.19,0,13.52-3.12,18.97-7.81l0.78-0.67l0.63,0.82l10.07,13.03
		l0.52,0.68l-0.59,0.61C965.39,221.45,955.52,225.46,942.62,225.46"/>
	<path class="st1" d="M121.95,275.57C58.58,275.56,7,223.46,6.99,159.43C7,95.4,58.58,43.3,121.95,43.29
		c63.38,0.01,114.96,52.11,114.96,116.14C236.91,223.46,185.33,275.56,121.95,275.57 M121.95,80.03c-20.97,0-40.71,8.26-55.57,23.25
		c-14.84,15.01-23.02,34.95-23.02,56.14c0,21.19,8.19,41.14,23.03,56.15c14.85,14.98,34.58,23.25,55.56,23.25
		c20.99,0,40.73-8.27,55.59-23.27c14.82-14.99,23.01-34.94,23.01-56.13c0-21.2-8.19-41.13-23.01-56.15
		C162.67,88.29,142.92,80.03,121.95,80.03"/>
	<path class="st0" d="M990.85,210.66h-3.6v-2.29h10.01v2.29h-3.54v11.71h-2.86V210.66z M1000.03,208.37h4.29l2.76,10.22l2.62-10.22
		h4.3v14h-2.81v-10.72l-2.97,10.72h-2.56l-2.92-10.72v10.72h-2.7V208.37z"/>
	<rect x="247.18" y="25.41" class="st1" width="8.97" height="9.04"/>
	<rect x="247.18" y="7.36" class="st1" width="8.97" height="9.07"/>
	<rect x="221.96" y="34.39" class="st1" width="8.38" height="8.84"/>
	<rect x="205.37" y="51.76" class="st0" width="8.44" height="8.45"/>
	<rect x="230.34" y="43.24" class="st0" width="9.38" height="8.52"/>
	<rect x="196.97" y="43.66" class="st0" width="8.41" height="8.1"/>
	<rect x="221.96" y="51.76" class="st0" width="8.38" height="8.45"/>
	<rect x="238.32" y="16.43" class="st0" width="8.86" height="8.97"/>
	<rect x="221.96" y="25.41" class="st0" width="16.35" height="8.98"/>
	<rect x="213.81" y="34.39" class="st0" width="8.15" height="17.37"/>
	<path class="st0" d="M213.81,60.21v8.52h-8.44v-8.52h-14v6.14h-7.52v7.58h8.39v8.44h-8.39v-8.44h-8.9v13.24h-8.43v8.45h-5.59v8.48
		h-6.15c-6.91,10.38-24.21,42.71-29.45,55.89c-18.85-26.52-33.49-37.03-45.02-40.83c-6.23-1.9-13.73,4.95-3.38,15.72
		c23.72,26.36,31.19,48.18,38.41,65.6c3.81,9.19,20.92,10.6,24.36,1.26c7.3-19.77,17.89-41.96,30.42-60.2v-9.44h6.7v-8.52h7.03
		v-9.87h8.42v-9.52h-8.5v-8.65h8.5v8.65h8.33l-0.03-8.57h6.68V85.28h7.49v-7.11h7.23V60.21H213.81z"/>
</g>
</svg>
